<svg xmlns="http://www.w3.org/2000/svg" viewBox="0 0 540.68 175.21"><defs><style>.cls-1{fill:#de5c11;}.cls-2{fill:#fdd196;}.cls-3{fill:#b45717;}.cls-4{fill:#903a14;}.cls-5{fill:#5f220c;}.cls-6{fill:#ffeace;}.cls-7{fill:#f08210;}.cls-8{fill:#d55314;}.cls-9{fill:#914018;}.cls-10{fill:#d95b13;}.cls-11{fill:#f6a01e;}.cls-12{fill:#fbbb3c;}.cls-13{fill:#1d1d1b;}</style></defs><g id="Capa_2" data-name="Capa 2"><g id="Capa_1-2" data-name="Capa 1"><path class="cls-1" d="M120.41,111c-.56,0-1.14,0-1.73,0s-5.13-.12-7.74-.49a117.23,117.23,0,0,1-13-2.47c-9-2.3-15.64-5.54-21-10.19a30.26,30.26,0,0,1-5.19-5.73,4.76,4.76,0,0,1-3.86-2.25,21.54,21.54,0,0,1-3.6-16.53,23.39,23.39,0,0,1,1-3.65q-.37-.33-.75-.69a5.49,5.49,0,0,1-1.83-4.1,5.63,5.63,0,0,1,2.27-4l.67-.56c1.12-.93,2.17-1.81,3.14-2.73a15.41,15.41,0,0,0,3.14-4.67c-.63-.65-1.23-1.29-1.82-2a20.56,20.56,0,0,1-4.71-16.66A17.7,17.7,0,0,1,74,21.36a19.31,19.31,0,0,1,10.17-2.8,24.88,24.88,0,0,1,2.95.19A19.26,19.26,0,0,1,99.28,25c.49.55.93,1.1,1.34,1.65a58.73,58.73,0,0,1,13.48-3.27l.26,0c2.19-.2,3.28-.3,4.5-.3s2.32.1,4.51.3l.26,0a58.85,58.85,0,0,1,13.48,3.27c.41-.55.84-1.1,1.34-1.65a19.26,19.26,0,0,1,12.21-6.21,24.88,24.88,0,0,1,3-.19,19.34,19.34,0,0,1,10.17,2.8,17.7,17.7,0,0,1,8.61,12.81,20.53,20.53,0,0,1-4.72,16.66c-.58.72-1.18,1.36-1.81,2A15.41,15.41,0,0,0,169,57.51c1,.92,2,1.8,3.14,2.73l.67.56a5.63,5.63,0,0,1,2.27,4,5.49,5.49,0,0,1-1.83,4.1c-.25.24-.5.47-.76.69a22.31,22.31,0,0,1-2.62,20.18A4.76,4.76,0,0,1,166,92.06a30,30,0,0,1-5.2,5.73c-5.38,4.65-12.05,7.89-21,10.19a117.67,117.67,0,0,1-13,2.47A45.4,45.4,0,0,1,120.41,111Zm-1.24-10.31a30.66,30.66,0,0,0,6.37-.86c.62-.14,1.44-.29,2.41-.47a76.79,76.79,0,0,0,10.77-2.6,53.77,53.77,0,0,0,13-6.62c1.35-1.11,8-6.91,5.88-11.77A4,4,0,0,1,160,73a25.08,25.08,0,0,0-2.49-3.31A4,4,0,0,1,158,64a31.16,31.16,0,0,1-2.12-3.61c-.59-1.15-1.17-2.3-1.74-3.46-.68-1.36-1.35-2.71-2.06-4.06l-.64-1.24c-2.07-4-3.86-7.43-7.31-9.62a4,4,0,0,1-1.44-1.6,4,4,0,0,1-1.4.26,4.06,4.06,0,0,1-2-.52c-6.51-3.69-14.1-5.91-20.31-5.93h-.1c-7.42,0-15.47,3.06-20.53,5.93a4,4,0,0,1-2,.52A3.93,3.93,0,0,1,95,40.37,4,4,0,0,1,93.59,42c-3.45,2.19-5.24,5.63-7.31,9.62l-.64,1.24c-.71,1.35-1.39,2.7-2.06,4.06-.57,1.16-1.15,2.31-1.74,3.46A31.16,31.16,0,0,1,79.72,64a4.11,4.11,0,0,1,1.33,1.93,4,4,0,0,1-.78,3.81A25.76,25.76,0,0,0,77.78,73a4.09,4.09,0,0,1,1.22.68,4,4,0,0,1,1.14,4.67c-1.85,4.34,2.91,9.26,5.92,11.8a53.14,53.14,0,0,0,15.22,7.22c6.88,1.79,15.66,3.29,17.52,3.29h.37Z"/><path class="cls-1" d="M430.17,109.26h-.29a30.85,30.85,0,0,1-9.1-2.09,19.17,19.17,0,0,0-3.11-.82c-.8-.17-1.63-.34-2.48-.57-1.22-.33-2.42-.62-3.61-.92-5.48-1.34-11.14-2.74-16.39-6.89a24,24,0,0,1-5.48-6.1,4,4,0,0,1-2.57-1.35l-.39-.43a14.09,14.09,0,0,1-1.07-1.29,17.91,17.91,0,0,1-3-8.55,24.45,24.45,0,0,1,1.25-10.85c-.25-.29-.5-.6-.75-.94-2-2.74-1.72-5.4.83-7.88l.28-.27a46.25,46.25,0,0,0,3.84-4,22.79,22.79,0,0,0,2.4-3.83,21.12,21.12,0,0,1-5.94-11.92,22.16,22.16,0,0,1,1.88-13.94c2.78-5.51,7.33-8.42,13.15-8.42h.3c4,.07,7.72,1.69,11.29,4.93.64.59,1.25,1.19,1.84,1.79a36.36,36.36,0,0,1,10.53-2.64c1.85-.17,6.44-.19,7.8-.19s5.95,0,7.8.19a36.36,36.36,0,0,1,10.53,2.64c.59-.6,1.2-1.2,1.84-1.79,3.57-3.24,7.26-4.86,11.29-4.93h.3c5.82,0,10.37,2.91,13.15,8.42a22.09,22.09,0,0,1,1.87,13.94,21,21,0,0,1-5.93,11.92,22.79,22.79,0,0,0,2.4,3.83,43.28,43.28,0,0,0,3.83,4l.29.28c2.55,2.49,2.83,5.14.83,7.88-.25.34-.5.65-.75.94a24.45,24.45,0,0,1,1.25,10.85,17.91,17.91,0,0,1-3,8.55A11.45,11.45,0,0,1,476,90.07l-.38.44a4,4,0,0,1-2.58,1.35,24,24,0,0,1-5.48,6.1c-5.26,4.16-10.91,5.56-16.37,6.91-1.17.29-2.35.58-3.55.9-.86.23-1.68.41-2.48.57a19.17,19.17,0,0,0-3.11.82,30.85,30.85,0,0,1-9.1,2.09h-2.81Zm-14.68-20a4,4,0,0,1,2.11.6l0,0a4.65,4.65,0,0,1,.9.66,31.71,31.71,0,0,0,8.68,5.87,7,7,0,0,0,3,.61h2.44a7,7,0,0,0,3-.61,31.73,31.73,0,0,0,8.69-5.88,4.84,4.84,0,0,1,.88-.65,4,4,0,0,1,5,.56,3.92,3.92,0,0,1,.94,1.49,22.09,22.09,0,0,0,8.95-5.84A4,4,0,0,1,463,84.86a3.56,3.56,0,0,1,.8.08A12.9,12.9,0,0,0,465,76.21a4,4,0,0,1,2-4.48,4.11,4.11,0,0,1,1.23-.44,32.73,32.73,0,0,0-1.79-3.43,4,4,0,0,1-.3-3.44,4.21,4.21,0,0,1,.31-.64A40.91,40.91,0,0,1,459.81,52a45.63,45.63,0,0,0-5.07-10.25,4.66,4.66,0,0,1-.32-4.91l.78-1.37-.17.15a5.73,5.73,0,0,1-3.85,1.52,6.24,6.24,0,0,1-2.72-.65,30.43,30.43,0,0,0-8.37-2.71c-1.33-.21-2.36-.35-3.16-.44-.16,2.52-.26,6.35-.35,9.41-.15,5.15-.32,11-.7,15.11a4,4,0,0,1-4,3.62h-.17a4,4,0,0,1-3.84-4c-.11-9-.49-19.57-1-24.22-1.45.08-3.1.29-4.24.47a30.48,30.48,0,0,0-8.36,2.71,6.27,6.27,0,0,1-2.72.65,5.73,5.73,0,0,1-3.85-1.52l-.16-.15.77,1.37a4.66,4.66,0,0,1-.31,4.9A45.52,45.52,0,0,0,403,52a40.91,40.91,0,0,1-6.56,11.74,4.21,4.21,0,0,1,.31.64,4,4,0,0,1-.3,3.44,35.22,35.22,0,0,0-1.78,3.39,4,4,0,0,1,1.05.39l.1,0a4.09,4.09,0,0,1,2,4.52A12.9,12.9,0,0,0,399,84.94a3.56,3.56,0,0,1,.8-.08,4,4,0,0,1,2.93,1.28,22.15,22.15,0,0,0,9,5.85,4,4,0,0,1,3.78-2.68Z"/><path class="cls-1" d="M184.76,99.41A49.24,49.24,0,0,1,169.66,97,48,48,0,0,1,152,86.94a48,48,0,0,1-16.1-35.73,48.52,48.52,0,0,1,3.41-18,49.29,49.29,0,0,1,9.45-15.16A47.52,47.52,0,0,1,181.7,2.65l1.05,0h2.63A49.62,49.62,0,0,1,201.1,5.18a22.39,22.39,0,0,1,15.21,18.18l2,14a22.6,22.6,0,0,1-2.27,13.51,22.7,22.7,0,0,1,2.41,13.67l-1.9,13.51a22.44,22.44,0,0,1-12.94,17.36A41.61,41.61,0,0,1,190,99.13,50.19,50.19,0,0,1,184.76,99.41Z"/><path class="cls-1" d="M203.16,98a22.56,22.56,0,0,1-22.53-22.54V26.21A22.44,22.44,0,0,1,201,3.78l13.27-1.29c.72-.07,1.45-.1,2.17-.1A22.54,22.54,0,0,1,239,24.93V41.29a22.54,22.54,0,0,1,18.56,28.28l-3.23,11.8A22.6,22.6,0,0,1,232.56,98Z"/><path class="cls-1" d="M252.61,100.83a22.81,22.81,0,0,1-5-.56L235,97.39a22.53,22.53,0,0,1-15.08-32.22l27-52.87a22.53,22.53,0,0,1,40.14,0l27,52.87a22.53,22.53,0,0,1-15.28,32.29l-12.65,2.74A22.52,22.52,0,0,1,267,95.62,22.71,22.71,0,0,1,252.61,100.83Z"/><path class="cls-1" d="M316.37,99.35a45.47,45.47,0,0,1-15.87-2.77,51.35,51.35,0,0,1-11.12-5.39,39.69,39.69,0,0,1-6.59-5.06,22.44,22.44,0,0,1-1.56-30.22,37,37,0,0,1-3.05-15.23V40a36.81,36.81,0,0,1,5.89-19.6A38.09,38.09,0,0,1,298.32,7.17,40.52,40.52,0,0,1,316.49,2.4h.94c12.76,0,24,4.53,32.64,13.11a22.41,22.41,0,0,1,3.18,28A42.09,42.09,0,0,1,357,60.19c0,.21,0,.44,0,.67v.73a36.2,36.2,0,0,1-5.32,19.16l-.11.18a37.74,37.74,0,0,1-15.34,13.85,45.75,45.75,0,0,1-18.8,4.56h-1.11Z"/><path class="cls-1" d="M369.85,99.05a22.54,22.54,0,0,1-9.26-2,21.45,21.45,0,0,1-4.37.81L343.07,99c-.63.06-1.26.08-1.89.08a22.54,22.54,0,0,1-22.53-22.54V26.21A22.66,22.66,0,0,1,339.4,3.74l13.15-1c.59-.05,1.19-.07,1.78-.07a22.62,22.62,0,0,1,9.18,2,22.21,22.21,0,0,1,4.36-.82l13.21-1.17c.67,0,1.33-.08,2-.08A22.55,22.55,0,0,1,405.6,25.05V75.41a22.67,22.67,0,0,1-20.66,22.46L371.73,99C371.11,99,370.48,99.05,369.85,99.05Z"/><path class="cls-1" d="M48.88,172.76a49.3,49.3,0,0,1-15.11-2.37,47.92,47.92,0,0,1-17.66-10.1A47,47,0,0,1,4.26,144.17,46.74,46.74,0,0,1,0,124.55a48.71,48.71,0,0,1,3.41-17.94,49.41,49.41,0,0,1,9.45-15.16A47.52,47.52,0,0,1,45.8,76l1.06,0h2.63a49.64,49.64,0,0,1,15.73,2.56A22.39,22.39,0,0,1,80.42,96.7l2,14a22.77,22.77,0,0,1-2.27,13.52,22.68,22.68,0,0,1,2.4,13.67l-1.9,13.51a22.45,22.45,0,0,1-12.93,17.36,41.86,41.86,0,0,1-13.59,3.72A50.49,50.49,0,0,1,48.88,172.76Z"/><path class="cls-1" d="M93.06,172.58h-.69a51.88,51.88,0,0,1-19.19-4.16,48.84,48.84,0,0,1-15.83-10.9A46.72,46.72,0,0,1,47,141.09a49.32,49.32,0,0,1-3-17v-1.54A47.15,47.15,0,0,1,51.4,98.28,48,48,0,0,1,69.82,81.37a49.71,49.71,0,0,1,23.49-5.75h.24A49.24,49.24,0,0,1,136,100.09a48,48,0,0,1,6.47,24.29v.8a47.66,47.66,0,0,1-7.27,24.4,49,49,0,0,1-41.43,23Z"/><path class="cls-1" d="M155.22,175.21a22.88,22.88,0,0,1-11.31-3.12,22.81,22.81,0,0,1-5.23.61,23.5,23.5,0,0,1-2.52-.14l-12.53-1.4a22.54,22.54,0,0,1-19.31-28.06l13.44-51.83a22.64,22.64,0,0,1,19.56-16.76,21.11,21.11,0,0,1,2.26-.12A22.71,22.71,0,0,1,155.7,81.2a22.41,22.41,0,0,1,16-6.69,23.54,23.54,0,0,1,2.53.14,22.64,22.64,0,0,1,19.33,16.89l13,51.59a22.54,22.54,0,0,1-19.89,28l-12.66,1.11c-.65.05-1.32.08-2,.08a22.4,22.4,0,0,1-4.77-.51,22.61,22.61,0,0,1-12,3.44Z"/><path class="cls-1" d="M219.34,175.21a22.87,22.87,0,0,1-11.3-3.12,22.94,22.94,0,0,1-5.23.61,23.54,23.54,0,0,1-2.53-.14l-12.53-1.4a22.54,22.54,0,0,1-19.31-28.06l13.44-51.83a22.64,22.64,0,0,1,19.56-16.76,21.29,21.29,0,0,1,2.27-.12,22.7,22.7,0,0,1,16.11,6.81,22.41,22.41,0,0,1,16-6.69,23.54,23.54,0,0,1,2.53.14,22.64,22.64,0,0,1,19.33,16.89l13,51.59a22.54,22.54,0,0,1-19.9,28l-12.65,1.11c-.66.05-1.32.08-2,.08a22.4,22.4,0,0,1-4.77-.51,22.58,22.58,0,0,1-12,3.44Z"/><path class="cls-1" d="M273.52,172.82a45.06,45.06,0,0,1-19.07-4,38.2,38.2,0,0,1-16.84-15,40,40,0,0,1-5.89-21.44V99.44A22.43,22.43,0,0,1,252.23,77l12.9-1.16c.67-.06,1.34-.09,2-.09a22.54,22.54,0,0,1,9,1.88,21.15,21.15,0,0,1,3.17-.51l13-1.16a19.31,19.31,0,0,1,2-.09A22.53,22.53,0,0,1,316.9,98.39V131c0,16.19-7.26,25.88-13.35,31.15-7.61,6.7-17.16,10.31-28.35,10.69h-1.68Z"/><path class="cls-1" d="M343.8,174.77A22.47,22.47,0,0,1,328.75,169l-2.37-2.12A22.61,22.61,0,0,1,315,171.21l-12.66,1.1c-.64.06-1.3.09-2,.09a22.53,22.53,0,0,1-22.54-22.54V96.26a22.54,22.54,0,0,1,37.69-16.69l2.26,2.05a22.74,22.74,0,0,1,11.32-4.48l12.41-1.28a22.53,22.53,0,0,1,24.85,22.41v54a22.52,22.52,0,0,1-22.53,22.53Z"/><path class="cls-1" d="M353.09,172.28a22.53,22.53,0,0,1-22.53-22.54V99.56a22.46,22.46,0,0,1,20.25-22.42l12.59-1.29a22.07,22.07,0,0,1,2.29-.11,22.53,22.53,0,0,1,22.54,22.53v50.49a22.65,22.65,0,0,1-20.78,22.47l-12.6,1C354.26,172.26,353.68,172.28,353.09,172.28Z"/><path class="cls-1" d="M387.76,172.4a22.53,22.53,0,0,1-22.54-22.54V132a22.53,22.53,0,0,1-12.44-26.58l3.3-11.86A22.6,22.6,0,0,1,377.79,77H412.7a22.56,22.56,0,0,1,22.53,22.54v11.86A22.64,22.64,0,0,1,423,131.49v17.27a22.4,22.4,0,0,1-20.58,22.45l-12.65,1.1C389.07,172.37,388.41,172.4,387.76,172.4Z"/><path class="cls-1" d="M421.74,172.28a22.54,22.54,0,0,1-22.54-22.54V99.56a22.47,22.47,0,0,1,20.25-22.42l12.6-1.29a21.88,21.88,0,0,1,2.28-.11,22.53,22.53,0,0,1,22.54,22.53v50.49a22.65,22.65,0,0,1-20.78,22.47l-12.59,1C422.91,172.26,422.32,172.28,421.74,172.28Z"/><path class="cls-1" d="M443.14,171.3a22.56,22.56,0,0,1-22.54-22.54V99.56A22.56,22.56,0,0,1,443.14,77h29.34a22.43,22.43,0,0,1,22,17.48l2.5,10.88a22.41,22.41,0,0,1-3.44,17.91c.31.36.61.73.89,1.11a22.63,22.63,0,0,1,3.54,19.91l-3.24,10.88a22.69,22.69,0,0,1-21.6,16.11Z"/><path class="cls-1" d="M500,172.7a45.55,45.55,0,0,1-15.87-2.77A51.35,51.35,0,0,1,473,164.54a38.54,38.54,0,0,1-6.58-5.07,22.41,22.41,0,0,1-1.56-30.21A36.89,36.89,0,0,1,461.8,114v-.69a36.8,36.8,0,0,1,5.89-19.59,38.09,38.09,0,0,1,14.25-13.23,40.66,40.66,0,0,1,18.17-4.78h.95c12.76,0,24,4.53,32.64,13.11a22.42,22.42,0,0,1,3.17,28,42.25,42.25,0,0,1,3.8,16.73c0,.22,0,.45,0,.68v.73a36.15,36.15,0,0,1-5.33,19.16l-.11.18a37.68,37.68,0,0,1-15.34,13.85,45.71,45.71,0,0,1-18.8,4.56H500Z"/><path d="M184.76,93.78a43.6,43.6,0,0,1-13.37-2.1,42.65,42.65,0,0,1-15.64-8.93,42.09,42.09,0,0,1-10.47-14.23,41.36,41.36,0,0,1-3.76-17.31,43.09,43.09,0,0,1,3-15.88,43.75,43.75,0,0,1,8.37-13.43,42.47,42.47,0,0,1,12.87-9.56A41.9,41.9,0,0,1,182,8.28l.79,0h2.63a44.18,44.18,0,0,1,13.94,2.26,16.91,16.91,0,0,1,11.41,13.64l2,14a16.88,16.88,0,0,1-3.37,12.75,16.88,16.88,0,0,1,3.49,12.85L211,77.27a16.91,16.91,0,0,1-9.7,13,36.29,36.29,0,0,1-11.75,3.23A45,45,0,0,1,184.76,93.78Z"/><path d="M203.16,92.31a16.9,16.9,0,0,1-16.9-16.9V26.21A16.91,16.91,0,0,1,201.54,9.38L214.8,8.1c.55,0,1.09-.08,1.63-.08a16.9,16.9,0,0,1,16.9,16.91V46.7h2.47a16.91,16.91,0,0,1,16.3,21.38l-3.24,11.8a16.9,16.9,0,0,1-16.3,12.43Z"/><path d="M252.61,95.2a16.75,16.75,0,0,1-3.76-.43L236.2,91.89a16.9,16.9,0,0,1-11.31-24.16l27-52.87a16.91,16.91,0,0,1,15-9.23h0a16.9,16.9,0,0,1,15,9.22l27,52.87a16.91,16.91,0,0,1-11.47,24.21l-12.64,2.74a16.4,16.4,0,0,1-3.6.39A16.89,16.89,0,0,1,267,87.18,16.93,16.93,0,0,1,252.61,95.2Z"/><path d="M316.37,93.72a40,40,0,0,1-13.91-2.42,46.46,46.46,0,0,1-10-4.82,34.22,34.22,0,0,1-5.7-4.35,16.9,16.9,0,0,1-1.06-22.79l2.22-2.66c-.41-.72-.8-1.46-1.16-2.22a31.2,31.2,0,0,1-3-13.78V40.1a31.24,31.24,0,0,1,5-16.66A32.58,32.58,0,0,1,301,12.13,34.78,34.78,0,0,1,316.64,8h.82c11.21,0,21.11,4,28.63,11.47a16.91,16.91,0,0,1,1.06,22.79l-.55.66a35.39,35.39,0,0,1,4.81,17.41c0,.17,0,.34,0,.51v.73a30.59,30.59,0,0,1-4.5,16.22l-.1.17a32.1,32.1,0,0,1-13.06,11.76,39.87,39.87,0,0,1-16.47,4h-.92Z"/><path d="M341.18,93.42a16.9,16.9,0,0,1-16.9-16.91V26.21A16.91,16.91,0,0,1,339.85,9.36l13.14-1c.45,0,.9-.06,1.34-.06a17,17,0,0,1,8.77,2.45,17,17,0,0,1,5.27-1.34l13.2-1.16c.5-.05,1-.07,1.49-.07A16.91,16.91,0,0,1,400,25.05V75.41a16.89,16.89,0,0,1-15.49,16.84l-13.21,1.11q-.7.06-1.41.06A16.91,16.91,0,0,1,361,90.93a16.59,16.59,0,0,1-5.28,1.32L342.6,93.36C342.13,93.4,341.66,93.42,341.18,93.42Z"/><path d="M48.88,167.12A43.61,43.61,0,0,1,35.5,165a42.57,42.57,0,0,1-15.63-8.94A41.69,41.69,0,0,1,9.4,141.87a41.23,41.23,0,0,1-3.77-17.32,43.07,43.07,0,0,1,3-15.87A43.75,43.75,0,0,1,17,95.25a42.47,42.47,0,0,1,12.87-9.56,41.9,41.9,0,0,1,16.18-4.06l.79,0h2.63a44.25,44.25,0,0,1,13.95,2.26A16.93,16.93,0,0,1,74.85,97.51l2,14a16.89,16.89,0,0,1-3.36,12.76A16.94,16.94,0,0,1,77,137.11l-1.9,13.5a16.89,16.89,0,0,1-9.7,13,35.93,35.93,0,0,1-11.75,3.24A44.92,44.92,0,0,1,48.88,167.12Z"/><path d="M93.06,167h-.51a46.63,46.63,0,0,1-17.13-3.7,43,43,0,0,1-14-9.65,41.25,41.25,0,0,1-9.09-14.44,44,44,0,0,1-2.62-15.08s0-1.26,0-1.41a41.54,41.54,0,0,1,6.45-21.37A42.36,42.36,0,0,1,72.43,86.36a44.23,44.23,0,0,1,20.88-5.11h.24a43.65,43.65,0,0,1,37.6,21.67,42.41,42.41,0,0,1,5.71,21.46s0,.52,0,.66a42.07,42.07,0,0,1-6.41,21.56A43.34,43.34,0,0,1,93.79,167Z"/><path d="M155.22,169.57a16.89,16.89,0,0,1-10.39-3.67,16.69,16.69,0,0,1-6.15,1.17,17.25,17.25,0,0,1-1.89-.11l-12.54-1.4a16.92,16.92,0,0,1-14.48-21.05l13.45-51.82a16.89,16.89,0,0,1,14.66-12.58c.57,0,1.14-.08,1.7-.08a16.89,16.89,0,0,1,15.18,9.48l.91,1.84,1-2a16.89,16.89,0,0,1,15-9.22,17.41,17.41,0,0,1,1.9.1,16.92,16.92,0,0,1,14.5,12.67l13,51.58a16.91,16.91,0,0,1-14.92,21l-12.66,1.1a14.66,14.66,0,0,1-1.48.07,16.74,16.74,0,0,1-5.84-1.05,16.93,16.93,0,0,1-10.89,4Z"/><path d="M219.34,169.57A16.87,16.87,0,0,1,209,165.9a16.69,16.69,0,0,1-6.15,1.17,17.43,17.43,0,0,1-1.9-.11l-12.54-1.4a16.92,16.92,0,0,1-14.48-21.05l13.45-51.82A16.9,16.9,0,0,1,202,80.11c.56,0,1.13-.08,1.7-.08a16.92,16.92,0,0,1,15.18,9.48l.9,1.84,1-2a16.91,16.91,0,0,1,15-9.22,17.28,17.28,0,0,1,1.9.1,16.91,16.91,0,0,1,14.5,12.67l13,51.58a16.9,16.9,0,0,1-14.92,21l-12.65,1.1c-.5,0-1,.07-1.49.07a16.74,16.74,0,0,1-5.84-1.05,16.91,16.91,0,0,1-10.89,4Z"/><path d="M273.52,167.18a39.35,39.35,0,0,1-16.7-3.52,32.45,32.45,0,0,1-14.39-12.78,34.44,34.44,0,0,1-5.08-18.51V99.44A16.91,16.91,0,0,1,252.74,82.6l12.89-1.16c.51,0,1-.07,1.52-.07a16.89,16.89,0,0,1,8.48,2.28,16.73,16.73,0,0,1,4.21-.93l13-1.16c.5,0,1-.07,1.51-.07a16.91,16.91,0,0,1,16.9,16.9V131c0,14.07-6.2,22.39-11.4,26.89-6.61,5.82-15,9-24.85,9.31h-1.49Z"/><path d="M343.8,169.14a16.88,16.88,0,0,1-11.29-4.32l-6.24-5.6a16.86,16.86,0,0,1-11.8,6.38l-12.66,1.1a14.46,14.46,0,0,1-1.47.07,16.91,16.91,0,0,1-16.9-16.91V96.26A16.91,16.91,0,0,1,311.7,83.74l6.2,5.63a16.91,16.91,0,0,1,11.75-6.63l12.41-1.28A16.9,16.9,0,0,1,360.7,98.27v54a16.9,16.9,0,0,1-16.9,16.9Z"/><path d="M353.09,166.65a16.92,16.92,0,0,1-16.9-16.91V99.56a16.91,16.91,0,0,1,15.19-16.82L364,81.46a16.66,16.66,0,0,1,1.72-.09,16.9,16.9,0,0,1,16.9,16.9v50.49A16.91,16.91,0,0,1,367,165.61l-12.6,1C354,166.63,353.53,166.65,353.09,166.65Z"/><path d="M387.76,166.77a16.93,16.93,0,0,1-16.91-16.91V127.93a16.9,16.9,0,0,1-12.64-21L361.5,95a16.92,16.92,0,0,1,16.29-12.38H412.7a16.91,16.91,0,0,1,16.9,16.91v11.86a16.91,16.91,0,0,1-12.28,16.27v21.07a16.91,16.91,0,0,1-15.44,16.84l-12.65,1.1A14.46,14.46,0,0,1,387.76,166.77Z"/><path d="M421.74,166.65a16.92,16.92,0,0,1-16.91-16.91V99.56A16.92,16.92,0,0,1,420,82.74l12.6-1.28a16.32,16.32,0,0,1,1.71-.09,16.92,16.92,0,0,1,16.91,16.9v50.49a16.91,16.91,0,0,1-15.59,16.85l-12.59,1C422.62,166.63,422.18,166.65,421.74,166.65Z"/><path d="M443.14,165.66a16.91,16.91,0,0,1-16.91-16.9V99.56a16.91,16.91,0,0,1,16.91-16.91h29.34A16.91,16.91,0,0,1,489,95.76l2.5,10.88A16.91,16.91,0,0,1,488.21,121a17.68,17.68,0,0,1-1.71,1.85v1.57a16.71,16.71,0,0,1,3.38,3.39,16.92,16.92,0,0,1,2.65,14.93l-3.24,10.88a16.9,16.9,0,0,1-16.2,12.08Z"/><path d="M500,167.07a39.85,39.85,0,0,1-13.91-2.43,46,46,0,0,1-10-4.81,34.78,34.78,0,0,1-5.7-4.35,16.9,16.9,0,0,1-1.06-22.79l2.22-2.67c-.41-.71-.79-1.45-1.16-2.22a31.16,31.16,0,0,1-3-13.77s0-.51,0-.59a31.15,31.15,0,0,1,5-16.65,32.66,32.66,0,0,1,12.18-11.32,34.9,34.9,0,0,1,15.64-4.09h.82c11.21,0,21.12,4,28.64,11.47a16.91,16.91,0,0,1,1,22.79l-.55.66A35.12,35.12,0,0,1,535,133.7c0,.17,0,.34,0,.51v.73a30.67,30.67,0,0,1-4.49,16.22l-.11.17a32.2,32.2,0,0,1-13.05,11.76,40,40,0,0,1-16.48,4H500Z"/><path class="cls-2" d="M194,26.57l2,14a13.71,13.71,0,0,0-9.54-3.73,14.34,14.34,0,0,0-10.58,4.28,13.65,13.65,0,0,0-4.09,10v.61a13.24,13.24,0,0,0,4.9,10A13.88,13.88,0,0,0,186,65.2a8.06,8.06,0,0,0,1-.06,15.15,15.15,0,0,0,9.16-3.73l-1.89,13.51a19.1,19.1,0,0,1-6.36,1.77,27.46,27.46,0,0,1-3.12.18,26.75,26.75,0,0,1-8.19-1.28A25.64,25.64,0,0,1,167,70.16a24.9,24.9,0,0,1-6.36-8.63,24.35,24.35,0,0,1-2.26-10.32,26.12,26.12,0,0,1,1.84-9.66,26.82,26.82,0,0,1,5.13-8.25,25.52,25.52,0,0,1,7.76-5.75,24.78,24.78,0,0,1,9.6-2.38h2.63A27,27,0,0,1,194,26.57Z"/><path class="cls-2" d="M216.43,24.93V63.61H235.8l-3.24,11.8h-29.4V26.21Z"/><path class="cls-2" d="M240,75.41l27-52.87,27,52.87-12.64,2.75L275.89,66.9H257.37l-4.76,11.39Zm31.6-18.89-5-11.06-4.88,11.06Z"/><path class="cls-2" d="M334.16,31.46l-7.29,8.75c0-.21-.3-.64-.91-1.29a10.55,10.55,0,0,0-2.88-1.77,11.9,11.9,0,0,0-4.58-.93h-.43a5.48,5.48,0,0,0-2.81.75,3.33,3.33,0,0,0-1.65,2.51,1.89,1.89,0,0,0-.06.47,2.9,2.9,0,0,0,1.16,2.39,9.56,9.56,0,0,0,3.61,1.72c1.47.44,2.91.87,4.35,1.28q6.34,1.89,9,5.69a18.06,18.06,0,0,1,2.8,9.83v.73a13.93,13.93,0,0,1-2,7.4,15.32,15.32,0,0,1-6.3,5.63,23,23,0,0,1-9.47,2.19h-.36a22.76,22.76,0,0,1-8.13-1.4,30.3,30.3,0,0,1-6.48-3,26.05,26.05,0,0,1-3.06-2.2L306.34,61A18.5,18.5,0,0,0,310,63.8a8.74,8.74,0,0,0,4.94,1.4q.62,0,1.23-.06a11,11,0,0,0,4.09-1A3.32,3.32,0,0,0,321.74,61v-.12a3,3,0,0,0-1.84-2.75A31.59,31.59,0,0,0,314.22,56a27.86,27.86,0,0,1-5-1.7,24.73,24.73,0,0,1-4.09-2.89A11.85,11.85,0,0,1,302,47.12a14.28,14.28,0,0,1-1.29-6.44v-.35A14.47,14.47,0,0,1,303,32.57,15.88,15.88,0,0,1,309,27a18,18,0,0,1,8.07-2.07h.36Q327.6,24.93,334.16,31.46Z"/><path class="cls-2" d="M369.85,76.51V55.73H354.33V75.41l-13.15,1.1V26.21l13.15-1V44.36h15.52V26.21l13.21-1.16V75.41Z"/><path class="cls-2" d="M58.11,99.92l2,14a13.76,13.76,0,0,0-9.54-3.73A14.38,14.38,0,0,0,40,114.47a13.68,13.68,0,0,0-4.09,10v.62a13.26,13.26,0,0,0,4.9,10,13.88,13.88,0,0,0,9.28,3.49,8.22,8.22,0,0,0,1-.06,15.17,15.17,0,0,0,9.16-3.73l-1.9,13.51A19,19,0,0,1,52,150a27.73,27.73,0,0,1-3.12.18,26.77,26.77,0,0,1-8.2-1.28,25.91,25.91,0,0,1-9.53-5.43,25,25,0,0,1-6.36-8.63,24.35,24.35,0,0,1-2.25-10.33,26.06,26.06,0,0,1,1.83-9.65,26.61,26.61,0,0,1,5.14-8.25,25.24,25.24,0,0,1,7.76-5.75,24.88,24.88,0,0,1,9.59-2.39h2.63A27,27,0,0,1,58.11,99.92Z"/><path class="cls-2" d="M93.55,98.16a26.74,26.74,0,0,1,23,13.25,25.62,25.62,0,0,1,3.41,13v.24a25.19,25.19,0,0,1-3.85,13A26.43,26.43,0,0,1,93.79,150h-.73a29.51,29.51,0,0,1-10.94-2.32,26.32,26.32,0,0,1-8.56-5.87,24.08,24.08,0,0,1-5.37-8.55,26.6,26.6,0,0,1-1.58-9.23v-1a24.72,24.72,0,0,1,3.84-12.78,25.47,25.47,0,0,1,9.84-9,27.46,27.46,0,0,1,13-3.17ZM92.94,110a13,13,0,0,0-7.09,2.19,15,15,0,0,0-5.13,5.62A14,14,0,0,0,79,124.5v.73A12.54,12.54,0,0,0,81.39,132,14.67,14.67,0,0,0,87,136.9a13.26,13.26,0,0,0,6.22,1.59h.61a14,14,0,0,0,9.84-5.07,13.07,13.07,0,0,0,3.73-9c0-.49,0-1-.06-1.48a15,15,0,0,0-2.33-6.65,14,14,0,0,0-5.19-4.75,14.23,14.23,0,0,0-6.6-1.6Z"/><path class="cls-2" d="M126.13,148.76l13.45-51.83,15.77,32.27,16.39-32.15,13,51.59-12.66,1.1L168,127.85l-12.66,24.82-12.28-25.06-4.4,22.55Z"/><path class="cls-2" d="M190.26,148.76,203.7,96.93l15.77,32.27,16.39-32.15,13,51.59-12.65,1.1-4.09-21.89-12.66,24.82-12.28-25.06-4.4,22.55Z"/><path class="cls-2" d="M254.26,132.37V99.44l12.89-1.17v32q0,7.94,6.74,7.94a9.58,9.58,0,0,0,1-.06c2.82-.24,4.59-1.18,5.33-2.81a13.77,13.77,0,0,0,1.09-5.68V99.56l13-1.17V131q0,9.3-5.57,14.12t-14.35,5.19h-.92a22.47,22.47,0,0,1-9.6-2,15.86,15.86,0,0,1-7.09-6.29A17.74,17.74,0,0,1,254.26,132.37Z"/><path class="cls-2" d="M300.34,149.86V96.26l31.05,28.17V99.56l12.41-1.29v54L313,124.61v24.15Z"/><path class="cls-2" d="M353.09,149.74V99.56l12.6-1.29v50.49Z"/><path class="cls-2" d="M412.7,111.42H400.41v37.34l-12.65,1.1V111.42H374.49l3.3-11.86H412.7Z"/><path class="cls-2" d="M421.74,149.74V99.56l12.59-1.29v50.49Z"/><path class="cls-2" d="M443.14,148.76V99.56h29.34l2.5,10.88H455.79v7.76h13.8v10.88H455.67v8.8h20.66l-3.24,10.88Z"/><path class="cls-2" d="M517.78,104.81l-7.28,8.75c0-.21-.31-.64-.91-1.29a10.62,10.62,0,0,0-2.88-1.77,11.94,11.94,0,0,0-4.58-.93h-.44a5.44,5.44,0,0,0-2.8.75,3.3,3.3,0,0,0-1.66,2.5,2,2,0,0,0-.06.48,2.88,2.88,0,0,0,1.17,2.39,9.49,9.49,0,0,0,3.61,1.72c1.46.44,2.91.87,4.34,1.28q6.36,1.89,9,5.68a18.12,18.12,0,0,1,2.81,9.84v.73a13.84,13.84,0,0,1-2,7.4,15.42,15.42,0,0,1-6.29,5.63,23,23,0,0,1-9.48,2.19H500a23.06,23.06,0,0,1-8.13-1.4,30.3,30.3,0,0,1-6.48-3,27.37,27.37,0,0,1-3.06-2.2l7.64-9.18a19.3,19.3,0,0,0,3.61,2.82,8.85,8.85,0,0,0,4.94,1.4q.62,0,1.23-.06a11.17,11.17,0,0,0,4.09-1,3.31,3.31,0,0,0,1.53-3.12v-.12a3,3,0,0,0-1.83-2.75,32.74,32.74,0,0,0-5.69-2.15,26.58,26.58,0,0,1-5-1.7,24.51,24.51,0,0,1-4.09-2.88,12.18,12.18,0,0,1-3.12-4.26,14.46,14.46,0,0,1-1.28-6.44v-.35a14.38,14.38,0,0,1,2.33-7.76,15.85,15.85,0,0,1,6-5.57,18,18,0,0,1,8.07-2.08h.36Q511.24,98.27,517.78,104.81Z"/><path d="M256.85,118.79a29.63,29.63,0,0,1-10.94-2.35,26.93,26.93,0,0,1-8.74-6,25.29,25.29,0,0,1-5.58-8.88A27.44,27.44,0,0,1,230,92.14s0-.89,0-.94A25.59,25.59,0,0,1,234,78a26.25,26.25,0,0,1,10.1-9.25,27.86,27.86,0,0,1,13.17-3.22h.2A27.32,27.32,0,0,1,280.9,79.07a26.38,26.38,0,0,1,3.53,13.32s0,.29,0,.33a26.1,26.1,0,0,1-4,13.38,27.08,27.08,0,0,1-22.85,12.69Zm-6.18-25.85a5.17,5.17,0,0,0,1,2.67l.08.11a6.81,6.81,0,0,0,2.63,2.33,5.74,5.74,0,0,0,2.73.73h.34a6.34,6.34,0,0,0,4.38-2.44,5.54,5.54,0,0,0,1.73-3.9c0-.24,0-.49,0-.74a7.23,7.23,0,0,0-1.11-3.13,6.16,6.16,0,0,0-5.31-2.82H257a5.4,5.4,0,0,0-3,.94,7.09,7.09,0,0,0-2.48,2.71,6.32,6.32,0,0,0-.81,3.09Z"/><path d="M279.18,118.74a5.23,5.23,0,0,1-5.24-5.24V71.93a5.24,5.24,0,0,1,5.24-5.24H301.9a5.25,5.25,0,0,1,5,3.8l2.57,9a5.25,5.25,0,0,1-4.89,6.69,5.23,5.23,0,0,1,1.27,3.42v9.16a5.25,5.25,0,0,1-5.25,5.25H295v8.52a5.24,5.24,0,0,1-4.74,5.22l-10.53,1Z"/><path class="cls-1" d="M260,77.4a15.22,15.22,0,0,1,13.08,7.54,14.48,14.48,0,0,1,1.94,7.38v.14a14.27,14.27,0,0,1-2.19,7.41,15,15,0,0,1-12.7,7h-.41a16.54,16.54,0,0,1-6.23-1.32,14.69,14.69,0,0,1-4.86-3.34,13.79,13.79,0,0,1-3.07-4.86,15.26,15.26,0,0,1-.9-5.26v-.55a14,14,0,0,1,2.2-7.27,14.43,14.43,0,0,1,5.59-5.11,15.53,15.53,0,0,1,7.41-1.81Zm-.35,6.71a7.45,7.45,0,0,0-4,1.25,8.47,8.47,0,0,0-2.92,3.2,8,8,0,0,0-1,3.83v.42a7.12,7.12,0,0,0,1.36,3.82,8.19,8.19,0,0,0,3.17,2.81,7.45,7.45,0,0,0,3.53.91h.35a8,8,0,0,0,5.6-2.88,7.44,7.44,0,0,0,2.13-5.11c0-.28,0-.56,0-.84a8.56,8.56,0,0,0-1.32-3.79,8.1,8.1,0,0,0-3-2.71,8.18,8.18,0,0,0-3.76-.91Z"/><path class="cls-1" d="M278.51,106.89V78.2H294.2L296,84.39H285.78v6h7.55v6.33h-7.55v9.5Z"/><g id="oso"><polygon class="cls-3" points="80.43 26.15 95.08 37.53 115.69 34.34 124.03 34.66 142.34 38.64 160.31 27.74 156.47 24.4 148.17 25.36 143.32 28.82 140 33.11 120.58 28.93 98.48 32.87 92.22 25.36 84.43 24.04 80.43 26.15"/><path class="cls-4" d="M95.67,36.49C90.82,25.59,78.3,26,78.3,26s-6,2-6.64,11.5c-.51,7.64,5.49,10.14,6.47,15.43C79,57.52,72.77,60,71.66,65.13c-1.31,6.09,1,16,1.19,17.67,0,0,10.05,23.23,45.13,22.11s48.54-18.61,49.4-32.46c0,0,.45-4-3.41-11.61s-4.09-11.92-4.09-11.92,12.71-9.09,3.9-19.86c-13.74-7.49-21.58,6.7-21.4,7.52a71.8,71.8,0,0,0-23.63-4.38C107.64,32.19,96.91,36.1,95.67,36.49Z"/><path class="cls-3" d="M90.22,100.22S78.13,83.75,76.6,77.78s2-12.33,2-12.33S80.43,48.23,86,43.61L71,64.8V76.49l1.66,6.44Z"/><path class="cls-5" d="M127.43,103.42s19-6.24,22.36-12c0,0,.26,2.38-.43,3.22s15.08-11.1,10.86-20.49a13,13,0,0,1,5.58,5.39c-.64,2.3-8.93,12.76-15.25,17C140.61,102.78,127.43,103.42,127.43,103.42Z"/><path class="cls-5" d="M153,35s3.24-5.91,8.87.7a13.11,13.11,0,0,1-3.67,12.51l-2.45-2.31,1.88-6Z"/><path class="cls-5" d="M84.91,34.44s-3.23-5.91-8.87.71a13.11,13.11,0,0,0,3.67,12.51l2.45-2.31-1.88-6Z"/><ellipse class="cls-6" cx="136.71" cy="61.58" rx="6.39" ry="6.85"/><polygon class="cls-7" points="99.12 74.4 107.04 67.48 112.15 64.86 117.13 63.78 122.63 63.9 126.46 65.09 130.42 66.88 132.84 69.27 138.21 73.69 141.15 78.34 141.78 85.38 139.74 90.63 130.03 101.13 119.56 104.71 109.21 101.37 102.57 96.36 98.36 90.63 96.18 84.19 97.08 78.58 99.12 74.4"/><path class="cls-8" d="M111.81,100.65s13.58,3.61,21-6.33l-.55,3.48-6,4.55-6.67,1.8h-4.51Z"/><polygon class="cls-6" points="107.08 87.33 112.28 87.89 119.77 86.45 126.93 87.81 132.38 86.14 131.78 88.68 128.12 91.23 122.67 92.82 117.47 93.14 112.02 92.02 109.21 90.35 107.08 87.33"/><path d="M119.64,94.31c11.15-.29,14.2-7,14.69-8.62l-1-.41s-3,6.72-13.59,6.83h-.16C109,92,106,85.28,106,85.28l-1,.41c.49,1.59,3.54,8.33,14.69,8.62Z"/><path d="M119.64,70.25c1.3,0,2.6,0,3.89.12a17.17,17.17,0,0,1,4.43.95c2.46.86,3.19,2.91,2,5.11a8.49,8.49,0,0,1-4.25,3.73c-1.57.72-3.17,1.39-4.77,2-.37.15-.5.25-.44.68a4.64,4.64,0,0,0,4.09,3.69,9.91,9.91,0,0,0,10.55-6.06c.17-.42.09-.67-.36-.78l-2-.46c.52-.87,1.81-1.19,3.21-.78,1.73.5,3.32,2.1,3.08,3.91L137.33,81A29.43,29.43,0,0,1,135.74,84a11.37,11.37,0,0,1-10.57,5.15,21.88,21.88,0,0,1-4.2-.85,4.58,4.58,0,0,0-1.19-.18h-.24a4.72,4.72,0,0,0-1.2.18,21.73,21.73,0,0,1-4.2.85A11.38,11.38,0,0,1,103.57,84,31.66,31.66,0,0,1,102,81l-1.73,1.37C100,80.6,101.6,79,103.33,78.5c1.4-.41,2.69-.09,3.21.78l-2,.46c-.45.11-.54.36-.37.78a9.93,9.93,0,0,0,10.56,6.06,4.65,4.65,0,0,0,4.09-3.69c.06-.43-.07-.53-.44-.68-1.6-.66-3.2-1.33-4.78-2a8.51,8.51,0,0,1-4.24-3.73c-1.17-2.2-.44-4.25,2-5.11a17.17,17.17,0,0,1,4.43-.95c1.29-.08,2.59-.12,3.89-.12Z"/><path class="cls-9" d="M119.85,75.52c1.24-.1,2.54-.38,3.78-.59,1.45-.25,3.54-1.36,3-1.41-2.36-.23-4.35-.59-6.68-.61h-.5a49.18,49.18,0,0,0-6.49.81c-.57.09,1.45,1,3.28,1.36C117.21,75.28,119.85,75.52,119.85,75.52Z"/><path d="M109.71,66.49l-.6.33a12.16,12.16,0,0,1,10-4.33c4.68.06,8,1.85,10,4.33l-.6-.33c-2.45-1.43-7.83-1.64-9.45-1.64S112.16,65.06,109.71,66.49Z"/><path d="M125,51.74c-.38-2.28,2.56-5.2,6.59-6.39C129,47.12,126.56,49,125,51.74Z"/><path d="M114.22,51.74c.38-2.28-2.56-5.2-6.59-6.39C110.26,47.12,112.69,49,114.22,51.74Z"/><path d="M118.91,104.67c-2.32,0-11.74-1.63-18.64-3.42a56.16,56.16,0,0,1-16.8-8c-3.89-3.3-9.89-9.7-7-16.43A41,41,0,0,0,73,79.73a2.49,2.49,0,0,1-.44-1.21c-.64-4.63,1.82-8.14,4.63-11.42l-4.94-1.28a17.84,17.84,0,0,0,6-7.3c1.3-2.51,2.5-5.05,3.81-7.55,2.41-4.58,4.57-9.34,9.35-12.38a20.6,20.6,0,0,0-4-6,7.13,7.13,0,0,0-5.74-2.29c-3.27.36-5.08,2.66-6,5.18,0,0,.12.12.19.17l2.06-2A5,5,0,0,1,82.24,33a4.31,4.31,0,0,1,2.45,2c-1.21.17-2.21-.17-3.59.73a4.73,4.73,0,0,0-1.95,3,7.52,7.52,0,0,0,0,3.06,14.64,14.64,0,0,0,1.66,3.07,1.24,1.24,0,0,1,0,1.6c-.46.56-.88,1.15-1.32,1.73l-.58.77c-1.13-1.11-2.33-2.1-3.3-3.26A12.34,12.34,0,0,1,75.28,30c2.93-3.58,7-4.8,11.65-3.88s7.53,3.49,8.78,7.72c.27.9.47,1.82.71,2.79,6.1-3.46,14.86-6.48,22.62-6.45s16.17,3,22.26,6.45c.25-1,.45-1.89.71-2.79,1.26-4.23,4.26-6.83,8.79-7.72s8.72.3,11.65,3.88a12.34,12.34,0,0,1-.34,15.7,44.28,44.28,0,0,1-3.3,3.26l-.57-.77c-.44-.58-.86-1.17-1.32-1.73a1.24,1.24,0,0,1,0-1.6,15.12,15.12,0,0,0,1.66-3.07,7.34,7.34,0,0,0,0-3.06,4.65,4.65,0,0,0-1.95-3c-1.37-.9-2.37-.56-3.58-.73a4.31,4.31,0,0,1,2.45-2,5,5,0,0,1,4.36.78l2.06,2c.07,0,.2-.14.19-.17-1-2.52-2.77-4.82-6-5.18a7.13,7.13,0,0,0-5.74,2.29,20.64,20.64,0,0,0-4,6c4.79,3,6.94,7.8,9.35,12.38,1.31,2.5,2.52,5,3.81,7.55a18,18,0,0,0,6,7.3L160.5,67.1c2.81,3.28,5.26,6.79,4.62,11.42a2.37,2.37,0,0,1-.44,1.21,40.29,40.29,0,0,0-3.42-2.94c2.89,6.73-3.35,13.4-7,16.43A56.84,56.84,0,0,1,140,100.54a102.65,102.65,0,0,1-13.59,3.18,31.94,31.94,0,0,1-7.5,1l-.06,2.27a35.37,35.37,0,0,0,7.38-.45,112.81,112.81,0,0,0,12.57-2.39c7.14-1.83,13.86-4.55,19.4-9.34a24.22,24.22,0,0,0,5.9-7.3c.16-.31.29-.63.46-1l.81,1c.59.74.69.76,1.24,0a17.58,17.58,0,0,0,2.91-13.57,43.86,43.86,0,0,0-1.73-5.69,32.72,32.72,0,0,0,2.65-2.14c.95-.93.82-1.37-.2-2.23-1.35-1.13-2.73-2.25-4-3.45-2.62-2.49-3.94-5.67-5.14-8.4,1.28-1.36,2.46-2.47,3.48-3.71a16.71,16.71,0,0,0,3.86-13.53,13.65,13.65,0,0,0-6.73-10,15.91,15.91,0,0,0-10.55-2.06,15.29,15.29,0,0,0-9.74,4.92c-1.07,1.18-1.91,2.53-2.85,3.8a59.82,59.82,0,0,0-15.31-4.12,30.82,30.82,0,0,0-8.79,0,59.82,59.82,0,0,0-15.31,4.12c-.94-1.27-1.78-2.62-2.85-3.8a15.31,15.31,0,0,0-9.75-4.92A15.89,15.89,0,0,0,76,24.78a13.62,13.62,0,0,0-6.73,10A16.68,16.68,0,0,0,73.15,48.3c1,1.24,2.2,2.35,3.48,3.71-1.21,2.73-2.53,5.91-5.14,8.4-1.27,1.2-2.65,2.32-4,3.45-1,.86-1.15,1.3-.2,2.23a31.08,31.08,0,0,0,2.65,2.14,42.36,42.36,0,0,0-1.73,5.69,17.58,17.58,0,0,0,2.91,13.57c.55.77.65.75,1.24,0l.81-1c.17.36.3.68.46,1a24.22,24.22,0,0,0,5.9,7.3c5.54,4.79,12.26,7.51,19.39,9.34a113.42,113.42,0,0,0,12.58,2.39c2.57.36,7.35.45,7.35.45Z"/><path d="M108.7,102.67c-.32-.28-5.46-4.07-5.72-4.31s-.58-.5-.85-.78c-4.44-4.59-7.24-9.8-6.87-16.16a12.62,12.62,0,0,1,5-9.25c.72-.59,1.48-1.14,2.33-1.79a8,8,0,0,1-6.44-3.48A8.38,8.38,0,0,1,94.87,60c.82-3.66,4.25-7.22,8.13-6.5-3.4-3.72-7.36-5.12-11.37-1.14.54-3,3.6-6.24,7-5.77a12,12,0,0,1,3.91,1.43c3,1.61,5.08,4.12,7.21,6.57a28,28,0,0,0,3.11,3.15c1.06.9,1.82.6,2.17-.72.15-.52.22-1.07.34-1.66,1.81,1.93.73,5.86-1.73,6.38a11,11,0,0,1-2.54-.09,9.23,9.23,0,0,1-1.93,6.18,7.18,7.18,0,0,1-3,2.25A8.5,8.5,0,0,0,104,71.29c-2.35,2-4.63,4-5.76,6.87a12.17,12.17,0,0,0,.87,10.65,27.4,27.4,0,0,0,7.57,8.67,55.53,55.53,0,0,0,5.5,3.69,14.87,14.87,0,0,0,7.06,1.75,14.09,14.09,0,0,0,6.84-1.75,55.53,55.53,0,0,0,5.5-3.69,27.4,27.4,0,0,0,7.57-8.67A12.17,12.17,0,0,0,140,78.16c-1.13-2.83-3.41-4.91-5.76-6.87a8.5,8.5,0,0,0-2.16-1.18,7.18,7.18,0,0,1-3-2.25,9.23,9.23,0,0,1-1.93-6.18,11,11,0,0,1-2.54.09c-2.46-.52-3.53-4.45-1.73-6.38.12.59.19,1.14.34,1.66.35,1.32,1.11,1.62,2.17.72a28,28,0,0,0,3.11-3.15c2.13-2.45,4.23-5,7.21-6.57a12,12,0,0,1,3.91-1.43c3.35-.47,6.41,2.75,7,5.77-4-4-8-2.58-11.37,1.14,3.88-.72,7.31,2.84,8.13,6.5A8.38,8.38,0,0,1,142,66.9a8,8,0,0,1-6.44,3.48c.85.65,1.61,1.2,2.33,1.79a12.62,12.62,0,0,1,5,9.25c.37,6.36-2.43,11.57-6.87,16.16-.27.28-.57.53-.85.78s-5.4,4-5.72,4.31c0,0-3.25,2.28-10.34,2.28C111.45,105,109.18,103,108.7,102.67Z"/><path class="cls-6" d="M132.86,67.63c.06.11.08.17.12.2a2.64,2.64,0,0,0,.29.15,5.54,5.54,0,0,0,5.14-.58c3.14-1.82,3.94-6.77,1.56-9.75a4,4,0,0,0-5.71-.6,4.22,4.22,0,0,1,3.67,4,6.41,6.41,0,0,1-1,4.41A5.38,5.38,0,0,1,132.86,67.63Z"/><path class="cls-6" d="M135.57,60.29a1.32,1.32,0,0,0-1.21-1.44,1.8,1.8,0,0,0-1.51,1.73,1.22,1.22,0,0,0,1.28,1.14A1.33,1.33,0,0,0,135.57,60.29Z"/><path class="cls-6" d="M101.17,65.42a6.41,6.41,0,0,1-1-4.41,4.23,4.23,0,0,1,3.68-4,4,4,0,0,0-5.72.6c-2.38,3-1.58,7.93,1.56,9.75a5.54,5.54,0,0,0,5.14.58,2.64,2.64,0,0,0,.29-.15s.06-.09.12-.2A5.38,5.38,0,0,1,101.17,65.42Z"/><path class="cls-6" d="M104,61.72a1.22,1.22,0,0,0,1.28-1.14,1.8,1.8,0,0,0-1.5-1.73,1.44,1.44,0,0,0,.22,2.87Z"/></g><g id="Guepardo"><path class="cls-10" d="M461.15,36.22l4.21-4.5a3.5,3.5,0,0,1,2.91,1.56c.85,1.57,4.24,5.23-3.29,13.85l-2.19-3.63,1.1-3.72-.15-1.7Z"/><polygon class="cls-11" points="471.75 36.18 470.99 28.47 466.5 24.23 459.35 24.49 453.89 28.74 450.75 31.09 436.9 27.82 430.98 27.89 411.92 30.66 398.59 23.38 391.71 27.75 389.66 36.98 405.04 35.03 433.65 32.85 445.64 33.85 452.08 36.9 456.57 36.9 459.47 33.11 461.59 29.39 464.61 29.26 468.29 32.63 471.52 37.62 471.75 36.18"/><path class="cls-7" d="M472.2,37.56s-6-16.84-14.67-5.17a8.62,8.62,0,0,1-4.32,3S447.32,33,443.69,32a26.2,26.2,0,0,0-11-.87s-6.86-.22-9.41.25-12.66,3.22-12.66,3.22-7.12-6.08-12.49-6-8.4,7.73-7.91,10.2,6.48,10.68,6.48,10.68l-3.19,10.08-4.28,4.37-.11,19.67,2.86-.73,8,11,11,5.46,21.73,5.09,10.41-3.79,7.94-.82,9-7.14-.32,1.75,6.94-4.6,3.77-10.09,2.86,2.67.92-9.41L470,66.35l4.87-1.93L468,58l-9.21-19.46s1.73-4.21,4.72-6.12a3.35,3.35,0,0,1,4.8.89s3.54,5.17-3.29,13.85l.9,1.72,4.33-3.62Z"/><path class="cls-11" d="M463,90.07l5.54-12.94,2,1s1.42-4.39-1.36-12.4c0,0-6.44-13.78-6.16-16.36l7.77,11.78L473,65.32l-1.27,3,2.82,11L473,83.52l-3-2.75L466.39,91l-4.07,2.19Z"/><path class="cls-1" d="M462.67,92l1.23-6.49s-8.46,9.6-17.55,11.3l.79-3.1-3.81,5.63,2.67,1.52,10.47-4,5.89-2.94Z"/><path class="cls-1" d="M394.07,34c-2.25,4.27,3.54,13.74,3.54,13.74l2.59-4.29.28-4.82.32-5.5S395.53,31.22,394.07,34Z"/><path class="cls-1" d="M421,98.86s-18.34-5.58-21.65-13.92l-.3,4.61s-7.61-10.58-3.29-18c0,0-5.66,5.91-7.4,7.61a11.77,11.77,0,0,0,.59,3.89l3.51-3.89s-1.75,4.94,4.95,11.59C407.31,99.79,421,98.86,421,98.86Z"/><path class="cls-12" d="M431.16,103.28c-2.1,0-14.66-3.23-17-15.75-2.62-14.69,9.25-13.23,9.25-13.23L432,78.7l8.28-4.4s13-1.78,9.88,12.5C445.52,100.25,433.26,103.28,431.16,103.28Z"/><path class="cls-13" d="M431.45,64.79c-1.13,0-4.28.38-6.58.59a12.19,12.19,0,0,1,6.71-2.71,11.27,11.27,0,0,1,6.47,2.67C435.75,65.13,432.58,64.81,431.45,64.79Z"/><path class="cls-13" d="M437.07,49.91a13.13,13.13,0,0,0,1.09-1.18c.75-1,1.49-2.11,2.21-3.19.29-.45.42-1-.06-1.34a1.19,1.19,0,0,0-1.16.12,6.32,6.32,0,0,0-2.25,4.59A5.08,5.08,0,0,0,437.07,49.91Z"/><path class="cls-13" d="M426.24,50.1a14.81,14.81,0,0,1-1.09-1.18c-.75-1-1.48-2.11-2.2-3.19-.3-.45-.42-1,.05-1.34a1.21,1.21,0,0,1,1.17.13,6.29,6.29,0,0,1,2.24,4.58A5.08,5.08,0,0,1,426.24,50.1Z"/><path class="cls-13" d="M432,88.15a2.76,2.76,0,0,0-1,.2,14.35,14.35,0,0,1-7.15,1.18,11.68,11.68,0,0,1-9.09-6.08,3.45,3.45,0,0,0-.2-.32h-.31v4.71c-1.75-3.35-1-6.68,0-10.14-1.57.55-2.48,1.92-3.53,3.1.1-4.14,4.09-6.48,8-4.72a1.23,1.23,0,0,1,0,.13c-2.5.76-2.89,3.07-2.08,5.38a7.86,7.86,0,0,0,5.7,5.14,8.89,8.89,0,0,0,7-.73,3.84,3.84,0,0,0,2-3.53c-1.76-1-3.55-1.9-5.22-3a10.5,10.5,0,0,1-2.69-2.55,3.69,3.69,0,0,1,1.45-5.73,14.22,14.22,0,0,1,4.24-1c.92-.08,1.85-.12,2.78-.12h.29c.93,0,1.86,0,2.78.12a14.15,14.15,0,0,1,4.24,1,3.67,3.67,0,0,1,1.45,5.73,10.35,10.35,0,0,1-2.69,2.55c-1.67,1.11-3.46,2-5.21,3a3.85,3.85,0,0,0,2,3.53,8.89,8.89,0,0,0,7,.73,7.84,7.84,0,0,0,5.7-5.14c.81-2.31.42-4.62-2.08-5.38a.45.45,0,0,1,0-.13c3.92-1.76,7.91.58,8,4.72-1.05-1.18-1.95-2.55-3.53-3.1.92,3.46,1.71,6.79,0,10.14V83.13h-.31a3.45,3.45,0,0,0-.2.32,11.68,11.68,0,0,1-9.09,6.08,14.37,14.37,0,0,1-7.15-1.18,2.72,2.72,0,0,0-1-.2Z"/><path class="cls-10" d="M432.05,75.85c1.27-.14,2.35-1.85,3.41-2.07,1.23-.24,2.49-.4,3.89-.62-.45-.28-.87-.74-1.32-.79a46,46,0,0,0-6.12-.61,31.76,31.76,0,0,0-5.5.68,3.82,3.82,0,0,0-1.54,1.34,6.79,6.79,0,0,1,3.73,0C429.61,74.06,430.92,76,432.05,75.85Z"/><g id="ojos"><ellipse class="cls-6" cx="446.88" cy="61.45" rx="7.01" ry="7.51"/><ellipse class="cls-6" cx="416.43" cy="61.64" rx="7.01" ry="7.51"/><path class="cls-13" d="M452.67,54.22A9.81,9.81,0,0,1,454,65.48a7.55,7.55,0,0,1-6.46,4.44A6.6,6.6,0,0,1,441,66.81a8.48,8.48,0,0,1-1.39-4.93,3.6,3.6,0,0,1-3.27-2.76c-.64-2.22-.27-4.49-.33-6.73.4.92.71,1.86,1.12,2.74.86,1.86.86,2.36,2.92.81,1.7-1.29,3.21-2.89,4.89-4.22a38,38,0,0,1,5.14-3.6,4.72,4.72,0,0,1,5.87.73,8.49,8.49,0,0,1,2.57,5.35c-3.55-4.39-7-3.42-9.44-1.4A4,4,0,0,1,452.67,54.22Zm-7.41,14.06a6.84,6.84,0,0,0,7.7-4.76,7.43,7.43,0,0,0-.85-6.79,2.93,2.93,0,0,0-4.19-.86,5.8,5.8,0,0,1,2,3.81c.42,2.85-.13,5.76-2.7,7.28a4.78,4.78,0,0,1-3.27.48l-.48-.08-.07.27A9.44,9.44,0,0,0,445.26,68.28Zm0-8.62a1.16,1.16,0,0,0-1-1.24,1.81,1.81,0,0,0-1.47,1.88.86.86,0,0,0,1,.92A1.55,1.55,0,0,0,445.28,59.66Z"/><path class="cls-13" d="M414.29,53c-2.49-2-5.9-3-9.45,1.41A8.49,8.49,0,0,1,407.41,49a4.72,4.72,0,0,1,5.87-.73,38,38,0,0,1,5.14,3.6c1.68,1.33,3.19,2.94,4.89,4.22,2.06,1.55,2.07,1,2.92-.8.41-.89.72-1.83,1.13-2.75-.07,2.24.3,4.51-.34,6.73a3.58,3.58,0,0,1-3.27,2.76A8.45,8.45,0,0,1,422.37,67a6.6,6.6,0,0,1-6.58,3.11,7.54,7.54,0,0,1-6.45-4.43c-1.84-3.78-1.65-8,1.3-11.27A4,4,0,0,1,414.29,53Zm5.64,14.83-.07-.27-.48.08a4.78,4.78,0,0,1-3.27-.48c-2.58-1.52-3.13-4.43-2.71-7.28a5.84,5.84,0,0,1,2-3.81,2.93,2.93,0,0,0-4.19.86,7.46,7.46,0,0,0-.84,6.79,6.82,6.82,0,0,0,7.69,4.76A9.12,9.12,0,0,0,419.93,67.82Zm-.42-6.41a.86.86,0,0,0,1-.92A1.79,1.79,0,0,0,419,58.62a1.13,1.13,0,0,0-1,1.24A1.54,1.54,0,0,0,419.51,61.41Z"/></g><g id="manchas"><path class="cls-13" d="M437.39,38.7a5.23,5.23,0,0,0,0,.56c.12,1.12.85,1.77,1.82,1.48a4.8,4.8,0,0,0,3-5.33c-.38-1.46-1.46-2-2.61-1.15A5.43,5.43,0,0,0,437.39,38.7Z"/><path class="cls-13" d="M456.47,85.09c0,1.26.59,1.9,1.74,1.78a2.35,2.35,0,0,0,2-1.62,2.71,2.71,0,0,0-.23-2.63,1.47,1.47,0,0,0-2.54-.15A3.72,3.72,0,0,0,456.47,85.09Z"/><path class="cls-13" d="M462.72,73.51c1.11.69,2,.41,2.52-.88a3.06,3.06,0,0,0-.31-3.06,2.4,2.4,0,0,0-2.42-1.2A1.9,1.9,0,0,0,461,71,4,4,0,0,0,462.72,73.51Z"/><path class="cls-13" d="M446.33,43.22a6.35,6.35,0,0,0,3.37-1.07,1.87,1.87,0,0,0,1-2,1.79,1.79,0,0,0-1.65-1.34c-2-.4-3.72,1.62-3.87,3.62a.75.75,0,0,0,.35.57A2.44,2.44,0,0,0,446.33,43.22Z"/><path class="cls-13" d="M462.68,78.43a3.59,3.59,0,0,0,2,2.93c1,.32,1.79-.31,1.75-1.51-.05-1.52-1.24-3.24-2.92-2.57A1.1,1.1,0,0,0,462.68,78.43Z"/><path class="cls-13" d="M452.73,73.22a2.75,2.75,0,0,0,1.51,2.25c.8.25,1.38-.24,1.35-1.16,0-1.17-1-2.5-2.25-2A.85.85,0,0,0,452.73,73.22Z"/><path class="cls-13" d="M461.3,57.52a6.57,6.57,0,0,0,1.88,4.12c.44.39.95.66,1.47.31s.48-.92.35-1.52a5.76,5.76,0,0,0-2.33-4C461.83,55.91,461.3,56.28,461.3,57.52Z"/><path class="cls-13" d="M425.92,38.89a5.23,5.23,0,0,1,0,.56c-.13,1.13-.86,1.77-1.83,1.48a4.8,4.8,0,0,1-3-5.32c.38-1.47,1.47-2,2.62-1.16A5.46,5.46,0,0,1,425.92,38.89Z"/><path class="cls-13" d="M406.84,85.28c0,1.26-.59,1.9-1.73,1.78a2.33,2.33,0,0,1-2-1.62,2.66,2.66,0,0,1,.23-2.63,1.47,1.47,0,0,1,2.54-.15A3.76,3.76,0,0,1,406.84,85.28Z"/><path class="cls-13" d="M400.59,73.7c-1.11.69-2,.41-2.51-.88a3.08,3.08,0,0,1,.3-3.06,2.41,2.41,0,0,1,2.42-1.2,1.91,1.91,0,0,1,1.54,2.63A4,4,0,0,1,400.59,73.7Z"/><path class="cls-13" d="M417,43.42a6.28,6.28,0,0,1-3.38-1.08,1.86,1.86,0,0,1-1-2A1.79,1.79,0,0,1,414.26,39c2-.4,3.71,1.62,3.87,3.62a.78.78,0,0,1-.36.57A2.82,2.82,0,0,1,417,43.42Z"/><path class="cls-13" d="M400.64,78.62a3.59,3.59,0,0,1-2,2.93c-1,.32-1.79-.31-1.75-1.51.05-1.52,1.24-3.24,2.92-2.57A1.12,1.12,0,0,1,400.64,78.62Z"/><path class="cls-13" d="M410.58,73.41a2.75,2.75,0,0,1-1.51,2.25c-.79.25-1.38-.24-1.34-1.16,0-1.17.95-2.5,2.24-2A.85.85,0,0,1,410.58,73.41Z"/><path class="cls-13" d="M402,57.71a6.61,6.61,0,0,1-1.87,4.12c-.45.39-.95.66-1.48.31s-.48-.92-.35-1.51a5.8,5.8,0,0,1,2.34-4C401.49,56.1,402,56.47,402,57.71Z"/></g><path class="cls-13" d="M430.12,29.53c-1.43-.48-5.6-.05-8.07.34a34.64,34.64,0,0,0-9.46,3.05,1.78,1.78,0,0,1-2.17-.23c-1-.92-2-1.94-3-2.84a27.28,27.28,0,0,0-3.93-3.17c-4.89-2.88-10.29-.35-11.77,5.48a16.2,16.2,0,0,0,.88,10.37,15.18,15.18,0,0,0,4.37,6A19.6,19.6,0,0,1,398.25,46c.8-1.17,1-2.22-.06-3.3a1.5,1.5,0,0,1-.23-.41,3.76,3.76,0,0,1,1-4.66c.38-.32.79-.59,1.26-.93a19.68,19.68,0,0,0-1.06-1.92,4.83,4.83,0,0,0-2.8-2.06,2,2,0,0,0-2.15.88c1.09-2.17,2.39-3,4.15-2.67a5.32,5.32,0,0,1,3.33,2.46c1.17,1.75,2.18,3.61,3.23,5.45a.75.75,0,0,1-.11.6,47.86,47.86,0,0,0-5.55,11.16,35,35,0,0,1-7.4,12.26l-1.9,1.94,3,1c-2.75,4.66-4.75,9.57-3.39,15.27l4.2-5.95.17.09C392,83,396.68,90.92,401.44,93.33l-1.67-4.47c5.34,5.76,11.42,7.47,18.66,9.16l-2.94-4.71a2.31,2.31,0,0,1,.28.17,35.66,35.66,0,0,0,9.77,6.62,11.14,11.14,0,0,0,4.63,1h2.51a11.15,11.15,0,0,0,4.64-1,35.66,35.66,0,0,0,9.77-6.62,2.31,2.31,0,0,1,.28-.17L444.42,98c7.25-1.69,13.25-3.4,18.59-9.16l-1.67,4.47c4.76-2.41,9.41-10.35,7.49-18.09l.17-.09,4.2,5.95c1.36-5.7-.65-10.61-3.39-15.27l3-1-1.91-1.94a35,35,0,0,1-7.39-12.26A48.26,48.26,0,0,0,458,39.47a.71.71,0,0,1-.11-.6c1.05-1.84,2.06-3.7,3.22-5.45A5.36,5.36,0,0,1,464.45,31c1.76-.35,3.06.5,4.15,2.67a2,2,0,0,0-2.15-.88,4.83,4.83,0,0,0-2.8,2.06,19.68,19.68,0,0,0-1.06,1.92c.46.34.88.61,1.25.93a3.75,3.75,0,0,1,1,4.66,1.5,1.5,0,0,1-.23.41c-1,1.08-.86,2.13-.06,3.3a19.6,19.6,0,0,1,1.28,2.51,15.18,15.18,0,0,0,4.37-6,16.2,16.2,0,0,0,.88-10.37c-1.48-5.83-6.88-8.36-11.78-5.48a28.42,28.42,0,0,0-3.93,3.17c-1,.9-2,1.92-3,2.84a1.77,1.77,0,0,1-2.16.23,34.75,34.75,0,0,0-9.46-3.05c-2.47-.39-6.05-.89-7.15-.46s-.81,18.79-1.69,28.11C431.89,57.52,431.55,30,430.12,29.53Zm8.7-3.31a33.14,33.14,0,0,1,11.36,3.24.59.59,0,0,0,.82-.14c1.06-1.11,2.12-2.24,3.25-3.27,2.52-2.29,5.32-3.83,8.67-3.89,4.4-.07,7.68,2,9.81,6.22a18.19,18.19,0,0,1,1.5,11.48,16.62,16.62,0,0,1-7,11.52,36.66,36.66,0,0,0,4.26,7.4A51.57,51.57,0,0,0,476,63.44c1.09,1.06,1.26,1.46.39,2.66a29.56,29.56,0,0,1-2.21,2.43,3.52,3.52,0,0,1,.18.33,20.74,20.74,0,0,1,1.78,10.93,14.17,14.17,0,0,1-2.27,6.69c-.33.46-.74.86-1.22,1.41l-.8-2.52c-.1.11-.16.14-.17.18a19.52,19.52,0,0,1-6.55,9.27c-5.61,4.44-11.79,5.28-18.47,7.09a55.26,55.26,0,0,0-6,1.53,26.67,26.67,0,0,1-7.93,1.82h-2.5a26.67,26.67,0,0,1-7.93-1.82,55.26,55.26,0,0,0-6-1.53c-6.68-1.81-12.94-2.65-18.55-7.09a19.52,19.52,0,0,1-6.55-9.27s-.07-.07-.17-.18l-.8,2.52c-.48-.55-.89-1-1.22-1.41a14.17,14.17,0,0,1-2.27-6.69,20.74,20.74,0,0,1,1.78-10.93c.07-.15.15-.28.17-.33a31.33,31.33,0,0,1-2.2-2.43c-.87-1.2-.7-1.6.39-2.66a51.57,51.57,0,0,0,4.45-4.66,36.66,36.66,0,0,0,4.26-7.4,16.62,16.62,0,0,1-7-11.52,18.19,18.19,0,0,1,1.5-11.48c2.13-4.22,5.41-6.29,9.81-6.22,3.35.06,6.15,1.6,8.67,3.89,1.13,1,2.19,2.16,3.25,3.27a.58.58,0,0,0,.82.14A33.08,33.08,0,0,1,424,26.22C426.37,26,436.41,26,438.82,26.22Z"/></g></g></g></svg>