<svg xmlns="http://www.w3.org/2000/svg" viewBox="0 0 564.3 182.86"><defs><style>.cls-1{fill:#de5c11;}.cls-2{fill:#ffeace;}.cls-3{fill:#b45717;}.cls-4{fill:#903a14;}.cls-5{fill:#5f220c;}.cls-6{fill:#f08210;}.cls-7{fill:#d55314;}.cls-8{fill:#914018;}.cls-9{fill:#d95b13;}.cls-10{fill:#f6a01e;}.cls-11{fill:#fbbb3c;}.cls-12{fill:#1d1d1b;}</style></defs><g id="Capa_2" data-name="Capa 2"><g id="Capa_1-2" data-name="Capa 1"><path class="cls-1" d="M125.67,115.84q-.89,0-1.8-.06c-.72,0-5.36-.12-8.08-.5a122.34,122.34,0,0,1-13.58-2.59c-9.35-2.39-16.32-5.77-21.94-10.63a31.63,31.63,0,0,1-5.42-6,4.94,4.94,0,0,1-4-2.34,22.43,22.43,0,0,1-3.76-17.26,23.28,23.28,0,0,1,1-3.81q-.39-.33-.78-.72a5.67,5.67,0,0,1-1.91-4.28,5.87,5.87,0,0,1,2.37-4.22l.69-.58c1.17-1,2.27-1.89,3.28-2.85A16.25,16.25,0,0,0,75,55.15c-.66-.68-1.29-1.35-1.9-2.1a21.44,21.44,0,0,1-4.92-17.39,18.45,18.45,0,0,1,9-13.36A20.18,20.18,0,0,1,87.8,19.37a24.84,24.84,0,0,1,3.07.2,20.09,20.09,0,0,1,12.75,6.48c.51.57,1,1.15,1.39,1.72a60.83,60.83,0,0,1,14.07-3.41l.28,0c2.28-.21,3.42-.32,4.7-.32s2.41.11,4.7.32l.27,0a60.83,60.83,0,0,1,14.07,3.41c.43-.57.88-1.15,1.39-1.72a20.09,20.09,0,0,1,12.75-6.48,25,25,0,0,1,3.08-.2,20.32,20.32,0,0,1,10.62,2.92,18.48,18.48,0,0,1,9,13.37A21.44,21.44,0,0,1,175,53.05c-.61.75-1.24,1.42-1.89,2.1A16,16,0,0,0,176.38,60c1,1,2.11,1.88,3.28,2.85l.69.58a5.87,5.87,0,0,1,2.38,4.22A5.74,5.74,0,0,1,180.82,72c-.26.26-.53.5-.79.72a23.28,23.28,0,0,1,1,3.81,22.46,22.46,0,0,1-3.75,17.26,5,5,0,0,1-4,2.34,31.29,31.29,0,0,1-5.42,6c-5.62,4.86-12.59,8.24-21.94,10.63a122.34,122.34,0,0,1-13.58,2.59A47.85,47.85,0,0,1,125.67,115.84Zm-1.29-10.76a32.64,32.64,0,0,0,6.65-.9c.64-.15,1.49-.31,2.51-.49A79,79,0,0,0,144.78,101a56.05,56.05,0,0,0,13.55-6.9c1.41-1.16,8.31-7.22,6.14-12.29a4.16,4.16,0,0,1,2.46-5.58,26.06,26.06,0,0,0-2.59-3.46,4.18,4.18,0,0,1,.57-6A35.87,35.87,0,0,1,162.7,63c-.62-1.2-1.22-2.41-1.82-3.61-.7-1.42-1.41-2.84-2.14-4.24l-.68-1.29c-2.16-4.17-4-7.76-7.62-10.05a4,4,0,0,1-1.5-1.66,4.37,4.37,0,0,1-1.46.26,4.2,4.2,0,0,1-2.06-.54c-6.8-3.85-14.72-6.16-21.2-6.19h-.1c-7.74,0-16.15,3.2-21.43,6.19a4.13,4.13,0,0,1-2,.54,4.28,4.28,0,0,1-1.46-.26,4.19,4.19,0,0,1-1.5,1.66c-3.6,2.29-5.47,5.88-7.63,10l-.67,1.3c-.74,1.4-1.45,2.82-2.15,4.24-.6,1.2-1.2,2.41-1.82,3.61a35.87,35.87,0,0,1-2.21,3.77,4.26,4.26,0,0,1,1.39,2,4.2,4.2,0,0,1-.81,4,26,26,0,0,0-2.6,3.46,4,4,0,0,1,1.27.71,4.15,4.15,0,0,1,1.19,4.87c-1.93,4.53,3,9.66,6.18,12.32a55.49,55.49,0,0,0,15.88,7.54c7.19,1.86,16.35,3.43,18.29,3.43h.39Z"/><path class="cls-1" d="M449,114h-.31a32.62,32.62,0,0,1-9.5-2.19,19.37,19.37,0,0,0-3.25-.85c-.83-.18-1.69-.36-2.58-.6-1.27-.34-2.53-.65-3.77-1-5.72-1.41-11.63-2.87-17.1-7.21a24.67,24.67,0,0,1-5.73-6.36,4.1,4.1,0,0,1-2.68-1.41l-.41-.45a13,13,0,0,1-1.11-1.35,18.64,18.64,0,0,1-3.12-8.92,25.39,25.39,0,0,1,1.31-11.32c-.27-.3-.53-.63-.79-1-2.09-2.86-1.8-5.63.87-8.22l.29-.28a48.86,48.86,0,0,0,4-4.21,23.65,23.65,0,0,0,2.5-4,22,22,0,0,1-6.19-12.45,23.13,23.13,0,0,1,1.95-14.55C406.26,22,411,19,417.09,19h.31c4.21.07,8.06,1.75,11.79,5.14.66.61,1.3,1.24,1.91,1.86a38.3,38.3,0,0,1,11-2.75C444,23,448.81,23,450.24,23s6.21,0,8.14.19a38.3,38.3,0,0,1,11,2.75c.61-.62,1.25-1.25,1.92-1.86C475,20.71,478.87,19,483.07,19h.31c6.08,0,10.83,3,13.73,8.79a23.13,23.13,0,0,1,1.95,14.55,22,22,0,0,1-6.19,12.45,23.65,23.65,0,0,0,2.5,4,48.63,48.63,0,0,0,4,4.2l.3.29c2.67,2.59,3,5.36.87,8.22-.26.35-.52.68-.78,1a25.51,25.51,0,0,1,1.3,11.32,18.64,18.64,0,0,1-3.12,8.92A11.79,11.79,0,0,1,496.83,94l-.4.45a4.25,4.25,0,0,1-2.69,1.42,24.82,24.82,0,0,1-5.73,6.35c-5.49,4.35-11.38,5.81-17.08,7.22-1.22.3-2.45.6-3.7.94-.9.24-1.76.42-2.59.6a20.67,20.67,0,0,0-3.25.85,32.55,32.55,0,0,1-9.5,2.19H449ZM433.64,93.21a4.17,4.17,0,0,1,2.2.62l0,0a4.8,4.8,0,0,1,.93.68,33.17,33.17,0,0,0,9.06,6.14,7.49,7.49,0,0,0,3.17.63h2.55a7.38,7.38,0,0,0,3.1-.63,33.48,33.48,0,0,0,9.06-6.14,4.69,4.69,0,0,1,.92-.68,4.19,4.19,0,0,1,5.18.58,4.06,4.06,0,0,1,1,1.56,23.09,23.09,0,0,0,9.34-6.1,4.16,4.16,0,0,1,3.06-1.34,3.84,3.84,0,0,1,.83.09,13.4,13.4,0,0,0,1.19-9.12,4.18,4.18,0,0,1,2.05-4.66,4.39,4.39,0,0,1,1.3-.46,35,35,0,0,0-1.88-3.59,4.12,4.12,0,0,1,0-4.26,42.27,42.27,0,0,1-6.85-12.24,47.82,47.82,0,0,0-5.3-10.71,4.86,4.86,0,0,1-.33-5.12l.81-1.43-.18.16a5.91,5.91,0,0,1-4,1.58,6.51,6.51,0,0,1-2.84-.68,32.12,32.12,0,0,0-8.73-2.82c-1.39-.23-2.47-.37-3.3-.46-.16,2.63-.28,6.63-.37,9.82-.15,5.37-.33,11.46-.73,15.77a4.18,4.18,0,0,1-4.16,3.78h-.17a4.16,4.16,0,0,1-4-4.12c-.12-9.45-.52-20.43-1-25.28-1.52.08-3.23.3-4.42.49a32.23,32.23,0,0,0-8.73,2.82,6.51,6.51,0,0,1-2.84.68,5.91,5.91,0,0,1-4-1.58l-.18-.16.81,1.43a4.86,4.86,0,0,1-.33,5.12,47.39,47.39,0,0,0-5.3,10.71,42.27,42.27,0,0,1-6.85,12.24,4.12,4.12,0,0,1,0,4.26,35.13,35.13,0,0,0-1.86,3.54,4.07,4.07,0,0,1,1.1.41l.1.06a4.25,4.25,0,0,1,2.13,4.7,13.4,13.4,0,0,0,1.19,9.12,3.84,3.84,0,0,1,.83-.09,4.16,4.16,0,0,1,3.06,1.34A23.17,23.17,0,0,0,429.7,96a4.12,4.12,0,0,1,1-1.57A4.18,4.18,0,0,1,433.64,93.21Z"/><path class="cls-1" d="M192.84,103.75a51.37,51.37,0,0,1-15.77-2.47,50.07,50.07,0,0,1-18.44-10.54,50.19,50.19,0,0,1-16.81-37.3,50.6,50.6,0,0,1,3.57-18.72,51.18,51.18,0,0,1,9.86-15.83A49.57,49.57,0,0,1,189.63,2.77c.37,0,.73,0,1.1,0h2.74A52.16,52.16,0,0,1,209.88,5.4a23.41,23.41,0,0,1,15.88,19L227.86,39a23.65,23.65,0,0,1-2.37,14.11A23.6,23.6,0,0,1,228,67.36l-2,14.1a23.42,23.42,0,0,1-13.5,18.12,43.53,43.53,0,0,1-14.18,3.88A52,52,0,0,1,192.84,103.75Z"/><path class="cls-1" d="M212,102.23A23.55,23.55,0,0,1,188.52,78.7V27.36A23.44,23.44,0,0,1,209.77,3.94L223.62,2.6c.75-.07,1.51-.11,2.27-.11A23.53,23.53,0,0,1,249.41,26V43.1a23.52,23.52,0,0,1,19.38,29.51l-3.38,12.32a23.6,23.6,0,0,1-22.69,17.3Z"/><path class="cls-1" d="M263.65,105.24a23.54,23.54,0,0,1-5.22-.59l-13.22-3A23.52,23.52,0,0,1,229.47,68l28.14-55.18a23.52,23.52,0,0,1,41.9,0L327.71,68a23.51,23.51,0,0,1-15.95,33.69l-13.2,2.87a24,24,0,0,1-5,.53,23.34,23.34,0,0,1-14.89-5.3A23.69,23.69,0,0,1,263.65,105.24Z"/><path class="cls-1" d="M330.19,103.69a47.47,47.47,0,0,1-16.56-2.89A53.82,53.82,0,0,1,302,95.17a40.23,40.23,0,0,1-6.87-5.28,23.4,23.4,0,0,1-1.63-31.53,38.69,38.69,0,0,1-3.19-15.9v-.72a38.35,38.35,0,0,1,6.15-20.45A39.74,39.74,0,0,1,311.35,7.48a42.39,42.39,0,0,1,19-5h1c13.32,0,25.09,4.74,34.07,13.69a23.41,23.41,0,0,1,3.31,29.17,44,44,0,0,1,4,17.47c0,.22,0,.46,0,.7v.76a37.75,37.75,0,0,1-5.56,20l-.11.18a39.32,39.32,0,0,1-16,14.46,47.62,47.62,0,0,1-19.63,4.76h-1.15Z"/><path class="cls-1" d="M386,103.38a23.4,23.4,0,0,1-9.66-2.08,23.6,23.6,0,0,1-4.57.85l-13.72,1.15c-.66,0-1.31.08-2,.08a23.53,23.53,0,0,1-23.52-23.52V27.36A23.63,23.63,0,0,1,354.23,3.91L368,2.82c.62,0,1.24-.08,1.86-.08a23.55,23.55,0,0,1,9.58,2,24,24,0,0,1,4.55-.86l13.79-1.21c.7-.06,1.38-.09,2.06-.09a23.52,23.52,0,0,1,23.53,23.52V78.7a23.67,23.67,0,0,1-21.57,23.45L388,103.3C387.32,103.35,386.66,103.38,386,103.38Z"/><path class="cls-1" d="M51,180.31a51.36,51.36,0,0,1-15.76-2.48,50.07,50.07,0,0,1-18.44-10.54A49.26,49.26,0,0,1,4.44,150.47,48.84,48.84,0,0,1,0,130a50.79,50.79,0,0,1,3.56-18.72,51.63,51.63,0,0,1,9.86-15.82A49.57,49.57,0,0,1,47.8,79.32q.56,0,1.11,0h2.74A51.91,51.91,0,0,1,68.07,82a23.38,23.38,0,0,1,15.87,19L86,115.54a23.64,23.64,0,0,1-2.37,14.11,23.71,23.71,0,0,1,2.51,14.27L84.2,158a23.42,23.42,0,0,1-13.5,18.12A43.52,43.52,0,0,1,56.51,180,51.85,51.85,0,0,1,51,180.31Z"/><path class="cls-1" d="M97.12,180.12H96.4a54.21,54.21,0,0,1-20-4.34,50.93,50.93,0,0,1-16.52-11.38,48.88,48.88,0,0,1-10.77-17.13A51.67,51.67,0,0,1,46,129.49s0-1.44,0-1.61a49,49,0,0,1,7.65-25.31A50,50,0,0,1,72.87,84.93a51.87,51.87,0,0,1,24.52-6h.24A51.47,51.47,0,0,1,142,104.46a50.23,50.23,0,0,1,6.75,25.36s0,.66,0,.83a49.8,49.8,0,0,1-7.58,25.47,51.13,51.13,0,0,1-43.25,24Z"/><path class="cls-1" d="M162,182.86a23.63,23.63,0,0,1-11.8-3.26,23.22,23.22,0,0,1-8.09.5L129,178.63a23.52,23.52,0,0,1-20.16-29.28l14-54.09a23.62,23.62,0,0,1,20.41-17.5,23,23,0,0,1,2.36-.12,23.67,23.67,0,0,1,16.82,7.11,23.4,23.4,0,0,1,16.73-7,25.79,25.79,0,0,1,2.64.14,23.65,23.65,0,0,1,20.18,17.63l13.58,53.84a23.51,23.51,0,0,1-20.77,29.18l-13.2,1.16c-.69.06-1.38.09-2.06.09a23.66,23.66,0,0,1-5-.53,23.67,23.67,0,0,1-12.48,3.58Z"/><path class="cls-1" d="M228.92,182.86a23.66,23.66,0,0,1-11.8-3.26,23.22,23.22,0,0,1-8.09.5L196,178.63a23.52,23.52,0,0,1-20.15-29.28l14-54.09a23.62,23.62,0,0,1,20.41-17.5,23.07,23.07,0,0,1,2.37-.12,23.66,23.66,0,0,1,16.81,7.11,23.42,23.42,0,0,1,16.74-7,25.79,25.79,0,0,1,2.64.14A23.63,23.63,0,0,1,269,95.54l13.58,53.84a23.51,23.51,0,0,1-20.76,29.18l-13.21,1.16c-.68.06-1.37.09-2.06.09a23.73,23.73,0,0,1-5-.53,23.62,23.62,0,0,1-12.48,3.58Z"/><path class="cls-1" d="M285.47,180.37a47,47,0,0,1-19.9-4.22A39.88,39.88,0,0,1,248,160.53a41.77,41.77,0,0,1-6.15-22.37V103.78a23.41,23.41,0,0,1,21.41-23.42l13.46-1.22c.7-.06,1.41-.1,2.11-.1a23.64,23.64,0,0,1,9.42,2,22.91,22.91,0,0,1,3.3-.53l13.58-1.22q1-.09,2.1-.09a23.52,23.52,0,0,1,23.52,23.52v34c0,16.9-7.57,27-13.93,32.52-7.95,7-17.91,10.75-29.58,11.14l-.8,0Z"/><path class="cls-1" d="M358.82,182.41a23.52,23.52,0,0,1-15.71-6l-2.48-2.22a23.62,23.62,0,0,1-11.92,4.51l-13.2,1.15c-.68.06-1.36.09-2.05.09a23.52,23.52,0,0,1-23.52-23.52V100.46A23.53,23.53,0,0,1,329.27,83l2.36,2.15a23.61,23.61,0,0,1,11.82-4.68l12.94-1.34c.82-.08,1.63-.13,2.43-.13a23.53,23.53,0,0,1,23.52,23.53v56.32a23.52,23.52,0,0,1-23.52,23.52Z"/><path class="cls-1" d="M368.52,179.81A23.53,23.53,0,0,1,345,156.28V103.91A23.46,23.46,0,0,1,366.13,80.5l13.15-1.33a21.09,21.09,0,0,1,2.38-.13,23.54,23.54,0,0,1,23.53,23.53v52.69a23.64,23.64,0,0,1-21.69,23.45l-13.15,1C369.74,179.78,369.13,179.81,368.52,179.81Z"/><path class="cls-1" d="M404.7,179.93a23.52,23.52,0,0,1-23.53-23.52V137.73a23.52,23.52,0,0,1-13-27.74l3.44-12.38a23.6,23.6,0,0,1,22.66-17.23h36.43a23.56,23.56,0,0,1,23.53,23.53v12.38a23.66,23.66,0,0,1-12.82,21v18A23.39,23.39,0,0,1,420,178.69l-13.21,1.15C406.07,179.9,405.38,179.93,404.7,179.93Z"/><path class="cls-1" d="M440.16,179.81a23.53,23.53,0,0,1-23.52-23.53V103.91A23.46,23.46,0,0,1,437.78,80.5l13.14-1.33a21.4,21.4,0,0,1,2.39-.13,23.54,23.54,0,0,1,23.52,23.53v52.69a23.64,23.64,0,0,1-21.69,23.45l-13.14,1C441.38,179.78,440.77,179.81,440.16,179.81Z"/><path class="cls-1" d="M462.5,178.78A23.55,23.55,0,0,1,439,155.26V103.91A23.56,23.56,0,0,1,462.5,80.38h30.62A23.43,23.43,0,0,1,516,98.63L518.65,110a23.34,23.34,0,0,1-3.59,18.69q.48.57.93,1.17a23.62,23.62,0,0,1,3.69,20.77L516.3,162a23.67,23.67,0,0,1-22.55,16.81Z"/><path class="cls-1" d="M521.83,180.24a47.51,47.51,0,0,1-16.56-2.89,53.81,53.81,0,0,1-11.61-5.62,41.55,41.55,0,0,1-6.87-5.29,23.41,23.41,0,0,1-1.63-31.53A38.69,38.69,0,0,1,482,119v-.72a38.42,38.42,0,0,1,6.14-20.45A39.85,39.85,0,0,1,503,84a42.57,42.57,0,0,1,19-5h1C536.26,79,548,83.78,557,92.73a23.4,23.4,0,0,1,3.32,29.17,44.16,44.16,0,0,1,3.95,17.47c0,.22,0,.46,0,.7v.76a37.75,37.75,0,0,1-5.56,20l-.12.19a39.34,39.34,0,0,1-16,14.45A47.66,47.66,0,0,1,523,180.23h-1.16Z"/><path d="M192.84,97.87a45.22,45.22,0,0,1-14-2.19,44.37,44.37,0,0,1-16.32-9.32,43.52,43.52,0,0,1-10.93-14.85,43,43,0,0,1-3.93-18.07,44.68,44.68,0,0,1,3.16-16.56,45.5,45.5,0,0,1,8.73-14A43.71,43.71,0,0,1,189.91,8.64l.82,0h2.74A46.34,46.34,0,0,1,208,11a17.65,17.65,0,0,1,11.91,14.24L222,39.83a17.63,17.63,0,0,1-3.51,13.31,17.61,17.61,0,0,1,3.64,13.41l-2,14.09a17.65,17.65,0,0,1-10.13,13.59,37.42,37.42,0,0,1-12.26,3.37A46.26,46.26,0,0,1,192.84,97.87Z"/><path d="M212,96.35A17.65,17.65,0,0,1,194.4,78.7V27.36A17.65,17.65,0,0,1,210.34,9.79l13.85-1.33a16,16,0,0,1,1.7-.09A17.65,17.65,0,0,1,243.53,26V48.74h2.57a17.64,17.64,0,0,1,17,22.31l-3.38,12.32a17.64,17.64,0,0,1-17,13Z"/><path d="M263.65,99.35a17.52,17.52,0,0,1-3.92-.44l-13.21-3a17.65,17.65,0,0,1-11.81-25.22l28.14-55.18a17.63,17.63,0,0,1,15.71-9.63h0a17.65,17.65,0,0,1,15.71,9.61l28.19,55.19a17.63,17.63,0,0,1-12,25.26l-13.2,2.87A17.66,17.66,0,0,1,278.65,91,17.67,17.67,0,0,1,263.65,99.35Z"/><path d="M330.19,97.81a41.55,41.55,0,0,1-14.52-2.53,47.91,47.91,0,0,1-10.42-5,35.49,35.49,0,0,1-5.95-4.54,17.65,17.65,0,0,1-1.11-23.79l2.31-2.78c-.42-.74-.82-1.52-1.2-2.31a32.52,32.52,0,0,1-3.09-14.38v-.61a32.54,32.54,0,0,1,5.22-17.38,34,34,0,0,1,12.72-11.81,36.37,36.37,0,0,1,16.32-4.28h.86c11.7,0,22,4.14,29.88,12a17.64,17.64,0,0,1,1.1,23.78l-.57.69a36.69,36.69,0,0,1,5,18.17c0,.18,0,.35,0,.53v.76a32,32,0,0,1-4.69,16.93l-.11.17a33.46,33.46,0,0,1-13.63,12.28,41.6,41.6,0,0,1-17.19,4.14h-1Z"/><path d="M356.09,97.5a17.65,17.65,0,0,1-17.64-17.64V27.36A17.64,17.64,0,0,1,354.69,9.77l13.72-1.09c.47,0,.94-.06,1.4-.06A17.62,17.62,0,0,1,379,11.18a17.6,17.6,0,0,1,5.5-1.4l13.78-1.21c.52-.05,1-.07,1.55-.07a17.63,17.63,0,0,1,17.64,17.64V78.7a17.65,17.65,0,0,1-16.17,17.59l-13.78,1.15q-.74.06-1.47.06a17.64,17.64,0,0,1-9.21-2.59,18,18,0,0,1-5.51,1.38l-13.72,1.15C357.07,97.48,356.58,97.5,356.09,97.5Z"/><path d="M51,174.43a45.56,45.56,0,0,1-14-2.19,44.49,44.49,0,0,1-16.31-9.33A43.39,43.39,0,0,1,9.81,148.06,43,43,0,0,1,5.88,130,44.87,44.87,0,0,1,9,113.43a45.46,45.46,0,0,1,8.74-14A43.82,43.82,0,0,1,48.08,85.19l.83,0h2.74a46.17,46.17,0,0,1,14.57,2.37,17.64,17.64,0,0,1,11.9,14.23l2.1,14.61a17.67,17.67,0,0,1-3.51,13.31,17.65,17.65,0,0,1,3.64,13.41l-2,14.09a17.62,17.62,0,0,1-10.12,13.59A37.69,37.69,0,0,1,56,174.16,49.19,49.19,0,0,1,51,174.43Z"/><path d="M97.12,174.24h-.53a48.52,48.52,0,0,1-17.88-3.86A45,45,0,0,1,64.09,160.3a42.76,42.76,0,0,1-9.48-15.08,45.75,45.75,0,0,1-2.74-15.73s0-1.32,0-1.47a43.21,43.21,0,0,1,6.74-22.3,44.07,44.07,0,0,1,17-15.58A46.09,46.09,0,0,1,97.39,84.8h.24a45.58,45.58,0,0,1,39.25,22.61,44.28,44.28,0,0,1,6,22.41s0,.54,0,.69A43.88,43.88,0,0,1,136.14,153a45.26,45.26,0,0,1-38.26,21.24Z"/><path d="M162,177a17.62,17.62,0,0,1-10.84-3.83,17.45,17.45,0,0,1-6.42,1.21,16.66,16.66,0,0,1-2-.11l-13.08-1.46a17.63,17.63,0,0,1-15.11-22l14-54.09a17.64,17.64,0,0,1,32.93-3.32l.94,1.92,1.05-2.06a17.64,17.64,0,0,1,15.71-9.63,16.43,16.43,0,0,1,2,.11A17.65,17.65,0,0,1,196.35,97l13.58,53.84a17.64,17.64,0,0,1-15.58,21.89l-13.2,1.15c-.52,0-1,.07-1.55.07a17.49,17.49,0,0,1-6.1-1.09A17.64,17.64,0,0,1,162.14,177Z"/><path d="M228.92,177a17.57,17.57,0,0,1-10.83-3.83,17.52,17.52,0,0,1-6.42,1.21,16.43,16.43,0,0,1-2-.11l-13.09-1.46a17.63,17.63,0,0,1-15.11-22l14-54.09a17.64,17.64,0,0,1,32.93-3.32l.94,1.92,1.06-2.06a17.62,17.62,0,0,1,15.71-9.63,16.66,16.66,0,0,1,2,.11A17.65,17.65,0,0,1,263.27,97l13.58,53.84a17.64,17.64,0,0,1-15.57,21.89l-13.21,1.15c-.52,0-1,.07-1.55.07a17.53,17.53,0,0,1-6.1-1.09A17.64,17.64,0,0,1,229.06,177Z"/><path d="M285.47,174.49A41.09,41.09,0,0,1,268,170.81a33.93,33.93,0,0,1-15-13.34,35.93,35.93,0,0,1-5.3-19.31V103.78a17.65,17.65,0,0,1,16.06-17.57L277.24,85c.53,0,1.06-.07,1.58-.07a17.67,17.67,0,0,1,8.85,2.37,17.27,17.27,0,0,1,4.39-1l13.58-1.22c.53-.05,1.05-.07,1.58-.07a17.64,17.64,0,0,1,17.64,17.64v34c0,14.68-6.47,23.37-11.9,28.07-6.9,6.07-15.66,9.37-25.93,9.72h-1.56Z"/><path d="M358.82,176.53A17.63,17.63,0,0,1,347,172l-6.52-5.84a17.6,17.6,0,0,1-12.32,6.65L315,174c-.52.05-1,.07-1.54.07a17.63,17.63,0,0,1-17.64-17.64V100.46a17.64,17.64,0,0,1,29.5-13.06l6.47,5.87a17.63,17.63,0,0,1,12.27-6.91L357,85c.6-.06,1.21-.09,1.82-.09a17.65,17.65,0,0,1,17.64,17.64v56.32a17.63,17.63,0,0,1-17.64,17.64Z"/><path d="M368.52,173.93a17.64,17.64,0,0,1-17.64-17.65V103.91a17.64,17.64,0,0,1,15.85-17.55L379.87,85c.6-.06,1.2-.09,1.79-.09a17.65,17.65,0,0,1,17.65,17.64v52.69A17.65,17.65,0,0,1,383,172.85l-13.15,1C369.43,173.91,369,173.93,368.52,173.93Z"/><path d="M404.7,174.05a17.63,17.63,0,0,1-17.64-17.64V133.52a17.65,17.65,0,0,1-13.21-22l3.45-12.38a17.63,17.63,0,0,1,17-12.91h36.43a17.64,17.64,0,0,1,17.65,17.64v12.38a17.64,17.64,0,0,1-12.82,17v22a17.64,17.64,0,0,1-16.11,17.57L406.23,174C405.72,174,405.21,174.05,404.7,174.05Z"/><path d="M440.16,173.93a17.64,17.64,0,0,1-17.64-17.65V103.91a17.64,17.64,0,0,1,15.85-17.55L451.52,85A17.65,17.65,0,0,1,471,102.57v52.69a17.65,17.65,0,0,1-16.27,17.59l-13.14,1Q440.85,173.93,440.16,173.93Z"/><path d="M462.5,172.9a17.65,17.65,0,0,1-17.65-17.64V103.91A17.64,17.64,0,0,1,462.5,86.27h30.62A17.65,17.65,0,0,1,510.31,100l2.61,11.35a17.66,17.66,0,0,1-3.38,15,18.18,18.18,0,0,1-1.79,1.93v1.63a18,18,0,0,1,3.53,3.55A17.63,17.63,0,0,1,514,148.94l-3.38,11.35a17.63,17.63,0,0,1-16.91,12.61Z"/><path d="M521.83,174.36a41.81,41.81,0,0,1-14.52-2.52,48.37,48.37,0,0,1-10.42-5,35.92,35.92,0,0,1-5.95-4.54,17.64,17.64,0,0,1-1.11-23.78l2.32-2.79c-.43-.74-.83-1.51-1.21-2.31A32.49,32.49,0,0,1,487.85,119s0-.53,0-.61A32.48,32.48,0,0,1,493.08,101a34,34,0,0,1,12.71-11.81,36.38,36.38,0,0,1,16.33-4.28H523c11.7,0,22,4.14,29.89,12a17.65,17.65,0,0,1,1.1,23.78l-.58.69a36.83,36.83,0,0,1,5,18.17c0,.18,0,.35,0,.53v.76a31.92,31.92,0,0,1-4.7,16.93,1.74,1.74,0,0,1-.11.18A33.41,33.41,0,0,1,540,170.21a41.49,41.49,0,0,1-17.2,4.14h-1Z"/><path class="cls-2" d="M202.48,27.73l2.1,14.61a14.29,14.29,0,0,0-10-3.9,15,15,0,0,0-11,4.47,14.3,14.3,0,0,0-4.26,10.47V54a13.84,13.84,0,0,0,5.11,10.39,14.48,14.48,0,0,0,9.68,3.64,8.89,8.89,0,0,0,1-.06,15.86,15.86,0,0,0,9.56-3.89l-2,14.09A19.66,19.66,0,0,1,196.09,80a28,28,0,0,1-11.81-1.15,26.89,26.89,0,0,1-9.95-5.67,26,26,0,0,1-6.63-9,25.36,25.36,0,0,1-2.35-10.78,27.06,27.06,0,0,1,1.91-10.07,27.9,27.9,0,0,1,5.36-8.62,26.28,26.28,0,0,1,8.1-6,25.69,25.69,0,0,1,10-2.49h2.74A28.29,28.29,0,0,1,202.48,27.73Z"/><path class="cls-2" d="M225.88,26V66.38H246.1L242.72,78.7H212V27.36Z"/><path class="cls-2" d="M250.43,78.7l28.14-55.18L306.76,78.7l-13.19,2.87-5.63-11.74H268.61l-5,11.88Zm33-19.71-5.23-11.54L273.08,59Z"/><path class="cls-2" d="M348.75,32.84,341.15,42c0-.21-.31-.66-.95-1.34a10.88,10.88,0,0,0-3-1.85,12.53,12.53,0,0,0-4.78-1H332a5.79,5.79,0,0,0-2.92.77,3.47,3.47,0,0,0-1.73,2.62,2.14,2.14,0,0,0-.06.5,3,3,0,0,0,1.21,2.49A9.81,9.81,0,0,0,332.23,46c1.53.47,3,.92,4.53,1.34q6.64,2,9.44,5.94a18.87,18.87,0,0,1,2.93,10.26v.76A14.47,14.47,0,0,1,347,72a16,16,0,0,1-6.57,5.87,24,24,0,0,1-9.89,2.29h-.37a23.88,23.88,0,0,1-8.49-1.47,31.27,31.27,0,0,1-6.76-3.18,26.35,26.35,0,0,1-3.19-2.3l8-9.58a19.68,19.68,0,0,0,3.77,3,9.22,9.22,0,0,0,5.16,1.46c.42,0,.85,0,1.27-.06a11.59,11.59,0,0,0,4.28-1.09c1-.55,1.55-1.64,1.6-3.26v-.12a3.14,3.14,0,0,0-1.92-2.87A34,34,0,0,0,328,58.41a29.48,29.48,0,0,1-5.24-1.77,26.82,26.82,0,0,1-4.26-3,12.52,12.52,0,0,1-3.26-4.45,15,15,0,0,1-1.34-6.72v-.37a15.08,15.08,0,0,1,2.43-8.1,16.62,16.62,0,0,1,6.25-5.81A18.68,18.68,0,0,1,331,26h.38Q341.92,26,348.75,32.84Z"/><path class="cls-2" d="M386,79.86V58.16h-16.2V78.7l-13.72,1.16V27.36l13.72-1.09v20H386V27.36l13.78-1.22V78.7Z"/><path class="cls-2" d="M60.65,104.28l2.11,14.61a14.35,14.35,0,0,0-10-3.89,15,15,0,0,0-11,4.47,14.27,14.27,0,0,0-4.27,10.46v.64A13.87,13.87,0,0,0,42.6,141a14.52,14.52,0,0,0,9.69,3.64,8.89,8.89,0,0,0,1-.06,15.88,15.88,0,0,0,9.56-3.89l-2,14.09a19.88,19.88,0,0,1-6.63,1.86,30.09,30.09,0,0,1-3.26.18,27.49,27.49,0,0,1-8.55-1.34,26.93,26.93,0,0,1-10-5.66,26.16,26.16,0,0,1-6.64-9A25.48,25.48,0,0,1,23.52,130a27.1,27.1,0,0,1,1.92-10.07,27.9,27.9,0,0,1,5.36-8.62,26.28,26.28,0,0,1,8.1-6,25.69,25.69,0,0,1,10-2.49h2.74A28.27,28.27,0,0,1,60.65,104.28Z"/><path class="cls-2" d="M97.63,102.44a27.8,27.8,0,0,1,14,3.82,27.51,27.51,0,0,1,10,10,26.73,26.73,0,0,1,3.56,13.54v.25a26.42,26.42,0,0,1-4,13.59,27.23,27.23,0,0,1-10.27,9.62,27,27,0,0,1-13,3.32h-.76a31.1,31.1,0,0,1-11.41-2.42,27.45,27.45,0,0,1-8.93-6.13,25.24,25.24,0,0,1-5.61-8.92,27.75,27.75,0,0,1-1.66-9.64v-1a25.84,25.84,0,0,1,4-13.34,26.66,26.66,0,0,1,10.26-9.38,28.65,28.65,0,0,1,13.6-3.32ZM97,114.76a13.59,13.59,0,0,0-7.4,2.29,15.49,15.49,0,0,0-5.35,5.87,14.49,14.49,0,0,0-1.79,7v.76a13,13,0,0,0,2.49,7,15.35,15.35,0,0,0,5.8,5.16,13.87,13.87,0,0,0,6.5,1.66h.63a14.67,14.67,0,0,0,10.28-5.29,13.67,13.67,0,0,0,3.89-9.37c0-.51,0-1-.06-1.54a15.79,15.79,0,0,0-2.43-7,14.74,14.74,0,0,0-5.42-5,14.94,14.94,0,0,0-6.89-1.67Z"/><path class="cls-2" d="M131.64,155.26l14-54.09,16.46,33.67,17.1-33.55,13.58,53.84-13.21,1.15-4.27-22.84-13.2,25.9-12.82-26.15-4.6,23.53Z"/><path class="cls-2" d="M198.57,155.26l14-54.09,16.46,33.67,17.1-33.55,13.58,53.84-13.2,1.15-4.27-22.84-13.21,25.9-12.82-26.15-4.59,23.53Z"/><path class="cls-2" d="M265.37,138.16V103.78l13.45-1.21v33.36q0,8.28,7,8.28a10.34,10.34,0,0,0,1.08-.06c2.94-.25,4.8-1.22,5.56-2.93a14.42,14.42,0,0,0,1.14-5.93V103.91l13.59-1.22v34q0,9.7-5.81,14.73t-15,5.42h-1a23.45,23.45,0,0,1-10-2,16.5,16.5,0,0,1-7.4-6.57A18.49,18.49,0,0,1,265.37,138.16Z"/><path class="cls-2" d="M313.46,156.41V100.46l32.41,29.41v-26l12.94-1.34v56.32l-32.14-28.83v25.2Z"/><path class="cls-2" d="M368.52,156.28V103.91l13.14-1.34v52.69Z"/><path class="cls-2" d="M430.72,116.29H417.91v39l-13.21,1.15V116.29H390.85l3.44-12.38h36.43Z"/><path class="cls-2" d="M440.16,156.28V103.91l13.15-1.34v52.69Z"/><path class="cls-2" d="M462.5,155.26V103.91h30.62l2.61,11.35h-20v8.1h14.41v11.35H475.58v9.19h21.55l-3.38,11.36Z"/><path class="cls-2" d="M540.4,109.39l-7.6,9.13c0-.22-.32-.67-.95-1.34a10.87,10.87,0,0,0-3-1.86,12.49,12.49,0,0,0-4.78-1h-.45a5.71,5.71,0,0,0-2.93.78,3.46,3.46,0,0,0-1.73,2.61,2.2,2.2,0,0,0-.06.5,3,3,0,0,0,1.22,2.49,9.83,9.83,0,0,0,3.76,1.79c1.53.47,3,.92,4.54,1.34q6.63,2,9.44,5.94a18.89,18.89,0,0,1,2.92,10.26v.76a14.56,14.56,0,0,1-2.1,7.73,16.08,16.08,0,0,1-6.57,5.87,23.92,23.92,0,0,1-9.89,2.29h-.38a24,24,0,0,1-8.48-1.46,31.27,31.27,0,0,1-6.76-3.19,27.21,27.21,0,0,1-3.2-2.29l8-9.58a19.09,19.09,0,0,0,3.77,2.94,9.11,9.11,0,0,0,5.15,1.46c.43,0,.85,0,1.28-.06a11.34,11.34,0,0,0,4.27-1.09c1-.55,1.56-1.63,1.6-3.25v-.13a3.13,3.13,0,0,0-1.91-2.86,33.21,33.21,0,0,0-5.94-2.25,28.47,28.47,0,0,1-5.23-1.77,26.91,26.91,0,0,1-4.27-3,12.51,12.51,0,0,1-3.25-4.45A14.9,14.9,0,0,1,505.5,119v-.37a15.08,15.08,0,0,1,2.43-8.1,16.6,16.6,0,0,1,6.24-5.81,18.72,18.72,0,0,1,8.43-2.16H523Q533.56,102.57,540.4,109.39Z"/><path d="M268.07,124a31,31,0,0,1-11.41-2.45,28.05,28.05,0,0,1-9.13-6.27,26.3,26.3,0,0,1-5.82-9.26,28.59,28.59,0,0,1-1.7-9.84v-1a26.72,26.72,0,0,1,4.16-13.78,27.31,27.31,0,0,1,10.54-9.65,29,29,0,0,1,13.75-3.37h.2a28.51,28.51,0,0,1,24.51,14.13,27.51,27.51,0,0,1,3.68,13.91v.34a27.3,27.3,0,0,1-4.14,14A28.26,28.26,0,0,1,268.87,124Zm-6.45-27a5.37,5.37,0,0,0,1.05,2.79l.08.11a7.15,7.15,0,0,0,2.74,2.43,6.08,6.08,0,0,0,2.85.77h.35a6.61,6.61,0,0,0,4.58-2.55,5.76,5.76,0,0,0,1.8-4.07c0-.25,0-.51,0-.77a7.4,7.4,0,0,0-1.16-3.27,6.53,6.53,0,0,0-2.44-2.22,6.78,6.78,0,0,0-3.1-.73h-.16a5.71,5.71,0,0,0-3.13,1,7.38,7.38,0,0,0-2.59,2.82,6.68,6.68,0,0,0-.84,3.23Z"/><path d="M291.37,123.93a5.5,5.5,0,0,1-3.68-1.43,5.45,5.45,0,0,1-1.79-4V75.07a5.47,5.47,0,0,1,5.47-5.47h23.72a5.47,5.47,0,0,1,5.26,4L323,82.92a5.47,5.47,0,0,1-5.11,7,5.44,5.44,0,0,1,1.33,3.57V103a5.47,5.47,0,0,1-5.47,5.47h-5.94v8.89a5.48,5.48,0,0,1-4.95,5.45l-11,1.05A4.71,4.71,0,0,1,291.37,123.93Z"/><path class="cls-1" d="M271.4,80.78a15.88,15.88,0,0,1,13.65,7.87,15.21,15.21,0,0,1,2,7.71v.14a15,15,0,0,1-2.29,7.73,15.7,15.7,0,0,1-13.25,7.37h-.44a17.69,17.69,0,0,1-6.49-1.38,15.5,15.5,0,0,1-5.08-3.49,14.49,14.49,0,0,1-3.2-5.08,16,16,0,0,1-.94-5.48v-.58A14.77,14.77,0,0,1,257.68,88a15.09,15.09,0,0,1,5.84-5.33,16.22,16.22,0,0,1,7.73-1.89Zm-.37,7a7.7,7.7,0,0,0-4.2,1.3,8.83,8.83,0,0,0-3.05,3.34,8.29,8.29,0,0,0-1,4v.43a7.42,7.42,0,0,0,1.42,4,8.72,8.72,0,0,0,3.3,2.93,7.91,7.91,0,0,0,3.7.94h.36a8.33,8.33,0,0,0,5.85-3,7.78,7.78,0,0,0,2.21-5.33,8.78,8.78,0,0,0-1.42-4.83,8.26,8.26,0,0,0-3.08-2.82,8.37,8.37,0,0,0-3.92-.95Z"/><path class="cls-1" d="M290.68,111.56V81.61h16.37l1.85,6.46H298.27v6.24h7.87v6.61h-7.87v9.91Z"/><g id="oso"><polygon class="cls-3" points="83.94 27.29 99.23 39.17 120.74 35.84 129.45 36.18 148.56 40.33 167.31 28.95 163.31 25.47 154.65 26.46 149.58 30.07 146.11 34.56 125.85 30.2 102.79 34.31 96.25 26.46 88.12 25.09 83.94 27.29"/><path class="cls-4" d="M99.85,38.09c-5.06-11.38-18.13-11-18.13-11s-6.27,2.05-6.93,12c-.53,8,5.73,10.59,6.75,16.11C82.44,60,76,62.57,74.79,68,73.43,74.33,75.85,84.65,76,86.41c0,0,10.49,24.25,47.11,23.09s50.66-19.43,51.55-33.88c0,0,.47-4.21-3.56-12.12s-4.26-12.45-4.26-12.45,13.26-9.47,4.06-20.72c-14.34-7.82-22.51,7-22.33,7.85-2.25-1-13.58-4.57-24.66-4.58C112.34,33.6,101.14,37.67,99.85,38.09Z"/><path class="cls-3" d="M94.16,104.6S81.54,87.41,79.94,81.18s2.14-12.87,2.14-12.87,1.87-18,7.64-22.79L74.06,67.63v12.2l1.73,6.73Z"/><path class="cls-5" d="M133,107.93s19.87-6.51,23.34-12.47c0,0,.27,2.49-.44,3.37s15.73-11.59,11.33-21.39A13.58,13.58,0,0,1,173,83.07c-.66,2.4-9.31,13.32-15.92,17.77C146.75,107.27,133,107.93,133,107.93Z"/><path class="cls-5" d="M159.73,36.5s3.37-6.16,9.25.74a13.66,13.66,0,0,1-3.83,13.06l-2.55-2.41,2-6.23Z"/><path class="cls-5" d="M88.62,36s-3.38-6.17-9.26.74c0,0-2.18,6.83,3.84,13.05l2.55-2.41-2-6.23Z"/><ellipse class="cls-2" cx="142.68" cy="64.27" rx="6.67" ry="7.15"/><polygon class="cls-6" points="103.45 77.65 111.72 70.43 117.05 67.69 122.25 66.57 127.98 66.69 131.98 67.94 136.11 69.81 138.65 72.3 144.25 76.91 147.31 81.76 147.98 89.11 145.85 94.59 135.71 105.55 124.78 109.29 113.98 105.8 107.05 100.57 102.65 94.59 100.39 87.86 101.32 82.01 103.45 77.65"/><path class="cls-7" d="M116.69,105.05s14.18,3.76,21.93-6.61l-.57,3.64-6.22,4.74-7,1.88h-4.7Z"/><polygon class="cls-2" points="111.76 91.14 117.18 91.73 125 90.23 132.47 91.64 138.16 89.9 137.54 92.56 133.72 95.21 128.03 96.88 122.61 97.21 116.92 96.04 113.98 94.3 111.76 91.14"/><path d="M124.86,98.43c11.65-.31,14.83-7.33,15.34-9l-1-.44S136,96,125,96.13h-.16C113.75,96,110.62,89,110.62,89l-1,.44c.51,1.66,3.69,8.68,15.33,9Z"/><path d="M124.86,73.32c1.36,0,2.72,0,4.07.13a17.81,17.81,0,0,1,4.62,1c2.56.89,3.33,3,2.11,5.33a9,9,0,0,1-4.43,3.9c-1.65.74-3.31,1.44-5,2.13-.38.16-.52.27-.46.71a4.85,4.85,0,0,0,4.27,3.86,10.38,10.38,0,0,0,11-6.33c.18-.44.09-.7-.38-.81-.71-.18-1.42-.33-2.11-.48.54-.92,1.89-1.25,3.35-.82,1.8.52,3.47,2.19,3.22,4.08l-1.82-1.43a31.13,31.13,0,0,1-1.66,3,11.88,11.88,0,0,1-11,5.37,22.25,22.25,0,0,1-4.38-.89,5.1,5.1,0,0,0-1.25-.18h-.25a5.17,5.17,0,0,0-1.25.18,22.11,22.11,0,0,1-4.38.89,11.88,11.88,0,0,1-11-5.37,33.4,33.4,0,0,1-1.66-3L104.63,86c-.25-1.89,1.41-3.56,3.22-4.08,1.45-.43,2.8-.1,3.34.82-.69.15-1.4.3-2.11.48-.47.11-.55.37-.38.81a10.38,10.38,0,0,0,11,6.33A4.85,4.85,0,0,0,124,86.51c.06-.44-.08-.55-.46-.71-1.67-.69-3.34-1.39-5-2.13a9,9,0,0,1-4.44-3.9c-1.22-2.3-.45-4.44,2.11-5.33a17.81,17.81,0,0,1,4.62-1c1.35-.09,2.71-.13,4.07-.13Z"/><path class="cls-8" d="M125.09,78.81c1.29-.1,2.64-.38,3.94-.61,1.51-.26,3.7-1.42,3.15-1.47-2.46-.24-4.54-.61-7-.64h-.52a51.88,51.88,0,0,0-6.78.84c-.59.1,1.52,1,3.43,1.42C122.34,78.57,125.09,78.81,125.09,78.81Z"/><path d="M114.5,69.39c-.17.11-.36.2-.62.34a12.7,12.7,0,0,1,10.39-4.51c4.89.06,8.32,1.93,10.45,4.51-.27-.14-.45-.23-.63-.34-2.55-1.49-8.17-1.7-9.86-1.71S117.06,67.9,114.5,69.39Z"/><path d="M130.5,54c-.4-2.38,2.66-5.42,6.87-6.67C134.63,49.18,132.08,51.13,130.5,54Z"/><path d="M119.21,54c.39-2.38-2.67-5.42-6.88-6.67C115.07,49.18,117.62,51.13,119.21,54Z"/><path d="M124.1,109.25c-2.41,0-12.25-1.71-19.45-3.57S89.16,99,87.12,97.29c-4.06-3.45-10.32-10.12-7.31-17.15a44,44,0,0,0-3.58,3.07A2.55,2.55,0,0,1,75.78,82c-.67-4.83,1.89-8.5,4.83-11.92L75.45,68.7a18.67,18.67,0,0,0,6.25-7.63c1.35-2.61,2.61-5.27,4-7.87,2.52-4.79,4.77-9.75,9.76-12.92A21.78,21.78,0,0,0,91.23,34c-1.65-1.52-3.55-2.65-6-2.39-3.42.38-5.31,2.78-6.31,5.41,0,0,.13.12.2.18l2.15-2a5.17,5.17,0,0,1,4.55-.81,4.51,4.51,0,0,1,2.56,2.11c-1.26.18-2.31-.16-3.74.77a4.89,4.89,0,0,0-2,3.15,7.8,7.8,0,0,0,0,3.19,15,15,0,0,0,1.73,3.21,1.29,1.29,0,0,1,0,1.67c-.48.59-.92,1.2-1.38,1.81l-.6.8c-1.18-1.16-2.43-2.19-3.44-3.4a12.87,12.87,0,0,1-.35-16.39c3.06-3.74,7.3-5,12.15-4s7.86,3.64,9.17,8.05c.28.94.49,1.9.75,2.92,6.36-3.61,15.5-6.76,23.6-6.73s16.88,3.12,23.24,6.73c.25-1,.46-2,.74-2.92,1.31-4.41,4.44-7.12,9.17-8s9.09.31,12.16,4a12.9,12.9,0,0,1-.35,16.39c-1,1.21-2.27,2.24-3.45,3.4l-.6-.8c-.46-.61-.89-1.22-1.38-1.81a1.31,1.31,0,0,1,0-1.67,15,15,0,0,0,1.73-3.21,7.63,7.63,0,0,0,0-3.19,4.87,4.87,0,0,0-2-3.15c-1.44-.93-2.48-.59-3.74-.77a4.45,4.45,0,0,1,2.55-2.11,5.17,5.17,0,0,1,4.55.81l2.15,2c.07-.06.21-.14.2-.18-1-2.63-2.89-5-6.3-5.41-2.45-.26-4.34.87-6,2.39a21.78,21.78,0,0,0-4.21,6.24c5,3.17,7.25,8.13,9.76,12.92,1.37,2.6,2.63,5.26,4,7.87a18.67,18.67,0,0,0,6.25,7.63L167.51,70c2.93,3.42,5.5,7.09,4.83,11.92a2.49,2.49,0,0,1-.46,1.26,45.08,45.08,0,0,0-3.57-3.07c3,7-3.5,14-7.32,17.15a59.38,59.38,0,0,1-14.88,7.64,107.89,107.89,0,0,1-14.17,3.32,33.57,33.57,0,0,1-7.84,1l-.06,2.36a36.49,36.49,0,0,0,7.71-.47,118.53,118.53,0,0,0,13.12-2.49c7.45-1.91,14.46-4.75,20.24-9.75a25.51,25.51,0,0,0,6.16-7.62c.16-.32.3-.66.48-1l.84,1.08c.62.76.72.79,1.3,0a18.31,18.31,0,0,0,3-14.16,44.16,44.16,0,0,0-1.8-5.94A31.75,31.75,0,0,0,177.88,69c1-1,.87-1.43-.21-2.33-1.41-1.18-2.84-2.34-4.17-3.61-2.73-2.59-4.11-5.91-5.36-8.76,1.33-1.41,2.57-2.58,3.63-3.87a17.43,17.43,0,0,0,4-14.12,14.2,14.2,0,0,0-7-10.42,16.56,16.56,0,0,0-11-2.16,16,16,0,0,0-10.18,5.14c-1.11,1.23-2,2.64-3,4a61.92,61.92,0,0,0-16-4.31,32.75,32.75,0,0,0-9.17,0,62,62,0,0,0-16,4.31c-1-1.33-1.86-2.74-3-4a16,16,0,0,0-10.18-5.14,16.56,16.56,0,0,0-11,2.16,14.16,14.16,0,0,0-7,10.42,17.4,17.4,0,0,0,4,14.12c1.05,1.29,2.29,2.46,3.62,3.87-1.25,2.85-2.63,6.17-5.36,8.76-1.33,1.27-2.76,2.43-4.17,3.61-1.07.9-1.2,1.35-.21,2.33A31.75,31.75,0,0,0,73,71.21a45.65,45.65,0,0,0-1.8,5.94,18.35,18.35,0,0,0,3,14.16c.58.81.69.78,1.3,0l.85-1.08c.17.37.31.71.48,1A25.21,25.21,0,0,0,83,98.9c5.77,5,12.79,7.84,20.24,9.75a118.09,118.09,0,0,0,13.12,2.49c2.68.38,7.67.47,7.67.47Z"/><path d="M113.45,107.16c-.33-.3-5.7-4.25-6-4.5s-.61-.53-.88-.82C102,97.06,99,91.61,99.42,85a13.18,13.18,0,0,1,5.23-9.66c.75-.61,1.55-1.19,2.43-1.87a8.31,8.31,0,0,1-6.72-3.63A8.72,8.72,0,0,1,99,62.66c.85-3.83,4.43-7.55,8.48-6.79C104,52,99.82,50.53,95.63,54.68c.57-3.15,3.76-6.52,7.26-6A12.48,12.48,0,0,1,107,50.15c3.12,1.68,5.3,4.3,7.53,6.86a29.61,29.61,0,0,0,3.25,3.28c1.11.94,1.89.63,2.27-.74.14-.55.22-1.12.35-1.74,1.88,2,.76,6.12-1.8,6.65a10.91,10.91,0,0,1-2.66-.08,9.62,9.62,0,0,1-2,6.44,7.5,7.5,0,0,1-3.12,2.36,8.55,8.55,0,0,0-2.25,1.22c-2.46,2-4.85,4.22-6,7.17a12.69,12.69,0,0,0,.91,11.12,28.6,28.6,0,0,0,7.9,9,60.47,60.47,0,0,0,5.74,3.85,15.52,15.52,0,0,0,7.37,1.83,14.66,14.66,0,0,0,7.13-1.83,58,58,0,0,0,5.74-3.85,28.35,28.35,0,0,0,7.9-9,12.72,12.72,0,0,0,.92-11.12c-1.18-2.95-3.56-5.12-6-7.17a8.87,8.87,0,0,0-2.25-1.22,7.53,7.53,0,0,1-3.13-2.36,9.56,9.56,0,0,1-2-6.44,10.93,10.93,0,0,1-2.66.08c-2.56-.53-3.69-4.64-1.8-6.65.12.62.2,1.19.35,1.74.37,1.37,1.16,1.68,2.27.74A28.67,28.67,0,0,0,134.09,57c2.23-2.56,4.41-5.18,7.53-6.86a12.56,12.56,0,0,1,4.07-1.49c3.51-.5,6.69,2.87,7.27,6-4.19-4.15-8.32-2.69-11.88,1.19,4-.76,7.64,3,8.49,6.79a8.73,8.73,0,0,1-1.35,7.16,8.29,8.29,0,0,1-6.71,3.63c.88.68,1.67,1.26,2.43,1.87A13.17,13.17,0,0,1,149.16,85c.39,6.63-2.54,12.08-7.17,16.86-.28.29-.59.55-.89.82s-5.63,4.2-6,4.5c0,0-3.39,2.38-10.79,2.38C116.32,109.54,114,107.5,113.45,107.16Z"/><path class="cls-2" d="M138.66,70.59c.07.11.09.17.13.2a2.85,2.85,0,0,0,.3.16,5.81,5.81,0,0,0,5.37-.61c3.28-1.89,4.11-7.06,1.62-10.17a4.2,4.2,0,0,0-6-.63A4.43,4.43,0,0,1,144,63.67a6.64,6.64,0,0,1-1,4.61A5.6,5.6,0,0,1,138.66,70.59Z"/><path class="cls-2" d="M141.49,62.93a1.38,1.38,0,0,0-1.26-1.51,1.86,1.86,0,0,0-1.57,1.81A1.26,1.26,0,0,0,140,64.41,1.38,1.38,0,0,0,141.49,62.93Z"/><path class="cls-2" d="M105.59,68.28a6.69,6.69,0,0,1-1-4.61,4.42,4.42,0,0,1,3.83-4.13,4.2,4.2,0,0,0-6,.63c-2.49,3.11-1.65,8.28,1.63,10.17a5.79,5.79,0,0,0,5.36.61,2.11,2.11,0,0,0,.3-.16c.05,0,.06-.09.13-.2A5.62,5.62,0,0,1,105.59,68.28Z"/><path class="cls-2" d="M108.55,64.41a1.26,1.26,0,0,0,1.33-1.18,1.88,1.88,0,0,0-1.57-1.81,1.51,1.51,0,0,0,.24,3Z"/></g><g id="Guepardo"><path class="cls-9" d="M481.3,37.8l4.39-4.69a3.64,3.64,0,0,1,3,1.62c.89,1.64,4.42,5.46-3.43,14.46L483,45.4l1.14-3.89L484,39.74Z"/><polygon class="cls-10" points="492.36 37.76 491.56 29.72 486.88 25.29 479.42 25.56 473.72 29.99 470.44 32.45 455.98 29.04 449.8 29.11 429.92 32 416.01 24.4 408.82 28.96 406.68 38.59 422.73 36.56 452.6 34.29 465.11 35.33 471.83 38.51 476.52 38.51 479.54 34.56 481.76 30.67 484.9 30.54 488.75 34.05 492.12 39.26 492.36 37.76"/><path class="cls-6" d="M492.83,39.2s-6.28-17.57-15.32-5.4a9.06,9.06,0,0,1-4.5,3.11s-6.15-2.47-9.94-3.56a27.31,27.31,0,0,0-11.5-.91s-7.16-.23-9.82.26-13.21,3.36-13.21,3.36-7.43-6.35-13-6.3-8.76,8.06-8.25,10.64S414,51.55,414,51.55l-3.33,10.52-4.47,4.56-.11,20.53,3-.76,8.37,11.53,11.46,5.7,22.68,5.31,10.87-4,8.28-.87,9.4-7.45-.33,1.84,7.25-4.8L491,83.17,494,86l1-9.82-4.43-6.88,5.09-2-7.19-6.73-9.62-20.31s1.81-4.39,4.93-6.39a3.5,3.5,0,0,1,5,.93s3.69,5.4-3.43,14.46l.93,1.79,4.52-3.78Z"/><path class="cls-10" d="M483.26,94,489,80.5l2.08,1.07s1.48-4.58-1.42-12.93c0,0-6.72-14.39-6.43-17.08l8.1,12.29,2.32,4.33-1.32,3.15,2.94,11.42-1.62,4.41-3.11-2.86-3.81,10.63-4.24,2.29Z"/><path class="cls-1" d="M482.89,96l1.27-6.77s-8.82,10-18.31,11.79l.82-3.24-4,5.88,2.79,1.58L476.41,101l6.15-3.07Z"/><path class="cls-1" d="M411.29,35.45C408.93,39.91,415,49.79,415,49.79l2.71-4.47.28-5,.34-5.75S412.81,32.58,411.29,35.45Z"/><path class="cls-1" d="M439.43,103.18s-19.15-5.83-22.61-14.53l-.3,4.81s-7.94-11-3.44-18.75c0,0-5.91,6.16-7.72,7.94a12.41,12.41,0,0,0,.61,4.06l3.67-4.06s-1.83,5.15,5.17,12.1C425.1,104.15,439.43,103.18,439.43,103.18Z"/><path class="cls-11" d="M450,107.8c-2.19,0-15.3-3.38-17.75-16.44-2.75-15.34,9.65-13.82,9.65-13.82l9,4.6,8.64-4.6s13.55-1.85,10.31,13C465,104.63,452.19,107.8,450,107.8Z"/><path class="cls-12" d="M450.3,67.62c-1.18,0-4.47.4-6.87.62a12.72,12.72,0,0,1,7-2.83,11.72,11.72,0,0,1,6.74,2.79C454.78,68,451.48,67.64,450.3,67.62Z"/><path class="cls-12" d="M456.17,52.09a15.69,15.69,0,0,0,1.13-1.23c.79-1.09,1.55-2.21,2.3-3.33.31-.47.44-1.09-.05-1.4a1.25,1.25,0,0,0-1.22.13A6.6,6.6,0,0,0,456,51,5,5,0,0,0,456.17,52.09Z"/><path class="cls-12" d="M444.86,52.29a13.94,13.94,0,0,1-1.13-1.23c-.79-1.09-1.55-2.21-2.31-3.33-.31-.47-.43-1.09.06-1.4a1.25,1.25,0,0,1,1.22.13A6.6,6.6,0,0,1,445,51.24,5,5,0,0,1,444.86,52.29Z"/><path class="cls-12" d="M450.85,92a2.58,2.58,0,0,0-1.06.2,15,15,0,0,1-7.46,1.23,12.13,12.13,0,0,1-9.49-6.35l-.21-.33a2.15,2.15,0,0,0-.32,0v4.91c-1.83-3.49-1-7-.05-10.58-1.64.58-2.58,2-3.68,3.24.11-4.32,4.27-6.76,8.37-4.93,0,0,0,.13,0,.13-2.61.81-3,3.21-2.17,5.62a8.2,8.2,0,0,0,5.95,5.37,9.27,9.27,0,0,0,7.33-.76,4,4,0,0,0,2.1-3.69c-1.83-1-3.7-2-5.45-3.14a11,11,0,0,1-2.8-2.66,3.84,3.84,0,0,1,1.51-6,14.81,14.81,0,0,1,4.42-1.07c1-.09,1.94-.13,2.91-.13h.3c1,0,1.94,0,2.9.13a14.8,14.8,0,0,1,4.43,1.07,3.84,3.84,0,0,1,1.51,6,11,11,0,0,1-2.8,2.66c-1.75,1.16-3.62,2.1-5.45,3.14a4,4,0,0,0,2.1,3.69,9.27,9.27,0,0,0,7.33.76A8.18,8.18,0,0,0,467,85.15c.85-2.41.45-4.81-2.16-5.62,0,0,0-.08,0-.13,4.1-1.83,8.26.61,8.37,4.93-1.1-1.23-2-2.66-3.69-3.24,1,3.62,1.79,7.09,0,10.58V86.76a2.15,2.15,0,0,0-.32,0c-.07.11-.15.22-.21.33a12.16,12.16,0,0,1-9.49,6.35A15,15,0,0,1,452,92.21a2.6,2.6,0,0,0-1.07-.2Z"/><path class="cls-9" d="M450.92,79.17c1.32-.15,2.45-1.94,3.56-2.16,1.29-.26,2.6-.42,4.06-.65-.47-.3-.9-.77-1.37-.83a48.35,48.35,0,0,0-6.39-.64,33.51,33.51,0,0,0-5.75.72,4,4,0,0,0-1.6,1.39,7.08,7.08,0,0,1,3.89,0C448.37,77.29,449.75,79.26,450.92,79.17Z"/><g id="ojos"><ellipse class="cls-2" cx="466.4" cy="64.13" rx="7.32" ry="7.84"/><ellipse class="cls-2" cx="434.63" cy="64.33" rx="7.32" ry="7.84"/><path class="cls-12" d="M472.45,56.59c3.08,3.46,3.28,7.81,1.36,11.75A7.88,7.88,0,0,1,467.07,73a6.88,6.88,0,0,1-6.86-3.24,8.81,8.81,0,0,1-1.45-5.15,3.75,3.75,0,0,1-3.41-2.88c-.67-2.32-.28-4.68-.35-7,.42,1,.75,1.94,1.17,2.86.9,1.94.9,2.46,3.05.84,1.78-1.34,3.35-3,5.11-4.4a39.8,39.8,0,0,1,5.36-3.76,4.94,4.94,0,0,1,6.13.76,8.94,8.94,0,0,1,2.68,5.59c-3.71-4.58-7.26-3.57-9.86-1.46A4.18,4.18,0,0,1,472.45,56.59Zm-7.73,14.67a7.11,7.11,0,0,0,8-5,7.73,7.73,0,0,0-.88-7.08,3.05,3.05,0,0,0-4.37-.9,6,6,0,0,1,2.07,4c.45,3-.13,6-2.82,7.61a5.05,5.05,0,0,1-3.41.5l-.5-.09-.07.28A9.12,9.12,0,0,0,464.72,71.26Zm0-9a1.18,1.18,0,0,0-1-1.29,1.87,1.87,0,0,0-1.53,2,.89.89,0,0,0,1,1A1.6,1.6,0,0,0,464.73,62.27Z"/><path class="cls-12" d="M432.39,55.31c-2.6-2.11-6.16-3.12-9.86,1.46a8.89,8.89,0,0,1,2.68-5.59,4.92,4.92,0,0,1,6.12-.76,39.9,39.9,0,0,1,5.37,3.76c1.75,1.39,3.33,3.06,5.11,4.4,2.15,1.62,2.15,1.1,3-.84.43-.92.76-1.9,1.18-2.86-.07,2.34.31,4.7-.35,7a3.76,3.76,0,0,1-3.42,2.88,8.87,8.87,0,0,1-1.44,5.15A6.89,6.89,0,0,1,434,73.17a7.86,7.86,0,0,1-6.73-4.63c-1.92-3.94-1.72-8.29,1.36-11.75A4.17,4.17,0,0,1,432.39,55.31Zm5.88,15.47-.07-.28-.5.09a5.09,5.09,0,0,1-3.42-.5c-2.68-1.59-3.26-4.63-2.82-7.61a6.06,6.06,0,0,1,2.08-4,3.06,3.06,0,0,0-4.38.9,7.79,7.79,0,0,0-.88,7.08,7.13,7.13,0,0,0,8,5A9.12,9.12,0,0,0,438.27,70.78Zm-.43-6.69a.9.9,0,0,0,1-1,1.87,1.87,0,0,0-1.53-2,1.18,1.18,0,0,0-1,1.29A1.6,1.6,0,0,0,437.84,64.09Z"/></g><g id="manchas"><path class="cls-12" d="M456.5,40.39a5.8,5.8,0,0,0,0,.59c.13,1.17.9,1.84,1.91,1.54A5,5,0,0,0,461.57,37c-.39-1.53-1.53-2.1-2.73-1.21A5.68,5.68,0,0,0,456.5,40.39Z"/><path class="cls-12" d="M476.41,88.81c0,1.32.62,2,1.81,1.85A2.42,2.42,0,0,0,480.34,89a2.79,2.79,0,0,0-.24-2.74,1.53,1.53,0,0,0-2.65-.16A3.94,3.94,0,0,0,476.41,88.81Z"/><path class="cls-12" d="M482.94,76.72c1.15.72,2.07.43,2.62-.92a3.18,3.18,0,0,0-.32-3.19,2.48,2.48,0,0,0-2.52-1.25,2,2,0,0,0-1.61,2.74A4.16,4.16,0,0,0,482.94,76.72Z"/><path class="cls-12" d="M465.82,45.11A6.54,6.54,0,0,0,469.35,44a2,2,0,0,0,1-2,1.89,1.89,0,0,0-1.73-1.41c-2.12-.42-3.88,1.7-4,3.79a.82.82,0,0,0,.37.59A3.13,3.13,0,0,0,465.82,45.11Z"/><path class="cls-12" d="M482.89,81.86a3.75,3.75,0,0,0,2.05,3.06c1.07.33,1.86-.33,1.82-1.58-.05-1.59-1.29-3.39-3-2.68A1.16,1.16,0,0,0,482.89,81.86Z"/><path class="cls-12" d="M472.51,76.41a2.87,2.87,0,0,0,1.57,2.36c.83.25,1.44-.25,1.41-1.22,0-1.22-1-2.6-2.35-2.06A.89.89,0,0,0,472.51,76.41Z"/><path class="cls-12" d="M481.45,60a6.92,6.92,0,0,0,2,4.3c.46.41,1,.69,1.54.32s.5-1,.37-1.58a6,6,0,0,0-2.44-4.16C482,58.35,481.45,58.73,481.45,60Z"/><path class="cls-12" d="M444.53,40.59a5.86,5.86,0,0,1,0,.59c-.13,1.17-.89,1.84-1.9,1.54a5,5,0,0,1-3.16-5.56c.39-1.53,1.53-2.1,2.73-1.21A5.7,5.7,0,0,1,444.53,40.59Z"/><path class="cls-12" d="M424.62,89c0,1.32-.62,2-1.82,1.85a2.43,2.43,0,0,1-2.12-1.69,2.82,2.82,0,0,1,.25-2.74,1.53,1.53,0,0,1,2.65-.16A4,4,0,0,1,424.62,89Z"/><path class="cls-12" d="M418.09,76.92c-1.16.72-2.08.43-2.62-.92a3.2,3.2,0,0,1,.31-3.19,2.51,2.51,0,0,1,2.53-1.25,2,2,0,0,1,1.6,2.74A4.11,4.11,0,0,1,418.09,76.92Z"/><path class="cls-12" d="M435.2,45.31a6.51,6.51,0,0,1-3.52-1.12,2,2,0,0,1-1.06-2,1.91,1.91,0,0,1,1.73-1.41c2.13-.42,3.88,1.7,4,3.79a.77.77,0,0,1-.37.59A3,3,0,0,1,435.2,45.31Z"/><path class="cls-12" d="M418.14,82.06a3.75,3.75,0,0,1-2.05,3.06c-1.08.33-1.87-.33-1.83-1.58.06-1.59,1.3-3.39,3.05-2.68A1.17,1.17,0,0,1,418.14,82.06Z"/><path class="cls-12" d="M428.52,76.61A2.87,2.87,0,0,1,426.94,79c-.83.25-1.44-.25-1.4-1.22,0-1.22,1-2.6,2.34-2.06A.89.89,0,0,1,428.52,76.61Z"/><path class="cls-12" d="M419.58,60.23a7,7,0,0,1-2,4.3c-.47.41-1,.69-1.54.32s-.5-1-.37-1.58a6,6,0,0,1,2.44-4.16C419,58.55,419.58,58.93,419.58,60.23Z"/></g><path class="cls-12" d="M448.91,30.82c-1.49-.51-5.84-.06-8.42.36a35.7,35.7,0,0,0-9.87,3.18,1.88,1.88,0,0,1-2.27-.25c-1.06-1-2.05-2-3.13-3a29,29,0,0,0-4.1-3.31c-5.1-3-10.75-.36-12.29,5.73a16.89,16.89,0,0,0,.92,10.82,15.71,15.71,0,0,0,4.56,6.27A21.35,21.35,0,0,1,415.64,48c.84-1.22,1-2.31-.05-3.45a1.46,1.46,0,0,1-.25-.42,3.92,3.92,0,0,1,1-4.86c.4-.34.83-.62,1.32-1a21.29,21.29,0,0,0-1.12-2,5.06,5.06,0,0,0-2.92-2.16,2.12,2.12,0,0,0-2.24.92c1.14-2.27,2.5-3.15,4.33-2.79a5.58,5.58,0,0,1,3.48,2.57c1.21,1.82,2.27,3.77,3.37,5.68a.77.77,0,0,1-.12.63,50.55,50.55,0,0,0-5.79,11.66A36.49,36.49,0,0,1,409,65.64l-2,2,3.17,1c-2.87,4.87-5,10-3.54,15.94L411,78.43l.17.1c-2,8.07,2.86,16.36,7.82,18.87l-1.74-4.66c5.58,6,11.93,7.8,19.48,9.57l-3.07-4.93a2.36,2.36,0,0,1,.29.19,37.17,37.17,0,0,0,10.2,6.9,11.66,11.66,0,0,0,4.84,1h2.62a11.65,11.65,0,0,0,4.83-1,37.17,37.17,0,0,0,10.2-6.9c.06,0,.13-.08.3-.19l-3.08,4.93c7.56-1.77,13.82-3.56,19.4-9.57L481.5,97.4c5-2.51,9.81-10.8,7.82-18.87l.17-.1,4.38,6.21c1.42-5.94-.67-11.07-3.54-15.94l3.17-1-2-2a36.49,36.49,0,0,1-7.72-12.79A50.55,50.55,0,0,0,478,41.19a.77.77,0,0,1-.12-.63c1.1-1.91,2.16-3.86,3.37-5.68a5.58,5.58,0,0,1,3.48-2.57c1.83-.36,3.19.52,4.33,2.79a2.12,2.12,0,0,0-2.24-.92,5.06,5.06,0,0,0-2.92,2.16,21.29,21.29,0,0,0-1.12,2c.49.36.92.64,1.32,1a3.92,3.92,0,0,1,1,4.86,1.46,1.46,0,0,1-.25.42c-1.08,1.14-.89,2.23-.05,3.45a22.86,22.86,0,0,1,1.33,2.62,15.71,15.71,0,0,0,4.56-6.27,16.89,16.89,0,0,0,.92-10.82c-1.54-6.09-7.19-8.73-12.29-5.73a29,29,0,0,0-4.1,3.31c-1.08.94-2.07,2-3.13,3a1.88,1.88,0,0,1-2.27.25A35.7,35.7,0,0,0,460,31.18c-2.58-.42-6.31-.93-7.46-.49S451.68,50.3,450.76,60C450.76,60,450.4,31.33,448.91,30.82ZM458,27.37a34.36,34.36,0,0,1,11.86,3.38.6.6,0,0,0,.85-.15c1.11-1.16,2.22-2.34,3.4-3.41,2.62-2.39,5.54-4,9-4.06,4.59-.08,8,2.08,10.24,6.49a19,19,0,0,1,1.57,12,17.33,17.33,0,0,1-7.28,12,38.42,38.42,0,0,0,4.45,7.73,54.67,54.67,0,0,0,4.64,4.86c1.14,1.11,1.31,1.53.41,2.77a32.28,32.28,0,0,1-2.3,2.55s.11.19.18.33a21.75,21.75,0,0,1,1.86,11.41,14.56,14.56,0,0,1-2.38,7c-.34.49-.76.9-1.26,1.48l-.84-2.63c-.11.11-.16.14-.18.19A20.33,20.33,0,0,1,485.42,99c-5.85,4.64-12.31,5.52-19.28,7.4a60.11,60.11,0,0,0-6.28,1.59,27.8,27.8,0,0,1-8.27,1.91H449A27.66,27.66,0,0,1,440.7,108a60.74,60.74,0,0,0-6.28-1.59c-7-1.88-13.52-2.76-19.37-7.4a20.33,20.33,0,0,1-6.83-9.67c0-.05-.07-.08-.18-.19l-.84,2.63c-.5-.58-.92-1-1.27-1.48a14.66,14.66,0,0,1-2.37-7,21.75,21.75,0,0,1,1.86-11.41c.07-.14.16-.28.18-.33A32.28,32.28,0,0,1,403.3,69c-.9-1.24-.73-1.66.41-2.77a54.67,54.67,0,0,0,4.64-4.86,38.42,38.42,0,0,0,4.45-7.73,17.33,17.33,0,0,1-7.28-12,19,19,0,0,1,1.57-12c2.22-4.41,5.65-6.57,10.24-6.49,3.5.06,6.42,1.67,9,4.06,1.18,1.07,2.29,2.25,3.39,3.41a.62.62,0,0,0,.86.15,34.36,34.36,0,0,1,11.86-3.38C445,27.13,455.47,27.13,458,27.37Z"/></g></g></g></svg>