<svg xmlns="http://www.w3.org/2000/svg" viewBox="0 0 604.1 298.81"><defs><style>.cls-1{fill:#5f220c;}.cls-2{fill:#de5c11;}.cls-3{fill:#fdd196;}.cls-4{fill:#b45717;}.cls-5{fill:#903a14;}.cls-6{fill:#ffeace;}.cls-7{fill:#f08210;}.cls-8{fill:#d55314;}.cls-9{fill:#914018;}.cls-10{fill:#d95b13;}.cls-11{fill:#f6a01e;}.cls-12{fill:#fbbb3c;}.cls-13{fill:#1d1d1b;}</style></defs><g id="Capa_2" data-name="Capa 2"><g id="Capa_1-2" data-name="Capa 1"><ellipse class="cls-1" cx="302.05" cy="149.4" rx="302.05" ry="149.4"/><path class="cls-2" d="M142.34,160.59c-.59,0-1.19,0-1.81-.06s-5.35-.12-8.08-.5a122.79,122.79,0,0,1-13.58-2.59c-9.35-2.39-16.32-5.77-21.93-10.63a31,31,0,0,1-5.42-6,5,5,0,0,1-4-2.34,22.42,22.42,0,0,1-3.75-17.26,23.28,23.28,0,0,1,1-3.81c-.26-.22-.53-.46-.79-.72a5.74,5.74,0,0,1-1.91-4.28,5.9,5.9,0,0,1,2.37-4.22l.7-.58c1.16-1,2.27-1.89,3.28-2.85a16,16,0,0,0,3.27-4.87c-.65-.68-1.28-1.35-1.89-2.1a21.46,21.46,0,0,1-4.93-17.39,18.49,18.49,0,0,1,9-13.37,20.29,20.29,0,0,1,10.62-2.92,25,25,0,0,1,3.08.2,20.06,20.06,0,0,1,12.74,6.48c.52.57,1,1.15,1.4,1.72a60.76,60.76,0,0,1,14.06-3.41l.28,0c2.28-.21,3.43-.32,4.7-.32s2.42.11,4.7.32l.28,0a61,61,0,0,1,14.07,3.41c.42-.57.88-1.15,1.39-1.72a20.09,20.09,0,0,1,12.74-6.48,25.12,25.12,0,0,1,3.08-.2A20.27,20.27,0,0,1,187.6,67a18.49,18.49,0,0,1,9,13.37,21.46,21.46,0,0,1-4.93,17.39c-.61.75-1.23,1.42-1.89,2.1a16,16,0,0,0,3.27,4.87c1,1,2.12,1.88,3.28,2.85l.7.58a5.87,5.87,0,0,1,2.37,4.22,5.67,5.67,0,0,1-1.91,4.28,10.5,10.5,0,0,1-.79.72,24.33,24.33,0,0,1,1,3.81A22.43,22.43,0,0,1,194,138.49a4.94,4.94,0,0,1-4,2.34,31.36,31.36,0,0,1-5.43,6c-5.61,4.86-12.58,8.24-21.93,10.63A122.79,122.79,0,0,1,149,160,48,48,0,0,1,142.34,160.59ZM141,149.83a32.49,32.49,0,0,0,6.65-.9c.65-.15,1.5-.31,2.51-.49a78.65,78.65,0,0,0,11.24-2.72,56.17,56.17,0,0,0,13.56-6.9c1.4-1.16,8.3-7.22,6.13-12.29a4.17,4.17,0,0,1,1.2-4.87,4,4,0,0,1,1.27-.71,27.12,27.12,0,0,0-2.6-3.46,4.16,4.16,0,0,1,.58-6,34.32,34.32,0,0,1-2.22-3.77c-.61-1.2-1.21-2.41-1.81-3.61-.71-1.42-1.41-2.84-2.15-4.24l-.67-1.3c-2.16-4.16-4-7.75-7.63-10a4.19,4.19,0,0,1-1.5-1.66,4.28,4.28,0,0,1-1.46.26,4.13,4.13,0,0,1-2-.54c-6.8-3.85-14.73-6.16-21.2-6.19h-.11c-7.74,0-16.14,3.2-21.42,6.19a4.2,4.2,0,0,1-2.06.54,4.32,4.32,0,0,1-1.46-.26,4.11,4.11,0,0,1-1.5,1.66c-3.6,2.29-5.46,5.88-7.62,10l-.68,1.3c-.74,1.4-1.44,2.82-2.15,4.24-.59,1.2-1.19,2.41-1.81,3.61a34.32,34.32,0,0,1-2.22,3.77,4.12,4.12,0,0,1,1.39,2,4.17,4.17,0,0,1-.81,4,27.12,27.12,0,0,0-2.6,3.46,3.8,3.8,0,0,1,1.27.71,4.17,4.17,0,0,1,1.2,4.87c-1.94,4.53,3,9.66,6.17,12.32a55.45,55.45,0,0,0,15.89,7.54c7.18,1.86,16.34,3.43,18.29,3.43H141Z"/><path class="cls-2" d="M465.63,158.79h-.3a32.47,32.47,0,0,1-9.5-2.19,19.63,19.63,0,0,0-3.25-.85c-.84-.18-1.7-.36-2.59-.6-1.27-.34-2.52-.65-3.76-1-5.72-1.4-11.63-2.86-17.11-7.2a24.82,24.82,0,0,1-5.72-6.36,4.12,4.12,0,0,1-2.69-1.41l-.4-.45a12.94,12.94,0,0,1-1.12-1.35,18.64,18.64,0,0,1-3.12-8.92,25.39,25.39,0,0,1,1.31-11.32c-.26-.3-.53-.63-.79-1-2.08-2.86-1.79-5.63.87-8.22l.29-.28a46,46,0,0,0,4-4.21,24.32,24.32,0,0,0,2.51-4A22.07,22.07,0,0,1,418.07,87,23.2,23.2,0,0,1,420,72.49c2.91-5.75,7.66-8.79,13.73-8.79h.31c4.21.07,8.06,1.75,11.79,5.14.67.61,1.3,1.24,1.92,1.86a38.22,38.22,0,0,1,11-2.75c1.93-.18,6.72-.19,8.14-.19s6.21,0,8.14.19a38.22,38.22,0,0,1,11,2.75c.62-.62,1.25-1.25,1.92-1.86,3.72-3.39,7.58-5.07,11.78-5.14h.32c6.07,0,10.82,3,13.72,8.79a23.13,23.13,0,0,1,2,14.55,22.07,22.07,0,0,1-6.2,12.45,24.32,24.32,0,0,0,2.51,4,48.46,48.46,0,0,0,4,4.2l.31.29c2.66,2.59,2.95,5.36.86,8.22-.25.35-.52.68-.78,1a25.66,25.66,0,0,1,1.31,11.32,18.64,18.64,0,0,1-3.12,8.92,12.94,12.94,0,0,1-1.12,1.35l-.4.45a4.22,4.22,0,0,1-2.69,1.42,24.94,24.94,0,0,1-5.72,6.35c-5.49,4.35-11.39,5.81-17.08,7.22-1.22.3-2.46.6-3.71.94-.89.24-1.75.42-2.59.6a19.5,19.5,0,0,0-3.24.85,32.62,32.62,0,0,1-9.5,2.19h-2.93ZM450.3,138a4.17,4.17,0,0,1,2.2.62l0,0a4.51,4.51,0,0,1,.93.68,33.32,33.32,0,0,0,9.06,6.14,7.49,7.49,0,0,0,3.17.63h2.55a7.38,7.38,0,0,0,3.1-.63,33.17,33.17,0,0,0,9.06-6.14,4.66,4.66,0,0,1,.93-.68,4.17,4.17,0,0,1,2.22-.64,4.21,4.21,0,0,1,3,1.22,4.31,4.31,0,0,1,1,1.56,23.12,23.12,0,0,0,9.33-6.1,4.18,4.18,0,0,1,3.07-1.34,3.81,3.81,0,0,1,.82.09,13.46,13.46,0,0,0,1.2-9.12,4.15,4.15,0,0,1,2.05-4.66,4.23,4.23,0,0,1,1.29-.46,36.9,36.9,0,0,0-1.87-3.59,4.16,4.16,0,0,1-.31-3.59,4.12,4.12,0,0,1,.32-.67,42.51,42.51,0,0,1-6.85-12.24,47.35,47.35,0,0,0-5.29-10.71,4.88,4.88,0,0,1-.34-5.12l.82-1.43-.18.16a6,6,0,0,1-4,1.58,6.54,6.54,0,0,1-2.84-.68A32.12,32.12,0,0,0,476,80.05c-1.39-.23-2.47-.37-3.29-.46-.17,2.63-.28,6.63-.38,9.82-.15,5.37-.32,11.46-.73,15.77a4.17,4.17,0,0,1-4.15,3.78h-.17a4.18,4.18,0,0,1-4-4.12c-.12-9.45-.52-20.43-1-25.28-1.51.08-3.23.3-4.42.49a32.16,32.16,0,0,0-8.72,2.82,6.54,6.54,0,0,1-2.84.68,6,6,0,0,1-4-1.58,1.29,1.29,0,0,1-.17-.16l.81,1.43a4.9,4.9,0,0,1-.33,5.12,47,47,0,0,0-5.3,10.71,42.51,42.51,0,0,1-6.85,12.24,5.16,5.16,0,0,1,.32.67,4.16,4.16,0,0,1-.31,3.59,34.92,34.92,0,0,0-1.85,3.54,4.13,4.13,0,0,1,1.09.41l.1.06a4.24,4.24,0,0,1,2.13,4.7,13.52,13.52,0,0,0,1.19,9.12,4,4,0,0,1,.83-.09,4.18,4.18,0,0,1,3.07,1.34,23.14,23.14,0,0,0,9.4,6.11,4.13,4.13,0,0,1,3.94-2.8Z"/><path class="cls-2" d="M209.5,148.5A51.3,51.3,0,0,1,193.74,146a50,50,0,0,1-18.44-10.54,50.1,50.1,0,0,1-16.81-37.3,50.79,50.79,0,0,1,3.56-18.72,51.56,51.56,0,0,1,9.86-15.83A49.62,49.62,0,0,1,206.3,47.52c.36,0,.73,0,1.1,0h2.74a52.16,52.16,0,0,1,16.41,2.66,23.39,23.39,0,0,1,15.87,19l2.11,14.61a23.73,23.73,0,0,1-2.37,14.11,23.67,23.67,0,0,1,2.5,14.26l-2,14.1a23.44,23.44,0,0,1-13.51,18.12A43.4,43.4,0,0,1,215,148.21,52,52,0,0,1,209.5,148.5Z"/><path class="cls-2" d="M228.7,147a23.55,23.55,0,0,1-23.52-23.53V72.1a23.44,23.44,0,0,1,21.26-23.41l13.84-1.34c.76-.07,1.52-.11,2.27-.11a23.53,23.53,0,0,1,23.52,23.53V87.85a23.52,23.52,0,0,1,19.38,29.51l-3.38,12.32A23.58,23.58,0,0,1,259.39,147Z"/><path class="cls-2" d="M280.31,150a23.61,23.61,0,0,1-5.22-.59l-13.22-3a23.52,23.52,0,0,1-15.73-33.62l28.13-55.18a23.53,23.53,0,0,1,41.91,0l28.2,55.18a23.53,23.53,0,0,1-16,33.69l-13.2,2.87a23.82,23.82,0,0,1-5,.53,23.39,23.39,0,0,1-14.9-5.3A23.67,23.67,0,0,1,280.31,150Z"/><path class="cls-2" d="M346.85,148.44a47.47,47.47,0,0,1-16.56-2.89,53.82,53.82,0,0,1-11.61-5.63,40.64,40.64,0,0,1-6.87-5.28,23.41,23.41,0,0,1-1.63-31.53A38.69,38.69,0,0,1,307,87.21v-.72A38.42,38.42,0,0,1,313.14,66,39.85,39.85,0,0,1,328,52.23a42.31,42.31,0,0,1,19-5h1c13.31,0,25.08,4.74,34.06,13.69a23.38,23.38,0,0,1,3.31,29.17,43.94,43.94,0,0,1,4,17.46c0,.23,0,.47,0,.71V109a37.78,37.78,0,0,1-5.56,20l-.12.18a39.29,39.29,0,0,1-16,14.46A47.66,47.66,0,0,1,348,148.43h-1.16Z"/><path class="cls-2" d="M402.67,148.13a23.44,23.44,0,0,1-9.66-2.08,24.13,24.13,0,0,1-4.56.85l-13.73,1.15c-.65,0-1.31.08-2,.08a23.53,23.53,0,0,1-23.52-23.52V72.1a23.64,23.64,0,0,1,21.66-23.44l13.72-1.09c.62,0,1.25-.08,1.87-.08a23.47,23.47,0,0,1,9.57,2,24.15,24.15,0,0,1,4.56-.86l13.78-1.21q1-.09,2.07-.09A23.52,23.52,0,0,1,440,70.89v52.56a23.67,23.67,0,0,1-21.56,23.45l-13.79,1.15C404,148.1,403.33,148.13,402.67,148.13Z"/><path class="cls-2" d="M67.68,225.06a51.42,51.42,0,0,1-15.77-2.48A50,50,0,0,1,33.48,212a50.16,50.16,0,0,1-16.82-37.3A50.6,50.6,0,0,1,20.23,156a51.25,51.25,0,0,1,9.86-15.82,49.52,49.52,0,0,1,34.38-16.13l1.1,0h2.75a51.89,51.89,0,0,1,16.41,2.67,23.38,23.38,0,0,1,15.87,19l2.1,14.61a23.64,23.64,0,0,1-2.37,14.11,23.64,23.64,0,0,1,2.51,14.27l-2,14.09a23.42,23.42,0,0,1-13.5,18.12,43.53,43.53,0,0,1-14.18,3.88A52,52,0,0,1,67.68,225.06Z"/><path class="cls-2" d="M113.79,224.87h-.72a54.42,54.42,0,0,1-20-4.34,50.93,50.93,0,0,1-16.52-11.38A48.85,48.85,0,0,1,65.76,192a51.67,51.67,0,0,1-3.1-17.77v-1.61a49.14,49.14,0,0,1,7.65-25.31,50.13,50.13,0,0,1,19.22-17.64,51.9,51.9,0,0,1,24.52-6h.25a51.44,51.44,0,0,1,44.33,25.54,50.12,50.12,0,0,1,6.75,25.35v.84a49.91,49.91,0,0,1-7.59,25.47,51.13,51.13,0,0,1-43.24,24Z"/><path class="cls-2" d="M178.66,227.61a23.66,23.66,0,0,1-11.8-3.26,23.22,23.22,0,0,1-8.09.5l-13.08-1.47a23.52,23.52,0,0,1-20.15-29.28l14-54.09A23.62,23.62,0,0,1,160,122.51a23.07,23.07,0,0,1,2.37-.12,23.66,23.66,0,0,1,16.81,7.11,23.42,23.42,0,0,1,16.74-7,25.79,25.79,0,0,1,2.64.14,23.63,23.63,0,0,1,20.17,17.63l13.58,53.84a23.51,23.51,0,0,1-20.76,29.18l-13.21,1.16c-.68.06-1.37.09-2.06.09a23.09,23.09,0,0,1-5-.54,23.54,23.54,0,0,1-12.48,3.59Z"/><path class="cls-2" d="M245.59,227.61a23.63,23.63,0,0,1-11.8-3.26,23.27,23.27,0,0,1-8.1.5l-13.08-1.47a23.52,23.52,0,0,1-20.15-29.28l14-54.09a23.63,23.63,0,0,1,20.42-17.5,23,23,0,0,1,2.36-.12,23.69,23.69,0,0,1,16.82,7.11,23.4,23.4,0,0,1,16.73-7,25.79,25.79,0,0,1,2.64.14,23.66,23.66,0,0,1,20.18,17.63l13.58,53.84a23.51,23.51,0,0,1-20.77,29.18l-13.2,1.16c-.69.06-1.38.09-2.06.09a23,23,0,0,1-5-.54,23.59,23.59,0,0,1-12.48,3.59Z"/><path class="cls-2" d="M302.13,225.12a47,47,0,0,1-19.9-4.22,39.85,39.85,0,0,1-17.57-15.62,41.77,41.77,0,0,1-6.15-22.37V148.53a23.39,23.39,0,0,1,21.41-23.42l13.45-1.22c.7-.06,1.41-.1,2.12-.1a23.59,23.59,0,0,1,9.41,2,23,23,0,0,1,3.31-.53L321.78,124q1.05-.09,2.1-.09a23.5,23.5,0,0,1,23.52,23.52v34c0,16.9-7.57,27-13.92,32.52-8,7-17.92,10.75-29.59,11.14l-.79,0Z"/><path class="cls-2" d="M375.48,227.16a23.54,23.54,0,0,1-15.71-6l-2.47-2.22a23.69,23.69,0,0,1-11.92,4.51l-13.21,1.15c-.67.06-1.36.09-2.05.09a23.52,23.52,0,0,1-23.52-23.52V145.21a23.53,23.53,0,0,1,39.33-17.42l2.37,2.15a23.61,23.61,0,0,1,11.81-4.68l12.95-1.34c.81-.08,1.62-.13,2.42-.13A23.53,23.53,0,0,1,399,147.32v56.32a23.51,23.51,0,0,1-23.52,23.52Z"/><path class="cls-2" d="M385.18,224.56A23.53,23.53,0,0,1,361.66,201V148.66a23.46,23.46,0,0,1,21.14-23.41l13.14-1.34c.8-.08,1.6-.12,2.39-.12a23.54,23.54,0,0,1,23.52,23.53V200a23.64,23.64,0,0,1-21.69,23.45l-13.14,1C386.41,224.53,385.79,224.56,385.18,224.56Z"/><path class="cls-2" d="M421.36,224.68a23.52,23.52,0,0,1-23.52-23.52V182.48a23.54,23.54,0,0,1-13-27.74l3.45-12.38A23.59,23.59,0,0,1,411,125.13h36.43a23.55,23.55,0,0,1,23.52,23.53V161a23.64,23.64,0,0,1-12.82,21v18a23.39,23.39,0,0,1-21.47,23.43l-13.21,1.15C422.74,224.65,422.05,224.68,421.36,224.68Z"/><path class="cls-2" d="M456.83,224.56A23.55,23.55,0,0,1,433.3,201V148.66a23.46,23.46,0,0,1,21.14-23.41l13.15-1.34a23.52,23.52,0,0,1,25.9,23.41V200a23.64,23.64,0,0,1-21.68,23.45l-13.15,1C458.05,224.53,457.44,224.56,456.83,224.56Z"/><path class="cls-2" d="M479.16,223.53A23.55,23.55,0,0,1,455.64,200V148.66a23.55,23.55,0,0,1,23.52-23.53h30.62a23.42,23.42,0,0,1,22.92,18.24l2.62,11.36a23.38,23.38,0,0,1-3.6,18.69c.33.38.64.77.94,1.17a23.64,23.64,0,0,1,3.68,20.77L533,206.72a23.65,23.65,0,0,1-22.54,16.81Z"/><path class="cls-2" d="M538.5,225a47.47,47.47,0,0,1-16.56-2.89,53.81,53.81,0,0,1-11.61-5.62,40.7,40.7,0,0,1-6.87-5.29,23.4,23.4,0,0,1-1.63-31.53,38.69,38.69,0,0,1-3.19-15.9V163a38.35,38.35,0,0,1,6.15-20.45,39.74,39.74,0,0,1,14.87-13.81,42.58,42.58,0,0,1,19-5h1c13.32,0,25.09,4.74,34.07,13.69A23.41,23.41,0,0,1,577,166.65a44,44,0,0,1,4,17.47c0,.22,0,.46,0,.7v.76a37.75,37.75,0,0,1-5.56,20l-.11.19a39.36,39.36,0,0,1-16,14.45A47.62,47.62,0,0,1,539.65,225H538.5Z"/><path d="M209.5,142.62a45.26,45.26,0,0,1-14-2.19,44.37,44.37,0,0,1-16.32-9.32,43.5,43.5,0,0,1-10.92-14.85,43,43,0,0,1-3.93-18.07,44.87,44.87,0,0,1,3.15-16.56,45.34,45.34,0,0,1,8.74-14,43.66,43.66,0,0,1,30.31-14.22l.83,0h2.74a46.28,46.28,0,0,1,14.55,2.36A17.65,17.65,0,0,1,236.6,70l2.11,14.61a17.67,17.67,0,0,1-3.51,13.31,17.68,17.68,0,0,1,3.64,13.41l-2,14.09A17.65,17.65,0,0,1,226.73,139a37.36,37.36,0,0,1-12.25,3.37A46.58,46.58,0,0,1,209.5,142.62Z"/><path d="M228.7,141.1a17.65,17.65,0,0,1-17.64-17.65V72.1A17.65,17.65,0,0,1,227,54.54l13.85-1.34c.57-.05,1.13-.08,1.7-.08a17.64,17.64,0,0,1,17.64,17.65V93.49h2.57a17.65,17.65,0,0,1,17,22.31l-3.38,12.32a17.65,17.65,0,0,1-17,13Z"/><path d="M280.31,144.1a17.52,17.52,0,0,1-3.92-.44l-13.21-3a17.65,17.65,0,0,1-11.8-25.22l28.13-55.18a17.63,17.63,0,0,1,15.71-9.63h0a17.64,17.64,0,0,1,15.71,9.61l28.2,55.19a17.64,17.64,0,0,1-12,25.26L314,143.56a17.67,17.67,0,0,1-18.67-7.82A17.65,17.65,0,0,1,280.31,144.1Z"/><path d="M346.85,142.56A41.59,41.59,0,0,1,332.33,140a47.91,47.91,0,0,1-10.42-5,35.92,35.92,0,0,1-6-4.54,17.65,17.65,0,0,1-1.11-23.79l2.32-2.78c-.43-.74-.83-1.52-1.21-2.32a32.45,32.45,0,0,1-3.09-14.37s0-.53,0-.61a32.53,32.53,0,0,1,5.21-17.38,34.07,34.07,0,0,1,12.72-11.81,36.42,36.42,0,0,1,16.33-4.28H348c11.7,0,22,4.14,29.89,12A17.65,17.65,0,0,1,379,88.88l-.58.68a36.87,36.87,0,0,1,5,18.18V109A31.91,31.91,0,0,1,378.74,126a1,1,0,0,1-.11.17A33.43,33.43,0,0,1,365,138.41a41.65,41.65,0,0,1-17.2,4.14h-1Z"/><path d="M372.75,142.25a17.65,17.65,0,0,1-17.64-17.64V72.1a17.64,17.64,0,0,1,16.25-17.58l13.72-1.09c.47,0,.93-.06,1.4-.06a17.58,17.58,0,0,1,9.14,2.56,17.74,17.74,0,0,1,5.5-1.4l13.79-1.21c.52,0,1-.07,1.55-.07A17.64,17.64,0,0,1,434.1,70.89v52.56A17.63,17.63,0,0,1,417.93,141l-13.79,1.16q-.74.06-1.47.06a17.7,17.7,0,0,1-9.2-2.59A17.76,17.76,0,0,1,388,141l-13.72,1.16C373.74,142.23,373.25,142.25,372.75,142.25Z"/><path d="M67.68,219.17a45.51,45.51,0,0,1-14-2.18,44.53,44.53,0,0,1-16.32-9.33,43.65,43.65,0,0,1-10.93-14.85,43.11,43.11,0,0,1-3.92-18.07,44.87,44.87,0,0,1,3.15-16.56,45.62,45.62,0,0,1,8.73-14,43.71,43.71,0,0,1,30.31-14.22l.83,0h2.75a46.06,46.06,0,0,1,14.56,2.37,17.62,17.62,0,0,1,11.9,14.23l2.1,14.6a17.64,17.64,0,0,1-3.51,13.32A17.65,17.65,0,0,1,97,187.85l-2,14.09a17.65,17.65,0,0,1-10.13,13.59,37.42,37.42,0,0,1-12.26,3.37A46.26,46.26,0,0,1,67.68,219.17Z"/><path d="M113.79,219h-.53a48.48,48.48,0,0,1-17.88-3.86,44.89,44.89,0,0,1-14.63-10.07A42.88,42.88,0,0,1,71.28,190a45.51,45.51,0,0,1-2.74-15.73v-1.47a43.37,43.37,0,0,1,6.74-22.31,44.19,44.19,0,0,1,17-15.57,46.12,46.12,0,0,1,21.79-5.34h.25a45.58,45.58,0,0,1,39.25,22.61,44.34,44.34,0,0,1,5.95,22.4v.7a44,44,0,0,1-6.7,22.49A45.23,45.23,0,0,1,114.55,219Z"/><path d="M178.66,221.73a17.65,17.65,0,0,1-10.83-3.83,17.52,17.52,0,0,1-6.42,1.21,16.43,16.43,0,0,1-2-.11l-13.09-1.46a17.63,17.63,0,0,1-15.11-22l14-54.09a17.64,17.64,0,0,1,32.93-3.32l.94,1.92,1.06-2.06a17.62,17.62,0,0,1,15.71-9.63,16.66,16.66,0,0,1,2,.11A17.65,17.65,0,0,1,213,141.73l13.58,53.84A17.64,17.64,0,0,1,211,217.46l-13.21,1.15c-.52,0-1,.07-1.55.07a17.76,17.76,0,0,1-6.1-1.09,17.64,17.64,0,0,1-11.36,4.14Z"/><path d="M245.59,221.73a17.66,17.66,0,0,1-10.84-3.83,17.52,17.52,0,0,1-6.42,1.21,16.66,16.66,0,0,1-2-.11l-13.08-1.46a17.65,17.65,0,0,1-15.12-22l14-54.09a17.63,17.63,0,0,1,32.92-3.32l.95,1.92,1.05-2.06a17.63,17.63,0,0,1,15.71-9.63,16.43,16.43,0,0,1,2,.11,17.62,17.62,0,0,1,15.13,13.22l13.58,53.84a17.64,17.64,0,0,1-15.57,21.89l-13.21,1.15c-.51,0-1,.07-1.54.07a17.72,17.72,0,0,1-6.1-1.09,17.64,17.64,0,0,1-11.36,4.14Z"/><path d="M302.13,219.24a41.12,41.12,0,0,1-17.43-3.68,34,34,0,0,1-15-13.34,36,36,0,0,1-5.29-19.31V148.53A17.64,17.64,0,0,1,280.44,131l13.46-1.21c.53-.05,1.06-.07,1.59-.07a17.63,17.63,0,0,1,8.84,2.37,17.7,17.7,0,0,1,4.4-1l13.58-1.21c.52-.05,1.05-.07,1.57-.07a17.63,17.63,0,0,1,17.64,17.64v34c0,14.68-6.47,23.37-11.9,28.07-6.89,6.07-15.65,9.37-25.93,9.72h-1.56Z"/><path d="M375.48,221.28a17.65,17.65,0,0,1-11.78-4.51l-6.51-5.84a17.62,17.62,0,0,1-12.32,6.65l-13.21,1.15c-.51.05-1,.07-1.54.07a17.63,17.63,0,0,1-17.64-17.64V145.21A17.64,17.64,0,0,1,342,132.15l6.48,5.87a17.61,17.61,0,0,1,12.26-6.91l12.94-1.34c.61-.06,1.22-.09,1.82-.09a17.63,17.63,0,0,1,17.64,17.64v56.32a17.63,17.63,0,0,1-17.64,17.64Z"/><path d="M385.18,218.68A17.64,17.64,0,0,1,367.54,201V148.66a17.64,17.64,0,0,1,15.85-17.55l13.15-1.34a17.88,17.88,0,0,1,1.79-.09A17.63,17.63,0,0,1,416,147.32V200A17.65,17.65,0,0,1,399.7,217.6l-13.14,1Q385.87,218.68,385.18,218.68Z"/><path d="M421.36,218.8a17.63,17.63,0,0,1-17.64-17.64V178.27a17.65,17.65,0,0,1-13.2-22L394,143.93A17.65,17.65,0,0,1,411,131h36.43A17.65,17.65,0,0,1,465,148.66V161a17.64,17.64,0,0,1-12.82,17v22a17.64,17.64,0,0,1-16.11,17.57l-13.2,1.15C422.38,218.78,421.87,218.8,421.36,218.8Z"/><path d="M456.83,218.68A17.65,17.65,0,0,1,439.18,201V148.66A17.64,17.64,0,0,1,455,131.11l13.14-1.34c.6-.06,1.2-.09,1.79-.09a17.61,17.61,0,0,1,17.64,17.64V200a17.64,17.64,0,0,1-16.26,17.59l-13.15,1C457.74,218.66,457.28,218.68,456.83,218.68Z"/><path d="M479.16,217.65A17.64,17.64,0,0,1,461.52,200V148.66A17.65,17.65,0,0,1,479.16,131h30.62A17.64,17.64,0,0,1,527,144.7l2.62,11.35A17.67,17.67,0,0,1,526.2,171a19.2,19.2,0,0,1-1.78,1.93v1.63a17.7,17.7,0,0,1,6.29,19.13L527.33,205a17.65,17.65,0,0,1-16.91,12.61Z"/><path d="M538.5,219.11A41.77,41.77,0,0,1,524,216.59a48.37,48.37,0,0,1-10.42-5,35.49,35.49,0,0,1-5.95-4.54,17.64,17.64,0,0,1-1.11-23.78l2.31-2.79q-.63-1.11-1.2-2.31a32.49,32.49,0,0,1-3.09-14.38v-.61a32.57,32.57,0,0,1,5.22-17.38A34,34,0,0,1,522.46,134a36.34,36.34,0,0,1,16.32-4.28h.86c11.7,0,22,4.14,29.88,12a17.64,17.64,0,0,1,1.1,23.78l-.57.69a36.72,36.72,0,0,1,5,18.17c0,.18,0,.35,0,.53v.76a32,32,0,0,1-4.69,16.93,1.74,1.74,0,0,0-.11.18A33.51,33.51,0,0,1,556.65,215a41.6,41.6,0,0,1-17.19,4.14h-1Z"/><path class="cls-3" d="M219.14,72.48l2.1,14.61a14.28,14.28,0,0,0-10-3.9,15,15,0,0,0-11,4.47A14.27,14.27,0,0,0,196,98.13v.64a13.84,13.84,0,0,0,5.11,10.39,14.49,14.49,0,0,0,9.69,3.64,8.72,8.72,0,0,0,1-.06,15.88,15.88,0,0,0,9.57-3.89l-2,14.09a19.67,19.67,0,0,1-6.63,1.85A28,28,0,0,1,201,123.64,26.73,26.73,0,0,1,191,118a26,26,0,0,1-6.64-9A25.4,25.4,0,0,1,182,98.19a27.07,27.07,0,0,1,1.92-10.07,27.88,27.88,0,0,1,5.35-8.62,26.52,26.52,0,0,1,8.1-6,25.79,25.79,0,0,1,10-2.49h2.74A28.27,28.27,0,0,1,219.14,72.48Z"/><path class="cls-3" d="M242.55,70.77v40.36h20.21l-3.37,12.32H228.7V72.1Z"/><path class="cls-3" d="M267.09,123.45l28.14-55.18,28.2,55.18-13.2,2.87-5.62-11.74H285.28l-5,11.88Zm33-19.71L294.84,92.2l-5.09,11.54Z"/><path class="cls-3" d="M365.42,77.59l-7.6,9.12c0-.21-.32-.66-.95-1.34a11.11,11.11,0,0,0-3-1.85,12.49,12.49,0,0,0-4.78-1h-.45a5.8,5.8,0,0,0-2.93.77A3.49,3.49,0,0,0,344,86a2.14,2.14,0,0,0-.06.5,3,3,0,0,0,1.21,2.49,10,10,0,0,0,3.77,1.79c1.53.47,3,.92,4.54,1.34q6.63,2,9.43,5.94a18.76,18.76,0,0,1,2.93,10.26V109a14.56,14.56,0,0,1-2.1,7.73,16.08,16.08,0,0,1-6.57,5.87,24.08,24.08,0,0,1-9.89,2.29h-.38a23.79,23.79,0,0,1-8.48-1.47,30.82,30.82,0,0,1-6.76-3.18,26.81,26.81,0,0,1-3.2-2.3l8-9.58a19.43,19.43,0,0,0,3.77,3,9.19,9.19,0,0,0,5.15,1.46c.43,0,.85,0,1.28-.06a11.53,11.53,0,0,0,4.27-1.09c1-.55,1.56-1.64,1.6-3.26v-.12a3.14,3.14,0,0,0-1.92-2.87,33.63,33.63,0,0,0-5.93-2.24,29.28,29.28,0,0,1-5.23-1.77,26.91,26.91,0,0,1-4.27-3,12.6,12.6,0,0,1-3.25-4.45,14.9,14.9,0,0,1-1.34-6.72v-.37a15.08,15.08,0,0,1,2.43-8.1,16.52,16.52,0,0,1,6.24-5.81,18.69,18.69,0,0,1,8.43-2.16H348Q358.58,70.77,365.42,77.59Z"/><path class="cls-3" d="M402.67,124.61v-21.7H386.48v20.54l-13.73,1.16V72.1L386.48,71V91h16.19V72.1l13.79-1.21v52.56Z"/><path class="cls-3" d="M77.32,149l2.1,14.61a14.27,14.27,0,0,0-10-3.89,15,15,0,0,0-11,4.47,14.23,14.23,0,0,0-4.27,10.46v.64a13.84,13.84,0,0,0,5.11,10.39A14.48,14.48,0,0,0,69,189.35a8.77,8.77,0,0,0,1-.06,15.83,15.83,0,0,0,9.56-3.89l-2,14.09a19.93,19.93,0,0,1-6.64,1.86,29.91,29.91,0,0,1-3.25.18,27.49,27.49,0,0,1-8.55-1.34,26.85,26.85,0,0,1-10-5.67,26.13,26.13,0,0,1-6.63-9,25.36,25.36,0,0,1-2.35-10.78,27.3,27.3,0,0,1,1.91-10.07,28.09,28.09,0,0,1,5.36-8.62,26.28,26.28,0,0,1,8.1-6,25.74,25.74,0,0,1,10-2.49h2.75A28.27,28.27,0,0,1,77.32,149Z"/><path class="cls-3" d="M114.3,147.19a27.94,27.94,0,0,1,24,13.84,26.62,26.62,0,0,1,3.57,13.53v.25a26.54,26.54,0,0,1-4,13.6A27.23,27.23,0,0,1,127.57,198a26.94,26.94,0,0,1-13,3.32h-.76a31.16,31.16,0,0,1-11.42-2.42,27.71,27.71,0,0,1-8.93-6.13,25.52,25.52,0,0,1-5.61-8.92,28,28,0,0,1-1.65-9.64v-1a25.66,25.66,0,0,1,4-13.34,26.45,26.45,0,0,1,10.26-9.38,28.58,28.58,0,0,1,13.59-3.32Zm-.64,12.32a13.56,13.56,0,0,0-7.39,2.29,15.52,15.52,0,0,0-5.36,5.87,14.6,14.6,0,0,0-1.79,7v.76a13.17,13.17,0,0,0,2.49,7,15.38,15.38,0,0,0,5.81,5.16,13.83,13.83,0,0,0,6.49,1.66h.64A14.67,14.67,0,0,0,124.82,184a13.64,13.64,0,0,0,3.89-9.37c0-.51,0-1-.06-1.54a15.79,15.79,0,0,0-2.43-7,14.71,14.71,0,0,0-5.41-5,15,15,0,0,0-6.9-1.67Z"/><path class="cls-3" d="M148.31,200l14-54.09,16.46,33.67L195.9,146l13.58,53.84L196.28,201,192,178.19l-13.21,25.9L166,177.94l-4.59,23.53Z"/><path class="cls-3" d="M215.23,200l14-54.09,16.47,33.67L262.83,146l13.58,53.84L263.2,201l-4.27-22.84-13.2,25.9-12.82-26.15-4.6,23.53Z"/><path class="cls-3" d="M282,182.91V148.53l13.46-1.21v33.36q0,8.28,7,8.28a10.3,10.3,0,0,0,1.07-.06c3-.25,4.8-1.22,5.56-2.93A14.26,14.26,0,0,0,310.3,180V148.66l13.58-1.22v34q0,9.7-5.81,14.73t-15,5.42h-1a23.45,23.45,0,0,1-10-2,16.55,16.55,0,0,1-7.4-6.57A18.49,18.49,0,0,1,282,182.91Z"/><path class="cls-3" d="M330.13,201.16V145.21l32.41,29.41v-26l12.94-1.34v56.32l-32.15-28.83V200Z"/><path class="cls-3" d="M385.18,201V148.66l13.15-1.34V200Z"/><path class="cls-3" d="M447.39,161H434.57v39l-13.21,1.15V161H407.52L411,148.66h36.43Z"/><path class="cls-3" d="M456.83,201V148.66L470,147.32V200Z"/><path class="cls-3" d="M479.16,200V148.66h30.62L512.4,160h-20v8.1h14.4v11.35H492.24v9.19H513.8L510.42,200Z"/><path class="cls-3" d="M557.06,154.14l-7.6,9.13c0-.22-.31-.67-1-1.34a10.65,10.65,0,0,0-3-1.86,12.49,12.49,0,0,0-4.78-1h-.46a5.7,5.7,0,0,0-2.92.78,3.43,3.43,0,0,0-1.73,2.61,2.14,2.14,0,0,0-.06.5,3,3,0,0,0,1.21,2.49,9.81,9.81,0,0,0,3.77,1.79c1.53.47,3,.92,4.53,1.34q6.64,2,9.44,5.94a18.9,18.9,0,0,1,2.93,10.26v.76a14.47,14.47,0,0,1-2.11,7.73,16,16,0,0,1-6.57,5.87,23.88,23.88,0,0,1-9.89,2.29h-.37A24.1,24.1,0,0,1,530,200a31.73,31.73,0,0,1-6.76-3.19,26.35,26.35,0,0,1-3.19-2.3l8-9.57a19.72,19.72,0,0,0,3.77,2.94,9.22,9.22,0,0,0,5.16,1.46c.42,0,.85,0,1.27-.06a11.59,11.59,0,0,0,4.28-1.09,3.49,3.49,0,0,0,1.6-3.25v-.13a3.15,3.15,0,0,0-1.92-2.87,34,34,0,0,0-5.93-2.24,28.66,28.66,0,0,1-5.24-1.77,26.82,26.82,0,0,1-4.26-3,12.52,12.52,0,0,1-3.26-4.45,15,15,0,0,1-1.34-6.72v-.37a15.08,15.08,0,0,1,2.43-8.1,16.62,16.62,0,0,1,6.25-5.81,18.68,18.68,0,0,1,8.42-2.16h.38Q550.23,147.32,557.06,154.14Z"/><path d="M284.74,168.73a31.12,31.12,0,0,1-11.42-2.45A28.12,28.12,0,0,1,264.2,160a26.47,26.47,0,0,1-5.83-9.26,28.63,28.63,0,0,1-1.7-9.84s0-.93,0-1a26.62,26.62,0,0,1,4.15-13.78,27.38,27.38,0,0,1,10.54-9.65,29.08,29.08,0,0,1,13.75-3.37h.21A28.51,28.51,0,0,1,299.6,117a28.21,28.21,0,0,1,10.23,10.24,27.5,27.5,0,0,1,3.69,13.91s0,.3,0,.34a27.23,27.23,0,0,1-4.14,14,28.23,28.23,0,0,1-23.84,13.24Zm-6.45-27a5.36,5.36,0,0,0,1,2.79,1,1,0,0,1,.08.11,7.22,7.22,0,0,0,2.74,2.43,6.09,6.09,0,0,0,2.86.77h.35a6.59,6.59,0,0,0,4.57-2.55,5.79,5.79,0,0,0,1.81-4.07c0-.25,0-.51,0-.77a7.62,7.62,0,0,0-1.17-3.28A6.59,6.59,0,0,0,288.1,135a6.74,6.74,0,0,0-3.09-.73h-.16a5.69,5.69,0,0,0-3.13,1,7.23,7.23,0,0,0-2.59,2.82,6.55,6.55,0,0,0-.84,3.23Z"/><path d="M308,168.68a5.48,5.48,0,0,1-5.47-5.47V119.82a5.47,5.47,0,0,1,5.47-5.47h23.71a5.47,5.47,0,0,1,5.26,4l2.69,9.35a5.48,5.48,0,0,1-5.11,7,5.49,5.49,0,0,1,1.32,3.57v9.57a5.47,5.47,0,0,1-5.47,5.47H324.5v8.89a5.47,5.47,0,0,1-4.95,5.45l-11,1.05A4.53,4.53,0,0,1,308,168.68Z"/><path class="cls-2" d="M288.06,125.53A15.77,15.77,0,0,1,296,127.7a15.58,15.58,0,0,1,5.7,5.7,15.1,15.1,0,0,1,2,7.7v.15a15.05,15.05,0,0,1-2.28,7.73,15.49,15.49,0,0,1-5.85,5.48,15.29,15.29,0,0,1-7.41,1.89h-.43a18,18,0,0,1-6.5-1.38,15.61,15.61,0,0,1-5.08-3.49A14.46,14.46,0,0,1,273,146.4a15.78,15.78,0,0,1-.94-5.48v-.58a14.59,14.59,0,0,1,2.29-7.59,15.06,15.06,0,0,1,5.83-5.33,16.29,16.29,0,0,1,7.74-1.89Zm-.36,7a7.71,7.71,0,0,0-4.21,1.3,8.91,8.91,0,0,0-3.05,3.34,8.29,8.29,0,0,0-1,4v.43a7.52,7.52,0,0,0,1.42,4,8.77,8.77,0,0,0,3.31,2.94,7.84,7.84,0,0,0,3.69.94h.36a8.31,8.31,0,0,0,5.85-3,7.74,7.74,0,0,0,2.21-5.33c0-.29,0-.58,0-.88a9,9,0,0,0-1.38-3.95,8.27,8.27,0,0,0-7-3.77Z"/><path class="cls-2" d="M307.34,156.31V126.36h16.37l1.86,6.46H314.93v6.24h7.88v6.6h-7.88v9.92Z"/><g id="oso"><polygon class="cls-4" points="100.61 72.04 115.89 83.92 137.4 80.59 146.11 80.93 165.22 85.08 183.97 73.7 179.97 70.22 171.31 71.21 166.24 74.82 162.78 79.31 142.51 74.95 119.45 79.06 112.92 71.21 104.79 69.84 100.61 72.04"/><path class="cls-5" d="M116.52,82.84c-5.07-11.38-18.13-11-18.13-11s-6.27,2.06-6.94,12c-.53,8,5.74,10.59,6.76,16.11.89,4.84-5.59,7.38-6.76,12.79-1.36,6.35,1.07,16.66,1.25,18.43,0,0,10.49,24.25,47.1,23.09s50.66-19.43,51.55-33.88c0,0,.48-4.21-3.55-12.13s-4.27-12.44-4.27-12.44,13.26-9.48,4.06-20.72c-14.33-7.82-22.51,7-22.33,7.85-2.24-1.05-13.57-4.57-24.66-4.58C129,78.35,117.81,82.42,116.52,82.84Z"/><path class="cls-4" d="M110.83,149.35s-12.62-17.19-14.22-23.42,2.13-12.87,2.13-12.87,1.87-18,7.65-22.79L90.72,112.38v12.2l1.73,6.73Z"/><path class="cls-1" d="M149.66,152.68s19.86-6.51,23.34-12.47c0,0,.27,2.49-.45,3.37s15.74-11.59,11.34-21.39a13.58,13.58,0,0,1,5.82,5.63c-.67,2.4-9.32,13.31-15.92,17.76C163.42,152,149.66,152.68,149.66,152.68Z"/><path class="cls-1" d="M176.39,81.25s3.38-6.16,9.26.74c0,0,2.18,6.83-3.83,13.06l-2.56-2.42,2-6.22Z"/><path class="cls-1" d="M105.29,80.7s-3.38-6.17-9.26.73a13.66,13.66,0,0,0,3.83,13.06l2.55-2.41-2-6.23Z"/><ellipse class="cls-6" cx="159.35" cy="109.02" rx="6.67" ry="7.15"/><polygon class="cls-7" points="120.12 122.4 128.38 115.18 133.72 112.44 138.91 111.32 144.65 111.44 148.65 112.69 152.78 114.56 155.31 117.05 160.91 121.66 163.98 126.51 164.64 133.86 162.51 139.34 152.38 150.3 141.45 154.04 130.65 150.55 123.72 145.32 119.32 139.34 117.05 132.62 117.98 126.76 120.12 122.4"/><path class="cls-8" d="M133.36,149.8s14.18,3.76,21.92-6.61l-.57,3.64-6.21,4.74-7,1.87h-4.71Z"/><polygon class="cls-6" points="128.43 135.9 133.85 136.48 141.67 134.98 149.13 136.39 154.82 134.65 154.2 137.31 150.38 139.96 144.69 141.62 139.27 141.96 133.58 140.79 130.65 139.05 128.43 135.9"/><path d="M141.53,143.18c11.64-.31,14.82-7.33,15.33-9l-1-.44s-3.13,7-14.19,7.13h-.16c-11.06-.11-14.18-7.13-14.18-7.13l-1.05.44c.51,1.66,3.69,8.68,15.34,9Z"/><path d="M141.53,118.07c1.36,0,2.71,0,4.06.13a18,18,0,0,1,4.63,1c2.56.89,3.33,3,2.1,5.33a8.93,8.93,0,0,1-4.43,3.89c-1.64.75-3.31,1.45-5,2.14-.39.16-.53.27-.46.71a4.86,4.86,0,0,0,4.27,3.86,10.36,10.36,0,0,0,11-6.33c.18-.44.09-.7-.38-.81-.7-.18-1.41-.33-2.11-.49.55-.91,1.9-1.24,3.35-.81,1.81.52,3.47,2.19,3.22,4.08L160,129.33a33.4,33.4,0,0,1-1.66,3,11.88,11.88,0,0,1-11,5.37,22.2,22.2,0,0,1-4.39-.89,5,5,0,0,0-1.25-.18h-.24a5,5,0,0,0-1.25.18,22.25,22.25,0,0,1-4.38.89,11.89,11.89,0,0,1-11-5.37c-.63-.93-1.08-2-1.66-3l-1.81,1.43c-.25-1.89,1.41-3.56,3.22-4.08,1.45-.43,2.81-.1,3.35.81-.7.16-1.41.31-2.11.49-.47.11-.56.37-.38.81a10.36,10.36,0,0,0,11,6.33,4.86,4.86,0,0,0,4.27-3.86c.07-.44-.07-.55-.46-.71-1.67-.69-3.33-1.39-5-2.14a8.93,8.93,0,0,1-4.43-3.89c-1.22-2.3-.46-4.44,2.11-5.33a17.81,17.81,0,0,1,4.62-1c1.35-.09,2.71-.14,4.06-.13Z"/><path class="cls-9" d="M141.75,123.56c1.3-.1,2.65-.38,3.94-.61,1.52-.26,3.7-1.42,3.15-1.47-2.46-.24-4.54-.61-7-.64h-.51a50.23,50.23,0,0,0-6.78.84c-.6.1,1.51,1,3.42,1.42C139,123.32,141.75,123.56,141.75,123.56Z"/><path d="M131.17,114.14c-.18.11-.36.2-.63.34a12.74,12.74,0,0,1,10.4-4.51c4.88.06,8.31,1.93,10.45,4.51-.27-.14-.46-.23-.63-.34-2.56-1.49-8.18-1.7-9.87-1.71S133.72,112.65,131.17,114.14Z"/><path d="M147.16,98.75c-.4-2.38,2.66-5.42,6.88-6.67C151.29,93.93,148.75,95.88,147.16,98.75Z"/><path d="M135.87,98.75c.4-2.38-2.66-5.42-6.88-6.67C131.74,93.93,134.28,95.88,135.87,98.75Z"/><path d="M140.77,154c-2.42.05-12.25-1.71-19.45-3.57s-15.49-6.66-17.54-8.39c-4.06-3.45-10.32-10.12-7.31-17.15A43.23,43.23,0,0,0,92.9,128a2.49,2.49,0,0,1-.46-1.26c-.67-4.83,1.9-8.5,4.83-11.92l-5.16-1.33c3.1-2,4.78-4.77,6.26-7.63,1.35-2.61,2.61-5.27,4-7.87,2.51-4.79,4.76-9.75,9.75-12.92a21.38,21.38,0,0,0-4.21-6.24c-1.65-1.52-3.54-2.65-6-2.39-3.41.38-5.3,2.78-6.3,5.41,0,0,.12.12.19.18L98,80a5.14,5.14,0,0,1,4.54-.81,4.47,4.47,0,0,1,2.56,2.11c-1.26.18-2.31-.17-3.74.77a4.87,4.87,0,0,0-2,3.15,7.8,7.8,0,0,0,0,3.19A15.09,15.09,0,0,0,101,91.57a1.3,1.3,0,0,1,0,1.67c-.48.58-.92,1.2-1.37,1.81l-.6.8a48.31,48.31,0,0,1-3.45-3.4,12.9,12.9,0,0,1-.35-16.39c3.06-3.74,7.3-5,12.16-4s7.86,3.64,9.17,8c.28.94.48,1.9.74,2.91,6.36-3.6,15.5-6.76,23.6-6.72s16.88,3.12,23.24,6.72c.26-1,.46-2,.74-2.91,1.32-4.41,4.45-7.12,9.17-8s9.1.31,12.16,4a12.89,12.89,0,0,1-.35,16.39c-1,1.21-2.26,2.24-3.44,3.4l-.6-.8c-.46-.61-.9-1.23-1.38-1.81a1.3,1.3,0,0,1,0-1.67,15.09,15.09,0,0,0,1.74-3.21,7.8,7.8,0,0,0,0-3.19,4.89,4.89,0,0,0-2-3.15c-1.43-.94-2.48-.59-3.74-.77A4.47,4.47,0,0,1,179,79.14a5.14,5.14,0,0,1,4.54.81l2.16,2c.07-.06.21-.14.19-.18-1-2.63-2.89-5-6.3-5.41-2.44-.26-4.34.87-6,2.39A21.58,21.58,0,0,0,169.34,85c5,3.17,7.24,8.13,9.76,12.92,1.37,2.6,2.62,5.26,4,7.87,1.48,2.86,3.16,5.58,6.26,7.63l-5.16,1.33c2.94,3.42,5.5,7.09,4.83,11.92a2.49,2.49,0,0,1-.46,1.26,43.23,43.23,0,0,0-3.57-3.07c3,7-3.5,14-7.31,17.15a59.38,59.38,0,0,1-14.88,7.64A107.93,107.93,0,0,1,148.6,153a33.51,33.51,0,0,1-7.83,1l-.07,2.36a36.45,36.45,0,0,0,7.71-.47,120.44,120.44,0,0,0,13.12-2.49c7.45-1.91,14.46-4.75,20.24-9.75a25.21,25.21,0,0,0,6.16-7.62c.17-.32.31-.66.48-1l.85,1.08c.61.76.72.78,1.29,0a18.36,18.36,0,0,0,3-14.16,47.26,47.26,0,0,0-1.8-5.94,35.07,35.07,0,0,0,2.76-2.23c1-1,.86-1.43-.21-2.33-1.41-1.18-2.85-2.34-4.17-3.61-2.73-2.59-4.11-5.91-5.37-8.76,1.34-1.41,2.57-2.58,3.63-3.87a17.43,17.43,0,0,0,4-14.12,14.17,14.17,0,0,0-7-10.42,16.59,16.59,0,0,0-11-2.16,16,16,0,0,0-10.17,5.14c-1.11,1.23-2,2.64-3,4a62,62,0,0,0-16-4.31,32.82,32.82,0,0,0-9.18,0,62,62,0,0,0-16,4.31c-1-1.33-1.87-2.74-3-4A16,16,0,0,0,107,68.46a16.6,16.6,0,0,0-11,2.16A14.2,14.2,0,0,0,89,81a17.43,17.43,0,0,0,4,14.12c1.06,1.29,2.3,2.46,3.63,3.87-1.26,2.85-2.63,6.17-5.36,8.76-1.33,1.27-2.77,2.43-4.18,3.61-1.07.9-1.19,1.35-.2,2.33A31.75,31.75,0,0,0,89.66,116a44.16,44.16,0,0,0-1.8,5.94,18.31,18.31,0,0,0,3,14.16c.57.8.68.78,1.29,0L93,135c.17.37.32.71.48,1a25.36,25.36,0,0,0,6.16,7.62c5.78,5,12.79,7.84,20.24,9.75A120.89,120.89,0,0,0,133,155.89c2.69.38,7.67.47,7.67.47Z"/><path d="M130.12,151.91c-.34-.3-5.7-4.25-6-4.5s-.61-.53-.89-.82c-4.63-4.78-7.56-10.23-7.17-16.86a13.13,13.13,0,0,1,5.22-9.66c.76-.61,1.55-1.19,2.43-1.87a8.29,8.29,0,0,1-6.71-3.63,8.73,8.73,0,0,1-1.35-7.16c.85-3.83,4.44-7.55,8.49-6.79-3.56-3.88-7.69-5.34-11.88-1.19.58-3.15,3.76-6.52,7.26-6a12.53,12.53,0,0,1,4.08,1.49c3.12,1.68,5.3,4.3,7.53,6.86A28.67,28.67,0,0,0,134.4,105c1.11.94,1.9.63,2.27-.74.15-.56.23-1.12.35-1.74,1.89,2,.76,6.12-1.8,6.65a10.93,10.93,0,0,1-2.66-.08,9.56,9.56,0,0,1-2,6.44,7.53,7.53,0,0,1-3.13,2.36,8.87,8.87,0,0,0-2.25,1.22c-2.46,2-4.84,4.22-6,7.17a12.72,12.72,0,0,0,.92,11.12,28.21,28.21,0,0,0,7.9,9,56.41,56.41,0,0,0,5.74,3.86,15.48,15.48,0,0,0,7.36,1.83,14.7,14.7,0,0,0,7.14-1.83,58.72,58.72,0,0,0,5.74-3.86,28.46,28.46,0,0,0,7.9-9,12.69,12.69,0,0,0,.91-11.12c-1.17-2.95-3.56-5.12-6-7.17a8.71,8.71,0,0,0-2.25-1.22,7.5,7.5,0,0,1-3.12-2.36,9.62,9.62,0,0,1-2-6.44,10.91,10.91,0,0,1-2.66.08c-2.56-.53-3.68-4.64-1.8-6.65.13.62.2,1.18.35,1.74.38,1.37,1.16,1.68,2.27.74a29.61,29.61,0,0,0,3.25-3.28c2.23-2.56,4.41-5.18,7.52-6.86a12.61,12.61,0,0,1,4.08-1.49c3.5-.5,6.69,2.87,7.26,6-4.19-4.15-8.32-2.69-11.87,1.19,4.05-.76,7.63,3,8.48,6.79a8.72,8.72,0,0,1-1.34,7.16,8.31,8.31,0,0,1-6.72,3.63c.88.68,1.68,1.26,2.43,1.87a13.18,13.18,0,0,1,5.23,9.66c.39,6.63-2.54,12.08-7.18,16.86-.27.29-.58.55-.88.82s-5.64,4.2-6,4.5c0,0-3.4,2.38-10.79,2.38C133,154.29,130.62,152.25,130.12,151.91Z"/><path class="cls-6" d="M155.33,115.34c.07.11.08.17.12.2l.31.16a5.79,5.79,0,0,0,5.36-.61c3.28-1.89,4.11-7.06,1.63-10.17a4.2,4.2,0,0,0-6-.63,4.42,4.42,0,0,1,3.83,4.13,6.69,6.69,0,0,1-1,4.61A5.62,5.62,0,0,1,155.33,115.34Z"/><path class="cls-6" d="M158.15,107.68a1.38,1.38,0,0,0-1.26-1.51,1.88,1.88,0,0,0-1.57,1.81,1.26,1.26,0,0,0,1.33,1.18A1.37,1.37,0,0,0,158.15,107.68Z"/><path class="cls-6" d="M122.26,113a6.64,6.64,0,0,1-1-4.61,4.43,4.43,0,0,1,3.84-4.13,4.2,4.2,0,0,0-6,.63c-2.49,3.11-1.66,8.28,1.62,10.17a5.81,5.81,0,0,0,5.37.61,2.85,2.85,0,0,0,.3-.16s.06-.09.13-.2A5.6,5.6,0,0,1,122.26,113Z"/><path class="cls-6" d="M125.21,109.16a1.26,1.26,0,0,0,1.33-1.18,1.86,1.86,0,0,0-1.57-1.81,1.51,1.51,0,0,0,.24,3Z"/></g><g id="Guepardo"><path class="cls-10" d="M498,82.55l4.39-4.69a3.63,3.63,0,0,1,3,1.62c.89,1.64,4.43,5.46-3.43,14.46l-2.29-3.79,1.14-3.89-.15-1.77Z"/><polygon class="cls-11" points="509.03 82.51 508.23 74.47 503.54 70.04 496.08 70.31 490.38 74.74 487.11 77.19 472.65 73.79 466.47 73.86 446.58 76.75 432.67 69.15 425.49 73.71 423.35 83.34 439.4 81.31 469.26 79.03 481.78 80.08 488.5 83.26 493.18 83.26 496.2 79.31 498.42 75.42 501.57 75.29 505.41 78.8 508.78 84.01 509.03 82.51"/><path class="cls-7" d="M509.49,84s-6.27-17.57-15.31-5.4a9.06,9.06,0,0,1-4.5,3.11s-6.16-2.47-9.95-3.56a27.31,27.31,0,0,0-11.5-.91s-7.15-.23-9.81.26-13.22,3.36-13.22,3.36-7.43-6.35-13-6.3-8.76,8.06-8.25,10.64,6.76,11.15,6.76,11.15l-3.32,10.52-4.47,4.56-.12,20.53,3-.76,8.37,11.53,11.47,5.7,22.67,5.31,10.87-3.95,8.28-.87,9.41-7.45-.33,1.84,7.25-4.8,3.93-10.54,3,2.78,1-9.82L507.18,114l5.08-2-7.19-6.73-9.61-20.31s1.8-4.39,4.92-6.39a3.49,3.49,0,0,1,5,.93s3.7,5.4-3.43,14.46l.94,1.79L507.41,92Z"/><path class="cls-11" d="M499.92,138.76l5.78-13.51,2.07,1.07s1.49-4.58-1.42-12.93c0,0-6.72-14.39-6.43-17.08L508,108.6l2.32,4.32L509,116.08,512,127.5l-1.62,4.41-3.11-2.86-3.81,10.63L499.18,142Z"/><path class="cls-2" d="M499.55,140.73l1.28-6.77s-8.83,10-18.32,11.79l.83-3.24-4,5.88,2.79,1.58,10.93-4.22,6.14-3.07Z"/><path class="cls-2" d="M428,80.2c-2.35,4.46,3.69,14.34,3.69,14.34l2.71-4.47.28-5,.35-5.75S429.47,77.33,428,80.2Z"/><path class="cls-2" d="M456.09,147.93s-19.15-5.83-22.6-14.53l-.31,4.81s-7.94-11-3.44-18.75c0,0-5.91,6.16-7.72,7.94a12.23,12.23,0,0,0,.62,4.06l3.66-4.06s-1.83,5.15,5.17,12.1C441.77,148.9,456.09,147.93,456.09,147.93Z"/><path class="cls-12" d="M466.66,152.55c-2.2,0-15.31-3.38-17.76-16.44-2.74-15.34,9.65-13.82,9.65-13.82l9,4.6,8.64-4.6s13.55-1.85,10.31,13C481.64,149.38,468.85,152.55,466.66,152.55Z"/><path class="cls-13" d="M467,112.37c-1.18,0-4.47.4-6.87.62a12.62,12.62,0,0,1,7-2.83,11.77,11.77,0,0,1,6.75,2.79C471.45,112.73,468.15,112.39,467,112.37Z"/><path class="cls-13" d="M472.83,96.84A13.94,13.94,0,0,0,474,95.61c.79-1.09,1.56-2.21,2.31-3.33.31-.47.44-1.09-.06-1.4A1.23,1.23,0,0,0,475,91a6.58,6.58,0,0,0-2.35,4.78A5.79,5.79,0,0,0,472.83,96.84Z"/><path class="cls-13" d="M461.53,97a14.27,14.27,0,0,1-1.14-1.23c-.79-1.09-1.55-2.21-2.3-3.33-.31-.47-.44-1.09.05-1.4a1.25,1.25,0,0,1,1.22.13A6.61,6.61,0,0,1,461.71,96,6.87,6.87,0,0,1,461.53,97Z"/><path class="cls-13" d="M467.52,136.75a2.79,2.79,0,0,0-1.07.21,15,15,0,0,1-7.46,1.23,12.16,12.16,0,0,1-9.49-6.35,3,3,0,0,0-.21-.33H449v4.91c-1.83-3.49-1-7,0-10.58-1.64.58-2.59,2-3.69,3.24.11-4.32,4.28-6.76,8.37-4.93,0,0,0,.13,0,.13-2.61.81-3,3.21-2.16,5.62a8.18,8.18,0,0,0,5.94,5.37,9.27,9.27,0,0,0,7.33-.76,4,4,0,0,0,2.1-3.69c-1.83-1-3.7-2-5.44-3.14a10.93,10.93,0,0,1-2.81-2.66,3.84,3.84,0,0,1,1.51-6,14.89,14.89,0,0,1,4.43-1.08c1-.08,1.93-.12,2.9-.12h.3q1.46,0,2.91.12A14.83,14.83,0,0,1,475,119a3.85,3.85,0,0,1,1.52,6,10.93,10.93,0,0,1-2.81,2.66c-1.75,1.16-3.62,2.1-5.45,3.14a4,4,0,0,0,2.1,3.69,9.27,9.27,0,0,0,7.33.76,8.2,8.2,0,0,0,6-5.37c.85-2.41.44-4.81-2.17-5.62,0,0,0-.08,0-.13,4.09-1.83,8.25.61,8.36,4.93-1.09-1.23-2-2.66-3.68-3.24,1,3.62,1.78,7.09-.05,10.58v-4.91h-.31l-.22.33a12.13,12.13,0,0,1-9.49,6.35,15,15,0,0,1-7.46-1.23,2.74,2.74,0,0,0-1.06-.21Z"/><path class="cls-10" d="M467.59,123.91c1.32-.14,2.45-1.93,3.55-2.15,1.29-.26,2.6-.42,4.07-.65-.48-.3-.91-.77-1.38-.83a48.18,48.18,0,0,0-6.39-.64,33.38,33.38,0,0,0-5.74.72,4,4,0,0,0-1.61,1.39,7.07,7.07,0,0,1,3.89,0C465,122,466.41,124,467.59,123.91Z"/><g id="ojos"><ellipse class="cls-6" cx="483.06" cy="108.88" rx="7.32" ry="7.84"/><ellipse class="cls-6" cx="451.29" cy="109.08" rx="7.32" ry="7.84"/><path class="cls-13" d="M489.11,101.34c3.08,3.46,3.28,7.81,1.36,11.75a7.86,7.86,0,0,1-6.73,4.63,6.9,6.9,0,0,1-6.87-3.24,8.87,8.87,0,0,1-1.44-5.15,3.74,3.74,0,0,1-3.41-2.88c-.67-2.32-.29-4.68-.35-7,.42,1,.74,2,1.17,2.87.89,1.94.9,2.46,3,.84,1.78-1.34,3.36-3,5.11-4.4A39.9,39.9,0,0,1,486.36,95a4.92,4.92,0,0,1,6.12.76,8.84,8.84,0,0,1,2.68,5.59c-3.7-4.58-7.26-3.57-9.85-1.46A4.16,4.16,0,0,1,489.11,101.34ZM481.38,116a7.13,7.13,0,0,0,8-5,7.79,7.79,0,0,0-.88-7.08,3.06,3.06,0,0,0-4.38-.9,6.06,6.06,0,0,1,2.08,4c.44,3-.14,6-2.82,7.6a5,5,0,0,1-3.42.51l-.5-.09-.07.28A9.12,9.12,0,0,0,481.38,116Zm0-9a1.18,1.18,0,0,0-1-1.29,1.87,1.87,0,0,0-1.53,2,.91.91,0,0,0,1,1A1.6,1.6,0,0,0,481.39,107Z"/><path class="cls-13" d="M449.05,100.06c-2.59-2.11-6.15-3.12-9.86,1.46a8.9,8.9,0,0,1,2.69-5.59,4.92,4.92,0,0,1,6.12-.76,40.54,40.54,0,0,1,5.37,3.76c1.75,1.39,3.32,3.06,5.1,4.4,2.15,1.62,2.15,1.1,3-.84.43-.92.75-1.91,1.17-2.87-.06,2.35.32,4.71-.35,7a3.74,3.74,0,0,1-3.41,2.88,8.81,8.81,0,0,1-1.45,5.15,6.88,6.88,0,0,1-6.86,3.24,7.88,7.88,0,0,1-6.74-4.63c-1.92-3.94-1.72-8.29,1.36-11.75A4.18,4.18,0,0,1,449.05,100.06Zm5.89,15.47-.08-.28-.5.09a5,5,0,0,1-3.41-.51c-2.69-1.58-3.27-4.62-2.82-7.6a6,6,0,0,1,2.08-4,3.06,3.06,0,0,0-4.38.9,7.73,7.73,0,0,0-.88,7.08,7.12,7.12,0,0,0,8,5A9.52,9.52,0,0,0,454.94,115.53Zm-.44-6.69a.89.89,0,0,0,1-1,1.86,1.86,0,0,0-1.53-1.95,1.18,1.18,0,0,0-1,1.29A1.6,1.6,0,0,0,454.5,108.84Z"/></g><g id="manchas"><path class="cls-13" d="M473.17,85.14a5.8,5.8,0,0,0,0,.59c.13,1.17.89,1.84,1.9,1.54a5,5,0,0,0,3.16-5.56c-.39-1.53-1.52-2.1-2.72-1.21A5.65,5.65,0,0,0,473.17,85.14Z"/><path class="cls-13" d="M493.08,133.56c0,1.31.61,2,1.81,1.85a2.43,2.43,0,0,0,2.12-1.69,2.82,2.82,0,0,0-.24-2.74,1.54,1.54,0,0,0-2.66-.16A3.92,3.92,0,0,0,493.08,133.56Z"/><path class="cls-13" d="M499.6,121.47c1.16.72,2.08.43,2.62-.92a3.2,3.2,0,0,0-.31-3.19,2.51,2.51,0,0,0-2.53-1.25,2,2,0,0,0-1.6,2.74A4.15,4.15,0,0,0,499.6,121.47Z"/><path class="cls-13" d="M482.49,89.86A6.51,6.51,0,0,0,486,88.74a2,2,0,0,0,1.06-2,1.91,1.91,0,0,0-1.73-1.41c-2.13-.42-3.88,1.7-4,3.78a.77.77,0,0,0,.37.6A3,3,0,0,0,482.49,89.86Z"/><path class="cls-13" d="M499.55,126.61a3.77,3.77,0,0,0,2.05,3.06c1.08.33,1.87-.33,1.83-1.58-.05-1.59-1.3-3.39-3.05-2.68A1.17,1.17,0,0,0,499.55,126.61Z"/><path class="cls-13" d="M489.17,121.16a2.9,2.9,0,0,0,1.58,2.36c.83.25,1.44-.25,1.4-1.22,0-1.22-1-2.6-2.34-2.06A.9.9,0,0,0,489.17,121.16Z"/><path class="cls-13" d="M498.12,104.78a6.91,6.91,0,0,0,1.95,4.3c.47.41,1,.69,1.54.32s.5-1,.37-1.58a6,6,0,0,0-2.44-4.16C498.67,103.1,498.12,103.48,498.12,104.78Z"/><path class="cls-13" d="M461.19,85.34a5.8,5.8,0,0,1,0,.59c-.13,1.17-.89,1.84-1.91,1.54a5,5,0,0,1-3.16-5.56c.4-1.53,1.53-2.1,2.73-1.21A5.68,5.68,0,0,1,461.19,85.34Z"/><path class="cls-13" d="M441.28,133.76c0,1.31-.62,2-1.81,1.85a2.43,2.43,0,0,1-2.12-1.69,2.79,2.79,0,0,1,.24-2.74,1.53,1.53,0,0,1,2.65-.16A3.93,3.93,0,0,1,441.28,133.76Z"/><path class="cls-13" d="M434.75,121.67c-1.15.72-2.07.43-2.62-.92a3.18,3.18,0,0,1,.32-3.19,2.5,2.5,0,0,1,2.53-1.25,2,2,0,0,1,1.6,2.74A4.16,4.16,0,0,1,434.75,121.67Z"/><path class="cls-13" d="M451.87,90.06a6.48,6.48,0,0,1-3.52-1.12,2,2,0,0,1-1.06-2A1.89,1.89,0,0,1,449,85.49c2.12-.42,3.88,1.7,4,3.78a.82.82,0,0,1-.37.6A3.13,3.13,0,0,1,451.87,90.06Z"/><path class="cls-13" d="M434.8,126.81a3.76,3.76,0,0,1-2,3.06c-1.08.33-1.87-.33-1.83-1.58.05-1.59,1.29-3.39,3.05-2.68A1.16,1.16,0,0,1,434.8,126.81Z"/><path class="cls-13" d="M445.18,121.36a2.87,2.87,0,0,1-1.57,2.36c-.83.25-1.44-.25-1.41-1.22,0-1.22,1-2.6,2.35-2.06A.89.89,0,0,1,445.18,121.36Z"/><path class="cls-13" d="M436.24,105a6.87,6.87,0,0,1-2,4.3c-.46.41-1,.69-1.54.32s-.5-1-.37-1.58a6,6,0,0,1,2.44-4.16C435.69,103.3,436.24,103.68,436.24,105Z"/></g><path class="cls-13" d="M465.57,75.57c-1.49-.51-5.84-.06-8.42.36a35.8,35.8,0,0,0-9.87,3.18,1.86,1.86,0,0,1-2.26-.25c-1.07-1-2.06-2-3.13-3a29,29,0,0,0-4.1-3.31c-5.11-3-10.75-.36-12.3,5.73a16.93,16.93,0,0,0,.92,10.81A15.79,15.79,0,0,0,431,95.41a21.35,21.35,0,0,1,1.33-2.62c.84-1.22,1-2.31-.06-3.45a1.46,1.46,0,0,1-.25-.42,3.93,3.93,0,0,1,1-4.86c.39-.34.82-.62,1.31-1-.37-.67-.69-1.38-1.11-2a5.14,5.14,0,0,0-2.93-2.15,2.12,2.12,0,0,0-2.24.92c1.14-2.27,2.5-3.15,4.34-2.79a5.61,5.61,0,0,1,3.48,2.57c1.21,1.82,2.27,3.77,3.36,5.68a.77.77,0,0,1-.11.63,50.71,50.71,0,0,0-5.8,11.65,36.38,36.38,0,0,1-7.71,12.79l-2,2,3.17,1c-2.86,4.87-4.95,10-3.53,15.94l4.37-6.21.18.1c-2,8.07,2.85,16.36,7.82,18.87l-1.74-4.66c5.57,6,11.92,7.8,19.48,9.57l-3.08-4.93c.17.11.24.14.3.19a37.12,37.12,0,0,0,10.19,6.9,11.69,11.69,0,0,0,4.84,1h2.62a11.69,11.69,0,0,0,4.84-1,37.32,37.32,0,0,0,10.2-6.9,2.36,2.36,0,0,1,.29-.19l-3.08,4.93c7.56-1.77,13.83-3.56,19.4-9.57l-1.74,4.66c5-2.51,9.82-10.8,7.82-18.87l.18-.1,4.37,6.21c1.42-5.95-.67-11.07-3.53-15.94l3.17-1-2-2a36.38,36.38,0,0,1-7.71-12.79,51.12,51.12,0,0,0-5.8-11.65.77.77,0,0,1-.11-.63c1.09-1.91,2.15-3.86,3.36-5.68a5.61,5.61,0,0,1,3.48-2.57c1.84-.36,3.2.52,4.34,2.79a2.13,2.13,0,0,0-2.25-.92,5.09,5.09,0,0,0-2.92,2.15,22.74,22.74,0,0,0-1.11,2c.49.36.92.64,1.31,1a3.91,3.91,0,0,1,1,4.86,1.24,1.24,0,0,1-.24.42c-1.08,1.14-.9,2.23-.06,3.45a21.35,21.35,0,0,1,1.33,2.62,15.79,15.79,0,0,0,4.57-6.28,16.93,16.93,0,0,0,.92-10.81c-1.55-6.09-7.19-8.73-12.3-5.73a29,29,0,0,0-4.1,3.31c-1.08.94-2.06,2-3.13,3a1.86,1.86,0,0,1-2.26.25,35.76,35.76,0,0,0-9.88-3.18c-2.57-.42-6.31-.93-7.46-.49s-.84,19.61-1.75,29.35C467.43,104.79,467.06,76.08,465.57,75.57Zm9.09-3.45a34.36,34.36,0,0,1,11.85,3.38.62.62,0,0,0,.86-.15c1.11-1.16,2.21-2.34,3.39-3.41,2.62-2.39,5.55-4,9.05-4.06,4.58-.08,8,2.08,10.24,6.49a19,19,0,0,1,1.56,12,17.29,17.29,0,0,1-7.27,12,38,38,0,0,0,4.44,7.72,53.56,53.56,0,0,0,4.65,4.87c1.13,1.11,1.31,1.53.4,2.77a30.42,30.42,0,0,1-2.3,2.55,3.52,3.52,0,0,1,.18.33A21.65,21.65,0,0,1,513.58,128a14.7,14.7,0,0,1-2.38,7c-.34.49-.77.9-1.27,1.48l-.83-2.63c-.11.11-.17.14-.18.19a20.47,20.47,0,0,1-6.83,9.67c-5.86,4.64-12.31,5.52-19.29,7.4a60.11,60.11,0,0,0-6.28,1.59,27.66,27.66,0,0,1-8.27,1.91h-2.62a27.8,27.8,0,0,1-8.27-1.91,60.11,60.11,0,0,0-6.28-1.59c-7-1.88-13.51-2.76-19.37-7.4a20.4,20.4,0,0,1-6.83-9.67s-.07-.08-.18-.19l-.84,2.63c-.49-.58-.92-1-1.26-1.48a14.7,14.7,0,0,1-2.38-7,21.65,21.65,0,0,1,1.87-11.41,2.1,2.1,0,0,1,.18-.33,30.42,30.42,0,0,1-2.3-2.55c-.91-1.24-.73-1.66.4-2.77a53.46,53.46,0,0,0,4.64-4.87,38.07,38.07,0,0,0,4.45-7.72,17.29,17.29,0,0,1-7.27-12,19,19,0,0,1,1.56-12q3.35-6.62,10.24-6.49c3.5.06,6.43,1.67,9.05,4.06,1.18,1.07,2.28,2.25,3.39,3.41a.62.62,0,0,0,.86.15,34.3,34.3,0,0,1,11.85-3.38C461.66,71.88,472.13,71.88,474.66,72.12Z"/></g></g></g></svg>