<svg xmlns="http://www.w3.org/2000/svg" xmlns:xlink="http://www.w3.org/1999/xlink" viewBox="0 0 604.1 298.81"><defs><style>.cls-1{fill:#5f220c;}.cls-2{fill:#de5c11;}.cls-3{fill:#ffeace;}.cls-4{fill:#b45717;}.cls-5{fill:#903a14;}.cls-6{fill:#f08210;}.cls-7{fill:#d55314;}.cls-8{fill:#914018;}.cls-9{fill:#d95b13;}.cls-10{fill:#f6a01e;}.cls-11{fill:#fbbb3c;}.cls-12{fill:#1d1d1b;}.cls-13{fill:url(#Degradado_sin_nombre_14);}.cls-14{fill:url(#Degradado_sin_nombre_14-2);}.cls-15{fill:url(#Degradado_sin_nombre_14-3);}.cls-16{fill:url(#Degradado_sin_nombre_14-4);}.cls-17{fill:url(#Degradado_sin_nombre_14-5);}.cls-18{fill:url(#Degradado_sin_nombre_14-6);}.cls-19{fill:url(#Degradado_sin_nombre_14-7);}</style><linearGradient id="Degradado_sin_nombre_14" x1="363.08" y1="84.45" x2="363.08" y2="31.11" gradientUnits="userSpaceOnUse"><stop offset="0" stop-color="#fbbb3c"/><stop offset="1" stop-color="#de5c11"/></linearGradient><linearGradient id="Degradado_sin_nombre_14-2" x1="295.01" y1="84.45" x2="295.01" y2="31.11" xlink:href="#Degradado_sin_nombre_14"/><linearGradient id="Degradado_sin_nombre_14-3" x1="317.8" y1="84.45" x2="317.8" y2="31.11" xlink:href="#Degradado_sin_nombre_14"/><linearGradient id="Degradado_sin_nombre_14-4" x1="340.38" y1="84.45" x2="340.38" y2="31.11" xlink:href="#Degradado_sin_nombre_14"/><linearGradient id="Degradado_sin_nombre_14-5" x1="255.29" y1="84.45" x2="255.29" y2="31.11" xlink:href="#Degradado_sin_nombre_14"/><linearGradient id="Degradado_sin_nombre_14-6" x1="274.15" y1="84.45" x2="274.15" y2="31.11" xlink:href="#Degradado_sin_nombre_14"/><linearGradient id="Degradado_sin_nombre_14-7" x1="236.16" y1="84.45" x2="236.16" y2="31.11" xlink:href="#Degradado_sin_nombre_14"/></defs><g id="Capa_2" data-name="Capa 2"><g id="Capa_1-2" data-name="Capa 1"><ellipse class="cls-1" cx="302.05" cy="149.4" rx="302.05" ry="149.4"/><path class="cls-2" d="M153.49,178.71c-.56,0-1.12,0-1.69-.05s-5-.12-7.59-.48a115.53,115.53,0,0,1-12.74-2.42c-8.78-2.25-15.32-5.42-20.59-10a29.38,29.38,0,0,1-5.09-5.6A4.67,4.67,0,0,1,102,158a21.06,21.06,0,0,1-3.52-16.2,21.9,21.9,0,0,1,1-3.57c-.25-.21-.5-.43-.74-.67a5.34,5.34,0,0,1-1.79-4,5.53,5.53,0,0,1,2.22-4l.66-.54c1.09-.92,2.12-1.78,3.07-2.68a15.18,15.18,0,0,0,3.07-4.57c-.61-.64-1.2-1.27-1.77-2a20.14,20.14,0,0,1-4.62-16.32A17.33,17.33,0,0,1,108,90.91a19,19,0,0,1,10-2.74,22,22,0,0,1,2.89.19,18.83,18.83,0,0,1,12,6.08c.48.53.91,1.07,1.31,1.61a57.2,57.2,0,0,1,13.2-3.2l.26,0c2.14-.2,3.22-.3,4.41-.3s2.27.1,4.41.3l.26,0a57.27,57.27,0,0,1,13.21,3.2,18.91,18.91,0,0,1,13.27-7.69,21.91,21.91,0,0,1,2.89-.19,18.94,18.94,0,0,1,10,2.74,17.34,17.34,0,0,1,8.44,12.55,20.18,20.18,0,0,1-4.62,16.32c-.58.7-1.17,1.33-1.78,2a15.18,15.18,0,0,0,3.07,4.57c.95.9,2,1.76,3.08,2.68l.65.54a5.5,5.5,0,0,1,2.23,4,5.34,5.34,0,0,1-1.8,4c-.24.24-.49.46-.73.67a23,23,0,0,1,1,3.57,21.07,21.07,0,0,1-3.53,16.2,4.67,4.67,0,0,1-3.78,2.21,28.73,28.73,0,0,1-5.09,5.6c-5.27,4.57-11.81,7.74-20.58,10a116.2,116.2,0,0,1-12.75,2.42A43.44,43.44,0,0,1,153.49,178.71Zm-1.21-10.1a30,30,0,0,0,6.24-.85c.6-.13,1.4-.28,2.35-.45a75.87,75.87,0,0,0,10.55-2.55,52.82,52.82,0,0,0,12.72-6.48c1.32-1.09,7.8-6.78,5.76-11.53a3.92,3.92,0,0,1,1.12-4.58,4,4,0,0,1,1.19-.67,23.92,23.92,0,0,0-2.43-3.24,3.92,3.92,0,0,1-.76-3.73,4,4,0,0,1,1.3-1.89,32.33,32.33,0,0,1-2.08-3.54c-.58-1.12-1.14-2.25-1.7-3.38q-1-2-2-4l-.63-1.22c-2-3.9-3.78-7.28-7.16-9.42a3.93,3.93,0,0,1-1.41-1.57,3.78,3.78,0,0,1-1.37.25,3.92,3.92,0,0,1-1.93-.51c-6.37-3.61-13.81-5.78-19.89-5.8H152c-7.27,0-15.15,3-20.11,5.8a3.9,3.9,0,0,1-1.93.51,3.82,3.82,0,0,1-1.37-.25,3.86,3.86,0,0,1-1.41,1.57c-3.38,2.14-5.13,5.52-7.15,9.42l-.64,1.22c-.69,1.32-1.35,2.65-2,4-.56,1.13-1.13,2.26-1.71,3.38a32.22,32.22,0,0,1-2.07,3.54,4,4,0,0,1,1.3,1.89,3.94,3.94,0,0,1-.76,3.73,24.71,24.71,0,0,0-2.44,3.24,3.93,3.93,0,0,1,2.31,5.25c-1.82,4.24,2.85,9.06,5.8,11.56a52.36,52.36,0,0,0,14.9,7.07c6.75,1.75,15.35,3.22,17.17,3.22h.37Z"/><path class="cls-2" d="M456.92,177h-.28a30.6,30.6,0,0,1-8.92-2.06,19.54,19.54,0,0,0-3.05-.79c-.78-.17-1.59-.34-2.43-.56-1.19-.32-2.37-.61-3.53-.9-5.37-1.32-10.92-2.69-16-6.76a23.42,23.42,0,0,1-5.38-6,4,4,0,0,1-2.52-1.32l-.37-.43a11.09,11.09,0,0,1-1.05-1.26,17.45,17.45,0,0,1-2.93-8.38A23.86,23.86,0,0,1,411.64,138c-.25-.28-.5-.59-.74-.92-2-2.69-1.69-5.29.81-7.72l.28-.26a45.86,45.86,0,0,0,3.76-4,22.9,22.9,0,0,0,2.35-3.75,20.62,20.62,0,0,1-5.81-11.68A21.72,21.72,0,0,1,414.12,96c2.72-5.39,7.18-8.24,12.88-8.24h.3c3.94.07,7.56,1.65,11.06,4.83.62.57,1.22,1.16,1.8,1.75a35.58,35.58,0,0,1,10.31-2.59c1.82-.17,6.31-.18,7.64-.18s5.83,0,7.65.18a35.58,35.58,0,0,1,10.31,2.59c.58-.59,1.18-1.18,1.8-1.75,3.5-3.18,7.12-4.76,11.06-4.83h.29c5.71,0,10.16,2.85,12.89,8.24a21.72,21.72,0,0,1,1.83,13.66,20.62,20.62,0,0,1-5.81,11.68,22.24,22.24,0,0,0,2.35,3.75,44.14,44.14,0,0,0,3.75,3.94l.28.27c2.5,2.43,2.78,5,.82,7.72-.24.33-.49.64-.74.92a23.86,23.86,0,0,1,1.23,10.62,17.56,17.56,0,0,1-2.93,8.38,13.45,13.45,0,0,1-1,1.26l-.38.42a3.92,3.92,0,0,1-2.53,1.33,23.19,23.19,0,0,1-5.37,6c-5.15,4.08-10.68,5.45-16,6.77-1.14.28-2.3.57-3.48.89-.84.22-1.64.39-2.43.56a19.7,19.7,0,0,0-3,.79,30.6,30.6,0,0,1-8.92,2.06h-2.75Zm-14.38-19.55a3.87,3.87,0,0,1,2.06.59l0,0a4.36,4.36,0,0,1,.87.64,31.09,31.09,0,0,0,8.51,5.76,6.92,6.92,0,0,0,3,.59h2.39a6.83,6.83,0,0,0,2.91-.59,31.25,31.25,0,0,0,8.51-5.76,4.09,4.09,0,0,1,.87-.64,3.94,3.94,0,0,1,4.86.54,4.17,4.17,0,0,1,.93,1.47,21.65,21.65,0,0,0,8.76-5.73,3.91,3.91,0,0,1,2.87-1.25,4.13,4.13,0,0,1,.78.08,12.58,12.58,0,0,0,1.12-8.56,3.9,3.9,0,0,1,1.92-4.37,4.26,4.26,0,0,1,1.22-.44,33.49,33.49,0,0,0-1.76-3.36,3.92,3.92,0,0,1-.29-3.37,3.64,3.64,0,0,1,.3-.63A40.07,40.07,0,0,1,486,121a44.65,44.65,0,0,0-5-10,4.57,4.57,0,0,1-.32-4.81l.76-1.34-.16.15a5.61,5.61,0,0,1-3.77,1.48,6.18,6.18,0,0,1-2.67-.63,29.8,29.8,0,0,0-8.19-2.65c-1.31-.21-2.32-.35-3.09-.43-.16,2.47-.27,6.21-.35,9.21-.15,5-.31,10.76-.69,14.8a3.92,3.92,0,0,1-3.9,3.55h-.16a3.92,3.92,0,0,1-3.76-3.87c-.11-8.86-.49-19.17-1-23.72a40.2,40.2,0,0,0-4.14.46,29.8,29.8,0,0,0-8.19,2.65,6.18,6.18,0,0,1-2.67.63,5.59,5.59,0,0,1-3.77-1.48l-.16-.15.76,1.34a4.57,4.57,0,0,1-.31,4.8,45,45,0,0,0-5,10.06,39.6,39.6,0,0,1-6.43,11.49,3.68,3.68,0,0,1,.31.63,3.92,3.92,0,0,1-.29,3.37,31.69,31.69,0,0,0-1.74,3.32,4,4,0,0,1,1,.38l.09.05a4,4,0,0,1,2,4.42,12.58,12.58,0,0,0,1.12,8.56,4.13,4.13,0,0,1,.78-.08,3.91,3.91,0,0,1,2.87,1.25,21.61,21.61,0,0,0,8.83,5.73,4,4,0,0,1,.92-1.47A3.91,3.91,0,0,1,442.54,157.47Z"/><path class="cls-2" d="M216.53,167.37a48.19,48.19,0,0,1-14.8-2.32,47.14,47.14,0,0,1-17.3-9.9,47,47,0,0,1-15.78-35A47.59,47.59,0,0,1,172,102.57a48.29,48.29,0,0,1,9.26-14.85,46.56,46.56,0,0,1,32.27-15.14l1,0h2.58a48.79,48.79,0,0,1,15.4,2.5,22,22,0,0,1,14.9,17.81l2,13.71a22.26,22.26,0,0,1-2.22,13.24,22.3,22.3,0,0,1,2.35,13.39l-1.86,13.23a22,22,0,0,1-12.67,17,40.64,40.64,0,0,1-13.31,3.64A48.24,48.24,0,0,1,216.53,167.37Z"/><path class="cls-2" d="M234.55,165.93a22.1,22.1,0,0,1-22.08-22.07V95.66a22,22,0,0,1,19.95-22l13-1.25c.71-.07,1.42-.1,2.13-.1A22.06,22.06,0,0,1,269.62,94.4v16a22.05,22.05,0,0,1,18.19,27.69l-3.17,11.57a22.12,22.12,0,0,1-21.29,16.23Z"/><path class="cls-2" d="M283,168.76a22.51,22.51,0,0,1-4.9-.55l-12.41-2.83a22.08,22.08,0,0,1-14.77-31.55L277.32,82a22.08,22.08,0,0,1,39.33,0l26.47,51.79a22.08,22.08,0,0,1-15,31.62l-12.38,2.69a22.19,22.19,0,0,1-18.68-4.47A22.18,22.18,0,0,1,283,168.76Z"/><path class="cls-2" d="M345.44,167.31a44.6,44.6,0,0,1-15.54-2.72,50.23,50.23,0,0,1-10.9-5.28,38,38,0,0,1-6.45-5A22,22,0,0,1,311,124.76a36.3,36.3,0,0,1-3-14.92v-.68A36.08,36.08,0,0,1,313.8,90a37.26,37.26,0,0,1,14-13,39.78,39.78,0,0,1,17.8-4.68h.93c12.49,0,23.54,4.44,32,12.84a22,22,0,0,1,3.11,27.38,41.28,41.28,0,0,1,3.72,16.39c0,.21,0,.44,0,.66v.72a35.5,35.5,0,0,1-5.22,18.77l-.11.17a37,37,0,0,1-15,13.57,44.83,44.83,0,0,1-18.42,4.47h-1.09Z"/><path class="cls-2" d="M397.83,167a22.14,22.14,0,0,1-9.07-2,22.75,22.75,0,0,1-4.28.79l-12.88,1.08c-.62.05-1.23.08-1.85.08a22.09,22.09,0,0,1-22.08-22.08V95.66a22.19,22.19,0,0,1,20.33-22l12.88-1c.58,0,1.17-.07,1.75-.07a22.19,22.19,0,0,1,9,1.91,22,22,0,0,1,4.27-.8l12.94-1.14c.66-.06,1.3-.09,1.94-.09a22.09,22.09,0,0,1,22.08,22.08v49.34a22.22,22.22,0,0,1-20.24,22l-12.94,1.08C399.06,167,398.45,167,397.83,167Z"/><path class="cls-2" d="M83.42,239.22a48.19,48.19,0,0,1-14.8-2.32A47.26,47.26,0,0,1,51.31,227a47,47,0,0,1-15.77-35,47.59,47.59,0,0,1,3.34-17.58,48.38,48.38,0,0,1,9.25-14.85A46.61,46.61,0,0,1,80.4,144.43l1,0H84a48.71,48.71,0,0,1,15.41,2.5,22,22,0,0,1,14.9,17.8l2,13.72a22.26,22.26,0,0,1-2.22,13.24,22.31,22.31,0,0,1,2.35,13.39l-1.86,13.23a22,22,0,0,1-12.67,17,40.71,40.71,0,0,1-13.31,3.64A48.53,48.53,0,0,1,83.42,239.22Z"/><path class="cls-2" d="M126.69,239H126a51.07,51.07,0,0,1-18.8-4.07,47.78,47.78,0,0,1-15.5-10.68A45.68,45.68,0,0,1,81.61,208.2a48.58,48.58,0,0,1-2.91-16.68s0-1.35,0-1.51a46.08,46.08,0,0,1,7.18-23.75,46.92,46.92,0,0,1,18-16.56,48.6,48.6,0,0,1,23-5.64h.23a48.28,48.28,0,0,1,41.61,24,47.1,47.1,0,0,1,6.34,23.8s0,.62,0,.78A46.65,46.65,0,0,1,168,216.52,48,48,0,0,1,127.41,239Z"/><path class="cls-2" d="M187.58,241.61a22.29,22.29,0,0,1-11.07-3.05,22,22,0,0,1-5.12.6,22.76,22.76,0,0,1-2.48-.14l-12.27-1.37a22.08,22.08,0,0,1-18.92-27.49l13.17-50.77A22.16,22.16,0,0,1,170.05,143c.73-.07,1.47-.11,2.22-.11a22.19,22.19,0,0,1,15.78,6.67A22,22,0,0,1,203.76,143a22.76,22.76,0,0,1,2.48.13,22.18,22.18,0,0,1,18.93,16.54l12.75,50.54a22.07,22.07,0,0,1-19.49,27.39L206,238.66c-.64.06-1.29.09-1.93.09a22.11,22.11,0,0,1-4.67-.5,22.18,22.18,0,0,1-11.72,3.36Z"/><path class="cls-2" d="M250.4,241.61a22.33,22.33,0,0,1-11.08-3.05,21.92,21.92,0,0,1-5.12.6,22.58,22.58,0,0,1-2.47-.14l-12.28-1.37a22.08,22.08,0,0,1-18.91-27.49l13.17-50.77A22.14,22.14,0,0,1,232.86,143c.73-.07,1.48-.11,2.22-.11a22.22,22.22,0,0,1,15.79,6.67,22,22,0,0,1,15.7-6.55,22.76,22.76,0,0,1,2.48.13A22.2,22.2,0,0,1,288,159.65l12.74,50.54a22.07,22.07,0,0,1-19.49,27.39l-12.39,1.08c-.65.06-1.29.09-1.94.09a22.11,22.11,0,0,1-4.67-.5,22.15,22.15,0,0,1-11.71,3.36Z"/><path class="cls-2" d="M303.47,239.27a44.21,44.21,0,0,1-18.68-4,37.46,37.46,0,0,1-16.49-14.66,39.15,39.15,0,0,1-5.78-21V167.39a22,22,0,0,1,20.1-22l12.63-1.14a18.62,18.62,0,0,1,2-.1,22.17,22.17,0,0,1,8.84,1.85,21.53,21.53,0,0,1,3.1-.5l12.74-1.14c.66-.06,1.32-.09,2-.09A22.09,22.09,0,0,1,346,166.37v31.91c0,15.86-7.11,25.35-13.07,30.52-7.46,6.56-16.82,10.09-27.77,10.46h-1.65Z"/><path class="cls-2" d="M372.31,241.19a22,22,0,0,1-14.74-5.64l-2.32-2.09a22.22,22.22,0,0,1-11.19,4.24l-12.4,1.08c-.63.06-1.28.09-1.92.09a22.09,22.09,0,0,1-22.08-22.08V164.28a22.08,22.08,0,0,1,36.92-16.35l2.22,2a22.14,22.14,0,0,1,11.09-4.39L370,144.29a21.72,21.72,0,0,1,2.27-.12,22.09,22.09,0,0,1,22.08,22.08v52.86a22.09,22.09,0,0,1-22.08,22.08Z"/><path class="cls-2" d="M381.42,238.75a22.08,22.08,0,0,1-22.08-22.08V167.51a22,22,0,0,1,19.84-22l12.34-1.26a20.87,20.87,0,0,1,2.24-.12,22.09,22.09,0,0,1,22.07,22.08v49.46a22.2,22.2,0,0,1-20.35,22l-12.34,1C382.56,238.73,382,238.75,381.42,238.75Z"/><path class="cls-2" d="M415.37,238.87a22.09,22.09,0,0,1-22.07-22.08V199.25a22.05,22.05,0,0,1-12.19-26l3.23-11.62a22.15,22.15,0,0,1,21.27-16.17H439.8a22.1,22.1,0,0,1,22.08,22.08v11.62a22.18,22.18,0,0,1-12,19.66v16.92a22,22,0,0,1-20.16,22l-12.39,1.08C416.66,238.84,416,238.87,415.37,238.87Z"/><path class="cls-2" d="M448.66,238.75a22.08,22.08,0,0,1-22.08-22.08V167.51a22,22,0,0,1,19.84-22l12.34-1.26a21.15,21.15,0,0,1,2.24-.12,22.09,22.09,0,0,1,22.08,22.08v49.46a22.2,22.2,0,0,1-20.36,22l-12.34,1C449.81,238.73,449.23,238.75,448.66,238.75Z"/><path class="cls-2" d="M469.62,237.78a22.1,22.1,0,0,1-22.08-22.07v-48.2a22.11,22.11,0,0,1,22.08-22.08h28.74a22,22,0,0,1,21.51,17.12l2.46,10.66A22,22,0,0,1,519,190.75c.3.36.59.72.87,1.1a22.17,22.17,0,0,1,3.46,19.5L520.12,222A22.21,22.21,0,0,1,499,237.78Z"/><path class="cls-2" d="M525.32,239.16a44.61,44.61,0,0,1-15.55-2.72,50.23,50.23,0,0,1-10.9-5.28,37.89,37.89,0,0,1-6.44-5,22,22,0,0,1-1.53-29.59,36.31,36.31,0,0,1-3-14.92V181a35.9,35.9,0,0,1,5.77-19.19,37.26,37.26,0,0,1,14-13,39.64,39.64,0,0,1,17.79-4.68h.93c12.5,0,23.55,4.45,32,12.85a22,22,0,0,1,3.11,27.38,41.28,41.28,0,0,1,3.72,16.39c0,.21,0,.44,0,.66v.72A35.5,35.5,0,0,1,560,220.94l-.1.17a37,37,0,0,1-15,13.57,44.75,44.75,0,0,1-18.42,4.47h-1.08Z"/><path d="M216.53,161.85a42.52,42.52,0,0,1-13.11-2.06A41.64,41.64,0,0,1,188.11,151a40.9,40.9,0,0,1-10.26-13.94,40.46,40.46,0,0,1-3.68-16.95,41.93,41.93,0,0,1,3-15.55,42.66,42.66,0,0,1,8.19-13.16,41.45,41.45,0,0,1,12.61-9.36,40.79,40.79,0,0,1,15.85-4c.26,0,.51,0,.77,0h2.58a43.31,43.31,0,0,1,13.66,2.21A16.56,16.56,0,0,1,242,93.65l2,13.72a16.55,16.55,0,0,1-3.3,12.49,16.51,16.51,0,0,1,3.42,12.59l-1.85,13.22a16.56,16.56,0,0,1-9.51,12.76,35.19,35.19,0,0,1-11.5,3.16A43.28,43.28,0,0,1,216.53,161.85Z"/><path d="M234.55,160.41A16.55,16.55,0,0,1,218,143.86V95.66a16.56,16.56,0,0,1,15-16.48l13-1.26c.53,0,1.07-.08,1.6-.08A16.55,16.55,0,0,1,264.1,94.4v21.33h2.42a16.56,16.56,0,0,1,16,20.94l-3.17,11.57a16.56,16.56,0,0,1-16,12.17Z"/><path d="M283,163.24a16.56,16.56,0,0,1-3.68-.42L266.91,160a16.57,16.57,0,0,1-11.08-23.67l26.41-51.79a16.54,16.54,0,0,1,14.74-9h0a16.53,16.53,0,0,1,14.74,9l26.47,51.79A16.57,16.57,0,0,1,327,160l-12.39,2.69a16.83,16.83,0,0,1-3.51.38,16.58,16.58,0,0,1-14-7.72A16.58,16.58,0,0,1,283,163.24Z"/><path d="M345.44,161.79a39.22,39.22,0,0,1-13.63-2.37A45.44,45.44,0,0,1,322,154.7a33.48,33.48,0,0,1-5.58-4.26,16.55,16.55,0,0,1-1-22.32l2.17-2.62c-.4-.7-.78-1.42-1.13-2.17a30.41,30.41,0,0,1-2.9-13.49v-.58A30.54,30.54,0,0,1,318.45,93a32.13,32.13,0,0,1,11.93-11.09,34.29,34.29,0,0,1,15.33-4h.8a38.8,38.8,0,0,1,28.05,11.24,16.55,16.55,0,0,1,1,22.32l-.54.65a34.45,34.45,0,0,1,4.72,17.06c0,.16,0,.33,0,.49v.72a30,30,0,0,1-4.41,15.89l-.1.16a31.41,31.41,0,0,1-12.79,11.52,39.15,39.15,0,0,1-16.14,3.89h-.9Z"/><path d="M369.75,161.5a16.56,16.56,0,0,1-16.56-16.56V95.66a16.57,16.57,0,0,1,15.25-16.51l12.88-1c.44,0,.88,0,1.31,0a16.61,16.61,0,0,1,8.59,2.4,16.39,16.39,0,0,1,5.16-1.31L409.32,78a14.08,14.08,0,0,1,1.45-.07,16.57,16.57,0,0,1,16.56,16.56v49.34a16.56,16.56,0,0,1-15.18,16.5l-12.94,1.08q-.69.06-1.38.06a16.52,16.52,0,0,1-8.64-2.44,16.44,16.44,0,0,1-5.17,1.3l-12.88,1.08C370.68,161.48,370.21,161.5,369.75,161.5Z"/><path d="M83.42,233.7a42.52,42.52,0,0,1-13.11-2.06A41.64,41.64,0,0,1,55,222.89,40.9,40.9,0,0,1,44.74,209,40.46,40.46,0,0,1,41.06,192,42.12,42.12,0,0,1,44,176.45a43,43,0,0,1,8.2-13.16A41.09,41.09,0,0,1,80.66,150c.26,0,.52,0,.78,0H84a43.06,43.06,0,0,1,13.67,2.22,16.52,16.52,0,0,1,11.17,13.35l2,13.71a16.56,16.56,0,0,1-3.3,12.5A16.5,16.5,0,0,1,111,204.29l-1.85,13.23a16.56,16.56,0,0,1-9.51,12.76,35.19,35.19,0,0,1-11.5,3.16A43.28,43.28,0,0,1,83.42,233.7Z"/><path d="M126.69,233.52h-.49a45.48,45.48,0,0,1-16.79-3.62,42.17,42.17,0,0,1-13.72-9.45,40.34,40.34,0,0,1-8.9-14.15,43,43,0,0,1-2.57-14.77s0-1.23,0-1.37a40.59,40.59,0,0,1,6.32-20.94,41.39,41.39,0,0,1,15.94-14.62,43.18,43.18,0,0,1,20.45-5h.23A42.78,42.78,0,0,1,164,170.8a41.59,41.59,0,0,1,5.59,21s0,.51,0,.65a41.22,41.22,0,0,1-6.28,21.11,42.44,42.44,0,0,1-35.9,19.93Z"/><path d="M187.58,236.09a16.57,16.57,0,0,1-10.17-3.59,16.66,16.66,0,0,1-7.88,1l-12.28-1.38a16.56,16.56,0,0,1-14.19-20.61l13.18-50.77a16.56,16.56,0,0,1,14.36-12.32c.56-.05,1.12-.08,1.67-.08a16.55,16.55,0,0,1,14.87,9.29l.88,1.8,1-1.94A16.56,16.56,0,0,1,219.82,161l12.75,50.54A16.56,16.56,0,0,1,218,232.08l-12.4,1.09c-.48,0-1,.06-1.45.06a16.29,16.29,0,0,1-5.72-1,16.58,16.58,0,0,1-10.67,3.89Z"/><path d="M250.4,236.09a16.52,16.52,0,0,1-10.17-3.59,16.49,16.49,0,0,1-6,1.14,16.82,16.82,0,0,1-1.86-.1l-12.28-1.38a16.55,16.55,0,0,1-14.18-20.61l13.17-50.77a16.56,16.56,0,0,1,14.37-12.32c.55-.05,1.11-.08,1.66-.08A16.53,16.53,0,0,1,250,157.67l.89,1.8,1-1.94a16.56,16.56,0,0,1,30.8,3.47l12.75,50.54a16.54,16.54,0,0,1-14.62,20.54l-12.39,1.09c-.49,0-1,.06-1.46.06a16.38,16.38,0,0,1-5.72-1,16.56,16.56,0,0,1-10.66,3.89Z"/><path d="M303.47,233.75a38.73,38.73,0,0,1-16.36-3.44A32,32,0,0,1,273,217.79a33.8,33.8,0,0,1-5-18.14V167.39a16.57,16.57,0,0,1,15.07-16.49l12.63-1.14c.5,0,1-.07,1.49-.07a16.6,16.6,0,0,1,8.3,2.23,17.07,17.07,0,0,1,4.13-.9l12.74-1.14a14.8,14.8,0,0,1,1.48-.07,16.55,16.55,0,0,1,16.56,16.56v31.91c0,13.78-6.07,21.93-11.17,26.35-6.47,5.69-14.69,8.79-24.34,9.12h-1.46Z"/><path d="M372.31,235.67a16.56,16.56,0,0,1-11.06-4.23L355.14,226a16.53,16.53,0,0,1-11.56,6.24l-12.4,1.08a13.88,13.88,0,0,1-1.44.07,16.57,16.57,0,0,1-16.56-16.56V164.28A16.56,16.56,0,0,1,340.87,152l6.08,5.51A16.53,16.53,0,0,1,358.46,151l12.15-1.26a16,16,0,0,1,1.7-.09,16.57,16.57,0,0,1,16.56,16.56v52.86a16.57,16.57,0,0,1-16.56,16.56Z"/><path d="M381.42,233.23a16.56,16.56,0,0,1-16.56-16.56V167.51A16.56,16.56,0,0,1,379.74,151l12.34-1.26a15.76,15.76,0,0,1,1.68-.09,16.56,16.56,0,0,1,16.55,16.56v49.46a16.55,16.55,0,0,1-15.26,16.5l-12.34,1C382.28,233.21,381.85,233.23,381.42,233.23Z"/><path d="M415.37,233.35a16.57,16.57,0,0,1-16.55-16.56V195.3a16.54,16.54,0,0,1-12.39-20.6l3.23-11.63A16.55,16.55,0,0,1,405.61,151H439.8a16.56,16.56,0,0,1,16.56,16.56v11.62a16.56,16.56,0,0,1-12,15.93v20.65a16.56,16.56,0,0,1-15.12,16.49l-12.39,1.08A14.21,14.21,0,0,1,415.37,233.35Z"/><path d="M448.66,233.23a16.56,16.56,0,0,1-16.56-16.56V167.51A16.56,16.56,0,0,1,447,151l12.34-1.26a15.76,15.76,0,0,1,1.68-.09,16.56,16.56,0,0,1,16.56,16.56v49.46a16.55,16.55,0,0,1-15.27,16.5l-12.34,1C449.52,233.21,449.09,233.23,448.66,233.23Z"/><path d="M469.62,232.26a16.56,16.56,0,0,1-16.56-16.55v-48.2A16.57,16.57,0,0,1,469.62,151h28.74a16.58,16.58,0,0,1,16.14,12.84L517,174.45a16.58,16.58,0,0,1-3.18,14,15.92,15.92,0,0,1-1.67,1.81v1.53a16.85,16.85,0,0,1,3.31,3.33A16.57,16.57,0,0,1,518,209.77l-3.17,10.66A16.55,16.55,0,0,1,499,232.26Z"/><path d="M525.32,233.64a39.18,39.18,0,0,1-13.63-2.37,45.44,45.44,0,0,1-9.78-4.72,33.23,33.23,0,0,1-5.59-4.26,16.56,16.56,0,0,1-1-22.32l2.18-2.62c-.41-.7-.78-1.42-1.14-2.17a30.55,30.55,0,0,1-2.9-13.49v-.58a30.63,30.63,0,0,1,4.9-16.31,32.08,32.08,0,0,1,11.94-11.09,34.14,34.14,0,0,1,15.32-4h.8c11,0,20.69,3.89,28,11.24a16.55,16.55,0,0,1,1,22.32l-.53.65A34.55,34.55,0,0,1,559.64,201c0,.16,0,.33,0,.49v.72a30,30,0,0,1-4.41,15.89,1.4,1.4,0,0,1-.1.16,31.41,31.41,0,0,1-12.79,11.52,39.14,39.14,0,0,1-16.13,3.89h-.9Z"/><path class="cls-3" d="M225.57,96l2,13.71a13.46,13.46,0,0,0-9.34-3.65,14.11,14.11,0,0,0-10.37,4.19,13.4,13.4,0,0,0-4,9.83v.6a13,13,0,0,0,4.79,9.75,13.62,13.62,0,0,0,9.09,3.42,7.77,7.77,0,0,0,1-.06,14.83,14.83,0,0,0,9-3.66l-1.85,13.23a18.29,18.29,0,0,1-6.23,1.74,26.38,26.38,0,0,1-3.05.18,26,26,0,0,1-8-1.26,25.19,25.19,0,0,1-9.34-5.32,24.44,24.44,0,0,1-6.23-8.45,23.87,23.87,0,0,1-2.2-10.11,25.44,25.44,0,0,1,1.79-9.46,26.28,26.28,0,0,1,5-8.09,25,25,0,0,1,7.6-5.62,24.17,24.17,0,0,1,9.4-2.34h2.58A26.73,26.73,0,0,1,225.57,96Z"/><path class="cls-3" d="M247.55,94.4v37.89h19l-3.17,11.57h-28.8V95.66Z"/><path class="cls-3" d="M270.58,143.86,297,92.06l26.47,51.8-12.39,2.69-5.28-11H287.65L283,146.68Zm31-18.51-4.92-10.83-4.78,10.83Z"/><path class="cls-3" d="M362.87,100.81l-7.14,8.56c0-.2-.29-.62-.89-1.26a10.42,10.42,0,0,0-2.82-1.74,11.86,11.86,0,0,0-4.49-.9h-.42a5.34,5.34,0,0,0-2.75.73,3.22,3.22,0,0,0-1.62,2.46,1.82,1.82,0,0,0-.06.46,2.82,2.82,0,0,0,1.14,2.34,9.42,9.42,0,0,0,3.54,1.68c1.43.44,2.85.86,4.25,1.26q6.22,1.86,8.86,5.57a17.75,17.75,0,0,1,2.75,9.63v.72a13.59,13.59,0,0,1-2,7.25,15,15,0,0,1-6.16,5.51,22.49,22.49,0,0,1-9.29,2.15h-.35a22.55,22.55,0,0,1-8-1.37,30,30,0,0,1-6.35-3,26.41,26.41,0,0,1-3-2.16l7.49-9a18.1,18.1,0,0,0,3.54,2.76,8.56,8.56,0,0,0,4.84,1.38,11.85,11.85,0,0,0,1.19-.06,10.83,10.83,0,0,0,4-1,3.21,3.21,0,0,0,1.49-3.05v-.12a3,3,0,0,0-1.79-2.69,31.54,31.54,0,0,0-5.57-2.1,25.92,25.92,0,0,1-4.91-1.67,24.73,24.73,0,0,1-4-2.82,11.69,11.69,0,0,1-3.05-4.18,14,14,0,0,1-1.26-6.3v-.35a14.19,14.19,0,0,1,2.28-7.6,15.51,15.51,0,0,1,5.86-5.45,17.59,17.59,0,0,1,7.91-2h.35Q356.46,94.4,362.87,100.81Z"/><path class="cls-3" d="M397.83,144.94V124.57h-15.2v19.29l-12.88,1.08V95.66l12.88-1v18.8h15.2V95.66l12.94-1.14v49.34Z"/><path class="cls-3" d="M92.46,167.86l2,13.71a13.46,13.46,0,0,0-9.34-3.65,14.11,14.11,0,0,0-10.37,4.19,13.4,13.4,0,0,0-4,9.83v.6a13,13,0,0,0,4.79,9.75,13.62,13.62,0,0,0,9.09,3.42,7.77,7.77,0,0,0,1-.06,14.83,14.83,0,0,0,9-3.66L92.7,215.22A18.29,18.29,0,0,1,86.47,217a26.38,26.38,0,0,1-3,.18,26,26,0,0,1-8-1.26,25.19,25.19,0,0,1-9.34-5.32,24.44,24.44,0,0,1-6.23-8.45A23.88,23.88,0,0,1,57.61,192a25.45,25.45,0,0,1,1.8-9.46,26.28,26.28,0,0,1,5-8.09,24.86,24.86,0,0,1,7.6-5.62,24.17,24.17,0,0,1,9.4-2.34H84A26.47,26.47,0,0,1,92.46,167.86Z"/><path class="cls-3" d="M127.17,166.14a26.2,26.2,0,0,1,22.52,13A25.08,25.08,0,0,1,153,191.83v.23a24.82,24.82,0,0,1-3.77,12.76A25.91,25.91,0,0,1,127.41,217h-.72A28.72,28.72,0,0,1,116,214.69a25.55,25.55,0,0,1-8.38-5.75,23.89,23.89,0,0,1-5.27-8.37,26.31,26.31,0,0,1-1.55-9v-1a24.2,24.2,0,0,1,3.77-12.52,25,25,0,0,1,9.63-8.8,26.79,26.79,0,0,1,12.76-3.11Zm-.59,11.56a12.65,12.65,0,0,0-6.94,2.15,14.61,14.61,0,0,0-5,5.5,13.71,13.71,0,0,0-1.68,6.59v.72a12.23,12.23,0,0,0,2.34,6.59,14.38,14.38,0,0,0,5.45,4.84,13,13,0,0,0,6.09,1.56h.6a13.79,13.79,0,0,0,9.64-5,12.79,12.79,0,0,0,3.65-8.79c0-.48,0-1-.06-1.45a14.7,14.7,0,0,0-2.28-6.52,13.77,13.77,0,0,0-5.08-4.66,14,14,0,0,0-6.47-1.56Z"/><path class="cls-3" d="M159.09,215.71l13.17-50.77,15.45,31.6,16-31.49,12.75,50.54-12.39,1.08-4-21.44-12.4,24.31-12-24.55-4.31,22.09Z"/><path class="cls-3" d="M221.91,215.71l13.17-50.77,15.45,31.6,16-31.49,12.74,50.54-12.39,1.08-4-21.44-12.39,24.31L238.5,195l-4.32,22.09Z"/><path class="cls-3" d="M284.6,199.65V167.39l12.63-1.14v31.31q0,7.78,6.6,7.78a9.22,9.22,0,0,0,1-.06q4.14-.34,5.22-2.75a13.39,13.39,0,0,0,1.07-5.56V167.51l12.75-1.14v31.91q0,9.1-5.45,13.83t-14.06,5.09h-.9a22.13,22.13,0,0,1-9.41-1.92,15.5,15.5,0,0,1-6.94-6.17A17.38,17.38,0,0,1,284.6,199.65Z"/><path class="cls-3" d="M329.74,216.79V164.28l30.42,27.6V167.51l12.15-1.26v52.86l-30.17-27.06v23.66Z"/><path class="cls-3" d="M381.42,216.67V167.51l12.33-1.26v49.46Z"/><path class="cls-3" d="M439.8,179.13h-12v36.58l-12.4,1.08V179.13h-13l3.23-11.62H439.8Z"/><path class="cls-3" d="M448.66,216.67V167.51L461,166.25v49.46Z"/><path class="cls-3" d="M469.62,215.71v-48.2h28.74l2.46,10.66H482v7.6h13.52v10.65H481.9v8.63h20.23L499,215.71Z"/><path class="cls-3" d="M542.74,172.66l-7.13,8.56q0-.3-.9-1.26a10.42,10.42,0,0,0-2.82-1.74,11.8,11.8,0,0,0-4.48-.9H527a5.37,5.37,0,0,0-2.75.73,3.26,3.26,0,0,0-1.62,2.45,2,2,0,0,0-.06.47,2.82,2.82,0,0,0,1.14,2.34,9.42,9.42,0,0,0,3.54,1.68c1.43.44,2.85.86,4.25,1.26q6.24,1.86,8.86,5.57a17.67,17.67,0,0,1,2.75,9.63v.72a13.67,13.67,0,0,1-2,7.25,15,15,0,0,1-6.17,5.51,22.48,22.48,0,0,1-9.28,2.15h-.35a22.61,22.61,0,0,1-8-1.37,30.27,30.27,0,0,1-6.35-3,25.9,25.9,0,0,1-3-2.16l7.48-9a18.1,18.1,0,0,0,3.54,2.76,8.58,8.58,0,0,0,4.84,1.38q.6,0,1.2-.06a10.83,10.83,0,0,0,4-1,3.24,3.24,0,0,0,1.5-3.05v-.12a3,3,0,0,0-1.8-2.69,31.23,31.23,0,0,0-5.57-2.1A26.48,26.48,0,0,1,518.3,195a25.17,25.17,0,0,1-4-2.82,11.8,11.8,0,0,1-3-4.18,14,14,0,0,1-1.26-6.3v-.35a14.19,14.19,0,0,1,2.28-7.6,15.58,15.58,0,0,1,5.86-5.45,17.62,17.62,0,0,1,7.91-2h.35Q536.33,166.25,542.74,172.66Z"/><path d="M287.14,186.35a29,29,0,0,1-10.71-2.3,26.3,26.3,0,0,1-8.57-5.88,24.63,24.63,0,0,1-5.46-8.7,26.86,26.86,0,0,1-1.6-9.23v-.91a25.1,25.1,0,0,1,3.91-12.94,25.7,25.7,0,0,1,9.89-9.06,27.26,27.26,0,0,1,12.9-3.15h.19a26.75,26.75,0,0,1,23,13.26,25.88,25.88,0,0,1,3.45,13.05v.33a25.57,25.57,0,0,1-3.89,13.1,26.5,26.5,0,0,1-22.37,12.43ZM281.09,161a5,5,0,0,0,1,2.61l.07.11a6.77,6.77,0,0,0,2.58,2.28,5.64,5.64,0,0,0,2.67.72h.33a6.22,6.22,0,0,0,4.3-2.39,5.4,5.4,0,0,0,1.69-3.82q0-.36,0-.72a7,7,0,0,0-1.09-3.08,6.13,6.13,0,0,0-2.29-2.08,6.34,6.34,0,0,0-2.91-.68h-.15a5.34,5.34,0,0,0-2.93.92,7,7,0,0,0-2.43,2.66,6.15,6.15,0,0,0-.79,3Z"/><path d="M309,186.3a5.14,5.14,0,0,1-5.13-5.14V140.45a5.14,5.14,0,0,1,5.13-5.14h22.26a5.15,5.15,0,0,1,4.94,3.72l2.51,8.79a5.12,5.12,0,0,1-4.79,6.54,5.11,5.11,0,0,1,1.24,3.36v9a5.13,5.13,0,0,1-5.13,5.14h-5.58v8.35a5.14,5.14,0,0,1-4.64,5.11l-10.32,1Z"/><path class="cls-2" d="M290.26,145.8a14.92,14.92,0,0,1,12.82,7.39,14.25,14.25,0,0,1,1.9,7.23v.14a14.22,14.22,0,0,1-2.14,7.26,14.49,14.49,0,0,1-5.49,5.13,14.29,14.29,0,0,1-7,1.78H290a16.44,16.44,0,0,1-6.1-1.3,14.48,14.48,0,0,1-4.77-3.27,13.53,13.53,0,0,1-3-4.76,15.14,15.14,0,0,1-.88-5.15v-.54a13.76,13.76,0,0,1,2.15-7.13,14.24,14.24,0,0,1,5.48-5,15.28,15.28,0,0,1,7.26-1.77Zm-.34,6.58A7.24,7.24,0,0,0,286,153.6a8.38,8.38,0,0,0-2.86,3.14,7.74,7.74,0,0,0-.95,3.75v.41a6.94,6.94,0,0,0,1.33,3.75,8.15,8.15,0,0,0,3.1,2.75,7.39,7.39,0,0,0,3.46.89h.35a7.84,7.84,0,0,0,5.48-2.83,7.27,7.27,0,0,0,2.08-5c0-.27,0-.54,0-.82a8.43,8.43,0,0,0-1.3-3.71,7.9,7.9,0,0,0-2.89-2.65,8,8,0,0,0-3.69-.89Z"/><path class="cls-2" d="M308.36,174.69V146.58h15.36l1.74,6.07h-10v5.85h7.4v6.2h-7.4V174Z"/><g id="oso"><polygon class="cls-4" points="114.32 95.6 128.67 106.75 148.86 103.63 157.03 103.94 174.97 107.84 192.57 97.16 188.81 93.89 180.68 94.82 175.93 98.21 172.67 102.42 153.66 98.33 132.01 102.19 125.88 94.82 118.24 93.54 114.32 95.6"/><path class="cls-5" d="M129.26,105.73c-4.76-10.67-17-10.32-17-10.32s-5.88,1.93-6.51,11.26c-.5,7.48,5.38,9.94,6.34,15.12.84,4.54-5.25,6.92-6.34,12-1.28,6,1,15.64,1.17,17.3,0,0,9.84,22.76,44.21,21.67s47.55-18.24,48.38-31.8c0,0,.45-4-3.33-11.38s-4-11.68-4-11.68S204.6,109,196,98.45c-13.46-7.33-21.13,6.57-21,7.37a70.25,70.25,0,0,0-23.14-4.29C141,101.52,130.46,105.34,129.26,105.73Z"/><path class="cls-4" d="M123.92,168.16s-11.85-16.13-13.35-22,2-12.08,2-12.08,1.76-16.87,7.18-21.39L105,133.46v11.45l1.63,6.32Z"/><path class="cls-1" d="M160.36,171.29s18.64-6.11,21.91-11.71c0,0,.25,2.34-.42,3.16s14.76-10.87,10.64-20.07A12.8,12.8,0,0,1,198,148c-.63,2.25-8.74,12.5-14.94,16.68C173.27,170.67,160.36,171.29,160.36,171.29Z"/><path class="cls-1" d="M185.45,104.25s3.17-5.79,8.69.69a12.82,12.82,0,0,1-3.6,12.25l-2.39-2.26,1.83-5.85Z"/><path class="cls-1" d="M118.71,103.72s-3.17-5.78-8.69.7a12.82,12.82,0,0,0,3.6,12.25l2.4-2.26-1.84-5.85Z"/><ellipse class="cls-3" cx="169.45" cy="130.31" rx="6.26" ry="6.71"/><polygon class="cls-6" points="132.63 142.87 140.39 136.09 145.4 133.52 150.28 132.46 155.66 132.58 159.41 133.75 163.29 135.5 165.67 137.84 170.92 142.17 173.8 146.73 174.43 153.62 172.42 158.77 162.91 169.05 152.65 172.56 142.52 169.29 136.01 164.38 131.88 158.77 129.76 152.45 130.63 146.96 132.63 142.87"/><path class="cls-7" d="M145.06,168.58s13.31,3.54,20.58-6.2l-.54,3.41-5.83,4.45L152.73,172h-4.42Z"/><polygon class="cls-3" points="140.43 155.53 145.52 156.08 152.86 154.68 159.87 156 165.21 154.36 164.62 156.86 161.04 159.35 155.7 160.91 150.61 161.22 145.27 160.13 142.52 158.49 140.43 155.53"/><path d="M152.73,162.37c10.93-.29,13.92-6.88,14.39-8.44l-1-.41s-2.93,6.59-13.31,6.69h-.15c-10.38-.1-13.31-6.69-13.31-6.69l-1,.41c.48,1.56,3.47,8.15,14.39,8.44Z"/><path d="M152.73,138.8c1.27,0,2.55,0,3.81.12a16.89,16.89,0,0,1,4.34.93,3.26,3.26,0,0,1,2,5,8.36,8.36,0,0,1-4.16,3.65c-1.54.7-3.11,1.36-4.68,2-.36.15-.49.26-.43.67a4.57,4.57,0,0,0,4,3.62,9.73,9.73,0,0,0,10.34-5.94c.17-.41.08-.65-.36-.76l-2-.45a2.68,2.68,0,0,1,3.14-.77c1.7.49,3.26,2.06,3,3.83l-1.7-1.34a31.89,31.89,0,0,1-1.56,2.86,11.15,11.15,0,0,1-10.36,5,21,21,0,0,1-4.11-.83,4.94,4.94,0,0,0-1.17-.17h-.23a4.94,4.94,0,0,0-1.18.17,21,21,0,0,1-4.11.83,11.15,11.15,0,0,1-10.36-5,31.88,31.88,0,0,1-1.55-2.86l-1.71,1.34c-.23-1.77,1.33-3.34,3-3.83a2.68,2.68,0,0,1,3.14.77l-2,.45c-.44.11-.53.35-.36.76a9.73,9.73,0,0,0,10.34,5.94,4.55,4.55,0,0,0,4-3.62c.06-.41-.07-.52-.43-.67-1.57-.64-3.14-1.3-4.68-2a8.36,8.36,0,0,1-4.16-3.65,3.26,3.26,0,0,1,2-5,16.89,16.89,0,0,1,4.34-.93c1.26-.08,2.54-.12,3.81-.12Z"/><path class="cls-8" d="M152.94,144c1.21-.1,2.48-.36,3.7-.57,1.42-.25,3.47-1.34,3-1.39-2.31-.22-4.26-.57-6.55-.6h-.48a49.26,49.26,0,0,0-6.37.79c-.55.09,1.43.94,3.22,1.33C150.36,143.73,152.94,144,152.94,144Z"/><path d="M143,135.12l-.59.32a11.9,11.9,0,0,1,9.75-4.24c4.59.06,7.81,1.81,9.81,4.24l-.59-.32c-2.39-1.41-7.67-1.6-9.26-1.61S145.4,133.71,143,135.12Z"/><path d="M158,120.67c-.38-2.23,2.5-5.09,6.45-6.26C161.9,116.15,159.51,118,158,120.67Z"/><path d="M147.42,120.67c.37-2.23-2.5-5.09-6.45-6.26C143.54,116.15,145.93,118,147.42,120.67Z"/><path d="M152,172.52c-2.27,0-11.5-1.6-18.26-3.35a54.84,54.84,0,0,1-16.46-7.87c-3.81-3.23-9.69-9.5-6.86-16.1a41.8,41.8,0,0,0-3.35,2.88,2.27,2.27,0,0,1-.43-1.17c-.63-4.55,1.78-8,4.53-11.2l-4.84-1.25a17.51,17.51,0,0,0,5.87-7.15c1.27-2.46,2.45-5,3.73-7.39,2.36-4.49,4.48-9.16,9.16-12.13a20.12,20.12,0,0,0-4-5.85,7,7,0,0,0-5.62-2.24c-3.21.35-5,2.6-5.92,5.07,0,0,.12.11.18.17l2-1.91a4.81,4.81,0,0,1,4.26-.76,4.13,4.13,0,0,1,2.4,2c-1.18.17-2.16-.16-3.51.72a4.61,4.61,0,0,0-1.91,3,7.4,7.4,0,0,0,0,3,14.1,14.1,0,0,0,1.63,3,1.22,1.22,0,0,1,0,1.57c-.45.55-.86,1.13-1.29,1.69l-.56.76a44.43,44.43,0,0,1-3.23-3.2,12.08,12.08,0,0,1-.33-15.38c2.87-3.51,6.85-4.7,11.41-3.8s7.37,3.42,8.6,7.56c.27.88.46,1.78.7,2.73,6-3.38,14.55-6.34,22.15-6.31S168,102.48,174,105.86c.24-1,.44-1.85.7-2.73,1.23-4.14,4.17-6.69,8.61-7.56s8.53.29,11.41,3.8a12.1,12.1,0,0,1-.33,15.38c-1,1.14-2.12,2.11-3.23,3.2l-.57-.76c-.43-.56-.84-1.14-1.29-1.69a1.21,1.21,0,0,1,0-1.57,15,15,0,0,0,1.63-3,7.4,7.4,0,0,0,0-3,4.57,4.57,0,0,0-1.91-3c-1.34-.88-2.33-.55-3.51-.72a4.16,4.16,0,0,1,2.4-2,4.82,4.82,0,0,1,4.27.76l2,1.91c.06-.06.2-.14.18-.17-.94-2.47-2.71-4.72-5.91-5.07-2.3-.26-4.07.81-5.63,2.24a20.52,20.52,0,0,0-3.95,5.85c4.69,3,6.8,7.64,9.16,12.13,1.29,2.44,2.47,4.93,3.73,7.39a17.59,17.59,0,0,0,5.87,7.15l-4.84,1.25c2.76,3.22,5.17,6.65,4.54,11.2a2.38,2.38,0,0,1-.43,1.17,42.57,42.57,0,0,0-3.36-2.88c2.83,6.6-3.28,13.13-6.86,16.1a55.9,55.9,0,0,1-14,7.17,101.23,101.23,0,0,1-13.3,3.12,31.14,31.14,0,0,1-7.35.93l-.06,2.22a34.61,34.61,0,0,0,7.23-.44A113.85,113.85,0,0,0,171.51,172c7-1.79,13.57-4.45,19-9.15a23.78,23.78,0,0,0,5.78-7.15c.16-.3.29-.62.45-1l.8,1c.57.72.67.74,1.21,0a17.23,17.23,0,0,0,2.85-13.29,41.7,41.7,0,0,0-1.69-5.58,29.66,29.66,0,0,0,2.59-2.09c.93-.92.81-1.34-.19-2.19-1.33-1.11-2.67-2.2-3.92-3.38-2.56-2.44-3.86-5.55-5-8.23,1.25-1.33,2.41-2.42,3.4-3.63A16.33,16.33,0,0,0,200.53,104a13.31,13.31,0,0,0-6.59-9.78,15.57,15.57,0,0,0-10.33-2,15,15,0,0,0-9.55,4.83c-1,1.15-1.86,2.47-2.79,3.72a58.06,58.06,0,0,0-15-4,30.29,30.29,0,0,0-8.61,0,58.13,58.13,0,0,0-15,4,46.23,46.23,0,0,0-2.79-3.72,15,15,0,0,0-9.55-4.83,15.58,15.58,0,0,0-10.33,2,13.34,13.34,0,0,0-6.59,9.78,16.37,16.37,0,0,0,3.78,13.26c1,1.21,2.16,2.3,3.41,3.63-1.18,2.68-2.47,5.79-5,8.23-1.24,1.18-2.59,2.27-3.91,3.38-1,.85-1.13,1.27-.2,2.19a31.23,31.23,0,0,0,2.59,2.09,41.66,41.66,0,0,0-1.68,5.58,17.18,17.18,0,0,0,2.84,13.29c.54.75.64.73,1.22,0l.79-1c.16.35.3.67.45,1a23.94,23.94,0,0,0,5.78,7.15c5.43,4.7,12,7.36,19,9.15a113.68,113.68,0,0,0,12.31,2.34c2.53.35,7.21.44,7.21.44Z"/><path d="M142,170.56c-.31-.28-5.35-4-5.6-4.22s-.58-.5-.84-.77c-4.35-4.49-7.1-9.6-6.73-15.82a12.38,12.38,0,0,1,4.91-9.07c.71-.57,1.45-1.12,2.28-1.76a7.76,7.76,0,0,1-6.3-3.4,8.17,8.17,0,0,1-1.27-6.73c.8-3.59,4.16-7.08,8-6.37-3.33-3.64-7.21-5-11.14-1.11.54-3,3.53-6.12,6.82-5.66a12,12,0,0,1,3.82,1.4c2.93,1.58,5,4,7.07,6.44a28.61,28.61,0,0,0,3,3.09c1,.87,1.78.58,2.13-.71.14-.51.21-1.05.33-1.62,1.77,1.89.71,5.74-1.69,6.24a10.63,10.63,0,0,1-2.5-.08,9,9,0,0,1-1.89,6.05,7,7,0,0,1-2.93,2.21,8.11,8.11,0,0,0-2.11,1.15c-2.31,1.92-4.55,4-5.65,6.73a11.93,11.93,0,0,0,.86,10.43,26.63,26.63,0,0,0,7.41,8.49,53.93,53.93,0,0,0,5.39,3.62,14.58,14.58,0,0,0,6.91,1.72,13.84,13.84,0,0,0,6.7-1.72,56.33,56.33,0,0,0,5.39-3.62A26.63,26.63,0,0,0,171.8,157a11.93,11.93,0,0,0,.86-10.43c-1.11-2.78-3.34-4.81-5.65-6.73a8.27,8.27,0,0,0-2.11-1.15,7.06,7.06,0,0,1-2.94-2.21,9,9,0,0,1-1.89-6.05,10.53,10.53,0,0,1-2.49.08c-2.41-.5-3.46-4.35-1.69-6.24.11.57.19,1.11.33,1.62.35,1.29,1.09,1.58,2.13.71a28.61,28.61,0,0,0,3-3.09c2.09-2.4,4.14-4.86,7.07-6.44a12,12,0,0,1,3.82-1.4c3.29-.46,6.28,2.7,6.82,5.66-3.94-3.9-7.81-2.53-11.15,1.11,3.8-.71,7.17,2.78,8,6.37a8.17,8.17,0,0,1-1.27,6.73,7.76,7.76,0,0,1-6.3,3.4c.83.64,1.57,1.19,2.28,1.76a12.38,12.38,0,0,1,4.91,9.07c.36,6.22-2.39,11.33-6.74,15.82-.26.27-.55.52-.83.77s-5.29,3.94-5.6,4.22c0,0-3.19,2.23-10.13,2.23C144.71,172.79,142.49,170.88,142,170.56Z"/><path class="cls-3" d="M165.68,136.24c.07.1.08.16.12.19a2.64,2.64,0,0,0,.29.15,5.43,5.43,0,0,0,5-.57c3.08-1.78,3.86-6.63,1.53-9.55a4,4,0,0,0-5.6-.59,4.15,4.15,0,0,1,3.6,3.88,6.27,6.27,0,0,1-1,4.32A5.29,5.29,0,0,1,165.68,136.24Z"/><path class="cls-3" d="M168.33,129.05a1.29,1.29,0,0,0-1.18-1.42,1.75,1.75,0,0,0-1.47,1.7,1.18,1.18,0,0,0,1.25,1.11A1.29,1.29,0,0,0,168.33,129.05Z"/><path class="cls-3" d="M134.64,134.07a6.27,6.27,0,0,1-.95-4.32,4.15,4.15,0,0,1,3.6-3.88,4,4,0,0,0-5.6.59c-2.33,2.92-1.55,7.77,1.53,9.55a5.43,5.43,0,0,0,5,.57,2.64,2.64,0,0,0,.29-.15s.06-.09.12-.19A5.29,5.29,0,0,1,134.64,134.07Z"/><path class="cls-3" d="M137.41,130.44a1.17,1.17,0,0,0,1.25-1.11,1.75,1.75,0,0,0-1.47-1.7,1.41,1.41,0,0,0,.22,2.81Z"/></g><g id="Guepardo"><path class="cls-9" d="M487.27,105.46l4.12-4.4a3.41,3.41,0,0,1,2.85,1.52c.84,1.54,4.16,5.12-3.22,13.57l-2.14-3.56L490,109l-.15-1.66Z"/><polygon class="cls-10" points="497.65 105.43 496.9 97.88 492.5 93.72 485.5 93.98 480.15 98.14 477.08 100.44 463.51 97.24 457.71 97.3 439.04 100.02 425.99 92.89 419.25 97.17 417.24 106.21 432.3 104.31 460.33 102.17 472.08 103.14 478.38 106.13 482.78 106.13 485.62 102.42 487.7 98.78 490.65 98.65 494.26 101.95 497.42 106.83 497.65 105.43"/><path class="cls-6" d="M498.09,106.78s-5.89-16.5-14.37-5.07a8.41,8.41,0,0,1-4.23,2.91s-5.77-2.31-9.33-3.34a25.73,25.73,0,0,0-10.8-.85,69.25,69.25,0,0,0-9.21.25c-2.5.45-12.4,3.15-12.4,3.15s-7-6-12.24-5.91-8.22,7.56-7.74,10,6.34,10.46,6.34,10.46L421,128.24l-4.19,4.28-.11,19.27,2.8-.71,7.85,10.82,10.76,5.35,21.28,5,10.21-3.71,7.77-.81,8.83-7-.31,1.72,6.8-4.5,3.69-9.89,2.8,2.61.9-9.22L495.92,135l4.77-1.89-6.75-6.32-9-19.07s1.69-4.11,4.62-6a3.28,3.28,0,0,1,4.7.87s3.47,5.07-3.22,13.57l.88,1.69,4.24-3.55Z"/><path class="cls-10" d="M489.11,158.22l5.42-12.68,2,1s1.39-4.3-1.34-12.14c0,0-6.3-13.51-6-16l7.61,11.53,2.17,4.06-1.24,3,2.76,10.72-1.52,4.15L496,149.11l-3.58,10-4,2.14Z"/><path class="cls-2" d="M488.76,160.07l1.2-6.36s-8.28,9.41-17.19,11.07l.77-3-3.73,5.52,2.61,1.48,10.26-4,5.77-2.88Z"/><path class="cls-2" d="M421.56,103.26c-2.21,4.18,3.47,13.46,3.47,13.46l2.54-4.2.26-4.72.32-5.39S423,100.57,421.56,103.26Z"/><path class="cls-2" d="M448,166.83s-18-5.47-21.21-13.64l-.29,4.52s-7.46-10.36-3.23-17.6c0,0-5.55,5.78-7.24,7.45a11.67,11.67,0,0,0,.57,3.81l3.44-3.81s-1.72,4.84,4.85,11.36C434.53,167.74,448,166.83,448,166.83Z"/><path class="cls-11" d="M457.89,171.16c-2.06,0-14.37-3.17-16.67-15.43-2.57-14.39,9.06-13,9.06-13l8.44,4.31,8.11-4.31S479.55,141,476.51,155C472,168.19,460,171.16,457.89,171.16Z"/><path class="cls-12" d="M458.18,133.45c-1.11,0-4.2.38-6.45.58a12,12,0,0,1,6.57-2.65,11,11,0,0,1,6.33,2.61C462.38,133.79,459.29,133.47,458.18,133.45Z"/><path class="cls-12" d="M463.68,118.88c.45-.49.8-.79,1.07-1.16.73-1,1.45-2.07,2.16-3.13.29-.43.41-1-.05-1.31a1.19,1.19,0,0,0-1.15.12,6.22,6.22,0,0,0-2.2,4.49A5,5,0,0,0,463.68,118.88Z"/><path class="cls-12" d="M453.07,119.07a13.74,13.74,0,0,1-1.06-1.16c-.74-1-1.46-2.07-2.16-3.13-.3-.44-.42-1,0-1.31a1.17,1.17,0,0,1,1.14.12,6.2,6.2,0,0,1,2.2,4.49A5,5,0,0,1,453.07,119.07Z"/><path class="cls-12" d="M458.69,156.34a2.38,2.38,0,0,0-1,.19,14,14,0,0,1-7,1.15,11.4,11.4,0,0,1-8.9-6,3.28,3.28,0,0,0-.2-.31s0,0-.3,0V156c-1.72-3.28-.94-6.54,0-9.94-1.54.55-2.43,1.89-3.46,3,.1-4.06,4-6.35,7.85-4.63,0,0,0,.12,0,.12-2.44.76-2.82,3-2,5.28a7.65,7.65,0,0,0,5.58,5,8.68,8.68,0,0,0,6.88-.71,3.77,3.77,0,0,0,2-3.46c-1.71-1-3.47-1.86-5.11-3a10.07,10.07,0,0,1-2.63-2.5,3.6,3.6,0,0,1,1.42-5.61,13.93,13.93,0,0,1,4.15-1q1.36-.1,2.73-.12h.28q1.36,0,2.73.12a14,14,0,0,1,4.15,1,3.61,3.61,0,0,1,1.42,5.61,10.07,10.07,0,0,1-2.63,2.5c-1.64,1.09-3.4,2-5.12,3a3.79,3.79,0,0,0,2,3.46,8.68,8.68,0,0,0,6.88.71,7.62,7.62,0,0,0,5.58-5c.8-2.27.42-4.52-2-5.28,0,0,0-.08,0-.12,3.84-1.72,7.75.57,7.85,4.63-1-1.16-1.92-2.5-3.46-3,.9,3.4,1.68,6.66,0,9.94v-4.62c-.26,0-.29,0-.3,0a3.28,3.28,0,0,0-.2.31,11.4,11.4,0,0,1-8.91,6,14,14,0,0,1-7-1.15,2.43,2.43,0,0,0-1-.19Z"/><path class="cls-9" d="M458.76,144.29c1.24-.14,2.3-1.82,3.34-2,1.21-.24,2.44-.39,3.81-.61-.44-.28-.85-.72-1.29-.77a44.18,44.18,0,0,0-6-.6,30.73,30.73,0,0,0-5.4.67,3.63,3.63,0,0,0-1.5,1.31,6.6,6.6,0,0,1,3.65,0C456.37,142.53,457.66,144.38,458.76,144.29Z"/><g id="ojos"><ellipse class="cls-3" cx="473.29" cy="130.18" rx="6.87" ry="7.36"/><ellipse class="cls-3" cx="443.47" cy="130.37" rx="6.87" ry="7.36"/><path class="cls-12" d="M479,123.1a9.61,9.61,0,0,1,1.28,11,7.4,7.4,0,0,1-6.32,4.35,6.45,6.45,0,0,1-6.44-3,8.22,8.22,0,0,1-1.36-4.83,3.5,3.5,0,0,1-3.2-2.7c-.63-2.18-.27-4.4-.33-6.6.39.9.7,1.83,1.1,2.69.84,1.82.84,2.31,2.86.79,1.67-1.26,3.14-2.83,4.79-4.13a36.57,36.57,0,0,1,5-3.53,4.63,4.63,0,0,1,5.74.71,8.32,8.32,0,0,1,2.52,5.25c-3.48-4.3-6.81-3.35-9.25-1.37A3.91,3.91,0,0,1,479,123.1Zm-7.25,13.77a6.69,6.69,0,0,0,7.53-4.66,7.26,7.26,0,0,0-.83-6.65,2.85,2.85,0,0,0-4.1-.84,5.67,5.67,0,0,1,1.95,3.72c.41,2.8-.13,5.65-2.65,7.14a4.78,4.78,0,0,1-3.21.47l-.47-.08-.06.26A8.56,8.56,0,0,0,471.71,136.87Zm0-8.44a1.11,1.11,0,0,0-1-1.21,1.77,1.77,0,0,0-1.44,1.83.84.84,0,0,0,1,.9A1.5,1.5,0,0,0,471.72,128.43Z"/><path class="cls-12" d="M441.36,121.9c-2.43-2-5.77-2.93-9.25,1.37a8.38,8.38,0,0,1,2.52-5.25,4.62,4.62,0,0,1,5.74-.71,36.57,36.57,0,0,1,5,3.53c1.65,1.3,3.12,2.87,4.79,4.13,2,1.52,2,1,2.86-.79.4-.87.71-1.79,1.1-2.69-.06,2.2.3,4.42-.32,6.6a3.54,3.54,0,0,1-3.21,2.7,8.3,8.3,0,0,1-1.35,4.83,6.48,6.48,0,0,1-6.45,3,7.38,7.38,0,0,1-6.32-4.34,9.61,9.61,0,0,1,1.28-11A3.92,3.92,0,0,1,441.36,121.9Zm5.53,14.52-.07-.27-.47.09a4.78,4.78,0,0,1-3.21-.47c-2.52-1.49-3.06-4.34-2.64-7.14a5.59,5.59,0,0,1,1.95-3.72,2.86,2.86,0,0,0-4.11.84,7.27,7.27,0,0,0-.83,6.64,6.7,6.7,0,0,0,7.54,4.67A9.59,9.59,0,0,0,446.89,136.42Zm-.41-6.28a.84.84,0,0,0,1-.9A1.78,1.78,0,0,0,446,127.4a1.13,1.13,0,0,0-1,1.22A1.51,1.51,0,0,0,446.48,130.14Z"/></g><g id="manchas"><path class="cls-12" d="M464,107.89a5.23,5.23,0,0,0,0,.56c.12,1.1.84,1.72,1.78,1.45a4.72,4.72,0,0,0,3-5.22c-.37-1.44-1.43-2-2.56-1.14A5.31,5.31,0,0,0,464,107.89Z"/><path class="cls-12" d="M482.68,153.34c0,1.23.58,1.86,1.7,1.74a2.27,2.27,0,0,0,2-1.59,2.62,2.62,0,0,0-.22-2.57,1.44,1.44,0,0,0-2.49-.15A3.72,3.72,0,0,0,482.68,153.34Z"/><path class="cls-12" d="M488.81,142c1.08.68,1.95.41,2.46-.86a3,3,0,0,0-.3-3A2.34,2.34,0,0,0,488.6,137a1.87,1.87,0,0,0-1.5,2.58A3.83,3.83,0,0,0,488.81,142Z"/><path class="cls-12" d="M472.75,112.33a6.11,6.11,0,0,0,3.3-1.06,1.81,1.81,0,0,0,1-1.91,1.76,1.76,0,0,0-1.62-1.32c-2-.39-3.64,1.59-3.79,3.55a.7.7,0,0,0,.35.55A2.68,2.68,0,0,0,472.75,112.33Z"/><path class="cls-12" d="M488.76,146.82a3.54,3.54,0,0,0,1.92,2.87c1,.31,1.76-.31,1.72-1.49,0-1.49-1.21-3.17-2.86-2.51A1.09,1.09,0,0,0,488.76,146.82Z"/><path class="cls-12" d="M479,141.71a2.7,2.7,0,0,0,1.48,2.21c.78.24,1.35-.24,1.32-1.14,0-1.15-.94-2.45-2.2-1.94A.84.84,0,0,0,479,141.71Z"/><path class="cls-12" d="M487.41,126.33a6.5,6.5,0,0,0,1.84,4c.44.38.93.64,1.44.3s.48-.9.35-1.49a5.69,5.69,0,0,0-2.29-3.91C487.93,124.75,487.41,125.11,487.41,126.33Z"/><path class="cls-12" d="M452.76,108.08a5,5,0,0,1,0,.55c-.12,1.1-.83,1.73-1.78,1.45a4.7,4.7,0,0,1-3-5.22c.37-1.43,1.43-2,2.56-1.13A5.34,5.34,0,0,1,452.76,108.08Z"/><path class="cls-12" d="M434.07,153.52c0,1.24-.58,1.87-1.7,1.75a2.29,2.29,0,0,1-2-1.59,2.59,2.59,0,0,1,.23-2.57,1.43,1.43,0,0,1,2.48-.15A3.67,3.67,0,0,1,434.07,153.52Z"/><path class="cls-12" d="M427.94,142.18c-1.08.68-1.94.4-2.46-.86a3,3,0,0,1,.3-3,2.35,2.35,0,0,1,2.37-1.17,1.87,1.87,0,0,1,1.51,2.57A3.9,3.9,0,0,1,427.94,142.18Z"/><path class="cls-12" d="M444,112.51a6.1,6.1,0,0,1-3.31-1.05,1.83,1.83,0,0,1-1-1.92,1.75,1.75,0,0,1,1.62-1.31c2-.4,3.64,1.58,3.79,3.55a.72.72,0,0,1-.34.55A2.45,2.45,0,0,1,444,112.51Z"/><path class="cls-12" d="M428,147a3.51,3.51,0,0,1-1.92,2.87c-1,.31-1.76-.3-1.72-1.48,0-1.49,1.22-3.17,2.86-2.51A1.08,1.08,0,0,1,428,147Z"/><path class="cls-12" d="M437.73,141.89a2.69,2.69,0,0,1-1.48,2.21c-.78.24-1.35-.23-1.32-1.14,0-1.15.94-2.44,2.21-1.93A.83.83,0,0,1,437.73,141.89Z"/><path class="cls-12" d="M429.34,126.52a6.47,6.47,0,0,1-1.84,4c-.43.39-.93.65-1.44.3s-.47-.89-.35-1.48a5.67,5.67,0,0,1,2.29-3.91C428.82,124.94,429.34,125.3,429.34,126.52Z"/></g><path class="cls-12" d="M456.87,98.91c-1.4-.47-5.48,0-7.9.34a33.91,33.91,0,0,0-9.27,3,1.74,1.74,0,0,1-2.12-.23c-1-.89-1.93-1.89-2.94-2.77a26.76,26.76,0,0,0-3.85-3.11c-4.79-2.82-10.09-.34-11.54,5.37a15.93,15.93,0,0,0,.86,10.15,14.86,14.86,0,0,0,4.29,5.89,20.18,20.18,0,0,1,1.25-2.46c.79-1.14,1-2.17-.06-3.23a1.74,1.74,0,0,1-.23-.4,3.7,3.7,0,0,1,1-4.56c.37-.31.78-.58,1.23-.92a19.9,19.9,0,0,0-1-1.87,4.78,4.78,0,0,0-2.74-2,2,2,0,0,0-2.11.86c1.07-2.13,2.35-3,4.07-2.62a5.25,5.25,0,0,1,3.27,2.41c1.13,1.71,2.13,3.54,3.16,5.34a.77.77,0,0,1-.11.59,47.68,47.68,0,0,0-5.44,10.93,34.18,34.18,0,0,1-7.24,12l-1.87,1.9,3,1c-2.69,4.57-4.65,9.38-3.32,15l4.11-5.83.16.09c-1.87,7.58,2.68,15.36,7.34,17.72L427.14,157c5.23,5.64,11.19,7.32,18.28,9l-2.88-4.62a1.64,1.64,0,0,1,.27.17,34.93,34.93,0,0,0,9.57,6.48,10.93,10.93,0,0,0,4.54,1h2.46a10.86,10.86,0,0,0,4.54-1,35,35,0,0,0,9.58-6.48,1.28,1.28,0,0,1,.27-.17L470.88,166c7.1-1.66,13-3.34,18.21-9l-1.63,4.38c4.66-2.36,9.21-10.14,7.33-17.72l.17-.09,4.11,5.83c1.33-5.58-.63-10.39-3.32-15l3-1-1.86-1.9a34.18,34.18,0,0,1-7.24-12,47.68,47.68,0,0,0-5.44-10.93.77.77,0,0,1-.11-.59c1-1.8,2-3.63,3.16-5.34a5.25,5.25,0,0,1,3.27-2.41c1.72-.34,3,.49,4.07,2.62a2,2,0,0,0-2.11-.86,4.78,4.78,0,0,0-2.74,2c-.4.58-.7,1.24-1.05,1.87.46.34.87.61,1.24.92a3.7,3.7,0,0,1,1,4.56,1.74,1.74,0,0,1-.23.4c-1,1.06-.85,2.09-.06,3.23a20.18,20.18,0,0,1,1.25,2.46,14.84,14.84,0,0,0,4.28-5.89,15.86,15.86,0,0,0,.87-10.15c-1.45-5.71-6.75-8.19-11.54-5.37a26.76,26.76,0,0,0-3.85,3.11c-1,.88-1.94,1.88-2.94,2.77a1.74,1.74,0,0,1-2.12.23,33.91,33.91,0,0,0-9.27-3c-2.42-.39-5.92-.87-7-.46s-.79,18.41-1.65,27.55C458.61,126.34,458.27,99.39,456.87,98.91Zm8.52-3.24a32.2,32.2,0,0,1,11.13,3.18.59.59,0,0,0,.81-.14c1-1.09,2.07-2.2,3.18-3.2,2.46-2.25,5.2-3.76,8.49-3.81q6.47-.12,9.61,6.09A17.73,17.73,0,0,1,500.08,109a16.25,16.25,0,0,1-6.83,11.29,35.87,35.87,0,0,0,4.18,7.24,50.82,50.82,0,0,0,4.35,4.57c1.07,1,1.23,1.43.38,2.6a28.45,28.45,0,0,1-2.15,2.39s.1.18.16.32a20.24,20.24,0,0,1,1.75,10.71,13.75,13.75,0,0,1-2.23,6.55c-.32.45-.72.84-1.18,1.38l-.79-2.47c-.1.11-.16.14-.17.18a19.12,19.12,0,0,1-6.41,9.08c-5.5,4.35-11.55,5.17-18.1,6.95a50.76,50.76,0,0,0-5.89,1.49,26.23,26.23,0,0,1-7.77,1.79h-2.46a26.24,26.24,0,0,1-7.76-1.79,50.76,50.76,0,0,0-5.89-1.49c-6.55-1.78-12.69-2.6-18.18-6.95a19.12,19.12,0,0,1-6.41-9.08,1.82,1.82,0,0,0-.17-.18l-.79,2.47c-.46-.54-.86-.93-1.18-1.38a13.87,13.87,0,0,1-2.24-6.55,20.34,20.34,0,0,1,1.76-10.71c.06-.14.14-.27.16-.32a28.45,28.45,0,0,1-2.15-2.39c-.86-1.17-.69-1.56.38-2.6a50.82,50.82,0,0,0,4.35-4.57,35.87,35.87,0,0,0,4.18-7.24A16.25,16.25,0,0,1,416.15,109a17.73,17.73,0,0,1,1.47-11.24q3.13-6.21,9.61-6.09a12.76,12.76,0,0,1,8.49,3.81c1.11,1,2.14,2.11,3.18,3.2a.59.59,0,0,0,.81.14,32.21,32.21,0,0,1,11.12-3.18C453.2,95.45,463,95.45,465.39,95.67Z"/></g><polygon points="232.91 21.03 286.72 22.62 284.16 61.72 240.41 65.47 232.91 21.03"/><path d="M348.65,64.72V13.36l28.86.05V68.22S353,65,348.65,64.72Z"/><path d="M304.08,62.74c-.78,0-1.56,0-2.35,0-1.1,0-2.25,0-3.42-.05a5.8,5.8,0,0,1-3.24-1.22,6,6,0,0,1-4,1.26h-2.21q-1.5,0-3,0h-.14a5.55,5.55,0,0,1-4-1.59A5.67,5.67,0,0,1,280.12,57c0-7.54,0-15.2,0-22.61V13.2h7.64l1.89,0h.12c3,.08,6.17.15,9.28.3,6,.29,10.18,4.81,10.26,11,.05,4.27,0,8.59,0,12.77V38a10.42,10.42,0,0,1-2.77,7.2c.65,2.14,1.28,4.28,1.89,6.37.38,1.32.77,2.64,1.16,4a5.56,5.56,0,0,1-.76,5.08,5.46,5.46,0,0,1-4.56,2.16Z"/><path d="M321.79,63.2h-.4c-3.12-.09-5.94-.19-8.86-.46a10.43,10.43,0,0,1-9.36-10.17c-.05-3.45,0-6.94,0-10.32V38c0-1.4,0-2.79,0-4.19,0-3.22,0-6.55,0-9.86.14-6.1,4.4-10.42,10.62-10.76,1.2-.06,2.42-.09,3.76-.09s3.05,0,4.94.12c5.3.23,9.82,5.1,9.86,10.64.09,9.75.15,19.35.17,28.52a10.8,10.8,0,0,1-3,7.86A10.59,10.59,0,0,1,321.79,63.2Z"/><path d="M344.89,64.37a8.19,8.19,0,0,1-.85,0L340.72,64l-4.14-.35a11.07,11.07,0,0,1-10.46-11.24c0-.91,0-1.82,0-2.73,0-1.2,0-2.4,0-3.6a9.1,9.1,0,0,1,.15-1.51l0-.15.63-4.47,2.41.2c-.25-.25-.48-.51-.71-.75C326,36.7,326,33.49,326,31.37v-.5c0-2.19-.06-4.32,0-6.48.1-5.46,2.84-8.27,5.13-9.67a9.93,9.93,0,0,1,5-1.48h.05c2.76,0,5.51.15,8.18.29l1.17.05c4.7.23,8.94,4.59,9.25,9.53.09,1.48.09,2.92.09,4.31,0,.85,0,1.65,0,2.44a5.77,5.77,0,0,1-1.58,4.33,5.43,5.43,0,0,1-2.49,1.45,11.68,11.68,0,0,1,4.06,9.28c-.05,1.76,0,3.51,0,5.37,0,1.42,0,2.88,0,4.35A9.81,9.81,0,0,1,344.89,64.37Z"/><path d="M248.12,65.19a5.51,5.51,0,0,1-4.07-1.64A6,6,0,0,1,242.42,59c.1-5.47.12-11.06.14-16.46,0-2,0-4,0-6,0-2.61.09-14.63.09-14.63,0-.83,0-1.65,0-2.51V13.39h25.38v6.22c0,1.75,0,3.56-.05,5.36-.09,3-2.95,5.14-5.56,5.21l-2.9,0v.16c.48,0,1,0,1.44,0a5.8,5.8,0,0,1,5.52,5.33c.06,1.66.06,3.26.05,5V46.8L262,47l-1.71.08-.78,0v.1l2.39-.16.67,0a5.46,5.46,0,0,1,4.12,1.7,5.7,5.7,0,0,1,1.48,4.45c-.06,1.2-.05,2.48,0,3.83,0,.62,0,1.25,0,1.9v4.25l-4.23.49-1.14.14c-.89.11-1.81.22-2.76.32l-4.64.43-6.26.6A8.22,8.22,0,0,1,248.12,65.19Z"/><path d="M267,63.57A5.33,5.33,0,0,1,263.13,62a5.53,5.53,0,0,1-1.56-4.1q0-15.4.06-30.81V13.37h24.91v6.05c0,1.79,0,3.65-.05,5.5-.08,3.09-2.92,5-5.61,5l-2.43,0v.29h7V41.41a5.41,5.41,0,0,1-3.25,5.05h4.5v6.21c0,1.54,0,3.13-.05,4.73a5.85,5.85,0,0,1-5.34,5.35c-2.1.13-4.21.22-6.25.32l-3.45.16c-1.26.06-2.59.14-3.86.29A7.65,7.65,0,0,1,267,63.57Z"/><path d="M223.26,62.59c.16-13.13.31-28.67.17-44.44l-.05-4.83,25.68.07v6.22c0,1.83,0,3.57,0,5.36a5.69,5.69,0,0,1-5.48,5.24c-1.12,0-2.15.06-3.13.07v.48l1.16,0h.22a5.63,5.63,0,0,1,4.2,1.68,5.71,5.71,0,0,1,1.54,4.35c0,1.3,0,2.63,0,4v6.39l-4.51.25-1.72.11-.86,0c0,1.92,0,3.82,0,5.68,0,1.11,0,2.21,0,3.32,0,0,0,7,0,8.85-4.28.38-17.21,2.66-17.21,2.66Z"/><path class="cls-13" d="M365.66,43.22l-5-.34V61.07l-7.25-.7V18.14h7.1v4.58c0,3.74,0,7.48,0,11.22,0,.89.27,1.17,1.16,1.15,1.22,0,2.44.13,3.84.22,0-1,0-2,0-2.9,0-4.37,0-8.74-.14-13.11,0-.93.25-1.16,1.14-1.13,2,.07,4,0,6.2,0V62.74c-2.21-.3-4.49-.6-6.75-1-.2,0-.49-.47-.48-.71,0-3,.12-6.11.16-9.16C365.69,49.06,365.66,46.21,365.66,43.22Z"/><path class="cls-14" d="M292.23,44.72c0,3.89,0,7.7,0,11.51,0,1.73,0,1.71-1.69,1.68s-3.18,0-4.77,0c-.66,0-.88-.2-.87-.9q0-14.13,0-28.27V18c1.48,0,3.06,0,4.63,0,3.1.08,6.2.15,9.29.3,3.59.17,5.67,2.79,5.71,6.29.06,4.45,0,8.91,0,13.36a5.65,5.65,0,0,1-2.42,4.79,1.65,1.65,0,0,0-.65,2.18c1.24,4,2.36,8,3.54,12,.23.77.06,1.12-.81,1.1-1.9-.05-3.8,0-5.7-.08a1.24,1.24,0,0,1-.89-.7c-1-3.6-2.05-7.22-3-10.85C294.14,44.45,294.22,44.43,292.23,44.72ZM292.18,38A23.63,23.63,0,0,0,295,38c1.62-.22,2.39-1,2.42-2.41,0-2.7.05-5.4,0-8.11a1.81,1.81,0,0,0-1.74-2c-.83-.07-1.66-.08-2.49-.12s-1.05.24-1,1.06c.06,2.14,0,4.29,0,6.43Z"/><path class="cls-15" d="M307.91,38c0-4.65-.08-9.3,0-13.95.09-3.82,2.66-5.9,6.1-6.08,2.74-.15,5.49-.1,8.23,0a6,6,0,0,1,5.29,5.91q.13,14.25.17,28.5c0,3.86-2.35,6.16-6.19,6.05-2.86-.09-5.72-.18-8.57-.44a5.62,5.62,0,0,1-5-5.48c-.07-4.84,0-9.69,0-14.53Zm12.48.44h0c0-3.66,0-7.32,0-11,0-2-.64-2.48-2.76-2.47s-2.49.49-2.49,2.44c0,2.22,0,4.44.05,6.67,0,4.87,0,9.75.13,14.62,0,2.6.61,3,3.19,2.77a1.84,1.84,0,0,0,1.91-2.09C320.4,45.72,320.39,42.06,320.39,38.41Z"/><path class="cls-16" d="M331,45.13l7.11.6c0,1.53,0,3.11,0,4.69,0,1.33.51,1.86,1.83,2,.44,0,.88,0,1.31.06a1.45,1.45,0,0,0,1.69-1.56,20.43,20.43,0,0,0-.09-4.76A5.33,5.33,0,0,0,341,43.4c-1.79-1.49-3.82-2.7-5.66-4.14a27.81,27.81,0,0,1-3.25-3.08c-1.42-1.53-1.29-3.5-1.32-5.39,0-2.1-.06-4.21,0-6.32,0-2.33.76-4.39,2.84-5.67a5.25,5.25,0,0,1,2.56-.78c3.05,0,6.1.19,9.15.34,2.24.11,4.55,2.52,4.71,5.05.14,2.18,0,4.38.09,6.56,0,.91-.31,1.16-1.21,1.07-1.66-.16-3.33-.25-5-.29-.79,0-1.06-.28-1-1.05a29.62,29.62,0,0,0,0-3A1.71,1.71,0,0,0,341.05,25c-.36,0-.72,0-1.08,0-1.64,0-2,.34-2,1.94a17.14,17.14,0,0,1,0,2c-.35,2.54,1.06,4,3,5.35,2.09,1.43,4.15,2.9,6.14,4.46a7.07,7.07,0,0,1,3,6c-.09,3.27,0,6.53,0,9.8a5.08,5.08,0,0,1-5.58,5c-2.49-.21-5-.45-7.48-.65a6.33,6.33,0,0,1-6.06-6.52c0-2.1-.06-4.21-.08-6.32A7.16,7.16,0,0,1,331,45.13Z"/><path class="cls-17" d="M261.78,42.21c-2,.08-3.89.22-5.79.21-1,0-1.37.3-1.34,1.37.07,2.41.06,4.83,0,7.24,0,1,.23,1.3,1.19,1.22,2.14-.18,4.29-.26,6.43-.43.85-.07,1.18.1,1.12,1.08-.11,1.94,0,3.88,0,6-1.24.14-2.52.31-3.81.44-3.64.35-7.28.67-10.92,1-1,.1-1.43,0-1.41-1.25.13-7.51.12-15,.17-22.52,0-4.87.06-9.75.08-14.63,0-1.22,0-2.45,0-3.8h15.81c0,2.25,0,4.46,0,6.66,0,.21-.59.56-.91.57-2.15.05-4.29,0-6.44,0-.35,0-.7,0-1.11,0v6.68a13.72,13.72,0,0,1,0,2c-.14.9.19,1.1,1,1.06,1.7-.09,3.4-.12,5.1-.08.3,0,.85.46.86.72C261.81,38,261.78,40,261.78,42.21Z"/><path class="cls-18" d="M281.93,51.24c0,2,0,4,0,6,0,.27-.55.73-.86.75-3.22.21-6.43.32-9.65.49-1.39.07-2.78.15-4.16.31-.72.08-.87-.13-.87-.83q.06-18.44.07-36.87V18.15h15.35c0,2.22,0,4.43,0,6.64,0,.15-.6.39-.93.4-2.18,0-4.37,0-6.56,0-.15,0-.3,0-.55.07v9.76h7c0,2.23,0,4.28,0,6.34,0,.79-.57.72-1.09.72h-6v9.11Z"/><path class="cls-19" d="M228.21,18.11h16.06c0,2.3,0,4.52,0,6.73,0,.21-.55.59-.85.6-2.22.06-4.45.09-6.67,0-.94,0-1.12.33-1.11,1.2,0,2.76,0,5.53,0,8.3a3.5,3.5,0,0,0,.08.55c2.06,0,4,0,6,0,.84,0,1.09.23,1.06,1.08-.06,2,0,4,0,6.09-2,.11-3.87.27-5.76.31-1.06,0-1.4.34-1.37,1.47.09,4.05,0,8.1,0,12.15v5l-7.59,1C228.22,47.83,228.34,33.05,228.21,18.11Z"/></g></g></svg>