<svg xmlns="http://www.w3.org/2000/svg" viewBox="0 0 467.91 369.81"><defs><style>.cls-1{fill:#5f220c;}.cls-2{fill:#de5c11;}.cls-3{fill:#fdd196;}.cls-4{fill:#b45717;}.cls-5{fill:#903a14;}.cls-6{fill:#ffeace;}.cls-7{fill:#f08210;}.cls-8{fill:#d55314;}.cls-9{fill:#914018;}.cls-10{fill:#d95b13;}.cls-11{fill:#f6a01e;}.cls-12{fill:#fbbb3c;}.cls-13{fill:#1d1d1b;}</style></defs><g id="Capa_2" data-name="Capa 2"><g id="Capa_1-2" data-name="Capa 1"><ellipse class="cls-1" cx="233.95" cy="184.91" rx="233.95" ry="184.91"/><polygon points="97.58 72.34 206.35 75.57 201.18 154.59 112.74 162.16 97.58 72.34"/><path d="M331.53,160.65V56.85l58.32.1V167.73S340.34,161.22,331.53,160.65Z"/><path d="M241.44,156.65c-1.58,0-3.16-.05-4.75-.05-2.24,0-4.55,0-6.92-.11a11.72,11.72,0,0,1-6.54-2.47,12.21,12.21,0,0,1-8.06,2.55H214l-3.26,0q-3,0-6.06.06h-.29a11.13,11.13,0,0,1-8.11-3.2,11.38,11.38,0,0,1-3.22-8.32c.05-15.22,0-30.7,0-45.68V56.53h12.41l3,0c1.27,0,2.54,0,3.82,0h.24c6.14.15,12.48.3,18.76.6,12.06.58,20.59,9.73,20.75,22.25.11,8.63,0,17.36,0,25.81v1.39a21.12,21.12,0,0,1-5.6,14.54c1.32,4.33,2.58,8.66,3.81,12.88q1.17,4,2.35,8a11.29,11.29,0,0,1-1.53,10.26,11.1,11.1,0,0,1-9.23,4.36Z"/><path d="M277.24,157.59h-.81c-6.31-.19-12-.38-17.92-.92a21.11,21.11,0,0,1-18.92-20.56c-.1-7-.08-14-.06-20.86V113.5l0-6.91c0-2.82,0-5.65,0-8.47,0-6.51-.07-13.25.08-19.93.27-12.32,8.9-21.06,21.46-21.74,2.42-.13,4.9-.2,7.6-.2,3,0,6.17.08,10,.25,10.71.47,19.83,10.32,19.93,21.5.18,19.71.29,39.11.34,57.66,0,6.39-2.08,11.88-6.06,15.88A21.41,21.41,0,0,1,277.24,157.59Z"/><path d="M323.93,159.94c-.57,0-1.15,0-1.72-.07l-6.72-.58-8.37-.72c-12.33-1-21-10.34-21.14-22.72,0-1.83-.05-3.67-.07-5.5q0-3.66-.08-7.3a15.66,15.66,0,0,1,.3-3c0-.1,0-.2.05-.3l1.29-9,4.87.4c-.51-.52-1-1-1.45-1.52-5.16-5.55-5.21-12-5.24-16.31v-1c-.07-4.41-.12-8.73,0-13.1.2-11,5.75-16.71,10.37-19.53a20,20,0,0,1,10.16-3h.1c5.58,0,11.15.31,16.54.58l2.37.12c9.5.45,18.05,9.27,18.69,19.25.19,3,.18,5.91.18,8.71,0,1.72,0,3.33,0,4.93a11.73,11.73,0,0,1-3.2,8.75,10.93,10.93,0,0,1-5,2.94A23.6,23.6,0,0,1,344,120.63c-.1,3.56-.08,7.1-.05,10.86,0,2.86,0,5.83,0,8.79A19.81,19.81,0,0,1,323.93,159.94Z"/><path d="M128.32,161.6a11.22,11.22,0,0,1-8.23-3.3,12.22,12.22,0,0,1-3.28-9.13c.19-11.07.24-22.36.28-33.28q0-6.06,0-12.11c0-5.27.18-29.58.18-29.58,0-1.66,0-3.32,0-5.07V56.9h51.3V69.48c0,3.54,0,7.19-.09,10.84-.19,6.12-6,10.38-11.25,10.51-2,.06-3.92.08-5.86.09v.32l2.92,0c5.11.12,10.95,4.58,11.16,10.78.12,3.36.11,6.59.1,10,0,1,0,2.05,0,3.09v9.28l-9.27.38c-1.17,0-2.32.1-3.45.16l-1.58.08v.21c1.6-.1,3.21-.2,4.82-.33.49,0,.95-.06,1.36-.06a11.07,11.07,0,0,1,8.33,3.43,11.6,11.6,0,0,1,3,9c-.14,2.42-.11,5-.08,7.73,0,1.25,0,2.53,0,3.83v8.6l-8.54,1-2.32.28c-1.8.22-3.66.45-5.57.64l-9.37.88c-4.22.39-8.44.78-12.66,1.21C129.77,161.54,129.09,161.6,128.32,161.6Z"/><path d="M166.41,158.33a10.85,10.85,0,0,1-7.75-3.12,11.26,11.26,0,0,1-3.16-8.29q.1-31.14.13-62.29l0-12.21V56.86H206V69.09c0,3.63,0,7.38-.09,11.12-.17,6.25-5.9,10.09-11.34,10.2-1.64,0-3.28.06-4.91.07v.59h14.14v22.48a10.89,10.89,0,0,1-6.57,10.2h9.1v12.56c0,3.1,0,6.31-.09,9.55-.24,6.07-5.77,10.49-10.8,10.81-4.24.26-8.51.46-12.64.65-2.32.1-4.65.21-7,.33-2.54.13-5.23.29-7.8.58A15.48,15.48,0,0,1,166.41,158.33Z"/><path d="M78.08,156.35c.33-26.53.62-57.94.33-89.83l-.09-9.75,51.9.13V69.47c0,3.71,0,7.22-.09,10.85-.17,6.14-5.86,10.44-11.07,10.59-2.25.07-4.34.11-6.32.14,0,.32,0,.65,0,1l2.35,0h.45a11.39,11.39,0,0,1,8.49,3.4,11.56,11.56,0,0,1,3.12,8.8c-.09,2.61-.07,5.32-.06,8.17,0,1.24,0,2.5,0,3.79v9.13l-9.11.52c-1.18.06-2.34.14-3.49.21l-1.73.11c0,3.87,0,7.71,0,11.48,0,2.23,0,4.47,0,6.7,0,0-.06,14.12,0,17.88C104.09,163,78,167.55,78,167.55Z"/><path class="cls-2" d="M365.91,117.19l-10.07-.67v36.75l-14.65-1.4V66.51h14.34c0,3.19,0,6.22,0,9.25,0,7.56.08,15.12,0,22.68,0,1.81.55,2.37,2.35,2.34,2.46,0,4.94.26,7.75.43,0-2,0-4,0-5.86-.08-8.83-.1-17.67-.29-26.5,0-1.88.49-2.34,2.3-2.28,4,.14,8,0,12.53,0v90c-4.47-.61-9.07-1.2-13.65-1.92a1.86,1.86,0,0,1-1-1.43c.06-6.17.26-12.35.33-18.52C366,129,365.91,123.24,365.91,117.19Z"/><path class="cls-2" d="M217.49,120.24c0,7.86,0,15.55,0,23.25,0,3.5.09,3.46-3.41,3.41-3.21-.05-6.43,0-9.64,0-1.34,0-1.78-.42-1.77-1.83q.07-28.58,0-57.14V66.19c3,0,6.18-.06,9.36,0,6.26.15,12.52.29,18.77.59,7.26.35,11.45,5.66,11.54,12.72.12,9,.05,18,0,27a11.45,11.45,0,0,1-4.89,9.68c-1.71,1.22-2,2.39-1.33,4.4,2.51,8,4.78,16.11,7.17,24.17.47,1.55.11,2.25-1.64,2.21-3.84-.1-7.68,0-11.52-.16a2.47,2.47,0,0,1-1.8-1.41c-2.09-7.29-4.14-14.59-6-21.93C221.35,119.69,221.51,119.65,217.49,120.24Zm-.1-13.66a46.06,46.06,0,0,0,5.69,0c3.28-.43,4.84-2,4.88-4.86q.14-8.19,0-16.39c0-2.22-1-3.9-3.53-4.1-1.67-.14-3.36-.18-5-.25-1.47-.06-2.12.48-2.07,2.14.12,4.33,0,8.66,0,13Z"/><path class="cls-2" d="M249.17,106.59c0-9.4-.16-18.8.05-28.19.17-7.73,5.36-11.92,12.33-12.3,5.53-.3,11.1-.19,16.64.05s10.64,5.8,10.69,11.94q.25,28.8.34,57.6c0,7.8-4.76,12.45-12.51,12.23-5.78-.17-11.57-.36-17.32-.89A11.32,11.32,0,0,1,249.26,136c-.15-9.79,0-19.58,0-29.37Zm25.24.88h-.06c0-7.39,0-14.78,0-22.17,0-4-1.29-5-5.57-5-4,0-5,1-5,4.93,0,4.49.07,9,.11,13.47.07,9.85.05,19.7.25,29.56.1,5.25,1.23,6.07,6.45,5.59,2.62-.25,3.84-1.5,3.85-4.22C274.43,122.26,274.41,114.86,274.41,107.47Z"/><path class="cls-2" d="M295.75,121.07l14.36,1.2c0,3.1,0,6.29,0,9.48,0,2.69,1,3.76,3.7,4,.88.08,1.77.07,2.65.12,2.26.15,3.33-1.16,3.4-3.17.12-3.2.45-6.51-.18-9.6a10.87,10.87,0,0,0-3.7-5.55c-3.63-3-7.73-5.45-11.45-8.35A58.75,58.75,0,0,1,298,103c-2.87-3.08-2.6-7.07-2.66-10.89-.06-4.26-.12-8.52,0-12.77.08-4.71,1.54-8.89,5.75-11.47a10.42,10.42,0,0,1,5.16-1.57c6.17,0,12.34.38,18.51.68,4.52.22,9.18,5.1,9.51,10.21.28,4.41.08,8.85.19,13.27,0,1.83-.64,2.34-2.45,2.16-3.35-.34-6.73-.52-10.1-.59-1.58,0-2.13-.57-2.06-2.12a55.12,55.12,0,0,0,0-6,3.44,3.44,0,0,0-3.57-3.49c-.73,0-1.45,0-2.18,0-3.31.05-4,.68-4,3.93a34.84,34.84,0,0,1,0,4.09c-.72,5.15,2.14,8.18,6,10.82,4.21,2.89,8.37,5.87,12.39,9s6.17,6.94,6,12.15c-.18,6.6,0,13.2-.06,19.79A10.27,10.27,0,0,1,323,150.24c-5-.42-10.07-.89-15.11-1.3-7.28-.59-12.19-5.86-12.26-13.18,0-4.26-.12-8.52-.15-12.78A14.24,14.24,0,0,1,295.75,121.07Z"/><path class="cls-2" d="M155.93,115.16c-4,.17-7.86.45-11.69.42-2.11,0-2.78.62-2.72,2.77.15,4.87.13,9.77,0,14.64-.06,1.93.47,2.62,2.41,2.46,4.32-.36,8.65-.53,13-.87,1.72-.14,2.39.2,2.27,2.19-.22,3.91-.06,7.85-.06,12.11-2.5.3-5.1.64-7.71.9-7.35.71-14.71,1.35-22.06,2.09-2,.2-2.89,0-2.84-2.54.26-15.16.24-30.33.32-45.5q.08-14.79.18-29.57c0-2.48,0-5,0-7.7h32c0,4.56,0,9-.09,13.47,0,.42-1.19,1.13-1.84,1.14-4.34.12-8.68.08-13,.09-.71,0-1.41.06-2.25.1V94.87a28,28,0,0,1,0,4.1c-.28,1.81.39,2.23,2.09,2.14,3.44-.18,6.88-.25,10.32-.17.61,0,1.71.93,1.73,1.46C156,106.56,155.93,110.73,155.93,115.16Z"/><path class="cls-2" d="M196.67,133.41c0,4.08.07,8.09-.08,12.09,0,.55-1.11,1.48-1.75,1.52-6.5.41-13,.64-19.5,1-2.8.14-5.61.31-8.4.63-1.46.17-1.78-.27-1.77-1.68q.12-37.26.15-74.52V66.52h31c0,4.5,0,9-.09,13.43,0,.3-1.22.79-1.88.8-4.42.09-8.84.08-13.26.1-.31,0-.62.08-1.11.15v19.73h14.14v12.81c0,1.6-1.17,1.46-2.22,1.46-3.93,0-7.85,0-12,0v18.41Z"/><path class="cls-2" d="M88.07,66.44h32.48c0,4.66,0,9.14-.08,13.61,0,.43-1.09,1.19-1.7,1.2-4.49.14-9,.2-13.49.11-1.89,0-2.26.68-2.23,2.42.09,5.6,0,11.19,0,16.79a5.08,5.08,0,0,0,.17,1.1c4.16,0,8.15.07,12.14,0,1.69,0,2.21.46,2.15,2.19-.14,4,0,8,0,12.3-4,.23-7.84.54-11.66.62-2.14,0-2.82.69-2.76,3,.18,8.17.07,16.36.07,24.54v10.1l-15.34,2.08C88.11,126.51,88.34,96.65,88.07,66.44Z"/><path class="cls-2" d="M105.44,244.2c-.48,0-1,0-1.46,0s-4.32-.1-6.52-.41a97.54,97.54,0,0,1-11-2.09c-7.54-1.93-13.17-4.66-17.7-8.58a25.15,25.15,0,0,1-4.38-4.83,4,4,0,0,1-3.25-1.89,18.09,18.09,0,0,1-3-13.93,19.09,19.09,0,0,1,.81-3.07c-.21-.19-.42-.38-.63-.59a4.56,4.56,0,0,1-1.54-3.45,4.75,4.75,0,0,1,1.91-3.41l.56-.46c.95-.79,1.83-1.53,2.65-2.31a12.75,12.75,0,0,0,2.64-3.93c-.52-.54-1-1.09-1.52-1.69a17.32,17.32,0,0,1-4-14,14.89,14.89,0,0,1,7.26-10.79,16.32,16.32,0,0,1,8.57-2.36,21.05,21.05,0,0,1,2.48.16,16.24,16.24,0,0,1,10.29,5.24,17.37,17.37,0,0,1,1.12,1.38,49.43,49.43,0,0,1,11.36-2.75l.23,0a37.76,37.76,0,0,1,3.79-.26,37.76,37.76,0,0,1,3.79.26l.23,0a49.23,49.23,0,0,1,11.35,2.75,17.54,17.54,0,0,1,1.13-1.38,16.22,16.22,0,0,1,10.29-5.24,21.05,21.05,0,0,1,2.48-.16,16.35,16.35,0,0,1,8.57,2.36,14.89,14.89,0,0,1,7.26,10.79,17.32,17.32,0,0,1-4,14c-.49.6-1,1.15-1.52,1.69a12.58,12.58,0,0,0,2.64,3.93c.81.78,1.7,1.52,2.64,2.31l.57.46a4.78,4.78,0,0,1,1.91,3.41,4.56,4.56,0,0,1-1.54,3.45c-.21.21-.42.4-.64.59a19.08,19.08,0,0,1,.82,3.07,18.09,18.09,0,0,1-3,13.93,4,4,0,0,1-3.25,1.89,25.15,25.15,0,0,1-4.38,4.83c-4.53,3.92-10.16,6.65-17.7,8.58a98,98,0,0,1-11,2.09A38,38,0,0,1,105.44,244.2Zm-1-8.68a26.54,26.54,0,0,0,5.37-.73c.52-.12,1.21-.24,2-.39a63.78,63.78,0,0,0,9.08-2.2,45.07,45.07,0,0,0,10.94-5.57c1.13-.94,6.7-5.83,4.95-9.92a3.4,3.4,0,0,1,2-4.51,21.9,21.9,0,0,0-2.09-2.78,3.38,3.38,0,0,1-.66-3.21,3.45,3.45,0,0,1,1.12-1.63,29,29,0,0,1-1.79-3c-.5-1-1-1.94-1.46-2.91-.57-1.15-1.14-2.29-1.74-3.43l-.54-1c-1.74-3.36-3.25-6.26-6.16-8.11a3.45,3.45,0,0,1-1.21-1.34,3.4,3.4,0,0,1-1.17.21,3.35,3.35,0,0,1-1.66-.44c-5.49-3.1-11.89-5-17.12-5h-.08c-6.25,0-13,2.58-17.3,5a3.36,3.36,0,0,1-2.83.23,3.4,3.4,0,0,1-1.22,1.34c-2.9,1.85-4.41,4.75-6.15,8.11l-.55,1c-.59,1.14-1.16,2.28-1.73,3.43q-.72,1.45-1.47,2.91a27.28,27.28,0,0,1-1.78,3,3.45,3.45,0,0,1,1.12,1.63,3.38,3.38,0,0,1-.66,3.21,20.77,20.77,0,0,0-2.09,2.78,3.4,3.4,0,0,1,2,4.51c-1.57,3.66,2.45,7.8,5,9.95a44.92,44.92,0,0,0,12.82,6.08,103.21,103.21,0,0,0,14.77,2.77h.31Z"/><path class="cls-2" d="M366.41,242.75h-.24A26,26,0,0,1,358.5,241a17.59,17.59,0,0,0-2.63-.68c-.67-.14-1.36-.29-2.08-.48-1-.28-2-.53-3-.78-4.62-1.13-9.39-2.31-13.81-5.81a20,20,0,0,1-4.62-5.13,3.38,3.38,0,0,1-2.17-1.14l-.32-.37a10.9,10.9,0,0,1-.91-1.08,15.16,15.16,0,0,1-2.51-7.21,20.4,20.4,0,0,1,1-9.13c-.21-.25-.43-.51-.63-.79-1.69-2.32-1.45-4.55.7-6.64l.23-.23a39.22,39.22,0,0,0,3.24-3.4,18.85,18.85,0,0,0,2-3.22,17.77,17.77,0,0,1-5-10,18.69,18.69,0,0,1,1.57-11.74c2.35-4.64,6.18-7.1,11.09-7.1h.25a14.15,14.15,0,0,1,9.51,4.15c.54.49,1.05,1,1.55,1.5a30.89,30.89,0,0,1,8.87-2.22c1.56-.14,5.43-.16,6.58-.16s5,0,6.57.16a30.89,30.89,0,0,1,8.87,2.22c.5-.5,1-1,1.55-1.5a14.17,14.17,0,0,1,9.51-4.15h.25c4.91,0,8.74,2.46,11.09,7.1a18.69,18.69,0,0,1,1.57,11.74,17.77,17.77,0,0,1-5,10,18.85,18.85,0,0,0,2,3.22,37.6,37.6,0,0,0,3.23,3.39l.24.24c2.15,2.09,2.39,4.32.7,6.64-.2.28-.42.54-.63.79a20.4,20.4,0,0,1,1,9.13A15.16,15.16,0,0,1,406,225.5a12.22,12.22,0,0,1-.9,1.08l-.33.37a3.38,3.38,0,0,1-2.17,1.14,20,20,0,0,1-4.62,5.13c-4.43,3.51-9.19,4.69-13.79,5.82-1,.25-2,.49-3,.77-.72.19-1.42.34-2.09.48a17.44,17.44,0,0,0-2.62.68,26,26,0,0,1-7.67,1.77h-2.36ZM354,225.93a3.33,3.33,0,0,1,1.77.51l0,0a3.88,3.88,0,0,1,.75.55,26.65,26.65,0,0,0,7.31,5,5.78,5.78,0,0,0,2.56.51h2.06A5.69,5.69,0,0,0,371,232a26.8,26.8,0,0,0,7.31-5,4.21,4.21,0,0,1,.75-.55,3.43,3.43,0,0,1,1.8-.51,3.35,3.35,0,0,1,2.38,1,3.46,3.46,0,0,1,.8,1.26,18.75,18.75,0,0,0,7.54-4.92,3.35,3.35,0,0,1,2.47-1.08,3.79,3.79,0,0,1,.67.06,10.87,10.87,0,0,0,1-7.35,3.36,3.36,0,0,1,1.66-3.77,3.49,3.49,0,0,1,1-.37,28.19,28.19,0,0,0-1.51-2.9,3.34,3.34,0,0,1-.25-2.89,3.94,3.94,0,0,1,.26-.55,34.07,34.07,0,0,1-5.53-9.88,38.31,38.31,0,0,0-4.27-8.64,3.93,3.93,0,0,1-.27-4.14l.65-1.15-.14.13a4.83,4.83,0,0,1-3.24,1.28,5.35,5.35,0,0,1-2.3-.55,25.64,25.64,0,0,0-7-2.28c-1.13-.18-2-.3-2.66-.37-.14,2.12-.23,5.35-.3,7.92-.13,4.34-.27,9.26-.59,12.73a3.38,3.38,0,0,1-3.36,3.06h-.14a3.38,3.38,0,0,1-3.23-3.33c-.1-7.63-.42-16.49-.82-20.41-1.22.07-2.61.24-3.57.4a25.75,25.75,0,0,0-7,2.28,5.34,5.34,0,0,1-2.29.55,4.83,4.83,0,0,1-3.25-1.28l-.14-.13.65,1.15a3.91,3.91,0,0,1-.26,4.13,38.21,38.21,0,0,0-4.28,8.65,34.27,34.27,0,0,1-5.53,9.89,3.36,3.36,0,0,1,0,3.43,29.5,29.5,0,0,0-1.49,2.86,3.61,3.61,0,0,1,.88.33l.08,0a3.44,3.44,0,0,1,1.72,3.8,10.87,10.87,0,0,0,1,7.35,3.79,3.79,0,0,1,.67-.06,3.37,3.37,0,0,1,2.48,1.08,18.58,18.58,0,0,0,7.59,4.92,3.23,3.23,0,0,1,.79-1.26A3.35,3.35,0,0,1,354,225.93Z"/><path class="cls-2" d="M159.65,234.45a41.25,41.25,0,0,1-12.72-2A40.44,40.44,0,0,1,132,223.94a40.46,40.46,0,0,1-13.57-30.11,40.9,40.9,0,0,1,2.88-15.11,41.46,41.46,0,0,1,8-12.78,40,40,0,0,1,27.76-13c.29,0,.59,0,.88,0h2.22a42.09,42.09,0,0,1,13.24,2.14,18.88,18.88,0,0,1,12.82,15.32l1.7,11.8A19.09,19.09,0,0,1,186,193.56a19.09,19.09,0,0,1,2,11.51l-1.6,11.38a18.92,18.92,0,0,1-10.9,14.63,35,35,0,0,1-11.45,3.13A40.19,40.19,0,0,1,159.65,234.45Z"/><path class="cls-2" d="M175.15,233.22a19,19,0,0,1-19-19V172.78a18.93,18.93,0,0,1,17.16-18.91l11.18-1.08c.61-.06,1.22-.08,1.83-.08a19,19,0,0,1,19,19v13.79A19,19,0,0,1,221,209.3l-2.73,9.95a19,19,0,0,1-18.31,14Z"/><path class="cls-2" d="M216.81,235.64a18.67,18.67,0,0,1-4.21-.47l-10.67-2.43a19,19,0,0,1-12.7-27.14l22.71-44.54a19,19,0,0,1,33.82,0l22.77,44.55a19,19,0,0,1-12.88,27.19L245,235.1a19.52,19.52,0,0,1-4,.43,18.86,18.86,0,0,1-12-4.28A19.09,19.09,0,0,1,216.81,235.64Z"/><path class="cls-2" d="M270.53,234.4a38.33,38.33,0,0,1-13.37-2.34,43,43,0,0,1-9.37-4.54,32.26,32.26,0,0,1-5.55-4.27,18.88,18.88,0,0,1-1.31-25.45A31.08,31.08,0,0,1,238.35,185v-.58a30.87,30.87,0,0,1,5-16.51,32.09,32.09,0,0,1,12-11.15,34.38,34.38,0,0,1,15.31-4h.8a38,38,0,0,1,27.5,11,18.89,18.89,0,0,1,2.67,23.54,35.62,35.62,0,0,1,3.2,14.1c0,.18,0,.37,0,.57v.61a30.42,30.42,0,0,1-4.49,16.14l-.09.16a31.77,31.77,0,0,1-12.93,11.67,38.42,38.42,0,0,1-15.84,3.84h-.93Z"/><path class="cls-2" d="M315.59,234.15a19,19,0,0,1-7.8-1.68,19.05,19.05,0,0,1-3.69.68l-11.07.93c-.53,0-1.06.07-1.59.07a19,19,0,0,1-19-19V172.78a19.08,19.08,0,0,1,17.48-18.93L301,153q.75-.06,1.5-.06a19,19,0,0,1,7.73,1.64,19.11,19.11,0,0,1,3.68-.69l11.13-1c.56,0,1.12-.07,1.67-.07a19,19,0,0,1,19,19v42.44a19.1,19.1,0,0,1-17.4,18.92l-11.13.93C316.65,234.12,316.12,234.15,315.59,234.15Z"/><path class="cls-2" d="M45.16,296.24a41.54,41.54,0,0,1-12.72-2,40.4,40.4,0,0,1-14.88-8.51A40.41,40.41,0,0,1,4,255.63a41,41,0,0,1,2.87-15.12,41.72,41.72,0,0,1,8-12.77,40.13,40.13,0,0,1,27.75-13l.9,0h2.21a42.12,42.12,0,0,1,13.25,2.15,18.88,18.88,0,0,1,12.81,15.32L73.44,244a19.14,19.14,0,0,1-1.91,11.39,19.13,19.13,0,0,1,2,11.52L72,278.25a18.88,18.88,0,0,1-10.9,14.62A35,35,0,0,1,49.6,296,42.82,42.82,0,0,1,45.16,296.24Z"/><path class="cls-2" d="M82.39,296.09H81.8a43.86,43.86,0,0,1-16.16-3.5,41.22,41.22,0,0,1-13.34-9.19,39.46,39.46,0,0,1-8.69-13.82,41.78,41.78,0,0,1-2.5-14.35s0-1.16,0-1.29a39.67,39.67,0,0,1,6.17-20.43,40.32,40.32,0,0,1,15.52-14.25A41.9,41.9,0,0,1,82.6,214.4h.2A41.56,41.56,0,0,1,118.59,235,40.51,40.51,0,0,1,124,255.49s0,.53,0,.67a40.18,40.18,0,0,1-6.12,20.56A41.28,41.28,0,0,1,83,296.09Z"/><path class="cls-2" d="M134.76,298.31a19.23,19.23,0,0,1-9.53-2.63,18.9,18.9,0,0,1-6.53.4l-10.56-1.18a19,19,0,0,1-16.27-23.65l11.33-43.66a19.07,19.07,0,0,1,16.48-14.12,17.2,17.2,0,0,1,1.91-.1,19.08,19.08,0,0,1,13.57,5.74,19,19,0,0,1,15.64-5.52,19.09,19.09,0,0,1,16.29,14.22l11,43.47a19,19,0,0,1-16.76,23.56l-10.66.93c-.56.05-1.11.07-1.67.07a18.67,18.67,0,0,1-4-.43,19,19,0,0,1-10.07,2.9Z"/><path class="cls-2" d="M188.78,298.31a19.19,19.19,0,0,1-9.52-2.63,19,19,0,0,1-6.54.4l-10.56-1.18a19,19,0,0,1-16.26-23.65l11.32-43.66a19.07,19.07,0,0,1,16.48-14.12,17.33,17.33,0,0,1,1.91-.1,19.1,19.1,0,0,1,13.58,5.74,19,19,0,0,1,15.63-5.52,19.08,19.08,0,0,1,16.29,14.22l11,43.47a19,19,0,0,1-16.76,23.56l-10.66.93c-.55.05-1.11.07-1.66.07a18.61,18.61,0,0,1-4-.43,19,19,0,0,1-10.08,2.9Z"/><path class="cls-2" d="M234.43,296.29a38,38,0,0,1-16.07-3.4,32.17,32.17,0,0,1-14.18-12.61,33.68,33.68,0,0,1-5-18.06V234.47a18.9,18.9,0,0,1,17.28-18.91l10.87-1c.56-.05,1.13-.08,1.7-.08a19.07,19.07,0,0,1,7.6,1.59,18.56,18.56,0,0,1,2.67-.43l11-1c.56-.05,1.13-.08,1.69-.08a19,19,0,0,1,19,19V261c0,13.64-6.11,21.8-11.24,26.24-6.42,5.65-14.46,8.69-23.88,9h-1.42Z"/><path class="cls-2" d="M293.64,297.94A19,19,0,0,1,281,293.09l-2-1.79a19.12,19.12,0,0,1-9.62,3.64l-10.66.93c-.55.05-1.1.07-1.66.07a19,19,0,0,1-19-19V231.79a19,19,0,0,1,31.74-14.06l1.92,1.73a19.11,19.11,0,0,1,9.53-3.78l10.45-1.08c.66-.06,1.31-.1,2-.1a19,19,0,0,1,19,19V279a19,19,0,0,1-19,19Z"/><path class="cls-2" d="M301.47,295.84a19,19,0,0,1-19-19V234.57a18.94,18.94,0,0,1,17.07-18.89l10.61-1.08a17.64,17.64,0,0,1,1.92-.1,19,19,0,0,1,19,19V276A19.07,19.07,0,0,1,313.56,295l-10.61.84C302.46,295.82,302,295.84,301.47,295.84Z"/><path class="cls-2" d="M330.67,295.94a19,19,0,0,1-19-19V261.87a18.9,18.9,0,0,1-7.31-5.81,19.1,19.1,0,0,1-3.18-16.58l2.78-10a19.05,19.05,0,0,1,18.3-13.91h29.4a19,19,0,0,1,19,19v10a19.09,19.09,0,0,1-10.34,16.91V276A18.88,18.88,0,0,1,343,294.94l-10.66.93C331.78,295.92,331.23,295.94,330.67,295.94Z"/><path class="cls-2" d="M359.3,295.84a19,19,0,0,1-19-19V234.57a18.93,18.93,0,0,1,17.06-18.89L368,214.6a17.82,17.82,0,0,1,1.93-.1,19,19,0,0,1,19,19V276A19.07,19.07,0,0,1,371.4,295l-10.62.84C360.29,295.82,359.8,295.84,359.3,295.84Z"/><path class="cls-2" d="M377.33,295a19,19,0,0,1-19-19V234.57a19,19,0,0,1,19-19h24.72a18.89,18.89,0,0,1,18.5,14.73l2.12,9.16a18.88,18.88,0,0,1-2.91,15.09c.27.31.52.62.76.94a19.09,19.09,0,0,1,3,16.78l-2.72,9.16A19.11,19.11,0,0,1,402.57,295Z"/><path class="cls-2" d="M425.23,296.19a38.36,38.36,0,0,1-13.37-2.33,43.21,43.21,0,0,1-9.37-4.54,33,33,0,0,1-5.54-4.27,18.89,18.89,0,0,1-1.32-25.45,31.27,31.27,0,0,1-2.57-12.83v-.58a31,31,0,0,1,5-16.51,32,32,0,0,1,12-11.15,34.18,34.18,0,0,1,15.31-4h.79a38,38,0,0,1,27.5,11.05,18.89,18.89,0,0,1,2.68,23.55,35.58,35.58,0,0,1,3.19,14.1c0,.18,0,.37,0,.56v.62A30.55,30.55,0,0,1,455,280.52l-.1.15A31.74,31.74,0,0,1,442,292.34a38.46,38.46,0,0,1-15.84,3.84h-.94Z"/><path d="M159.65,229.7a36.47,36.47,0,0,1-11.27-1.77,35.89,35.89,0,0,1-13.17-7.52,35.24,35.24,0,0,1-8.82-12,34.68,34.68,0,0,1-3.17-14.59,36.18,36.18,0,0,1,2.54-13.37,37,37,0,0,1,7-11.32,35.29,35.29,0,0,1,24.48-11.47l.66,0h2.22a37.12,37.12,0,0,1,11.75,1.91,14.25,14.25,0,0,1,9.61,11.49l1.7,11.79a14.27,14.27,0,0,1-2.84,10.75,14.2,14.2,0,0,1,2.94,10.82l-1.59,11.38a14.25,14.25,0,0,1-8.18,11,30,30,0,0,1-9.89,2.72A36.23,36.23,0,0,1,159.65,229.7Z"/><path d="M175.15,228.47a14.25,14.25,0,0,1-14.24-14.24V172.78a14.24,14.24,0,0,1,12.87-14.18L185,157.52a12.57,12.57,0,0,1,1.37-.07,14.25,14.25,0,0,1,14.24,14.24V190h2.08a14.25,14.25,0,0,1,13.73,18L213.65,218a14.24,14.24,0,0,1-13.73,10.48Z"/><path d="M216.81,230.9a14.32,14.32,0,0,1-3.16-.36L203,228.11a14.23,14.23,0,0,1-9.52-20.35l22.71-44.55a14.25,14.25,0,0,1,12.68-7.77h0a14.25,14.25,0,0,1,12.68,7.76l22.76,44.55a14.24,14.24,0,0,1-9.66,20.39L244,230.46a14.28,14.28,0,0,1-15.07-6.32A14.25,14.25,0,0,1,216.81,230.9Z"/><path d="M270.53,229.65a33.66,33.66,0,0,1-11.72-2,39.06,39.06,0,0,1-8.42-4.05,29,29,0,0,1-4.8-3.67,14.24,14.24,0,0,1-.89-19.2l1.87-2.25c-.35-.6-.67-1.22-1-1.87A26.25,26.25,0,0,1,243.1,185v-.5a26.38,26.38,0,0,1,4.21-14,27.53,27.53,0,0,1,10.27-9.53,29.28,29.28,0,0,1,13.18-3.45h.69a33.34,33.34,0,0,1,24.12,9.67,14.23,14.23,0,0,1,.89,19.19l-.46.56a29.71,29.71,0,0,1,4.05,14.67c0,.14,0,.29,0,.43v.61a25.85,25.85,0,0,1-3.79,13.67l-.09.14a27,27,0,0,1-11,9.91,33.69,33.69,0,0,1-13.88,3.34h-.77Z"/><path d="M291.44,229.4a14.24,14.24,0,0,1-14.24-14.24V172.78a14.24,14.24,0,0,1,13.11-14.2l11.08-.88c.37,0,.75,0,1.12,0a14.21,14.21,0,0,1,7.39,2.07,14.22,14.22,0,0,1,4.44-1.13l11.12-1q.63-.06,1.26-.06A14.25,14.25,0,0,1,341,171.79v42.44a14.25,14.25,0,0,1-13.06,14.19l-11.12.93c-.4,0-.8.05-1.19.05a14.27,14.27,0,0,1-7.43-2.09,14.33,14.33,0,0,1-4.45,1.11l-11.08.93C292.23,229.38,291.83,229.4,291.44,229.4Z"/><path d="M45.16,291.5a36.76,36.76,0,0,1-11.26-1.77,35.81,35.81,0,0,1-13.18-7.53,35.29,35.29,0,0,1-8.82-12,34.83,34.83,0,0,1-3.17-14.59,36.19,36.19,0,0,1,2.55-13.37,36.67,36.67,0,0,1,7-11.32,35.7,35.7,0,0,1,10.84-8.05,35.15,35.15,0,0,1,13.63-3.42l.67,0h2.21a37.14,37.14,0,0,1,11.76,1.91A14.22,14.22,0,0,1,67,232.84l1.7,11.8a14.23,14.23,0,0,1-2.83,10.74,14.27,14.27,0,0,1,2.94,10.83l-1.6,11.38a14.23,14.23,0,0,1-8.17,11,30.4,30.4,0,0,1-9.9,2.72A38.83,38.83,0,0,1,45.16,291.5Z"/><path d="M82.39,291.35H82a39,39,0,0,1-14.44-3.12,36.42,36.42,0,0,1-11.8-8.12,34.6,34.6,0,0,1-7.65-12.18,36.88,36.88,0,0,1-2.21-12.7V254a35,35,0,0,1,5.44-18A35.68,35.68,0,0,1,65,223.46a37.22,37.22,0,0,1,17.59-4.31h.2a36.75,36.75,0,0,1,31.68,18.25,35.79,35.79,0,0,1,4.81,18.09s0,.44,0,.55a35.41,35.41,0,0,1-5.4,18.16A36.54,36.54,0,0,1,83,291.35Z"/><path d="M134.76,293.56a14.27,14.27,0,0,1-8.75-3.09,14.28,14.28,0,0,1-5.18,1,14.44,14.44,0,0,1-1.6-.09l-10.56-1.18a14.24,14.24,0,0,1-12.2-17.73l11.33-43.67a14.22,14.22,0,0,1,12.35-10.59,13.88,13.88,0,0,1,1.44-.07,14.25,14.25,0,0,1,12.79,8l.76,1.56L136,226a14.22,14.22,0,0,1,12.68-7.77,14.44,14.44,0,0,1,1.6.09A14.22,14.22,0,0,1,162.48,229l11,43.46a14.25,14.25,0,0,1-12.57,17.67l-10.67.93c-.41,0-.83.06-1.25.06a14,14,0,0,1-4.92-.89,14.21,14.21,0,0,1-9.17,3.35Z"/><path d="M188.78,293.56a14.29,14.29,0,0,1-8.75-3.09,14.28,14.28,0,0,1-5.18,1,14.44,14.44,0,0,1-1.6-.09l-10.56-1.18a14.25,14.25,0,0,1-12.2-17.73l11.33-43.67a14.25,14.25,0,0,1,12.36-10.59,13.83,13.83,0,0,1,1.43-.07,14.24,14.24,0,0,1,12.79,8l.76,1.56L190,226a14.25,14.25,0,0,1,26.5,3l11,43.46a14.23,14.23,0,0,1-12.57,17.67l-10.66.93c-.42,0-.84.06-1.25.06a14,14,0,0,1-4.93-.89,14.19,14.19,0,0,1-9.17,3.35Z"/><path d="M234.43,291.55a33.19,33.19,0,0,1-14.07-3,27.43,27.43,0,0,1-12.13-10.77A29.1,29.1,0,0,1,204,262.22V234.47a14.23,14.23,0,0,1,13-14.18l10.86-1c.43,0,.86-.06,1.28-.06a14.25,14.25,0,0,1,7.14,1.92,13.87,13.87,0,0,1,3.55-.78l11-1c.43,0,.85-.06,1.27-.06a14.25,14.25,0,0,1,14.25,14.24V261c0,11.85-5.23,18.86-9.61,22.66-5.57,4.9-12.64,7.56-20.93,7.84h-1.26Z"/><path d="M293.64,293.2a14.22,14.22,0,0,1-9.51-3.64l-5.26-4.72a14.19,14.19,0,0,1-9.94,5.37l-10.67.93c-.41,0-.82.06-1.24.06A14.26,14.26,0,0,1,242.78,277V231.79a14.24,14.24,0,0,1,23.81-10.55l5.23,4.75a14.2,14.2,0,0,1,9.9-5.58l10.45-1.09a14.46,14.46,0,0,1,1.47-.07,14.23,14.23,0,0,1,14.24,14.24V279a14.26,14.26,0,0,1-14.24,14.25Z"/><path d="M301.47,291.09a14.23,14.23,0,0,1-14.24-14.24V234.57A14.25,14.25,0,0,1,300,220.4l10.61-1.08a13.88,13.88,0,0,1,1.44-.07,14.23,14.23,0,0,1,14.24,14.24V276a14.24,14.24,0,0,1-13.13,14.2l-10.61.83C302.21,291.08,301.84,291.09,301.47,291.09Z"/><path d="M330.67,291.2A14.26,14.26,0,0,1,316.43,277V258.48a14.26,14.26,0,0,1-10.65-17.73l2.78-10a14.23,14.23,0,0,1,13.72-10.43h29.4a14.25,14.25,0,0,1,14.25,14.24v10a14.25,14.25,0,0,1-10.35,13.7V276a14.24,14.24,0,0,1-13,14.19l-10.67.93C331.5,291.18,331.09,291.2,330.67,291.2Z"/><path d="M359.3,291.09a14.23,14.23,0,0,1-14.24-14.24V234.57a14.25,14.25,0,0,1,12.8-14.17l10.61-1.08a13.94,13.94,0,0,1,1.45-.07,14.24,14.24,0,0,1,14.24,14.24V276A14.24,14.24,0,0,1,371,290.22l-10.62.83C360,291.08,359.67,291.09,359.3,291.09Z"/><path d="M377.33,290.27A14.25,14.25,0,0,1,363.09,276V234.57a14.25,14.25,0,0,1,14.24-14.24h24.72a14.25,14.25,0,0,1,13.88,11l2.11,9.17a14.27,14.27,0,0,1-2.73,12.07,16.31,16.31,0,0,1-1.44,1.55v1.32a14.8,14.8,0,0,1,2.84,2.86,14.22,14.22,0,0,1,2.23,12.58l-2.72,9.17a14.24,14.24,0,0,1-13.65,10.18Z"/><path d="M425.23,291.45a33.74,33.74,0,0,1-11.72-2,39.2,39.2,0,0,1-8.41-4.06,29.17,29.17,0,0,1-4.8-3.66,14.23,14.23,0,0,1-.9-19.2l1.87-2.25c-.34-.6-.67-1.23-1-1.87a26.15,26.15,0,0,1-2.5-11.6v-.5a26.25,26.25,0,0,1,4.22-14,27.42,27.42,0,0,1,10.26-9.53,29.39,29.39,0,0,1,13.18-3.46h.69a33.37,33.37,0,0,1,24.13,9.66,14.24,14.24,0,0,1,.88,19.2l-.46.56a29.69,29.69,0,0,1,4.06,14.67v1A25.78,25.78,0,0,1,451,278.05l-.08.14a27.18,27.18,0,0,1-11,9.91A33.73,33.73,0,0,1,426,291.44h-.78Z"/><path class="cls-3" d="M167.43,173.08l1.7,11.79a11.56,11.56,0,0,0-8-3.14,12.11,12.11,0,0,0-8.92,3.61,11.52,11.52,0,0,0-3.44,8.44v.52a11.17,11.17,0,0,0,4.12,8.39,11.72,11.72,0,0,0,7.82,2.94,7.7,7.7,0,0,0,.83,0,12.77,12.77,0,0,0,7.72-3.15l-1.6,11.38a15.94,15.94,0,0,1-5.35,1.5,23.59,23.59,0,0,1-2.63.15,22.41,22.41,0,0,1-6.9-1.08,21.75,21.75,0,0,1-8-4.58,21,21,0,0,1-5.35-7.27,20.44,20.44,0,0,1-1.9-8.7A22,22,0,0,1,139,185.7a22.45,22.45,0,0,1,4.32-6.95,21.26,21.26,0,0,1,6.54-4.84,20.79,20.79,0,0,1,8.08-2h2.22A22.81,22.81,0,0,1,167.43,173.08Z"/><path class="cls-3" d="M186.33,171.69v32.59h16.32l-2.73,9.95H175.15V172.78Z"/><path class="cls-3" d="M206.14,214.23l22.72-44.55,22.76,44.55L241,216.54l-4.54-9.48H220.82l-4,9.59Zm26.63-15.92L228.54,189l-4.11,9.32Z"/><path class="cls-3" d="M285.52,177.2l-6.14,7.37c0-.18-.26-.54-.77-1.08a8.88,8.88,0,0,0-2.42-1.5,10,10,0,0,0-3.86-.78H272a4.61,4.61,0,0,0-2.36.63,2.82,2.82,0,0,0-1.4,2.11,1.9,1.9,0,0,0-.05.4,2.47,2.47,0,0,0,1,2,8,8,0,0,0,3.05,1.44c1.23.38,2.45.74,3.65,1.08,3.58,1.07,6.11,2.66,7.62,4.79a15.23,15.23,0,0,1,2.37,8.29v.61a11.74,11.74,0,0,1-1.7,6.24,12.88,12.88,0,0,1-5.31,4.74,19.29,19.29,0,0,1-8,1.85h-.3a19.25,19.25,0,0,1-6.85-1.18,25.9,25.9,0,0,1-5.46-2.57,22,22,0,0,1-2.58-1.86l6.44-7.73a15.63,15.63,0,0,0,3,2.37,7.4,7.4,0,0,0,4.16,1.19c.35,0,.69,0,1,0a9.58,9.58,0,0,0,3.45-.88,2.8,2.8,0,0,0,1.28-2.63V202a2.54,2.54,0,0,0-1.54-2.32,28.34,28.34,0,0,0-4.79-1.81,22.34,22.34,0,0,1-4.23-1.43,21.77,21.77,0,0,1-3.44-2.42,10.26,10.26,0,0,1-2.63-3.6,12.08,12.08,0,0,1-1.08-5.42v-.3a12.22,12.22,0,0,1,2-6.54,13.52,13.52,0,0,1,5-4.69,15.16,15.16,0,0,1,6.81-1.75h.3A19.09,19.09,0,0,1,285.52,177.2Z"/><path class="cls-3" d="M315.59,215.16V197.64H302.51v16.59l-11.07.93V172.78l11.07-.88v16.16h13.08V172.78l11.13-1v42.44Z"/><path class="cls-3" d="M53,234.87l1.69,11.8a11.51,11.51,0,0,0-8-3.15,12.11,12.11,0,0,0-8.91,3.61,11.51,11.51,0,0,0-3.45,8.45v.52a11.16,11.16,0,0,0,4.13,8.38,11.7,11.7,0,0,0,7.82,2.94,5.87,5.87,0,0,0,.83-.05,12.73,12.73,0,0,0,7.71-3.14l-1.59,11.38a16,16,0,0,1-5.36,1.49,21.33,21.33,0,0,1-2.63.16,22.42,22.42,0,0,1-6.9-1.09,21.69,21.69,0,0,1-8-4.57,21.09,21.09,0,0,1-5.36-7.27,20.59,20.59,0,0,1-1.9-8.7,21.88,21.88,0,0,1,1.55-8.13,22.34,22.34,0,0,1,4.33-7,21.42,21.42,0,0,1,6.53-4.84,21.2,21.2,0,0,1,8.09-2h2.21A23.2,23.2,0,0,1,53,234.87Z"/><path class="cls-3" d="M82.8,233.39a22.55,22.55,0,0,1,19.37,11.17,21.52,21.52,0,0,1,2.88,10.93v.2a21.26,21.26,0,0,1-3.25,11A22.22,22.22,0,0,1,83,277.1h-.61a25,25,0,0,1-9.22-2A22.07,22.07,0,0,1,66,270.2a20.43,20.43,0,0,1-4.53-7.2,22.51,22.51,0,0,1-1.33-7.78v-.81a20.79,20.79,0,0,1,3.24-10.77,21.46,21.46,0,0,1,8.29-7.57,23,23,0,0,1,11-2.68Zm-.51,10a10.86,10.86,0,0,0-6,1.84A12.65,12.65,0,0,0,72,249.92a11.77,11.77,0,0,0-1.44,5.67v.61a10.54,10.54,0,0,0,2,5.67A12.38,12.38,0,0,0,77.25,266a11.1,11.1,0,0,0,5.24,1.34H83a11.84,11.84,0,0,0,8.3-4.27,11,11,0,0,0,3.14-7.56c0-.41,0-.83,0-1.25a12.75,12.75,0,0,0-2-5.6,11.79,11.79,0,0,0-4.38-4,12,12,0,0,0-5.56-1.34Z"/><path class="cls-3" d="M110.25,276l11.33-43.66,13.29,27.18,13.8-27.08,11,43.46-10.66.93-3.45-18.44-10.66,20.91-10.35-21.11-3.71,19Z"/><path class="cls-3" d="M164.28,276l11.33-43.66,13.28,27.18,13.81-27.08,11,43.46-10.66.93-3.44-18.44-10.67,20.91-10.34-21.11-3.71,19Z"/><path class="cls-3" d="M218.2,262.22V234.47l10.86-1v26.93q0,6.69,5.68,6.69c.27,0,.56,0,.87-.05q3.55-.3,4.49-2.36a11.76,11.76,0,0,0,.92-4.79V234.57l11-1V261q0,7.83-4.68,11.89a18.67,18.67,0,0,1-12.09,4.38h-.78a19,19,0,0,1-8.09-1.65,13.39,13.39,0,0,1-6-5.31A15,15,0,0,1,218.2,262.22Z"/><path class="cls-3" d="M257,277V231.79l26.16,23.74v-21l10.45-1.08V279l-25.95-23.27V276Z"/><path class="cls-3" d="M301.47,276.85V234.57l10.61-1.08V276Z"/><path class="cls-3" d="M351.68,244.57H341.34V276l-10.66.93V244.57H319.5l2.78-10h29.4Z"/><path class="cls-3" d="M359.3,276.85V234.57l10.61-1.08V276Z"/><path class="cls-3" d="M377.33,276V234.57h24.72l2.11,9.17H388v6.54h11.63v9.16H387.89v7.42h17.4L402.57,276Z"/><path class="cls-3" d="M440.22,239l-6.14,7.36c0-.17-.25-.53-.76-1.08a8.72,8.72,0,0,0-2.43-1.49A10,10,0,0,0,427,243h-.36a4.62,4.62,0,0,0-2.37.63,2.79,2.79,0,0,0-1.39,2.11,1.37,1.37,0,0,0-.05.4,2.41,2.41,0,0,0,1,2,8.13,8.13,0,0,0,3,1.45q1.85.57,3.66,1.08,5.35,1.59,7.62,4.79a15.25,15.25,0,0,1,2.36,8.28v.62a11.67,11.67,0,0,1-1.7,6.24,12.91,12.91,0,0,1-5.3,4.74,19.54,19.54,0,0,1-8,1.85h-.3a19.29,19.29,0,0,1-6.85-1.19,24.63,24.63,0,0,1-5.45-2.57,21.14,21.14,0,0,1-2.58-1.85l6.43-7.73a16.17,16.17,0,0,0,3.05,2.37,7.37,7.37,0,0,0,4.16,1.18,8.88,8.88,0,0,0,1-.05,9.13,9.13,0,0,0,3.45-.88,2.77,2.77,0,0,0,1.29-2.62v-.11a2.54,2.54,0,0,0-1.55-2.31,26.41,26.41,0,0,0-4.79-1.81,22.92,22.92,0,0,1-4.22-1.43,20.85,20.85,0,0,1-3.45-2.43,10.1,10.1,0,0,1-2.62-3.59,12.11,12.11,0,0,1-1.08-5.42v-.3a12.09,12.09,0,0,1,2-6.54,13.29,13.29,0,0,1,5-4.69,15.15,15.15,0,0,1,6.8-1.75h.3A19.09,19.09,0,0,1,440.22,239Z"/><path d="M220.39,250.77a25,25,0,0,1-9.22-2,22.59,22.59,0,0,1-7.36-5.06,21.36,21.36,0,0,1-4.71-7.48,23.13,23.13,0,0,1-1.37-7.94v-.79a21.66,21.66,0,0,1,3.36-11.12,22,22,0,0,1,8.51-7.79,23.42,23.42,0,0,1,11.09-2.72h.17A23,23,0,0,1,232.38,209a22.74,22.74,0,0,1,8.26,8.27,22.15,22.15,0,0,1,3,11.23v.27a22.08,22.08,0,0,1-3.35,11.28A22.78,22.78,0,0,1,221,250.77ZM215.18,229a4.25,4.25,0,0,0,.84,2.25l.07.09a5.74,5.74,0,0,0,2.21,2,4.91,4.91,0,0,0,2.3.62h.29a5.36,5.36,0,0,0,3.69-2.06,4.65,4.65,0,0,0,1.46-3.28q0-.32,0-.63a5.92,5.92,0,0,0-.94-2.64,5.24,5.24,0,0,0-2-1.79,5.42,5.42,0,0,0-2.5-.58h-.13a4.58,4.58,0,0,0-2.52.79,6,6,0,0,0-2.09,2.28,5.27,5.27,0,0,0-.68,2.61Z"/><path d="M239.2,250.73a4.43,4.43,0,0,1-4.42-4.41v-35a4.42,4.42,0,0,1,4.42-4.42h19.14a4.4,4.4,0,0,1,4.24,3.2l2.17,7.55a4.42,4.42,0,0,1-4.12,5.64,4.43,4.43,0,0,1,1.07,2.88v7.72a4.42,4.42,0,0,1-4.42,4.42h-4.8v7.17a4.42,4.42,0,0,1-4,4.4l-8.87.85A3,3,0,0,1,239.2,250.73Z"/><path class="cls-2" d="M223.07,215.9a12.8,12.8,0,0,1,11,6.36,12.25,12.25,0,0,1,1.64,6.22v.11a12.08,12.08,0,0,1-1.85,6.24,12.69,12.69,0,0,1-10.7,5.95h-.35a14.29,14.29,0,0,1-5.24-1.11,12.71,12.71,0,0,1-4.1-2.82,11.68,11.68,0,0,1-2.58-4.1,12.69,12.69,0,0,1-.76-4.43v-.46a11.81,11.81,0,0,1,1.85-6.13,12.14,12.14,0,0,1,4.71-4.3A13.1,13.1,0,0,1,223,215.9Zm-.29,5.66a6.25,6.25,0,0,0-3.4,1.05,7.26,7.26,0,0,0-2.46,2.7,6.65,6.65,0,0,0-.82,3.22v.35a6,6,0,0,0,1.14,3.23,7.1,7.1,0,0,0,2.67,2.37,6.32,6.32,0,0,0,3,.76h.29a6.74,6.74,0,0,0,4.72-2.43,6.29,6.29,0,0,0,1.79-4.31c0-.23,0-.47,0-.7a7.26,7.26,0,0,0-1.11-3.19,6.8,6.8,0,0,0-2.49-2.28,6.87,6.87,0,0,0-3.17-.77Z"/><path class="cls-2" d="M238.63,240.75V216.57h13.22l1.49,5.22h-8.58v5h6.36v5.33h-6.36v8Z"/><g id="oso"><polygon class="cls-4" points="71.75 172.72 84.09 182.31 101.45 179.63 108.48 179.9 123.91 183.25 139.04 174.07 135.82 171.25 128.82 172.06 124.73 174.97 121.93 178.59 105.58 175.07 86.96 178.39 81.69 172.06 75.12 170.95 71.75 172.72"/><path class="cls-5" d="M84.59,181.44C80.5,172.26,70,172.56,70,172.56s-5,1.66-5.59,9.68c-.43,6.44,4.63,8.55,5.45,13,.72,3.9-4.51,5.95-5.45,10.32-1.1,5.13.86,13.45,1,14.88,0,0,8.47,19.57,38,18.63S144.28,223.4,145,211.74c0,0,.38-3.4-2.87-9.79s-3.44-10-3.44-10,10.7-7.66,3.28-16.74c-11.58-6.3-18.18,5.65-18,6.34A60.55,60.55,0,0,0,104,177.82C94.67,177.81,85.63,181.1,84.59,181.44Z"/><path class="cls-4" d="M80,235.13s-10.19-13.88-11.48-18.9,1.72-10.39,1.72-10.39,1.51-14.52,6.17-18.4L63.77,205.28v9.86l1.4,5.43Z"/><path class="cls-1" d="M111.34,237.82s16-5.25,18.84-10.06c0,0,.22,2-.35,2.71s12.7-9.35,9.14-17.26a11,11,0,0,1,4.7,4.54c-.54,1.94-7.52,10.75-12.85,14.34C122.45,237.29,111.34,237.82,111.34,237.82Z"/><path class="cls-1" d="M132.92,180.16s2.73-5,7.48.6a11,11,0,0,1-3.1,10.54l-2.06-2,1.58-5Z"/><path class="cls-1" d="M75.52,179.71s-2.72-5-7.47.6a11.05,11.05,0,0,0,3.09,10.54l2.06-1.95-1.57-5Z"/><ellipse class="cls-6" cx="119.16" cy="202.58" rx="5.38" ry="5.77"/><polygon class="cls-7" points="87.5 213.38 94.17 207.55 98.47 205.33 102.67 204.43 107.3 204.53 110.53 205.53 113.86 207.04 115.91 209.05 120.43 212.77 122.9 216.7 123.44 222.63 121.72 227.05 113.54 235.9 104.72 238.91 96 236.1 90.4 231.88 86.85 227.05 85.02 221.62 85.78 216.9 87.5 213.38"/><path class="cls-8" d="M98.18,235.49s11.45,3,17.71-5.33l-.47,2.93-5,3.83-5.63,1.52H101Z"/><polygon class="cls-6" points="94.2 224.27 98.58 224.74 104.89 223.53 110.92 224.67 115.51 223.26 115.01 225.41 111.93 227.55 107.33 228.9 102.96 229.16 98.37 228.22 96 226.82 94.2 224.27"/><path d="M104.78,230.15c9.4-.25,12-5.92,12.38-7.26l-.85-.35s-2.52,5.67-11.45,5.75h-.12c-8.93-.08-11.45-5.75-11.45-5.75l-.85.35c.41,1.34,3,7,12.38,7.26Z"/><path d="M104.78,209.88c1.1,0,2.19,0,3.28.1a14.87,14.87,0,0,1,3.73.8,2.81,2.81,0,0,1,1.71,4.31,7.24,7.24,0,0,1-3.58,3.14c-1.33.6-2.68,1.17-4,1.72-.31.13-.42.22-.37.58a3.93,3.93,0,0,0,3.45,3.11,8.36,8.36,0,0,0,8.89-5.11c.15-.35.07-.56-.31-.65-.56-.14-1.14-.26-1.7-.39a2.31,2.31,0,0,1,2.7-.66c1.46.42,2.81,1.77,2.6,3.29L119.69,219c-.47.87-.83,1.71-1.34,2.46a9.59,9.59,0,0,1-8.91,4.33,18,18,0,0,1-3.53-.72,4.57,4.57,0,0,0-1-.15h-.2a4.57,4.57,0,0,0-1,.15,18.08,18.08,0,0,1-3.54.72,9.57,9.57,0,0,1-8.9-4.33A23.77,23.77,0,0,1,89.91,219l-1.47,1.15c-.2-1.52,1.14-2.87,2.6-3.29a2.32,2.32,0,0,1,2.71.66l-1.71.39c-.38.09-.45.3-.3.65a8.35,8.35,0,0,0,8.89,5.11,3.9,3.9,0,0,0,3.44-3.11c.06-.36-.06-.45-.37-.58-1.35-.55-2.69-1.12-4-1.72a7.2,7.2,0,0,1-3.58-3.14,2.81,2.81,0,0,1,1.7-4.31,15,15,0,0,1,3.74-.8c1.08-.07,2.18-.1,3.28-.1Z"/><path class="cls-9" d="M105,214.32c1.05-.09,2.14-.32,3.18-.5,1.22-.21,3-1.14,2.55-1.19-2-.19-3.67-.49-5.63-.51h-.42a39.11,39.11,0,0,0-5.47.68c-.48.07,1.22.8,2.76,1.14C102.74,214.12,105,214.32,105,214.32Z"/><path d="M96.42,206.71l-.51.28a10.25,10.25,0,0,1,8.39-3.65,10.64,10.64,0,0,1,8.44,3.65l-.51-.28c-2.06-1.21-6.6-1.38-8-1.38S98.48,205.5,96.42,206.71Z"/><path d="M109.33,194.29c-.32-1.92,2.15-4.38,5.55-5.39A16.19,16.19,0,0,0,109.33,194.29Z"/><path d="M100.21,194.29c.33-1.92-2.15-4.38-5.55-5.39A16.19,16.19,0,0,1,100.21,194.29Z"/><path d="M104.17,238.88c-2,0-9.89-1.37-15.71-2.88a47.34,47.34,0,0,1-14.15-6.77c-3.28-2.78-8.33-8.17-5.9-13.84a33.08,33.08,0,0,0-2.89,2.47,2.12,2.12,0,0,1-.37-1c-.54-3.91,1.54-6.86,3.9-9.63l-4.16-1.07a15,15,0,0,0,5-6.16c1.09-2.11,2.11-4.25,3.21-6.35,2-3.87,3.85-7.87,7.88-10.43a17.55,17.55,0,0,0-3.4-5,6,6,0,0,0-4.84-1.92c-2.75.3-4.28,2.24-5.09,4.36,0,0,.11.1.16.15l1.74-1.65a4.17,4.17,0,0,1,3.67-.65,3.64,3.64,0,0,1,2.07,1.7c-1,.15-1.87-.14-3,.62a4,4,0,0,0-1.65,2.54,6.41,6.41,0,0,0,0,2.58,12.43,12.43,0,0,0,1.41,2.59,1.07,1.07,0,0,1,0,1.35c-.39.47-.75,1-1.11,1.46l-.49.64c-1-.93-2-1.77-2.78-2.74A10.41,10.41,0,0,1,67.41,176c2.47-3,5.89-4.05,9.81-3.27a9,9,0,0,1,7.4,6.5c.23.76.4,1.53.6,2.35,5.14-2.91,12.52-5.46,19.06-5.43s13.62,2.52,18.76,5.43c.2-.82.37-1.59.59-2.35a9,9,0,0,1,7.41-6.5c3.92-.78,7.34.25,9.81,3.27a10.41,10.41,0,0,1-.28,13.23c-.82,1-1.83,1.81-2.78,2.74l-.49-.64c-.37-.49-.72-1-1.11-1.46a1.06,1.06,0,0,1,0-1.35,11.9,11.9,0,0,0,1.4-2.59,6.07,6.07,0,0,0,0-2.58,3.93,3.93,0,0,0-1.64-2.54c-1.15-.76-2-.47-3-.62a3.64,3.64,0,0,1,2.07-1.7,4.17,4.17,0,0,1,3.67.65l1.74,1.65s.17-.12.15-.15c-.8-2.12-2.33-4.06-5.08-4.36a6,6,0,0,0-4.84,1.92,17.35,17.35,0,0,0-3.4,5c4,2.56,5.85,6.56,7.88,10.43,1.1,2.1,2.12,4.24,3.21,6.35a15,15,0,0,0,5.05,6.16l-4.16,1.07c2.36,2.77,4.43,5.72,3.89,9.63a2,2,0,0,1-.37,1,34.06,34.06,0,0,0-2.88-2.47c2.43,5.67-2.82,11.29-5.9,13.84a48,48,0,0,1-12,6.17,87.34,87.34,0,0,1-11.44,2.68,27,27,0,0,1-6.32.8l-.06,1.91a29.77,29.77,0,0,0,6.23-.38,96.91,96.91,0,0,0,10.59-2c6-1.54,11.67-3.83,16.34-7.87a20.42,20.42,0,0,0,5-6.15c.13-.26.25-.53.39-.83l.68.87c.49.61.58.63,1.05,0A14.79,14.79,0,0,0,146.8,213a36.21,36.21,0,0,0-1.45-4.79c.69-.55,1.53-1.12,2.23-1.8s.7-1.16-.17-1.88c-1.14-1-2.29-1.9-3.37-2.91-2.2-2.1-3.31-4.78-4.33-7.08,1.08-1.14,2.08-2.08,2.93-3.12A14.05,14.05,0,0,0,145.9,180a11.51,11.51,0,0,0-5.67-8.42,13.4,13.4,0,0,0-8.89-1.73,12.87,12.87,0,0,0-8.21,4.14,39.4,39.4,0,0,0-2.4,3.21,50.22,50.22,0,0,0-12.9-3.48,26.21,26.21,0,0,0-7.4,0,50.22,50.22,0,0,0-12.9,3.48c-.8-1.08-1.5-2.21-2.4-3.21a12.87,12.87,0,0,0-8.21-4.14A13.39,13.39,0,0,0,68,171.57,11.51,11.51,0,0,0,62.36,180a14.05,14.05,0,0,0,3.26,11.4c.85,1,1.85,2,2.92,3.12-1,2.3-2.12,5-4.33,7.08-1.07,1-2.22,1.95-3.36,2.91-.87.72-1,1.09-.17,1.88a27.07,27.07,0,0,0,2.23,1.8A36.25,36.25,0,0,0,61.45,213,14.84,14.84,0,0,0,63.9,224.4c.47.65.55.63,1.05,0l.68-.87c.14.3.26.57.39.83a20.42,20.42,0,0,0,5,6.15c4.67,4,10.33,6.33,16.34,7.87a96.91,96.91,0,0,0,10.59,2c2.17.31,6.19.38,6.19.38Z"/><path d="M95.57,237.19c-.27-.23-4.6-3.43-4.82-3.62s-.49-.43-.72-.66c-3.74-3.87-6.1-8.26-5.79-13.62a10.65,10.65,0,0,1,4.22-7.79c.61-.5,1.25-1,2-1.52A6.7,6.7,0,0,1,85,207.06a7,7,0,0,1-1.08-5.79c.68-3.09,3.58-6.09,6.84-5.48-2.86-3.13-6.2-4.31-9.58-1,.46-2.54,3-5.26,5.86-4.86a10,10,0,0,1,3.29,1.21c2.52,1.35,4.28,3.46,6.08,5.53A23.42,23.42,0,0,0,99,199.36c.89.76,1.53.51,1.83-.6.12-.44.18-.9.28-1.4,1.52,1.63.62,4.94-1.45,5.37a8.74,8.74,0,0,1-2.15-.07,7.78,7.78,0,0,1-1.62,5.21,6.06,6.06,0,0,1-2.53,1.89,7.06,7.06,0,0,0-1.81,1c-2,1.65-3.91,3.4-4.86,5.78a10.22,10.22,0,0,0,.74,9,23,23,0,0,0,6.37,7.31,45.77,45.77,0,0,0,4.64,3.11,12.44,12.44,0,0,0,5.94,1.48,11.8,11.8,0,0,0,5.76-1.48,45.77,45.77,0,0,0,4.64-3.11,23,23,0,0,0,6.37-7.31,10.22,10.22,0,0,0,.74-9c-1-2.38-2.87-4.13-4.86-5.78a7.06,7.06,0,0,0-1.81-1,6.06,6.06,0,0,1-2.53-1.89,7.78,7.78,0,0,1-1.62-5.21,8.74,8.74,0,0,1-2.15.07c-2.07-.43-3-3.74-1.45-5.37.1.5.16,1,.28,1.4.3,1.11.94,1.36,1.83.6a23.42,23.42,0,0,0,2.62-2.65c1.8-2.07,3.56-4.18,6.08-5.53A10,10,0,0,1,121.6,190c2.82-.4,5.4,2.32,5.86,4.86-3.38-3.35-6.72-2.17-9.59,1,3.27-.61,6.17,2.39,6.85,5.48a7,7,0,0,1-1.08,5.79,6.7,6.7,0,0,1-5.42,2.92c.71.55,1.35,1,2,1.52a10.65,10.65,0,0,1,4.22,7.79c.31,5.36-2.05,9.75-5.79,13.62-.23.23-.48.44-.72.66s-4.55,3.39-4.82,3.62c0,0-2.74,1.93-8.71,1.93C97.88,239.12,96,237.47,95.57,237.19Z"/><path class="cls-6" d="M115.92,207.67c.06.09.07.15.1.17l.25.13a4.71,4.71,0,0,0,4.33-.49c2.65-1.53,3.32-5.7,1.31-8.21a3.38,3.38,0,0,0-4.81-.51,3.55,3.55,0,0,1,3.09,3.33,5.3,5.3,0,0,1-.82,3.72A4.47,4.47,0,0,1,115.92,207.67Z"/><path class="cls-6" d="M118.2,201.49a1.11,1.11,0,0,0-1-1.22,1.51,1.51,0,0,0-1.26,1.46,1,1,0,0,0,1.07,1A1.11,1.11,0,0,0,118.2,201.49Z"/><path class="cls-6" d="M89.22,205.81a5.34,5.34,0,0,1-.81-3.72,3.55,3.55,0,0,1,3.09-3.33,3.38,3.38,0,0,0-4.81.51c-2,2.51-1.34,6.68,1.31,8.21a4.71,4.71,0,0,0,4.33.49l.25-.13s0-.08.1-.17A4.51,4.51,0,0,1,89.22,205.81Z"/><path class="cls-6" d="M91.61,202.69a1,1,0,0,0,1.07-1,1.52,1.52,0,0,0-1.26-1.46,1.22,1.22,0,0,0,.19,2.42Z"/></g><g id="Guepardo"><path class="cls-10" d="M392.51,181.21l3.55-3.79a3,3,0,0,1,2.45,1.31c.72,1.32,3.57,4.4-2.77,11.67l-1.85-3.06.92-3.14-.12-1.43Z"/><polygon class="cls-11" points="401.44 181.18 400.8 174.68 397.01 171.11 390.99 171.33 386.39 174.9 383.75 176.88 372.08 174.13 367.09 174.19 351.03 176.53 339.8 170.39 334 174.07 332.28 181.85 345.23 180.21 369.34 178.37 379.44 179.21 384.87 181.78 388.65 181.78 391.09 178.59 392.88 175.45 395.42 175.34 398.52 178.18 401.24 182.39 401.44 181.18"/><path class="cls-7" d="M401.82,182.34s-5.07-14.19-12.37-4.36a7.28,7.28,0,0,1-3.63,2.51s-5-2-8-2.88a22.06,22.06,0,0,0-9.29-.73,60.3,60.3,0,0,0-7.92.21c-2.15.39-10.67,2.71-10.67,2.71s-6-5.12-10.52-5.09-7.08,6.51-6.67,8.6,5.46,9,5.46,9l-2.68,8.49-3.61,3.68-.09,16.57,2.4-.61,6.76,9.31,9.25,4.6,18.31,4.28,8.77-3.19,6.69-.69,7.59-6-.27,1.48,5.85-3.87,3.18-8.51,2.41,2.25.77-7.93L400,206.59l4.1-1.63-5.8-5.43-7.76-16.4s1.46-3.54,4-5.15a2.82,2.82,0,0,1,4,.75s3,4.36-2.77,11.67l.76,1.45,3.64-3Z"/><path class="cls-11" d="M394.09,226.58l4.67-10.9,1.67.86s1.2-3.7-1.15-10.44c0,0-5.42-11.62-5.19-13.79l6.55,9.92,1.87,3.5-1.07,2.54,2.37,9.22-1.3,3.57L400,218.75l-3.08,8.58-3.42,1.84Z"/><path class="cls-2" d="M393.79,228.17l1-5.46s-7.12,8.08-14.78,9.51l.66-2.61-3.21,4.74,2.25,1.28,8.83-3.41,5-2.47Z"/><path class="cls-2" d="M336,179.31c-1.91,3.6,3,11.58,3,11.58l2.18-3.61.23-4.07.28-4.63S337.22,177,336,179.31Z"/><path class="cls-2" d="M358.71,234s-15.46-4.7-18.25-11.73l-.24,3.89s-6.41-8.91-2.78-15.14c0,0-4.77,5-6.23,6.41a10,10,0,0,0,.49,3.28l3-3.28s-1.48,4.16,4.18,9.77C347.15,234.77,358.71,234,358.71,234Z"/><path class="cls-12" d="M367.24,237.71c-1.77,0-12.35-2.73-14.33-13.27-2.22-12.38,7.79-11.15,7.79-11.15L368,217l7-3.71s10.94-1.5,8.33,10.53C379.34,235.16,369,237.71,367.24,237.71Z"/><path class="cls-13" d="M367.49,205.28c-.95,0-3.61.32-5.55.5a10.27,10.27,0,0,1,5.66-2.29,9.49,9.49,0,0,1,5.44,2.25C371.1,205.57,368.44,205.3,367.49,205.28Z"/><path class="cls-13" d="M372.22,192.75a12.18,12.18,0,0,0,.92-1c.63-.88,1.25-1.78,1.86-2.69.25-.38.35-.88-.05-1.13a1,1,0,0,0-1,.11,5.33,5.33,0,0,0-1.89,3.86A4.61,4.61,0,0,0,372.22,192.75Z"/><path class="cls-13" d="M363.1,192.91a12.18,12.18,0,0,1-.92-1c-.63-.88-1.25-1.78-1.86-2.69-.25-.38-.35-.88.05-1.13a1,1,0,0,1,1,.11,5.33,5.33,0,0,1,1.89,3.86A4.61,4.61,0,0,1,363.1,192.91Z"/><path class="cls-13" d="M367.93,225a2.18,2.18,0,0,0-.85.17,12.19,12.19,0,0,1-6,1,9.82,9.82,0,0,1-7.66-5.12c-.05-.09-.11-.18-.17-.27H353v4c-1.47-2.82-.81-5.63,0-8.55-1.33.47-2.09,1.62-3,2.62.09-3.49,3.45-5.46,6.76-4,0,0,0,.1,0,.11-2.1.64-2.43,2.58-1.75,4.53a6.59,6.59,0,0,0,4.8,4.33,7.48,7.48,0,0,0,5.92-.61,3.26,3.26,0,0,0,1.7-3c-1.48-.84-3-1.59-4.4-2.53a8.88,8.88,0,0,1-2.26-2.15,3.1,3.1,0,0,1,1.22-4.83,12,12,0,0,1,3.57-.86c.78-.07,1.56-.1,2.34-.11h.25c.78,0,1.56,0,2.34.11a12,12,0,0,1,3.57.86,3.1,3.1,0,0,1,1.22,4.83,8.88,8.88,0,0,1-2.26,2.15c-1.41.94-2.92,1.69-4.4,2.53a3.26,3.26,0,0,0,1.7,3,7.48,7.48,0,0,0,5.92.61,6.56,6.56,0,0,0,4.79-4.33c.69-2,.36-3.89-1.74-4.53,0,0,0-.07,0-.11,3.31-1.48,6.67.49,6.76,4-.89-1-1.65-2.15-3-2.62.78,2.92,1.44,5.73,0,8.55v-4h-.26c-.06.09-.12.18-.17.27a9.82,9.82,0,0,1-7.66,5.12,12.19,12.19,0,0,1-6-1A2.18,2.18,0,0,0,368,225Z"/><path class="cls-10" d="M368,214.6c1.07-.12,2-1.56,2.87-1.74s2.1-.34,3.28-.53c-.38-.24-.73-.62-1.11-.66a37,37,0,0,0-5.15-.52,26.56,26.56,0,0,0-4.64.58,3.24,3.24,0,0,0-1.3,1.12,5.82,5.82,0,0,1,3.14,0C365.93,213.09,367,214.68,368,214.6Z"/><g id="ojos"><ellipse class="cls-6" cx="380.48" cy="202.46" rx="5.91" ry="6.33"/><ellipse class="cls-6" cx="354.84" cy="202.62" rx="5.91" ry="6.33"/><path class="cls-13" d="M385.37,196.37a8.29,8.29,0,0,1,1.1,9.49A6.35,6.35,0,0,1,381,209.6a5.56,5.56,0,0,1-5.54-2.62,7.09,7.09,0,0,1-1.17-4.15,3,3,0,0,1-2.75-2.33c-.54-1.87-.24-3.78-.29-5.67.34.77.6,1.57,1,2.31.72,1.57.72,2,2.46.68,1.44-1.08,2.7-2.43,4.12-3.55a32.51,32.51,0,0,1,4.33-3,4,4,0,0,1,4.95.62,7.17,7.17,0,0,1,2.16,4.51c-3-3.7-5.86-2.88-8-1.18A3.37,3.37,0,0,1,385.37,196.37Zm-6.24,11.85a5.76,5.76,0,0,0,6.48-4,6.27,6.27,0,0,0-.72-5.72,2.46,2.46,0,0,0-3.53-.72A4.85,4.85,0,0,1,383,201c.36,2.41-.11,4.86-2.28,6.14a4,4,0,0,1-2.75.4l-.41-.07-.06.23A7.5,7.5,0,0,0,379.13,208.22Zm0-7.26a1,1,0,0,0-.84-1,1.51,1.51,0,0,0-1.23,1.58.72.72,0,0,0,.82.77A1.3,1.3,0,0,0,379.14,201Z"/><path class="cls-13" d="M353,195.34c-2.1-1.7-5-2.52-8,1.18a7.17,7.17,0,0,1,2.16-4.51,4,4,0,0,1,4.95-.62,32.51,32.51,0,0,1,4.33,3c1.42,1.12,2.68,2.47,4.12,3.55,1.74,1.31,1.74.89,2.46-.67.35-.75.61-1.54,1-2.32-.05,1.89.25,3.8-.29,5.68A3,3,0,0,1,361,203a7.07,7.07,0,0,1-1.17,4.15,5.54,5.54,0,0,1-5.54,2.62,6.34,6.34,0,0,1-5.43-3.74,8.26,8.26,0,0,1,1.09-9.48A3.36,3.36,0,0,1,353,195.34Zm4.75,12.49-.06-.23-.41.07a4,4,0,0,1-2.75-.4c-2.17-1.28-2.64-3.73-2.28-6.14a4.92,4.92,0,0,1,1.68-3.2,2.47,2.47,0,0,0-3.53.72,6.27,6.27,0,0,0-.72,5.72,5.76,5.76,0,0,0,6.49,4A7.62,7.62,0,0,0,357.78,207.83Zm-.35-5.4a.71.71,0,0,0,.82-.77,1.51,1.51,0,0,0-1.23-1.58,1,1,0,0,0-.83,1A1.29,1.29,0,0,0,357.43,202.43Z"/></g><g id="manchas"><path class="cls-13" d="M372.49,183.3a3.73,3.73,0,0,0,0,.47c.1.95.72,1.49,1.53,1.25a4.06,4.06,0,0,0,2.56-4.49c-.32-1.24-1.24-1.7-2.21-1A4.62,4.62,0,0,0,372.49,183.3Z"/><path class="cls-13" d="M388.57,222.38c0,1.07.49,1.6,1.46,1.5a2,2,0,0,0,1.71-1.37,2.24,2.24,0,0,0-.2-2.21,1.24,1.24,0,0,0-2.14-.13A3.18,3.18,0,0,0,388.57,222.38Z"/><path class="cls-13" d="M393.83,212.62c.94.59,1.68.35,2.12-.73a2.59,2.59,0,0,0-.25-2.58,2,2,0,0,0-2.05-1,1.6,1.6,0,0,0-1.29,2.21A3.31,3.31,0,0,0,393.83,212.62Z"/><path class="cls-13" d="M380,187.11a5.27,5.27,0,0,0,2.84-.91,1.58,1.58,0,0,0,.86-1.65,1.54,1.54,0,0,0-1.4-1.13c-1.72-.34-3.13,1.37-3.26,3.05a.64.64,0,0,0,.3.48A2.23,2.23,0,0,0,380,187.11Z"/><path class="cls-13" d="M393.8,216.77a3,3,0,0,0,1.65,2.47c.87.27,1.51-.26,1.47-1.27,0-1.29-1-2.73-2.46-2.17A.94.94,0,0,0,393.8,216.77Z"/><path class="cls-13" d="M385.41,212.38a2.34,2.34,0,0,0,1.28,1.9c.67.21,1.16-.2,1.13-1,0-1-.8-2.11-1.89-1.67A.74.74,0,0,0,385.41,212.38Z"/><path class="cls-13" d="M392.63,199.15a5.55,5.55,0,0,0,1.59,3.47c.37.33.8.56,1.24.26s.4-.77.3-1.27a4.93,4.93,0,0,0-2-3.37C393.08,197.8,392.63,198.11,392.63,199.15Z"/><path class="cls-13" d="M362.83,183.46a3.65,3.65,0,0,1,0,.47c-.1.95-.72,1.49-1.53,1.25a4,4,0,0,1-2.55-4.49c.31-1.23,1.23-1.7,2.2-1A4.6,4.6,0,0,1,362.83,183.46Z"/><path class="cls-13" d="M346.75,222.54c0,1.07-.49,1.6-1.46,1.5a2,2,0,0,1-1.71-1.36,2.24,2.24,0,0,1,.2-2.21,1.24,1.24,0,0,1,2.14-.14A3.18,3.18,0,0,1,346.75,222.54Z"/><path class="cls-13" d="M341.49,212.78c-.94.59-1.68.35-2.12-.73a2.59,2.59,0,0,1,.25-2.58,2,2,0,0,1,2.05-1,1.6,1.6,0,0,1,1.29,2.21A3.31,3.31,0,0,1,341.49,212.78Z"/><path class="cls-13" d="M355.3,187.27a5.28,5.28,0,0,1-2.84-.9,1.6,1.6,0,0,1-.86-1.65,1.54,1.54,0,0,1,1.4-1.14c1.72-.33,3.13,1.37,3.26,3.06a.64.64,0,0,1-.3.47A2.23,2.23,0,0,1,355.3,187.27Z"/><path class="cls-13" d="M341.53,216.93a3,3,0,0,1-1.66,2.47c-.87.27-1.51-.26-1.47-1.27,0-1.28,1-2.73,2.46-2.17A1,1,0,0,1,341.53,216.93Z"/><path class="cls-13" d="M349.91,212.54a2.34,2.34,0,0,1-1.28,1.9c-.67.21-1.16-.2-1.13-1,0-1,.8-2.1,1.89-1.67A.74.74,0,0,1,349.91,212.54Z"/><path class="cls-13" d="M342.69,199.31a5.64,5.64,0,0,1-1.58,3.48c-.38.32-.81.55-1.25.26s-.4-.78-.3-1.28a4.89,4.89,0,0,1,2-3.36C342.24,198,342.69,198.27,342.69,199.31Z"/></g><path class="cls-13" d="M366.36,175.57c-1.2-.41-4.71,0-6.79.29a29.34,29.34,0,0,0-8,2.57,1.52,1.52,0,0,1-1.83-.2c-.86-.77-1.66-1.63-2.53-2.39a23.18,23.18,0,0,0-3.31-2.67c-4.12-2.42-8.67-.29-9.92,4.62a13.7,13.7,0,0,0,.74,8.73,12.8,12.8,0,0,0,3.69,5.07,16.77,16.77,0,0,1,1.07-2.12,1.94,1.94,0,0,0-.05-2.78,1.25,1.25,0,0,1-.19-.34,3.16,3.16,0,0,1,.82-3.92c.32-.28.67-.5,1.06-.79a16.85,16.85,0,0,0-.9-1.62,4.13,4.13,0,0,0-2.36-1.74,1.72,1.72,0,0,0-1.81.75c.93-1.84,2-2.55,3.5-2.25a4.49,4.49,0,0,1,2.81,2.07c1,1.47,1.83,3,2.72,4.59a.64.64,0,0,1-.09.51,40.66,40.66,0,0,0-4.68,9.4,29.55,29.55,0,0,1-6.23,10.33c-.5.52-1,1-1.6,1.63l2.56.84c-2.32,3.93-4,8.07-2.86,12.87l3.54-5,.14.08c-1.62,6.51,2.3,13.2,6.31,15.23l-1.41-3.76c4.5,4.85,9.63,6.3,15.73,7.72l-2.48-4c.13.09.19.11.23.15a30.21,30.21,0,0,0,8.24,5.58,9.38,9.38,0,0,0,3.9.81h2.12a9.38,9.38,0,0,0,3.9-.81,30,30,0,0,0,8.23-5.58l.24-.15-2.48,4c6.1-1.42,11.16-2.87,15.66-7.72l-1.41,3.76c4-2,7.93-8.72,6.31-15.23l.15-.08,3.53,5c1.14-4.8-.54-8.94-2.86-12.87l2.56-.84c-.59-.6-1.1-1.11-1.6-1.63a29.55,29.55,0,0,1-6.23-10.33,40.66,40.66,0,0,0-4.68-9.4.64.64,0,0,1-.09-.51c.89-1.55,1.74-3.12,2.72-4.59a4.49,4.49,0,0,1,2.81-2.07c1.48-.3,2.57.41,3.5,2.25a1.72,1.72,0,0,0-1.81-.75,4.13,4.13,0,0,0-2.36,1.74,16.85,16.85,0,0,0-.9,1.62c.39.29.74.51,1.06.79a3.16,3.16,0,0,1,.82,3.92,1.25,1.25,0,0,1-.19.34,1.94,1.94,0,0,0-.05,2.78,16.77,16.77,0,0,1,1.07,2.12,12.8,12.8,0,0,0,3.69-5.07,13.63,13.63,0,0,0,.74-8.73c-1.25-4.91-5.8-7-9.92-4.62a23.18,23.18,0,0,0-3.31,2.67c-.87.76-1.67,1.62-2.53,2.39a1.52,1.52,0,0,1-1.83.2,29.12,29.12,0,0,0-8-2.57c-2.08-.33-5.09-.75-6-.39s-.68,15.83-1.42,23.69C367.86,199.16,367.57,176,366.36,175.57Zm7.34-2.78a27.75,27.75,0,0,1,9.57,2.73.5.5,0,0,0,.69-.12c.89-.94,1.78-1.89,2.74-2.76a10.94,10.94,0,0,1,7.3-3.27c3.7-.07,6.47,1.67,8.27,5.24a15.37,15.37,0,0,1,1.26,9.67,14,14,0,0,1-5.87,9.7,30.1,30.1,0,0,0,3.59,6.23,43.48,43.48,0,0,0,3.74,3.93c.92.89,1.06,1.23.33,2.24a25.36,25.36,0,0,1-1.85,2.05,2.31,2.31,0,0,1,.14.28,17.48,17.48,0,0,1,1.51,9.21,11.84,11.84,0,0,1-1.92,5.63,15.67,15.67,0,0,1-1,1.19l-.67-2.12c-.09.09-.13.11-.15.15a16.47,16.47,0,0,1-5.51,7.81c-4.73,3.74-9.94,4.45-15.57,6a48.24,48.24,0,0,0-5.07,1.29,22.73,22.73,0,0,1-6.67,1.54h-2.12a22.79,22.79,0,0,1-6.68-1.54,48.06,48.06,0,0,0-5.06-1.29c-5.64-1.52-10.91-2.23-15.64-6a16.47,16.47,0,0,1-5.51-7.81s-.06-.06-.15-.15l-.67,2.12c-.4-.46-.75-.8-1-1.19a11.83,11.83,0,0,1-1.91-5.63,17.48,17.48,0,0,1,1.5-9.21l.14-.28a25.36,25.36,0,0,1-1.85-2.05c-.73-1-.59-1.35.33-2.24a43.48,43.48,0,0,0,3.74-3.93,30.1,30.1,0,0,0,3.59-6.23,14,14,0,0,1-5.87-9.7,15.37,15.37,0,0,1,1.26-9.67c1.8-3.57,4.57-5.31,8.27-5.24a10.94,10.94,0,0,1,7.3,3.27c1,.87,1.85,1.82,2.74,2.76a.5.5,0,0,0,.69.12,27.75,27.75,0,0,1,9.57-2.73C363.21,172.6,371.66,172.6,373.7,172.79Z"/></g></g></g></svg>