<svg xmlns="http://www.w3.org/2000/svg" viewBox="0 0 311.91 111.47"><defs><style>.cls-1{fill:#de5c11;}</style></defs><g id="Capa_2" data-name="Capa 2"><g id="Capa_1-2" data-name="Capa 1"><polygon points="19.64 16.09 128.41 19.32 123.23 98.34 34.8 105.91 19.64 16.09"/><path d="M253.58,104.4V.6l58.33.1V111.47S262.4,105,253.58,104.4Z"/><path d="M163.5,100.4c-1.58,0-3.17-.05-4.75-.05-2.24,0-4.56,0-6.92-.12a11.58,11.58,0,0,1-6.55-2.47,12.16,12.16,0,0,1-8.06,2.56H136c-1.09,0-2.18,0-3.27,0q-3,0-6.05.06h-.3a11.09,11.09,0,0,1-8.11-3.21,11.34,11.34,0,0,1-3.21-8.31c0-15.22,0-30.71,0-45.68V.28h9.66l2.75,0h3c1.26,0,2.54,0,3.81,0h.25c6.13.15,12.47.3,18.76.6,12,.57,20.58,9.72,20.74,22.25.11,8.63.05,17.36,0,25.8v1.39a21.2,21.2,0,0,1-5.61,14.55c1.32,4.33,2.58,8.66,3.81,12.87q1.17,4,2.35,8A11.26,11.26,0,0,1,173.11,96a11.09,11.09,0,0,1-9.22,4.36Z"/><path d="M199.29,101.33h-.81c-6.31-.18-12-.37-17.92-.92a21.1,21.1,0,0,1-18.91-20.55c-.11-7-.08-14-.06-20.86V57.25l0-6.91q0-4.25,0-8.47c0-6.52-.06-13.25.08-19.94.27-12.31,8.9-21,21.47-21.73C185.49.06,188,0,190.67,0c3,0,6.17.08,10,.25,10.71.47,19.84,10.31,19.94,21.5.17,19.71.28,39.11.34,57.66,0,6.39-2.08,11.88-6.07,15.88A21.43,21.43,0,0,1,199.29,101.33Z"/><path d="M246,103.69c-.57,0-1.15,0-1.72-.07l-6.72-.58c-2.79-.25-5.58-.5-8.37-.72-12.33-1-21-10.34-21.14-22.72,0-1.83,0-3.67-.07-5.51q0-3.65-.08-7.29a16.5,16.5,0,0,1,.3-3l.06-.31,1.28-9,4.87.41c-.51-.52-1-1-1.45-1.53-5.16-5.54-5.2-12-5.24-16.3V36c-.06-4.41-.12-8.74,0-13.1.2-11,5.75-16.71,10.37-19.53a20,20,0,0,1,10.16-3h.1c5.59,0,11.15.31,16.54.58l2.37.11c9.5.46,18.06,9.28,18.69,19.25.19,3,.19,5.91.18,8.72,0,1.71,0,3.33,0,4.93a11.73,11.73,0,0,1-3.19,8.75,10.93,10.93,0,0,1-5,2.93,23.63,23.63,0,0,1,8.21,18.75c-.1,3.57-.08,7.11-.05,10.86,0,2.87,0,5.84,0,8.8A19.83,19.83,0,0,1,246,103.69Z"/><path d="M50.38,105.35a11.2,11.2,0,0,1-8.23-3.3,12.16,12.16,0,0,1-3.28-9.14c.19-11.07.23-22.36.27-33.27q0-6.06,0-12.12c0-5.26.18-29.57.18-29.57,0-1.66,0-3.33,0-5.07V.65h51.3V13.23c0,3.53,0,7.19-.1,10.84-.18,6.12-6,10.37-11.25,10.51-2,.05-3.92.07-5.86.08V35c1,0,2,0,2.92,0,5.11.11,11,4.57,11.17,10.78.11,3.36.1,6.59.09,10,0,1,0,2,0,3.09v9.28l-9.27.38c-1.17,0-2.31.1-3.45.16l-1.58.08V69c1.61-.1,3.22-.2,4.82-.33.5,0,1-.06,1.37-.06a11.07,11.07,0,0,1,8.33,3.43,11.62,11.62,0,0,1,3,9c-.13,2.42-.11,5-.08,7.72,0,1.26,0,2.53,0,3.84v8.6l-8.54,1-2.32.28c-1.8.22-3.66.45-5.57.63-3.12.31-6.25.6-9.37.89-4.22.39-8.44.78-12.66,1.21C51.82,105.29,51.14,105.35,50.38,105.35Z"/><path d="M88.47,102.07A10.77,10.77,0,0,1,80.72,99a11.2,11.2,0,0,1-3.16-8.28q.09-31.15.13-62.29V.6h50.36V12.84c0,3.62,0,7.38-.09,11.12-.17,6.25-5.91,10.09-11.35,10.2l-4.9.07v.59h14.13V57.29a10.89,10.89,0,0,1-6.56,10.2h9.09v9.67c0,1,0,1.93,0,2.9,0,3.1,0,6.31-.1,9.55-.23,6.07-5.77,10.48-10.8,10.8-4.24.27-8.51.46-12.64.65l-7,.33c-2.53.13-5.23.29-7.8.59A15.22,15.22,0,0,1,88.47,102.07Z"/><path d="M.14,100.09C.46,73.57.75,42.16.46,10.27L.38.52,52.27.65V13.22c0,3.71,0,7.21-.08,10.85C52,30.21,46.32,34.51,41.11,34.66c-2.25.07-4.34.11-6.32.13v1l2.34,0h.45A11.19,11.19,0,0,1,49.19,47.91c-.09,2.62-.07,5.32,0,8.18,0,1.24,0,2.5,0,3.78V69L40,69.52l-3.49.22-1.73.11c0,3.87,0,7.71,0,11.47,0,2.24,0,4.47,0,6.71,0,0-.06,14.12,0,17.88-8.66.78-34.8,5.38-34.8,5.38Z"/><path class="cls-1" d="M288,60.94l-10.07-.67V97l-14.65-1.41V10.26h14.34v9.25c0,7.56.08,15.12,0,22.68,0,1.8.55,2.36,2.35,2.33,2.47,0,4.94.26,7.75.44,0-2.06,0-4,0-5.86-.08-8.84-.1-17.67-.29-26.51,0-1.88.49-2.33,2.3-2.27,4,.13,8,0,12.53,0v90c-4.47-.61-9.07-1.21-13.65-1.93-.4-.06-1-.93-1-1.42.06-6.18.26-12.35.33-18.52C288,72.76,288,67,288,60.94Z"/><path class="cls-1" d="M139.54,64c0,7.86,0,15.56,0,23.26,0,3.5.09,3.45-3.41,3.41-3.21-.05-6.43,0-9.64,0-1.34,0-1.77-.42-1.77-1.83q.08-28.57,0-57.14V9.94c3,0,6.18-.06,9.36,0,6.26.15,12.52.3,18.78.6,7.25.35,11.45,5.65,11.54,12.72.11,9,0,18,0,27A11.43,11.43,0,0,1,159.53,60c-1.7,1.22-1.95,2.39-1.32,4.4,2.51,8,4.78,16.11,7.17,24.16.46,1.56.11,2.26-1.64,2.21-3.84-.09-7.69,0-11.53-.15a2.5,2.5,0,0,1-1.8-1.42c-2.09-7.28-4.14-14.58-6-21.92C143.4,63.43,143.56,63.39,139.54,64Zm-.1-13.65a48.1,48.1,0,0,0,5.69,0c3.28-.44,4.84-2,4.89-4.87.09-5.46.11-10.92,0-16.38,0-2.23-1-3.9-3.53-4.11-1.67-.14-3.35-.17-5-.24-1.48-.06-2.12.48-2.08,2.14.13,4.32,0,8.66,0,13Z"/><path class="cls-1" d="M171.22,50.34c0-9.4-.15-18.8.05-28.19.17-7.73,5.37-11.93,12.33-12.31,5.53-.3,11.1-.18,16.64.06s10.64,5.79,10.69,11.93q.25,28.8.34,57.61c0,7.8-4.76,12.45-12.51,12.22-5.78-.16-11.57-.35-17.32-.88a11.34,11.34,0,0,1-10.13-11.07c-.14-9.79,0-19.58,0-29.37Zm25.24.88h-.05c0-7.39,0-14.79,0-22.18,0-3.95-1.29-5-5.57-5-4,0-5,1-5,4.94,0,4.49.07,9,.1,13.46.07,9.86.05,19.71.25,29.56.11,5.26,1.23,6.08,6.46,5.59,2.62-.24,3.83-1.49,3.85-4.21C196.48,66,196.46,58.61,196.46,51.22Z"/><path class="cls-1" d="M217.8,64.81,232.16,66c0,3.09,0,6.29,0,9.48,0,2.69,1,3.76,3.71,4,.87.08,1.76.07,2.64.12,2.26.14,3.33-1.16,3.4-3.17.12-3.21.46-6.52-.18-9.6a10.81,10.81,0,0,0-3.7-5.55c-3.63-3-7.73-5.45-11.45-8.36A56.85,56.85,0,0,1,220,46.72c-2.88-3.09-2.6-7.07-2.66-10.9-.07-4.25-.13-8.51-.05-12.76.09-4.71,1.54-8.89,5.75-11.47A10.22,10.22,0,0,1,228.22,10c6.17,0,12.34.38,18.51.68,4.52.21,9.18,5.1,9.51,10.21.28,4.41.08,8.84.19,13.26,0,1.84-.64,2.34-2.44,2.16-3.36-.33-6.74-.51-10.11-.58-1.58,0-2.12-.57-2-2.12a55.12,55.12,0,0,0-.05-6,3.44,3.44,0,0,0-3.57-3.49c-.72,0-1.45,0-2.17,0-3.32,0-4,.68-4,3.92a31.12,31.12,0,0,1,0,4.1c-.72,5.15,2.14,8.17,6,10.81,4.21,2.89,8.37,5.87,12.39,9s6.17,6.94,6,12.16c-.18,6.59,0,13.19-.06,19.79A10.27,10.27,0,0,1,245.07,94c-5-.42-10.08-.9-15.12-1.3a12.81,12.81,0,0,1-12.26-13.18c0-4.26-.12-8.52-.15-12.78A14.37,14.37,0,0,1,217.8,64.81Z"/><path class="cls-1" d="M78,58.91c-4,.16-7.86.45-11.68.42-2.12,0-2.79.61-2.73,2.76.15,4.88.13,9.77,0,14.65-.06,1.93.47,2.61,2.41,2.45,4.32-.35,8.66-.52,13-.87,1.73-.14,2.39.21,2.28,2.2-.23,3.91-.07,7.84-.07,12.11-2.5.29-5.1.64-7.7.89-7.36.72-14.72,1.36-22.07,2.1-2,.2-2.89,0-2.84-2.54.26-15.17.24-30.34.32-45.5Q48.94,32.79,49,18c0-2.47,0-4.95,0-7.69H81c0,4.55,0,9-.09,13.47,0,.41-1.19,1.12-1.84,1.14-4.34.11-8.68.07-13,.09-.71,0-1.41.06-2.25.1V38.62a27.85,27.85,0,0,1-.05,4.09c-.27,1.82.39,2.24,2.1,2.15q5.15-.28,10.31-.17c.61,0,1.71.93,1.73,1.46C78,50.31,78,54.47,78,58.91Z"/><path class="cls-1" d="M118.73,77.16c0,4.08.07,8.08-.09,12.08,0,.56-1.11,1.49-1.75,1.53-6.49.4-13,.64-19.5,1-2.8.15-5.61.32-8.4.64-1.46.16-1.77-.27-1.77-1.68q.12-37.26.15-74.52V10.27h31c0,4.5,0,9-.08,13.43,0,.29-1.22.78-1.89.8-4.41.09-8.83.07-13.25.1a9.48,9.48,0,0,0-1.12.15V44.48H116.2V57.29c0,1.6-1.17,1.46-2.22,1.46H102V77.16Z"/><path class="cls-1" d="M10.13,10.18H42.61c0,4.67,0,9.14-.08,13.61,0,.44-1.1,1.19-1.7,1.21-4.5.13-9,.19-13.5.11-1.89,0-2.26.67-2.23,2.42.09,5.59,0,11.19,0,16.79a5.8,5.8,0,0,0,.17,1.1c4.16,0,8.15.07,12.14,0,1.7,0,2.21.46,2.15,2.19-.13,4,0,8,0,12.29-4,.23-7.84.54-11.66.63-2.14,0-2.81.68-2.76,3,.18,8.18.07,16.37.07,24.55V98.12L9.8,100.21C10.16,70.26,10.4,40.4,10.13,10.18Z"/></g></g></svg>