<svg xmlns="http://www.w3.org/2000/svg" xmlns:xlink="http://www.w3.org/1999/xlink" viewBox="0 0 460 460"><defs><style>.cls-1{fill:#5f220c;}.cls-2{fill:url(#Degradado_sin_nombre_14);}.cls-3{fill:url(#Degradado_sin_nombre_14-2);}.cls-4{fill:url(#Degradado_sin_nombre_14-3);}.cls-5{fill:url(#Degradado_sin_nombre_14-4);}.cls-6{fill:url(#Degradado_sin_nombre_14-5);}.cls-7{fill:url(#Degradado_sin_nombre_14-6);}.cls-8{fill:url(#Degradado_sin_nombre_14-7);}.cls-9{fill:#d95b13;}.cls-10{fill:#f6a01e;}.cls-11{fill:#f08210;}.cls-12{fill:#d55314;}.cls-13{fill:#de5c11;}.cls-14{fill:#fbbb3c;}.cls-15{fill:#f0830e;}.cls-16{fill:#b45717;}.cls-17{fill:#903a14;}.cls-18{fill:#ffeace;}.cls-19{fill:#914018;}</style><linearGradient id="Degradado_sin_nombre_14" x1="375.7" y1="267.07" x2="375.7" y2="143.16" gradientUnits="userSpaceOnUse"><stop offset="0" stop-color="#fbbb3c"/><stop offset="1" stop-color="#de5c11"/></linearGradient><linearGradient id="Degradado_sin_nombre_14-2" x1="217.58" y1="267.07" x2="217.58" y2="143.16" xlink:href="#Degradado_sin_nombre_14"/><linearGradient id="Degradado_sin_nombre_14-3" x1="270.53" y1="267.07" x2="270.53" y2="143.16" xlink:href="#Degradado_sin_nombre_14"/><linearGradient id="Degradado_sin_nombre_14-4" x1="322.97" y1="267.07" x2="322.97" y2="143.16" xlink:href="#Degradado_sin_nombre_14"/><linearGradient id="Degradado_sin_nombre_14-5" x1="125.33" y1="267.07" x2="125.33" y2="143.16" xlink:href="#Degradado_sin_nombre_14"/><linearGradient id="Degradado_sin_nombre_14-6" x1="169.13" y1="267.07" x2="169.13" y2="143.16" xlink:href="#Degradado_sin_nombre_14"/><linearGradient id="Degradado_sin_nombre_14-7" x1="80.9" y1="267.07" x2="80.9" y2="143.16" xlink:href="#Degradado_sin_nombre_14"/></defs><g id="Capa_2" data-name="Capa 2"><g id="Capa_1-2" data-name="Capa 1"><circle class="cls-1" cx="230" cy="230" r="230"/><polygon points="73.34 119.75 198.34 123.46 192.4 214.27 90.77 222.97 73.34 119.75"/><path d="M342.19,221.23V101.94l67,.12v127.3S352.32,221.88,342.19,221.23Z"/><path d="M238.67,216.63c-1.82,0-3.64,0-5.46-.06-2.57,0-5.24,0-8-.12a13.45,13.45,0,0,1-7.53-2.84,14,14,0,0,1-9.26,2.93h-1.39c-1.25,0-2.51,0-3.76,0-2.32,0-4.63,0-6.95.08H196a12.75,12.75,0,0,1-9.32-3.68,13,13,0,0,1-3.7-9.56c.05-17.49.05-35.29,0-52.5V101.57h17.74c1.46,0,2.92,0,4.39,0h.28c7,.17,14.33.35,21.55.69,13.86.66,23.66,11.17,23.84,25.57.13,9.92.06,20,0,29.65v1.6a24.37,24.37,0,0,1-6.44,16.72c1.52,5,3,9.95,4.38,14.79q1.33,4.6,2.7,9.21a13,13,0,0,1-1.76,11.79,12.74,12.74,0,0,1-10.6,5Z"/><path d="M279.8,217.71h-.93c-7.25-.21-13.8-.44-20.59-1.06A24.26,24.26,0,0,1,236.54,193c-.11-8-.09-16.13-.07-24v-2l0-8c0-3.24,0-6.49,0-9.73,0-7.48-.08-15.22.09-22.91.32-14.15,10.23-24.19,24.67-25,2.77-.15,5.63-.22,8.73-.22,3.43,0,7.08.09,11.48.28,12.3.54,22.79,11.86,22.91,24.71.19,22.65.33,44.95.39,66.26,0,7.35-2.39,13.66-7,18.25S287,217.71,279.8,217.71Z"/><path d="M333.46,220.42c-.65,0-1.32,0-2-.09l-7.72-.66c-3.21-.29-6.41-.57-9.62-.83C300,217.69,290,207,289.84,192.73q0-3.16-.07-6.33c0-2.79-.08-5.58-.1-8.38a19.41,19.41,0,0,1,.35-3.49c0-.11.05-.23.06-.35l1.48-10.38,5.59.47c-.58-.6-1.13-1.19-1.66-1.76-5.93-6.37-6-13.81-6-18.73V142.6c-.08-5.07-.14-10,0-15,.23-12.67,6.61-19.2,11.92-22.45A23.06,23.06,0,0,1,313,101.66h.11c6.42,0,12.81.36,19,.66l2.73.14c10.91.52,20.75,10.65,21.48,22.12.22,3.45.21,6.79.2,10,0,2,0,3.82,0,5.66a13.46,13.46,0,0,1-3.67,10.05,12.56,12.56,0,0,1-5.8,3.38,27.14,27.14,0,0,1,9.43,21.55c-.11,4.09-.08,8.16-.06,12.47,0,3.3,0,6.71,0,10.12A22.78,22.78,0,0,1,333.46,220.42Z"/><path d="M108.67,222.32a12.88,12.88,0,0,1-9.46-3.79c-2.57-2.62-3.84-6.15-3.77-10.5.22-12.72.27-25.69.32-38.24q0-7,.06-13.92c0-6.05.2-34,.2-34,0-1.91,0-3.82,0-5.82V102h59v14.46c0,4.06,0,8.26-.1,12.46C154.66,136,148,140.84,142,141c-2.26.06-4.51.08-6.73.09v.38c1.11,0,2.23,0,3.34,0,5.88.14,12.59,5.26,12.84,12.39.13,3.86.12,7.57.11,11.5,0,1.17,0,2.36,0,3.56v10.66l-10.66.43-4,.19-1.82.09v.24c1.85-.11,3.7-.23,5.54-.38.57,0,1.09-.06,1.57-.06a12.74,12.74,0,0,1,9.57,3.93,13.35,13.35,0,0,1,3.45,10.36c-.16,2.78-.13,5.74-.09,8.88,0,1.44,0,2.91,0,4.41v9.88l-9.82,1.15-2.66.32c-2.07.25-4.21.51-6.41.73-3.58.35-7.17.68-10.76,1-4.85.45-9.7.9-14.55,1.39A22.13,22.13,0,0,1,108.67,222.32Z"/><path d="M152.44,218.56a12.39,12.39,0,0,1-8.9-3.59,12.89,12.89,0,0,1-3.63-9.52q.12-35.79.15-71.58l0-14V102H198V116c0,4.17,0,8.48-.1,12.78-.2,7.18-6.79,11.6-13,11.72-1.88,0-3.76.06-5.63.08v.68h16.24V167.1a12.5,12.5,0,0,1-7.55,11.72h10.45v11.11c0,1.11,0,2.22,0,3.33,0,3.57,0,7.25-.11,11-.27,7-6.63,12.05-12.41,12.42-4.87.31-9.78.53-14.52.75-2.67.12-5.35.24-8,.38-2.91.15-6,.33-9,.67A17.33,17.33,0,0,1,152.44,218.56Z"/><path d="M50.94,216.28c.37-30.48.7-66.58.37-103.22l-.1-11.2,59.64.14v14.45c0,4.26,0,8.29-.1,12.46-.2,7.07-6.74,12-12.72,12.18-2.59.07-5,.12-7.27.15v1.12c1,0,1.85,0,2.69-.05H94a13.13,13.13,0,0,1,9.77,3.9,13.29,13.29,0,0,1,3.58,10.11c-.1,3-.08,6.11-.06,9.4,0,1.42,0,2.87,0,4.34v10.5l-10.48.59-4,.25-2,.12c0,4.45,0,8.87,0,13.19q0,3.85,0,7.71s-.08,16.22,0,20.55c-10,.9-40,6.19-40,6.19Z"/><path class="cls-2" d="M381.71,171.29l-11.58-.77v42.23l-16.84-1.61V113.05h16.48c0,3.67,0,7.15,0,10.63,0,8.69.09,17.38,0,26.06,0,2.07.64,2.72,2.7,2.68,2.84,0,5.68.3,8.91.5,0-2.36,0-4.55,0-6.73-.09-10.15-.12-20.31-.33-30.46-.05-2.16.57-2.69,2.64-2.62,4.61.16,9.22,0,14.4,0V216.63c-5.14-.7-10.42-1.38-15.68-2.21-.46-.07-1.12-1.07-1.12-1.64.07-7.09.3-14.19.38-21.28C381.76,184.87,381.71,178.24,381.71,171.29Z"/><path class="cls-3" d="M211.14,174.79c0,9,0,17.87,0,26.72,0,4,.1,4-3.92,3.92-3.69-.05-7.38,0-11.08,0-1.54,0-2-.48-2-2.1q.09-32.84,0-65.66v-25c3.44,0,7.1-.07,10.75,0,7.19.18,14.39.35,21.58.69,8.33.4,13.16,6.5,13.26,14.62.13,10.34.05,20.69,0,31a13.15,13.15,0,0,1-5.62,11.12c-2,1.4-2.24,2.75-1.52,5.06,2.88,9.21,5.49,18.51,8.24,27.77.53,1.79.13,2.59-1.89,2.54-4.41-.11-8.83,0-13.24-.18a2.86,2.86,0,0,1-2.07-1.63c-2.4-8.37-4.76-16.76-6.93-25.2C215.58,174.16,215.76,174.11,211.14,174.79Zm-.11-15.7a53.75,53.75,0,0,0,6.53,0c3.77-.5,5.56-2.3,5.62-5.59q.15-9.42,0-18.83c0-2.56-1.2-4.48-4.06-4.72-1.92-.16-3.86-.2-5.78-.28-1.7-.07-2.44.55-2.39,2.46.14,5,0,9.95,0,14.93C211,151,211,154.91,211,159.09Z"/><path class="cls-4" d="M247.55,159.1c0-10.8-.18-21.6.06-32.39.19-8.89,6.16-13.7,14.16-14.14,6.36-.35,12.76-.21,19.12.06s12.23,6.66,12.29,13.72q.29,33.09.39,66.2c0,9-5.47,14.3-14.38,14-6.64-.2-13.29-.41-19.9-1a13,13,0,0,1-11.64-12.72c-.17-11.25-.05-22.51-.05-33.76Zm29,1h-.06c0-8.5,0-17,0-25.49,0-4.54-1.48-5.76-6.4-5.72-4.62,0-5.78,1.13-5.79,5.67,0,5.16.08,10.32.12,15.48.09,11.32.06,22.64.29,34,.12,6,1.42,7,7.42,6.43,3-.28,4.41-1.72,4.42-4.85C276.58,177.11,276.55,168.61,276.55,160.12Z"/><path class="cls-5" d="M301.08,175.74l16.5,1.39c0,3.55,0,7.22,0,10.89,0,3.09,1.19,4.32,4.26,4.61,1,.09,2,.08,3,.14,2.59.16,3.82-1.34,3.91-3.64.13-3.69.52-7.49-.21-11a12.41,12.41,0,0,0-4.26-6.38c-4.17-3.46-8.88-6.26-13.15-9.6a66.43,66.43,0,0,1-7.56-7.16c-3.3-3.55-3-8.13-3.06-12.52-.07-4.89-.14-9.79-.05-14.68.1-5.41,1.77-10.21,6.61-13.17a11.73,11.73,0,0,1,5.93-1.81c7.09,0,14.18.44,21.27.78,5.19.25,10.55,5.86,10.93,11.74.32,5.06.09,10.16.22,15.24,0,2.11-.74,2.69-2.81,2.48-3.86-.38-7.74-.59-11.61-.67-1.82,0-2.45-.65-2.37-2.44a59.35,59.35,0,0,0-.05-6.93,3.94,3.94,0,0,0-4.1-4c-.83-.06-1.67,0-2.5,0-3.81.05-4.56.78-4.6,4.51a38.9,38.9,0,0,1-.05,4.71c-.83,5.91,2.46,9.39,6.88,12.43,4.84,3.32,9.62,6.74,14.24,10.36s7.1,8,6.93,14c-.21,7.58,0,15.17-.06,22.75a11.8,11.8,0,0,1-13,11.59c-5.79-.49-11.58-1-17.37-1.5-8.36-.68-14-6.73-14.09-15.14-.05-4.9-.14-9.79-.17-14.69A14.25,14.25,0,0,1,301.08,175.74Z"/><path class="cls-6" d="M140.39,169c-4.62.18-9,.51-13.42.48-2.43,0-3.21.7-3.13,3.17q.25,8.41,0,16.84c-.07,2.21.54,3,2.77,2.82,5-.41,10-.61,14.91-1,2-.15,2.75.24,2.62,2.53-.26,4.49-.08,9-.08,13.92-2.86.33-5.85.73-8.85,1-8.45.82-16.91,1.56-25.35,2.41-2.31.23-3.32.06-3.27-2.92.3-17.43.28-34.86.37-52.29q.09-17,.21-34c0-2.85,0-5.69,0-8.85h36.74c0,5.24.06,10.36-.09,15.48,0,.48-1.37,1.3-2.12,1.32-5,.13-10,.08-15,.1-.81,0-1.62.07-2.58.11v15.53a32,32,0,0,1-.06,4.7c-.31,2.09.45,2.57,2.41,2.47,4-.21,7.9-.29,11.85-.2.71,0,2,1.07,2,1.68C140.47,159.07,140.39,163.86,140.39,169Z"/><path class="cls-7" d="M187.22,189.93c0,4.68.08,9.29-.1,13.89,0,.63-1.27,1.7-2,1.75-7.46.46-14.94.74-22.4,1.12-3.23.16-6.46.36-9.66.73-1.68.19-2-.31-2-1.93q.15-42.83.17-85.64c0-2.19,0-4.39,0-6.79h35.66c0,5.17,0,10.3-.09,15.43,0,.34-1.41.9-2.16.92-5.08.1-10.16.09-15.24.12a10.6,10.6,0,0,0-1.28.17v22.67h16.25v14.72c0,1.84-1.35,1.68-2.55,1.68H167.94v21.16Z"/><path class="cls-8" d="M62.42,113H99.74c0,5.37.06,10.51-.09,15.64,0,.5-1.26,1.37-2,1.39-5.17.15-10.35.22-15.51.12-2.17,0-2.6.78-2.56,2.78.1,6.43,0,12.86,0,19.29a6.1,6.1,0,0,0,.2,1.27c4.77,0,9.36.09,13.95,0,2-.06,2.54.52,2.47,2.51-.16,4.59,0,9.18,0,14.13-4.62.27-9,.62-13.39.72-2.46.06-3.24.79-3.18,3.43.21,9.4.08,18.81.08,28.21V214L62,216.42C62.46,182,62.73,147.68,62.42,113Z"/><g id="Guepardoso"><path class="cls-9" d="M153,229.55l-11.07-10.69s-5.41,0-7.65,3.7-11.15,12.44,8.65,33l5.76-8.65L145.77,238l.39-4Z"/><polygon class="cls-10" points="124.32 228.78 126.34 210.43 138.15 200.34 156.96 200.96 171.32 211.06 179.57 216.66 216.01 208.89 231.59 209.04 230 217.59 224.56 220.85 193.01 223.23 176.07 230.49 164.26 230.49 156.65 221.47 151.05 212.62 143.13 212.31 130.29 227.69 124.94 232.2 124.32 228.78"/><path class="cls-11" d="M125.2,231.51s14.51-38.84,37.3-11.07c10.49,14.56,21.75,2.79,36.4-1a76.16,76.16,0,0,1,29-2.07l2.1,75.78,21.39,7.31s48.13,27.37,21.45,62.16-45,29.21-45,29.21l.09-82.06-16.82,4.42-4.91,5.64-20.53,8.9,14.77,54.09-20.87-2-23.7-17,.83,4.18-18.27-10.95-9.91-24L121,339.37,118.57,317l11.16-15.69-12.82-4.61L135,281.32,159.27,235s-4.55-10-12.42-14.56-12.62,2.12-12.62,2.12-9.31,12.32,8.65,33l-1.3,2.51-12.44-7Z"/><path class="cls-12" d="M211.11,383.33s30.73,8.74,47.53-15.33l-1.24,8.44-13.47,11-15.11,4.35h-10.2Z"/><path class="cls-10" d="M147.27,357.05l-14.56-30.81-5.23,2.45s-3.73-10.45,3.58-29.5c0,0,16.94-32.82,16.21-38.95l-20.43,28L121,298.14l3.33,7.18-7.41,26.06L121,341.44l7.84-6.52,9.6,24.24,10.7,5.2Z"/><path class="cls-13" d="M148.21,361.54,145,346.1s22.69,25.8,46.62,29.84l-.43-4.84,6.76,9.78-5.86,1.74L164.53,373,149,366Z"/><path class="cls-14" d="M208.2,319.79s-33.37-3.13-24.36,32.42,45,39.58,45,39.58l-.89-57.18Z"/><path class="cls-15" d="M211.11,383.33a57.66,57.66,0,0,0,17.71,1.34c.13,4.78-.11,5.3-.11,5.3l-10.57-1.4Z"/><path class="cls-16" d="M233.54,210.49v10.6l48.36,10.42,18.18-21,29.84-3.31s-17.08-12-27.4-8.29-24.4,14.5-25.23,18.44S228.75,201.38,233.54,210.49Z"/><path class="cls-17" d="M231.59,219c-4.88,4.23-4.54,42.19-1.59,72.84,0,0,23,8.38,25.93,12.58,0,0,60.62,22.74-2.94,83,0,0,75.23-15.88,86-72.9l-4.63-22.74-34.92-60.29,11.6-14.39s11.33.17,15.82,8.79-7,32.15-7,32.15,28.74-22,8.8-48.09c-31.08-18.13-48.8,16.23-48.41,18.22C270.31,223.23,236.47,214.76,231.59,219Z"/><path class="cls-1" d="M253,387.44s37.76-11.26,46.47-31.12c0,0,1.45,6.26,0,8.74s32.48-30.5,21.13-48.09c0,0,9.23,5.22,13.79,9.27,0,5.53-1.23,6.32-1.23,6.32l-7.74-7.12S336,344.2,309.92,365.37C284,386.82,253,387.44,253,387.44Z"/><path class="cls-1" d="M315.1,217.33s8.33,1.83,11.78,8.58-2.14,23.87-7,32.15-9.12-9.65-9.12-9.65l6.84-13.16-14.4-9.11,2.28-7.88Z"/><ellipse class="cls-18" cx="267.44" cy="288.73" rx="14.45" ry="16.59"/><ellipse class="cls-18" cx="189.76" cy="288.92" rx="18.44" ry="17.87"/><polygon class="cls-19" points="209.84 316.27 227.84 312.23 243 313.86 248.44 316.97 247.97 319.72 235.54 322.07 224.35 323.83 214.19 321.76 208.2 321.34 207.25 318.44 209.84 316.27"/><path d="M137.76,264.8c-10.41-6.51-16.18-15.77-18.33-27.42-1.77-9.54-.85-18.74,3.93-27.31,5.62-10.06,14.26-15,25.82-14.81,8.82.14,16.19,3.81,22.8,9.26,3,2.45,5.76,5.13,8.55,7.78a1.66,1.66,0,0,0,2.16.34,94,94,0,0,1,29.88-7.71,122,122,0,0,1,26.87.73,130.28,130.28,0,0,1,34.63,10c2.13-3.08,4-6.36,6.44-9.21a33.92,33.92,0,0,1,22.06-11.92c8.57-1.17,16.56.27,23.85,5,8.79,5.69,13.76,13.89,15.22,24.17,1.72,12.12-1.34,23.08-8.73,32.77-2.29,3-5,5.7-7.86,9,2.72,6.62,5.7,14.32,11.62,20.34,2.88,2.93,6,5.63,9,8.37,2.33,2.08,2.6,3.13.46,5.4a72,72,0,0,1-6,5.17c1.32,4.54,3.18,9.08,3.9,13.79,1.79,11.66.13,22.81-6.57,32.85-1.25,1.87-1.48,1.81-2.81,0l-1.84-2.5c-.37.86-.68,1.64-1,2.4A58.22,58.22,0,0,1,318.47,369c-12.52,11.6-27.72,18.19-43.86,22.62a245.5,245.5,0,0,1-28.45,5.78,77.67,77.67,0,0,1-38.19-3.6c-5.06-1.81-10.56-2.34-15.82-3.63a139.45,139.45,0,0,1-48.72-21.94,46.86,46.86,0,0,1-17.21-22.05c0-.11-.18-.18-.46-.44l-2.11,6c-1.25-1.3-2.32-2.25-3.19-3.35-3.65-4.67-5.27-10.17-6-15.92a45.3,45.3,0,0,1,4.7-26c.17-.34.39-.66.45-.77a73.66,73.66,0,0,1-5.79-5.8c-2.28-2.84-1.84-3.8,1-6.32a130.68,130.68,0,0,0,11.7-11.1C131.18,277.2,134.49,271,137.76,264.8Zm174.6-45.5c-3.58,1.32-4.2,3-5.55,4.9,2.73.41,5-.39,8.11,1.78a11.47,11.47,0,0,1,4.41,7.31,19.41,19.41,0,0,1-.06,7.4c-.47,2.15-2.43,5-3.76,7.44-.75,1.37-.93,2.56.08,3.87s2,2.8,3,4.2l1.3,1.86c2.57-2.69,5.28-5.09,7.47-7.89,9.54-12.23,8.22-28.28.76-38-6.64-8.67-15.82-11.62-26.35-9.4-10.25,2.16-17,8.46-19.88,18.7-.61,2.18-1.05,4.4-1.61,6.75a104,104,0,0,0-44.42-14.46c-4.35,22.35-5.14,44.71-6.7,66.49-2.31-22.19-4-44.93-1.64-68.34-6.83.57-13.44.79-19.94,1.73a97.58,97.58,0,0,0-24.88,7.26,5.1,5.1,0,0,1-5.71-.56c-2.69-2.18-5.17-4.61-7.89-6.75-3.35-2.64-6.61-5.57-10.34-7.56-12.87-6.84-27.09-.81-31,13.06-2.37,8.44-1.3,16.74,2.32,24.67A36.41,36.41,0,0,0,141.58,258a47,47,0,0,1,3.36-6c2.11-2.78,2.57-5.28-.15-7.86a3.49,3.49,0,0,1-.62-1,8.39,8.39,0,0,1,2.58-11.08c1-.77,2.08-1.41,3.31-2.23a53.41,53.41,0,0,0-2.8-4.56,12.84,12.84,0,0,0-7.38-4.91,5.63,5.63,0,0,0-5.65,2.1c2.88-5.18,6.3-7.2,10.93-6.36a14.06,14.06,0,0,1,8.77,5.85c3,4.16,5.72,8.61,8.49,13a1.66,1.66,0,0,1-.3,1.43c-6.33,8.06-10.69,17.18-14.61,26.58-4.57,11-10.65,21-19.44,29.16-1.57,1.47-3.16,2.92-5,4.61l8,2.39c-7.23,11.11-12.49,22.79-8.92,36.35l11-14.16.45.22c-5,18.41,7.19,37.31,19.71,43L148.94,354c14.05,13.72,29.95,22.86,49,26.88-2.65-3.84-5.12-7.42-7.76-11.23a6.33,6.33,0,0,1,.74.42,94.64,94.64,0,0,0,25.71,15.75c9.87,4.09,19.48,3.77,28.58-2a121.58,121.58,0,0,0,12.44-8.94,64.76,64.76,0,0,0,17.13-21c4.16-8.32,5.27-17,2-25.79-2.55-6.85-7.71-11.88-13-16.63a19.16,19.16,0,0,0-4.88-2.85,16.22,16.22,0,0,1-6.78-5.45,23.38,23.38,0,0,1-4.37-15c-2,.1-4,.6-5.76.2-5.55-1.24-8-10.76-3.9-15.43.26,1.43.44,2.74.76,4,.81,3.18,2.51,3.91,4.91,1.74a67.76,67.76,0,0,0,7-7.62c4.83-6,9.56-12,16.31-15.92a26.25,26.25,0,0,1,8.84-3.46c7.59-1.15,14.5,6.65,15.74,14-9.09-9.64-18-6.25-25.74,2.75,8.78-1.75,16.55,6.87,18.39,15.75a21.34,21.34,0,0,1-2.92,16.62,17.67,17.67,0,0,1-14.55,8.42c1.91,1.58,3.63,2.92,5.27,4.35,6.8,5.93,10.83,13.36,11.33,22.4.84,15.39-5.51,28-15.55,39.13-.61.66-1.28,1.27-1.93,1.89s-12.22,9.74-12.94,10.43c29.53-3.26,47.14-15,56.57-22.22,10.1-7.77,22.38-23.47,15.85-39.78a94.43,94.43,0,0,1,7.74,7.12,6.11,6.11,0,0,0,1-2.92c1.45-11.22-4.11-19.72-10.47-27.67l11.18-3.08c-6.71-4.76-10.37-11.07-13.56-17.7-2.93-6.06-5.66-12.22-8.62-18.26-5.45-11.1-10.34-22.62-21.15-30,2.55-5.18,5-10.38,9.12-14.46,3.59-3.53,7.69-6.17,13-5.55,7.4.87,11.49,6.45,13.66,12.55,0,.08-.27.28-.42.42l-4.67-4.73C319.09,219.15,315.93,218,312.36,219.3ZM260.7,302.59c.15.27.18.42.28.48a3.45,3.45,0,0,0,.65.36c4.16,1.9,8.05.81,11.63-1.4,7.11-4.4,8.91-16.38,3.52-23.6A8.69,8.69,0,0,0,263.86,277c5.43.7,7.87,5.41,8.31,9.58A16.36,16.36,0,0,1,270,297.25C267.84,300.65,264.56,302.09,260.7,302.59Zm6.13-17.76c0-2-1.2-3.5-2.74-3.51s-3.48,2.25-3.4,4.2a2.8,2.8,0,0,0,2.88,2.75A3.1,3.1,0,0,0,266.83,284.83Z"/><path d="M194.22,351.9s8.87,16.61,34.6,16.09c25.24-.73,32.14-17,33.24-20.88l-2.27-1s-6.81,16.39-31,16.55C202.13,361,197,351.1,197,351.1Z"/><path d="M182.39,340.9v11.21c-4.61-8-2.52-15.89-.11-24.14-4.14,1.33-6.52,4.58-9.29,7.4.28-9.86,10.78-15.42,21.09-11.25,0,.11,0,.3,0,.31-6.58,1.83-7.59,7.31-5.46,12.81,2.65,6.85,8.11,10.51,15,12.23,6.33,1.58,12.57,1.32,18.47-1.73,3.56-1.84,5-4.38,5.29-8.41-4.61-2.37-9.32-4.51-13.72-7.17a26.23,26.23,0,0,1-7.07-6.06c-4-5-2.19-11.4,3.81-13.64A40.6,40.6,0,0,1,221.5,310a109.93,109.93,0,0,1,16.13,0,36.48,36.48,0,0,1,10,2.3c5.55,2.07,7.22,7,4.57,12.37a19.84,19.84,0,0,1-9.61,9c-3.56,1.73-7.17,3.36-10.8,4.95-.83.37-1.13.62-1,1.64a10.86,10.86,0,0,0,9.26,9c10.32,1.63,20.17-4.87,23.88-14.69.38-1,.19-1.61-.83-1.87-1.53-.41-3.07-.76-4.57-1.12,1.18-2.12,4.1-2.88,7.26-1.9,3.92,1.22,7.52,5.08,7,9.47l-3.93-3.31a78.58,78.58,0,0,1-3.6,7c-5.58,8.68-13.58,13-23.92,12.45a46,46,0,0,1-9.5-2.05,8.27,8.27,0,0,0-5.38,0,41.61,41.61,0,0,1-18.81,2.8c-10.17-1.08-18.31-5.75-23.91-14.48-.17-.26-.36-.51-.54-.76A4.5,4.5,0,0,0,182.39,340.9Zm26.78-22.15c4.25-.92,9.07.06,13.21,1,5,1.18,9.91-.11,14.86-1,3.28-.61,6.6-1,10.32-1.52-1.2-.68-2.3-1.78-3.49-1.91-5.66-.57-10.55-1.53-16.23-1.48-4.64,0-10.1,1.2-14.7,2C211.85,316,209.07,318.49,209.17,318.75Z"/><path class="cls-18" d="M199.38,354s2.23,2.62,11.53,6a53,53,0,0,0,18.19,3s4.86.47,13.71-2.57,12.86-8.34,12.86-8.34a23.46,23.46,0,0,1-9.36,3.17,29.12,29.12,0,0,1-12.43-1.36c-3.88-1.32-4.51-1.14-4.83-1.13a7.44,7.44,0,0,0-2.24.48,47.12,47.12,0,0,1-14.42,3.08C206.48,356.72,199.38,354,199.38,354Z"/><path d="M184.11,268.34c-6.54-4.8-15.5-7.12-24.84,3.34A19.59,19.59,0,0,1,166,258.92a13.45,13.45,0,0,1,15.43-1.73A100.83,100.83,0,0,1,195,265.77c4.42,3.16,8.38,7,12.87,10,5.42,3.69,5.42,2.5,7.68-1.91,1.07-2.11,1.89-4.35,3-6.54-.16,5.34.8,10.74-.88,16-1.33,4.17-4.4,6.06-8.6,6.57a18.6,18.6,0,0,1-3.65,11.72c-4.24,5.95-10.33,8-17.29,7.41-7.38-.59-13.39-3.88-17-10.56-4.84-9-4.33-18.9,3.42-26.8A11.12,11.12,0,0,1,184.11,268.34ZM199,303.63l-.19-.65-1.26.2a13.78,13.78,0,0,1-8.6-1.14c-6.77-3.62-8.23-10.55-7.11-17.34a13.39,13.39,0,0,1,5.23-9.05,8.19,8.19,0,0,0-11,2c-3.77,4.93-4.22,10.41-2.22,16.16,3.12,9,11.94,12.23,20.23,11.33A26,26,0,0,0,199,303.63Zm-1.1-15.26a2.19,2.19,0,0,0,2.58-2.18c.15-2.17-1.89-4.46-3.86-4.47a2.81,2.81,0,0,0-2.6,2.95A3.86,3.86,0,0,0,197.85,288.37Z"/><path d="M214.71,234.77a10,10,0,0,1,0,1.34c-.32,2.68-2.24,4.2-4.79,3.52-5.72-1.51-9.27-8.14-8-12.68,1-3.49,3.85-4.79,6.87-2.75A12.59,12.59,0,0,1,214.71,234.77Z"/><path d="M164.53,345.19c0,3-1.56,4.52-4.57,4.23a6,6,0,0,1-5.34-3.86,5.86,5.86,0,0,1,.61-6.24c1.9-2.43,4.52-2.6,6.68-.38A8.59,8.59,0,0,1,164.53,345.19Z"/><path d="M148.08,317.62c-2.92,1.64-5.23,1-6.61-2.09a6.72,6.72,0,0,1,.79-7.28,6.53,6.53,0,0,1,6.38-2.85c3.39.5,5,2.94,4,6.25A9.45,9.45,0,0,1,148.08,317.62Z"/><path d="M213,298.18c5.81-4.85,12.34-6.54,19.4-6.37,7.43.17,13.16,3.74,17.79,9.73-.58-.33-1-.55-1.36-.79-5.54-3.47-11.69-4.33-18-4C225,297.05,219.22,297.67,213,298.18Z"/><path d="M191.21,245.54a17.8,17.8,0,0,1-8.87-2.55c-1.71-1.1-3.17-2.47-2.67-4.67s2.48-2.86,4.36-3.2c5.35-1,9.78,3.86,10.18,8.63a1.78,1.78,0,0,1-.93,1.35A8,8,0,0,1,191.21,245.54Z"/><path d="M148.2,329.34c0,2.67-2.77,6.31-5.16,7-2.72.75-4.71-.74-4.61-3.6.14-3.63,3.26-7.72,7.68-6.12A2.68,2.68,0,0,1,148.2,329.34Z"/><path d="M174.37,316.93a6.63,6.63,0,0,1-4,5.37c-2.09.58-3.62-.57-3.54-2.77.1-2.79,2.51-5.95,5.91-4.71A2.06,2.06,0,0,1,174.37,316.93Z"/><path d="M151.83,279.57c-.65,3.45-1.65,7.18-4.94,9.8-1.17.93-2.5,1.58-3.88.73s-1.26-2.18-.93-3.6c.91-3.92,2.49-7.41,6.15-9.5C150.44,275.73,151.82,276.61,151.83,279.57Z"/><path d="M215.56,261.46a35.21,35.21,0,0,1-2.86-2.81c-2-2.49-3.91-5-5.81-7.6-.78-1.06-1.1-2.48.14-3.19a3.43,3.43,0,0,1,3.07.3A14.57,14.57,0,0,1,216,259.07,11.13,11.13,0,0,1,215.56,261.46Z"/><path d="M241,264.9c-.86-5.52,5.77-12.59,14.9-15.48C250,253.71,244.47,258.25,241,264.9Z"/></g></g></g></svg>