<svg xmlns="http://www.w3.org/2000/svg" xmlns:xlink="http://www.w3.org/1999/xlink" viewBox="0 0 460 460"><defs><style>.cls-1{fill:#5f220c;}.cls-2{fill:url(#Degradado_sin_nombre_14);}.cls-3{fill:url(#Degradado_sin_nombre_14-2);}.cls-4{fill:url(#Degradado_sin_nombre_14-3);}.cls-5{fill:url(#Degradado_sin_nombre_14-4);}.cls-6{fill:url(#Degradado_sin_nombre_14-5);}.cls-7{fill:url(#Degradado_sin_nombre_14-6);}.cls-8{fill:url(#Degradado_sin_nombre_14-7);}.cls-9{fill:#d95b13;}.cls-10{fill:#f6a01e;}.cls-11{fill:#f08210;}.cls-12{fill:#d55314;}.cls-13{fill:#de5c11;}.cls-14{fill:#fbbb3c;}.cls-15{fill:#f0830e;}.cls-16{fill:#b45717;}.cls-17{fill:#903a14;}.cls-18{fill:#ffeace;}.cls-19{fill:#914018;}</style><linearGradient id="Degradado_sin_nombre_14" x1="383.16" y1="450.25" x2="383.16" y2="320" gradientUnits="userSpaceOnUse"><stop offset="0" stop-color="#fbbb3c"/><stop offset="1" stop-color="#de5c11"/></linearGradient><linearGradient id="Degradado_sin_nombre_14-2" x1="216.94" y1="450.25" x2="216.94" y2="320" xlink:href="#Degradado_sin_nombre_14"/><linearGradient id="Degradado_sin_nombre_14-3" x1="272.6" y1="450.25" x2="272.6" y2="320" xlink:href="#Degradado_sin_nombre_14"/><linearGradient id="Degradado_sin_nombre_14-4" x1="327.73" y1="450.25" x2="327.73" y2="320" xlink:href="#Degradado_sin_nombre_14"/><linearGradient id="Degradado_sin_nombre_14-5" x1="119.97" y1="450.25" x2="119.97" y2="320" xlink:href="#Degradado_sin_nombre_14"/><linearGradient id="Degradado_sin_nombre_14-6" x1="166.01" y1="450.25" x2="166.01" y2="320" xlink:href="#Degradado_sin_nombre_14"/><linearGradient id="Degradado_sin_nombre_14-7" x1="73.26" y1="450.25" x2="73.26" y2="320" xlink:href="#Degradado_sin_nombre_14"/></defs><g id="Capa_2" data-name="Capa 2"><g id="Capa_1-2" data-name="Capa 1"><circle class="cls-1" cx="230" cy="230" r="230"/><polygon points="65.33 295.39 196.72 299.29 190.47 394.75 83.64 403.89 65.33 295.39"/><path d="M347.93,402.06V276.67l70.46.12V410.61S358.58,402.75,347.93,402.06Z"/><path d="M239.11,397.23c-1.91-.05-3.82-.05-5.74-.06-2.7,0-5.5,0-8.36-.14a14,14,0,0,1-7.9-3,14.72,14.72,0,0,1-9.74,3.09H205.9c-1.31,0-2.63,0-3.94,0-2.44,0-4.88,0-7.31.07h-.36a13.41,13.41,0,0,1-9.8-3.88,13.7,13.7,0,0,1-3.88-10c0-18.39,0-37.1,0-55.19V276.28h15l3.65,0c1.52,0,3.07,0,4.61.05h.29c7.41.18,15.07.36,22.66.72,14.56.7,24.87,11.75,25.06,26.88.13,10.43.06,21,0,31.17v1.68a25.66,25.66,0,0,1-6.77,17.58c1.59,5.22,3.11,10.45,4.6,15.55q1.41,4.85,2.84,9.68A13.62,13.62,0,0,1,250.73,392a13.4,13.4,0,0,1-11.15,5.27Z"/><path d="M282.35,398.36h-1c-7.62-.22-14.51-.46-21.66-1.11a25.5,25.5,0,0,1-22.84-24.83c-.13-8.44-.1-17-.07-25.21v-2.09l0-8.36c0-3.41,0-6.81,0-10.22,0-7.87-.08-16,.1-24.09.32-14.88,10.74-25.43,25.92-26.26,2.92-.15,5.92-.23,9.18-.23,3.61,0,7.45.09,12.07.3,12.93.56,24,12.46,24.08,26,.21,23.81.35,47.25.41,69.66,0,7.71-2.51,14.35-7.33,19.18S289.9,398.36,282.35,398.36Z"/><path d="M338.76,401.21c-.69,0-1.39,0-2.08-.09-2.71-.22-5.42-.46-8.12-.7-3.37-.3-6.74-.6-10.11-.87-14.9-1.21-25.4-12.49-25.54-27.44q0-3.33-.08-6.66c0-2.93-.08-5.87-.1-8.81a19.48,19.48,0,0,1,.36-3.67c0-.12.05-.24.07-.37l1.55-10.91,5.88.5c-.61-.64-1.19-1.25-1.74-1.85-6.24-6.7-6.29-14.52-6.33-19.69l0-1.24c-.08-5.33-.15-10.55-.05-15.82.24-13.32,6.95-20.19,12.53-23.6a24.2,24.2,0,0,1,12.27-3.62h.12c6.75.05,13.47.38,20,.7l2.87.14c11.47.55,21.81,11.2,22.58,23.25.23,3.63.22,7.14.21,10.53,0,2.07,0,4,0,6a14.1,14.1,0,0,1-3.86,10.56,13.18,13.18,0,0,1-6.09,3.55A28.57,28.57,0,0,1,363,353.71c-.12,4.31-.09,8.59-.06,13.12,0,3.47,0,7.05,0,10.63A24,24,0,0,1,338.76,401.21Z"/><path d="M102.46,403.21a13.52,13.52,0,0,1-9.94-4c-2.71-2.75-4-6.46-4-11,.23-13.37.28-27,.33-40.2q0-7.32.06-14.63c0-6.36.21-35.73.21-35.73,0-2,0-4,0-6.13V276.73h62v15.2c0,4.27,0,8.69-.11,13.09-.22,7.4-7.21,12.54-13.59,12.7-2.37.07-4.74.09-7.08.1v.4c1.18,0,2.35,0,3.52,0,6.18.14,13.23,5.53,13.5,13,.14,4,.12,8,.11,12.09,0,1.23,0,2.47,0,3.73v11.21l-11.2.46c-1.41.05-2.8.12-4.17.19l-1.91.1v.25c1.94-.11,3.89-.24,5.83-.39.59-.05,1.14-.07,1.64-.07A13.43,13.43,0,0,1,147.74,363a14.07,14.07,0,0,1,3.62,10.89c-.17,2.92-.13,6-.1,9.33,0,1.52,0,3.06,0,4.64v10.39L141,399.44l-2.8.34c-2.18.27-4.42.54-6.74.77l-11.31,1.06c-5.1.48-10.2.95-15.3,1.46A21.29,21.29,0,0,1,102.46,403.21Z"/><path d="M148.47,399.26a13.08,13.08,0,0,1-9.36-3.77,13.56,13.56,0,0,1-3.81-10q.12-37.62.15-75.25l0-14.75v-18.8h60.84v14.77c0,4.39,0,8.92-.11,13.44-.2,7.55-7.13,12.19-13.71,12.32-2,0-4,.07-5.92.08V318h17.08v27.15a13.16,13.16,0,0,1-7.93,12.32h11v11.68c0,1.17,0,2.34,0,3.5,0,3.75,0,7.63-.11,11.54-.29,7.33-7,12.66-13,13.05-5.12.32-10.28.56-15.27.78l-8.42.4c-3.06.16-6.32.35-9.42.71A16.78,16.78,0,0,1,148.47,399.26Z"/><path d="M41.77,396.86c.39-32,.74-70,.4-108.5l-.11-11.78,62.69.15v15.19c0,4.48,0,8.71-.1,13.1-.21,7.42-7.09,12.61-13.38,12.8-2.72.08-5.24.13-7.63.16,0,.39,0,.79,0,1.18l2.83-.05H87a13.79,13.79,0,0,1,10.27,4.1A14,14,0,0,1,101,333.83c-.11,3.16-.09,6.42-.07,9.88,0,1.49,0,3,0,4.57v11l-11,.62-4.21.26-2.09.13c0,4.68,0,9.32,0,13.87q0,4.05,0,8.1s-.08,17,0,21.6c-10.46.94-42,6.5-42,6.5Z"/><path class="cls-2" d="M389.47,349.56l-12.17-.8v44.39l-17.69-1.7V288.34h17.32c0,3.86,0,7.52,0,11.18,0,9.13.1,18.26,0,27.4,0,2.17.67,2.85,2.84,2.81,3,0,6,.32,9.36.53,0-2.48,0-4.78,0-7.08-.09-10.67-.12-21.35-.35-32-.05-2.27.6-2.82,2.78-2.75,4.84.17,9.69,0,15.14,0V397.23c-5.4-.74-11-1.46-16.49-2.32a2.19,2.19,0,0,1-1.17-1.73c.07-7.46.31-14.91.39-22.37C389.53,363.84,389.47,356.87,389.47,349.56Z"/><path class="cls-3" d="M210.17,353.24c0,9.5,0,18.79,0,28.09,0,4.23.1,4.18-4.12,4.12-3.88-.05-7.77,0-11.65.05-1.62,0-2.14-.51-2.14-2.21q.09-34.52,0-69V288c3.62,0,7.47-.08,11.31,0,7.56.18,15.12.36,22.68.72,8.76.42,13.83,6.83,13.94,15.37.14,10.87.05,21.75,0,32.63a13.82,13.82,0,0,1-5.91,11.69c-2.06,1.47-2.36,2.89-1.6,5.31,3,9.69,5.78,19.47,8.66,29.2.56,1.88.14,2.72-2,2.67-4.64-.12-9.28,0-13.92-.19a3,3,0,0,1-2.17-1.71c-2.53-8.8-5-17.62-7.29-26.49C214.84,352.58,215,352.53,210.17,353.24Zm-.12-16.49a57.11,57.11,0,0,0,6.87-.05c4-.53,5.85-2.42,5.91-5.88q.16-9.88,0-19.79c0-2.69-1.26-4.71-4.26-5-2-.17-4.06-.21-6.09-.29-1.78-.08-2.56.57-2.5,2.57.15,5.23,0,10.47,0,15.71C210.05,328.2,210.05,332.34,210.05,336.75Z"/><path class="cls-4" d="M248.45,336.75c0-11.35-.19-22.7.06-34.05.2-9.34,6.47-14.4,14.89-14.86,6.68-.36,13.41-.22,20.1.07s12.85,7,12.92,14.41q.3,34.8.41,69.59c0,9.42-5.76,15-15.12,14.77-7-.2-14-.43-20.92-1.07a13.7,13.7,0,0,1-12.24-13.37c-.17-11.83-.05-23.66-.05-35.49Zm30.48,1.07h-.06c0-8.93.05-17.86,0-26.79,0-4.77-1.56-6-6.73-6-4.85,0-6.08,1.19-6.08,6,0,5.42.08,10.84.12,16.27.09,11.9.06,23.8.31,35.7.12,6.35,1.49,7.34,7.79,6.76,3.17-.3,4.64-1.81,4.66-5.1C279,355.68,278.93,346.75,278.93,337.82Z"/><path class="cls-5" d="M304.72,354.25l17.34,1.45c0,3.74,0,7.6,0,11.45,0,3.25,1.25,4.54,4.48,4.85,1.06.1,2.13.08,3.2.15,2.72.17,4-1.41,4.1-3.83.15-3.88.55-7.88-.22-11.61a13.08,13.08,0,0,0-4.47-6.7c-4.38-3.64-9.33-6.58-13.83-10.09a70.6,70.6,0,0,1-7.94-7.53c-3.47-3.73-3.14-8.54-3.21-13.16-.08-5.15-.15-10.29-.06-15.43.1-5.69,1.86-10.74,6.95-13.85a12.38,12.38,0,0,1,6.23-1.9c7.46,0,14.91.46,22.36.82,5.46.26,11.09,6.16,11.49,12.34.33,5.32.09,10.68.23,16,.05,2.22-.77,2.83-2.95,2.61-4.06-.4-8.14-.62-12.21-.7-1.91,0-2.57-.69-2.49-2.57a65.49,65.49,0,0,0-.05-7.28c-.17-2.6-1.69-4-4.31-4.21-.88-.06-1.75,0-2.63,0-4,.05-4.79.82-4.84,4.74a38.88,38.88,0,0,1,0,4.95c-.87,6.22,2.59,9.87,7.24,13.06,5.09,3.49,10.11,7.1,15,10.9,4.69,3.68,7.45,8.38,7.28,14.69-.22,8,0,15.93-.07,23.9a12.41,12.41,0,0,1-13.62,12.19c-6.09-.51-12.17-1.08-18.26-1.57-8.79-.72-14.72-7.08-14.81-15.93-.05-5.14-.14-10.29-.18-15.43A17.24,17.24,0,0,1,304.72,354.25Z"/><path class="cls-6" d="M135.81,347.11c-4.86.2-9.49.54-14.12.51-2.55,0-3.37.74-3.29,3.34.19,5.89.16,11.8,0,17.69-.08,2.33.56,3.16,2.9,3,5.22-.43,10.46-.64,15.68-1.06,2.09-.16,2.89.25,2.75,2.65-.27,4.73-.08,9.48-.08,14.64-3,.35-6.15.77-9.3,1.08-8.89.86-17.78,1.64-26.65,2.53-2.42.24-3.5.06-3.44-3.07.31-18.32.29-36.65.39-55q.1-17.87.22-35.72c0-3,0-6,0-9.3h38.63c0,5.5.06,10.89-.11,16.27,0,.51-1.43,1.36-2.22,1.38-5.24.14-10.49.09-15.73.11-.86,0-1.71.07-2.72.12V322.6a34,34,0,0,1-.06,4.95c-.33,2.19.47,2.7,2.53,2.59,4.15-.22,8.31-.3,12.46-.21.74,0,2.07,1.13,2.09,1.77C135.88,336.72,135.81,341.75,135.81,347.11Z"/><path class="cls-7" d="M185,369.16c0,4.92.08,9.77-.1,14.6,0,.66-1.34,1.79-2.12,1.84-7.84.49-15.7.78-23.55,1.18-3.39.17-6.78.37-10.15.76-1.76.2-2.15-.32-2.14-2q.15-45,.18-90v-7.15h37.49c0,5.44,0,10.84-.11,16.23,0,.35-1.47.95-2.27,1-5.34.11-10.68.09-16,.13a10.23,10.23,0,0,0-1.34.18v23.83H182v15.47c0,1.94-1.42,1.77-2.68,1.77H164.76v22.24Z"/><path class="cls-8" d="M53.84,288.25H93.07c0,5.64.06,11-.09,16.44,0,.53-1.33,1.44-2.06,1.46-5.43.16-10.87.23-16.3.13-2.28,0-2.73.82-2.69,2.92.1,6.76,0,13.52,0,20.28a6.83,6.83,0,0,0,.21,1.34c5,0,9.84.08,14.66,0,2-.06,2.68.55,2.6,2.64-.16,4.82,0,9.65,0,14.86-4.86.27-9.47.65-14.08.75-2.58.06-3.41.83-3.34,3.61.22,9.88.09,19.76.09,29.65,0,3.95,0,7.91,0,12.19L53.44,397C53.88,360.83,54.17,324.75,53.84,288.25Z"/><g id="Guepardoso"><path class="cls-9" d="M127.75,63.89,113.06,49.7s-7.18-.05-10.15,4.9S88.12,71.12,114.39,98.36L122,86.88l-3.82-11.75.52-5.36Z"/><polygon class="cls-10" points="89.77 62.86 92.45 38.52 108.12 25.12 133.07 25.95 152.13 39.35 163.08 46.77 211.44 36.46 232.11 36.67 230 48.01 222.77 52.34 180.91 55.5 158.44 65.13 142.76 65.13 132.66 53.17 125.23 41.41 114.72 41 97.68 61.42 90.59 67.4 89.77 62.86"/><path class="cls-11" d="M90.93,66.49s19.25-51.54,49.5-14.7c13.92,19.33,28.87,3.71,48.31-1.37,21.5-5.62,38.47-2.75,38.47-2.75L230,148.23l28.38,9.69s63.87,36.33,28.47,82.49-59.71,38.77-59.71,38.77l.11-108.89-22.32,5.86-6.51,7.48-27.25,11.81,19.6,71.78-27.69-2.61-31.45-22.55,1.1,5.55-24.24-14.53L95.33,201.19l-10,8.43-3.21-29.73L97,159.07l-17-6.12,24-20.36,32.16-61.47s-6-13.28-16.48-19.33-16.75,2.81-16.75,2.81S90.56,71,114.39,98.36l-1.72,3.32L96.16,92.35Z"/><path class="cls-12" d="M204.93,268s40.79,11.6,63.07-20.34l-1.65,11.19-17.87,14.6-20,5.78H214.9Z"/><path class="cls-10" d="M120.22,233.08,100.89,192.2,94,195.44s-5-13.87,4.76-39.14c0,0,22.47-43.55,21.51-51.69L93.1,141.8l-7.75,13.1,4.42,9.53L79.94,199l5.41,13.35,10.4-8.66,12.74,32.17,14.2,6.91Z"/><path class="cls-13" d="M121.46,239l-4.27-20.49s30.11,34.23,61.87,39.59l-.57-6.42,9,13L179.68,267l-36.56-12.78L122.55,245Z"/><path class="cls-14" d="M201.07,183.63s-44.28-4.15-32.32,43,59.69,52.53,59.69,52.53l-1.19-75.89Z"/><path class="cls-15" d="M204.93,268a76.63,76.63,0,0,0,23.51,1.78c.17,6.34-.15,7-.15,7l-14-1.86Z"/><path class="cls-16" d="M234.7,38.59V52.66l64.17,13.83L323,38.59l39.6-4.39s-22.66-16-36.35-11-32.39,19.24-33.49,24.47S228.35,26.5,234.7,38.59Z"/><path class="cls-17" d="M232.11,49.87c-6.47,5.61-6,56-2.11,96.66,0,0,30.56,11.12,34.41,16.69,0,0,80.44,30.17-3.9,110.18,0,0,99.82-21.07,114.15-96.73l-6.15-30.18-46.34-80,15.4-19.1s15,.23,21,11.66-9.3,42.66-9.3,42.66,38.13-29.17,11.68-63.8c-41.25-24.06-64.76,21.53-64.24,24.17C283.49,55.5,238.59,44.25,232.11,49.87Z"/><path class="cls-1" d="M260.51,273.4s50.11-14.94,61.66-41.29c0,0,1.92,8.3,0,11.6s43.11-40.48,28-63.82c0,0,12.24,6.92,18.3,12.31,0,7.33-1.63,8.38-1.63,8.38l-10.27-9.46s14,24.91-20.56,53C301.62,272.58,260.51,273.4,260.51,273.4Z"/><path class="cls-1" d="M342.93,47.67S354,50.1,358.56,59.05s-2.84,31.68-9.3,42.66-12.11-12.8-12.11-12.8l9.08-17.46-19.11-12.1,3-10.44Z"/><ellipse class="cls-18" cx="279.69" cy="142.41" rx="19.18" ry="22.02"/><ellipse class="cls-18" cx="176.6" cy="142.66" rx="24.47" ry="23.71"/><polygon class="cls-19" points="203.25 178.96 227.14 173.6 247.25 175.76 254.47 179.89 253.84 183.54 237.35 186.66 222.5 188.99 209.03 186.24 201.07 185.69 199.81 181.84 203.25 178.96"/><path d="M107.6,110.66C93.79,102,86.12,89.74,83.27,74.28,80.93,61.62,82.14,49.4,88.5,38,96,24.68,107.41,18.15,122.76,18.38c11.7.19,21.47,5.06,30.25,12.29,3.94,3.25,7.64,6.8,11.34,10.33a2.22,2.22,0,0,0,2.87.44,124.94,124.94,0,0,1,39.65-10.23,162.28,162.28,0,0,1,35.65,1,173,173,0,0,1,46,13.25c2.83-4.08,5.36-8.43,8.55-12.21,7.63-9,17.5-14.21,29.27-15.82,11.37-1.55,22,.36,31.65,6.63,11.67,7.56,18.26,18.44,20.2,32.08,2.28,16.09-1.78,30.62-11.59,43.48-3,4-6.6,7.57-10.43,11.91,3.6,8.78,7.57,19,15.42,27,3.82,3.88,7.94,7.47,12,11.11,3.08,2.76,3.45,4.15.6,7.16a95,95,0,0,1-7.94,6.87c1.75,6,4.22,12,5.18,18.29,2.37,15.47.16,30.27-8.72,43.59-1.66,2.48-2,2.41-3.73.05-.76-1-1.51-2.05-2.44-3.31-.49,1.14-.9,2.17-1.38,3.18a77.25,77.25,0,0,1-17.72,23.45c-16.62,15.4-36.79,24.14-58.21,30a324.32,324.32,0,0,1-37.74,7.68,103.1,103.1,0,0,1-50.68-4.78c-6.71-2.4-14-3.11-21-4.81-23.34-5.71-45.06-15.08-64.64-29.12-10.46-7.49-18.32-17.09-22.85-29.26,0-.15-.23-.24-.6-.59l-2.8,8c-1.66-1.73-3.09-3-4.23-4.46-4.85-6.2-7-13.49-8-21.12-1.51-12.12.87-23.61,6.25-34.53a11.77,11.77,0,0,1,.59-1c-2.62-2.59-5.44-4.91-7.68-7.69-3-3.77-2.44-5.05,1.35-8.39A174.43,174.43,0,0,0,92.72,134C98.87,127.12,103.26,118.94,107.6,110.66ZM339.29,50.28c-4.75,1.75-5.57,4-7.36,6.5,3.62.55,6.63-.52,10.76,2.37s5.2,7,5.85,9.69a25.83,25.83,0,0,1-.08,9.83c-.62,2.85-3.22,6.64-5,9.87-1,1.82-1.24,3.4.1,5.14s2.65,3.71,4,5.57l1.73,2.46c3.4-3.56,7-6.74,9.91-10.47,12.66-16.22,10.91-37.52,1-50.46-8.8-11.5-21-15.41-35-12.47-13.6,2.86-22.61,11.22-26.38,24.81-.81,2.89-1.4,5.84-2.13,9C278.4,51,258.76,45,237.75,42.88c-5.78,29.66-6.82,59.34-8.9,88.24-3.06-29.45-5.35-59.62-2.17-90.68-9.07.75-17.83,1-26.46,2.29a130.31,130.31,0,0,0-33,9.63c-2.86,1.25-5.3,1.1-7.57-.74-3.57-2.89-6.87-6.11-10.47-9-4.45-3.5-8.77-7.39-13.72-10C118.36,23.56,99.49,31.56,94.33,50c-3.15,11.2-1.72,22.21,3.07,32.74a48.28,48.28,0,0,0,15.27,19c1.54-2.79,2.68-5.59,4.45-7.92,2.81-3.68,3.41-7-.19-10.43a4.48,4.48,0,0,1-.83-1.28c-2.73-5.56-1.51-10.89,3.42-14.71,1.32-1,2.76-1.86,4.39-3a66.81,66.81,0,0,0-3.71-6,17,17,0,0,0-9.78-6.52c-3-.69-5.46.52-7.51,2.78,3.83-6.86,8.37-9.54,14.51-8.43,4.93.89,8.79,3.9,11.63,7.77,4.06,5.51,7.6,11.41,11.27,17.2a2.21,2.21,0,0,1-.39,1.9c-8.4,10.7-14.2,22.79-19.39,35.27-6.06,14.55-14.14,27.84-25.8,38.7-2.09,1.94-4.19,3.87-6.64,6.12l10.61,3.17C89.12,171,82.13,186.53,86.87,204.53l14.64-18.79.59.3c-6.68,24.42,9.54,49.51,26.16,57.11L122.43,229c18.64,18.2,39.75,30.33,65,35.67l-10.3-14.9a6.57,6.57,0,0,1,1,.56,125.82,125.82,0,0,0,34.12,20.9c13.1,5.42,25.85,5,37.93-2.68a166.2,166.2,0,0,0,16.51-11.87,85.92,85.92,0,0,0,22.72-27.86c5.52-11,7-22.52,2.63-34.22-3.38-9.09-10.23-15.76-17.31-22.06a24.86,24.86,0,0,0-6.47-3.78,21.69,21.69,0,0,1-9-7.24,31,31,0,0,1-5.79-19.85c-2.66.13-5.29.79-7.65.27-7.37-1.65-10.6-14.29-5.18-20.48.35,1.89.58,3.64,1,5.33,1.07,4.22,3.34,5.19,6.53,2.31A91.24,91.24,0,0,0,257.52,119c6.41-7.9,12.68-16,21.65-21.13a35,35,0,0,1,11.72-4.59c10.07-1.52,19.24,8.83,20.89,18.55-12-12.79-23.93-8.29-34.15,3.65,11.64-2.32,22,9.11,24.41,20.9a28.44,28.44,0,0,1-3.88,22.06,23.5,23.5,0,0,1-19.31,11.17c2.54,2.09,4.81,3.88,7,5.77,9,7.88,14.37,17.73,15,29.73,1.12,20.42-7.31,37.18-20.63,51.92-.8.89-1.7,1.68-2.55,2.51s-16.22,12.93-17.18,13.84c39.18-4.33,62.55-19.86,75.06-29.48,13.41-10.32,29.7-31.14,21-52.8a127.6,127.6,0,0,1,10.27,9.46,8.1,8.1,0,0,0,1.32-3.87c1.93-14.9-5.45-26.18-13.89-36.72l14.83-4.09c-8.9-6.31-13.75-14.69-18-23.48-3.88-8-7.5-16.23-11.44-24.25-7.23-14.72-13.71-30-28.06-39.77,3.38-6.88,6.6-13.78,12.1-19.2C328.51,44.52,334,41,341,41.85c9.81,1.15,15.25,8.56,18.13,16.65,0,.1-.37.37-.56.55l-6.2-6.27C348.23,50.09,344,48.53,339.29,50.28ZM270.74,160.81c.19.35.24.55.36.64a5.76,5.76,0,0,0,.88.48c5.51,2.51,10.67,1.06,15.42-1.87,9.44-5.83,11.83-21.73,4.68-31.31a11.54,11.54,0,0,0-17.15-1.93c7.21.93,10.45,7.18,11,12.71a21.74,21.74,0,0,1-2.91,14.19C280.21,158.24,275.86,160.15,270.74,160.81Zm8.13-23.58c0-2.64-1.59-4.64-3.64-4.64s-4.61,3-4.51,5.57a3.72,3.72,0,0,0,3.83,3.64C277.26,141.77,278.89,140.05,278.87,137.23Z"/><path d="M182.52,226.24s11.77,22,45.92,21.35c33.49-1,42.64-22.59,44.1-27.71l-3-1.33s-9,21.74-41.09,21.95c-35.43-2.22-42.22-15.32-42.22-15.32Z"/><path d="M166.83,211.64v14.88c-6.12-10.56-3.36-21.08-.15-32-5.5,1.76-8.66,6.08-12.33,9.82.37-13.08,14.3-20.47,28-14.93,0,.14,0,.39-.06.41-8.72,2.42-10.07,9.7-7.24,17,3.51,9.08,10.75,14,19.88,16.23,8.41,2.1,16.69,1.75,24.52-2.29,4.72-2.45,6.67-5.82,7-11.17-6.11-3.14-12.37-6-18.21-9.51a35.06,35.06,0,0,1-9.39-8c-5.25-6.69-2.9-15.13,5.06-18.11a54.82,54.82,0,0,1,14.8-3.24,148.54,148.54,0,0,1,21.41,0,48.44,48.44,0,0,1,13.29,3.06c7.37,2.75,9.58,9.33,6.07,16.41-2.76,5.58-7.28,9.33-12.75,12-4.73,2.29-9.52,4.45-14.34,6.57-1.1.48-1.5.82-1.32,2.18.81,6,5.84,10.86,12.29,11.88,13.68,2.17,26.76-6.46,31.68-19.49.51-1.36.26-2.13-1.1-2.49-2-.53-4.07-1-6.07-1.48,1.57-2.82,5.45-3.83,9.64-2.52,5.2,1.62,10,6.74,9.26,12.57l-5.22-4.4a103.41,103.41,0,0,1-4.77,9.36c-7.4,11.52-18,17.29-31.74,16.52-4.24-.24-8.46-1.57-12.6-2.72a11,11,0,0,0-7.15.05c-8,3-16.4,4.62-25,3.71-13.49-1.43-24.29-7.62-31.73-19.2-.22-.35-.47-.68-.72-1C167.86,211.61,167.74,211.64,166.83,211.64Zm35.53-29.38c5.63-1.23,12,.07,17.53,1.37,6.63,1.57,13.15-.15,19.71-1.36,4.36-.8,8.77-1.29,13.7-2-1.59-.91-3.05-2.38-4.63-2.54-7.52-.77-14-2-21.53-2-6.16.05-13.4,1.6-19.51,2.6C205.92,178.65,202.23,181.91,202.36,182.26Z"/><path class="cls-18" d="M189.37,229s2.95,3.47,15.3,7.92a70,70,0,0,0,24.14,4s6.44.62,18.19-3.4,17.07-11.07,17.07-11.07a31.33,31.33,0,0,1-12.43,4.21,38.84,38.84,0,0,1-16.49-1.81c-5.15-1.75-6-1.51-6.41-1.51a10.05,10.05,0,0,0-3,.64,62.55,62.55,0,0,1-19.13,4.09C198.78,232.64,189.37,229,189.37,229Z"/><path d="M169.1,115.36c-8.67-6.38-20.57-9.45-33,4.42,1-6.86,3.77-12.57,9-16.92,6.28-5.25,13.51-5.76,20.48-2.3A134.46,134.46,0,0,1,183.54,112c5.87,4.19,11.12,9.26,17.08,13.31,7.19,4.9,7.2,3.31,10.19-2.54,1.43-2.8,2.51-5.77,3.92-8.67-.22,7.08,1.06,14.24-1.17,21.27-1.76,5.53-5.84,8-11.42,8.71a24.76,24.76,0,0,1-4.83,15.56c-5.63,7.89-13.72,10.57-23,9.83-9.79-.79-17.76-5.15-22.53-14-6.41-11.94-5.74-25.09,4.55-35.57A14.74,14.74,0,0,1,169.1,115.36Zm19.69,46.82-.24-.86-1.68.27c-3.94.54-7.82.41-11.41-1.52-9-4.8-10.92-14-9.44-23,.78-4.71,2.83-9,6.95-12a10.87,10.87,0,0,0-14.64,2.71c-5,6.54-5.6,13.81-3,21.43,4.14,11.9,15.85,16.23,26.85,15C184.47,164,186.61,162.89,188.79,162.18Zm-1.46-20.24c2,.09,3.28-.89,3.43-2.9.21-2.87-2.51-5.92-5.13-5.93a3.72,3.72,0,0,0-3.44,3.92A5.12,5.12,0,0,0,187.33,141.94Z"/><path d="M209.71,70.81a15.1,15.1,0,0,1,0,1.78c-.43,3.55-3,5.57-6.36,4.67-7.59-2-12.29-10.81-10.58-16.82,1.32-4.63,5.11-6.36,9.13-3.66A16.73,16.73,0,0,1,209.71,70.81Z"/><path d="M143.12,217.33c0,4-2.07,6-6.07,5.63a8,8,0,0,1-7.08-5.13c-1.2-2.88-1.2-5.72.81-8.29,2.52-3.22,6-3.45,8.86-.49A11.31,11.31,0,0,1,143.12,217.33Z"/><path d="M121.29,180.75c-3.87,2.18-6.94,1.31-8.77-2.77a8.92,8.92,0,0,1,1-9.67c2.14-2.74,4.88-4.3,8.46-3.77,4.51.66,6.64,3.89,5.36,8.3A12.57,12.57,0,0,1,121.29,180.75Z"/><path d="M207.44,155c7.72-6.44,16.37-8.68,25.74-8.46,9.87.23,17.47,5,23.61,12.92-.77-.45-1.3-.73-1.81-1-7.34-4.6-15.5-5.75-23.91-5.32C223.37,153.45,215.7,154.28,207.44,155Z"/><path d="M178.53,85.11c-4.5-.29-8.33-1.17-11.78-3.4-2.26-1.46-4.2-3.27-3.54-6.19s3.29-3.8,5.79-4.24c7.1-1.27,13,5.12,13.51,11.44a2.38,2.38,0,0,1-1.24,1.8A10.52,10.52,0,0,1,178.53,85.11Z"/><path d="M121.45,196.3c0,3.55-3.67,8.38-6.85,9.26-3.6,1-6.25-1-6.11-4.78.18-4.8,4.33-10.24,10.19-8.11C120.52,193.34,121.57,194.57,121.45,196.3Z"/><path d="M156.18,179.83c0,2.73-2.83,6.45-5.28,7.13-2.77.77-4.81-.76-4.7-3.68.13-3.7,3.33-7.88,7.85-6.25A2.74,2.74,0,0,1,156.18,179.83Z"/><path d="M126.26,130.26c-.85,4.58-2.18,9.53-6.55,13-1.55,1.23-3.32,2.09-5.14,1s-1.68-2.9-1.24-4.78c1.21-5.2,3.3-9.83,8.16-12.61C124.42,125.17,126.26,126.33,126.26,130.26Z"/><path d="M210.83,106.23A46.84,46.84,0,0,1,207,102.5c-2.63-3.31-5.19-6.68-7.7-10.08-1.05-1.42-1.47-3.3.18-4.24a4.54,4.54,0,0,1,4.07.4,19.33,19.33,0,0,1,7.84,14.48A14.56,14.56,0,0,1,210.83,106.23Z"/><path d="M244.64,110.8c-1.15-7.33,7.66-16.71,19.77-20.55C256.52,96,249.21,102,244.64,110.8Z"/></g></g></g></svg>