<svg xmlns="http://www.w3.org/2000/svg" viewBox="0 0 460 460"><defs><style>.cls-1{fill:#5f220c;}.cls-2{fill:#de5c11;}.cls-3{fill:#d95b13;}.cls-4{fill:#f6a01e;}.cls-5{fill:#f08210;}.cls-6{fill:#d55314;}.cls-7{fill:#fbbb3c;}.cls-8{fill:#f0830e;}.cls-9{fill:#b45717;}.cls-10{fill:#903a14;}.cls-11{fill:#ffeace;}.cls-12{fill:#914018;}</style></defs><g id="Capa_2" data-name="Capa 2"><g id="Capa_1-2" data-name="Capa 1"><circle class="cls-1" cx="230" cy="230" r="230"/><polygon points="65.33 129.54 196.72 133.44 190.47 228.9 83.64 238.05 65.33 129.54"/><path d="M347.93,236.22V110.83l70.46.12V244.77S358.58,236.91,347.93,236.22Z"/><path d="M239.11,231.39c-1.91,0-3.82-.06-5.74-.06-2.7,0-5.5,0-8.36-.14a14,14,0,0,1-7.9-3,14.75,14.75,0,0,1-9.74,3.08H205.9c-1.31,0-2.63,0-3.94,0q-3.66,0-7.31.08h-.36a13.41,13.41,0,0,1-9.8-3.87,13.7,13.7,0,0,1-3.88-10c0-18.39,0-37.1,0-55.19V110.44h11.67l3.33,0h3.65c1.52,0,3.07,0,4.61,0h.29c7.41.17,15.07.36,22.66.72,14.56.7,24.87,11.75,25.06,26.88.13,10.43.06,21,0,31.17v1.68a25.7,25.7,0,0,1-6.77,17.58c1.59,5.22,3.11,10.45,4.6,15.55q1.41,4.83,2.84,9.68a13.62,13.62,0,0,1-1.85,12.39,13.4,13.4,0,0,1-11.15,5.27Z"/><path d="M282.35,232.52h-1c-7.62-.23-14.51-.46-21.66-1.12a25.48,25.48,0,0,1-22.84-24.82c-.13-8.44-.1-17-.07-25.21v-2.1l0-8.35q0-5.11,0-10.23c0-7.87-.08-16,.1-24.08.32-14.88,10.74-25.43,25.92-26.26,2.92-.16,5.92-.23,9.18-.23,3.61,0,7.45.09,12.07.29,12.93.57,24,12.47,24.08,26,.21,23.81.35,47.24.41,69.65,0,7.72-2.51,14.35-7.33,19.18S289.9,232.52,282.35,232.52Z"/><path d="M338.76,235.37c-.69,0-1.39,0-2.08-.09l-8.12-.71c-3.37-.29-6.74-.59-10.11-.86-14.9-1.21-25.4-12.5-25.54-27.45q0-3.31-.08-6.65c0-2.94-.08-5.87-.1-8.81a19.38,19.38,0,0,1,.36-3.67c0-.12.05-.24.07-.37l1.55-10.91,5.88.49c-.61-.63-1.19-1.25-1.74-1.84-6.24-6.7-6.29-14.52-6.33-19.7l0-1.23c-.08-5.33-.15-10.55-.05-15.82.24-13.32,6.95-20.19,12.53-23.6a24.2,24.2,0,0,1,12.27-3.62h.12c6.75,0,13.47.38,20,.7l2.87.14c11.47.55,21.81,11.2,22.58,23.25.23,3.63.22,7.14.21,10.53,0,2.07,0,4,0,5.95a14.15,14.15,0,0,1-3.86,10.57,13.18,13.18,0,0,1-6.09,3.55A28.56,28.56,0,0,1,363,187.87c-.12,4.31-.09,8.59-.06,13.12,0,3.46,0,7,0,10.63A24,24,0,0,1,338.76,235.37Z"/><path d="M102.46,237.37a13.52,13.52,0,0,1-9.94-4c-2.71-2.75-4-6.47-4-11,.23-13.38.28-27,.33-40.2q0-7.32.06-14.63c0-6.36.21-35.73.21-35.73,0-2,0-4,0-6.13V110.89h62v15.2c0,4.27,0,8.68-.11,13.09-.22,7.39-7.21,12.54-13.59,12.7-2.37.06-4.74.09-7.08.1v.4c1.18,0,2.35,0,3.52,0,6.18.14,13.23,5.53,13.5,13,.14,4.05.12,8,.11,12.09,0,1.22,0,2.47,0,3.73v11.21l-11.2.45-4.17.2-1.91.09v.26c1.94-.12,3.89-.24,5.83-.4.59,0,1.14-.07,1.64-.07a13.39,13.39,0,0,1,10.07,4.14A14.06,14.06,0,0,1,151.36,208c-.17,2.92-.13,6-.1,9.33,0,1.52,0,3.06,0,4.64V232.4L141,233.6l-2.8.34c-2.18.26-4.42.54-6.74.76q-5.66.56-11.31,1.07c-5.1.48-10.2.95-15.3,1.46C104.21,237.29,103.38,237.37,102.46,237.37Z"/><path d="M148.47,233.41a13.08,13.08,0,0,1-9.36-3.77,13.54,13.54,0,0,1-3.81-10q.12-37.62.15-75.24l0-14.76v-18.8h60.84v14.78c0,4.38,0,8.92-.11,13.44-.2,7.55-7.13,12.19-13.71,12.32-2,0-4,.07-5.92.08v.72h17.08v27.15a13.17,13.17,0,0,1-7.93,12.32h11v11.67c0,1.18,0,2.34,0,3.51,0,3.75,0,7.62-.11,11.53-.29,7.34-7,12.67-13,13.06-5.12.32-10.28.55-15.27.78l-8.42.4c-3.06.16-6.32.35-9.42.71A19.19,19.19,0,0,1,148.47,233.41Z"/><path d="M41.77,231c.39-32,.74-70,.4-108.51l-.11-11.77,62.69.15v15.18c0,4.49,0,8.72-.1,13.11-.21,7.42-7.09,12.61-13.38,12.8-2.72.08-5.24.13-7.63.16,0,.39,0,.78,0,1.17,1,0,1.94,0,2.83-.05H87a13.83,13.83,0,0,1,10.27,4.09A14,14,0,0,1,101,168c-.11,3.16-.09,6.42-.07,9.88,0,1.49,0,3,0,4.57v11l-11,.63-4.21.26-2.09.13c0,4.68,0,9.32,0,13.87q0,4.05,0,8.1s-.08,17.05,0,21.6c-10.46.94-42,6.5-42,6.5Z"/><path class="cls-2" d="M389.47,183.72l-12.17-.81V227.3l-17.69-1.69V122.5h17.32c0,3.86,0,7.51,0,11.17,0,9.14.1,18.27,0,27.4,0,2.18.67,2.86,2.84,2.82,3,0,6,.31,9.36.52,0-2.48,0-4.78,0-7.07-.09-10.68-.12-21.35-.35-32-.05-2.27.6-2.82,2.78-2.75,4.84.16,9.69.05,15.14.05V231.39c-5.4-.74-11-1.46-16.49-2.33-.49-.07-1.18-1.13-1.17-1.72.07-7.46.31-14.91.39-22.37C389.53,198,389.47,191,389.47,183.72Z"/><path class="cls-2" d="M210.17,187.4c0,9.49,0,18.79,0,28.09,0,4.23.1,4.18-4.12,4.12-3.88-.06-7.77,0-11.65,0-1.62,0-2.14-.51-2.14-2.21q.09-34.51,0-69V122.11c3.62,0,7.47-.07,11.31,0,7.56.18,15.12.36,22.68.72,8.76.42,13.83,6.83,13.94,15.37.14,10.87.05,21.75,0,32.63a13.8,13.8,0,0,1-5.91,11.68c-2.06,1.48-2.36,2.9-1.6,5.32,3,9.69,5.78,19.46,8.66,29.2.56,1.88.14,2.72-2,2.67-4.64-.12-9.28,0-13.92-.19a3,3,0,0,1-2.17-1.71c-2.53-8.8-5-17.62-7.29-26.49C214.84,186.74,215,186.69,210.17,187.4Zm-.12-16.5a57.29,57.29,0,0,0,6.87,0c4-.53,5.85-2.42,5.91-5.88q.16-9.9,0-19.79c0-2.69-1.26-4.71-4.26-5-2-.17-4.06-.21-6.09-.3-1.78-.07-2.56.58-2.5,2.58.15,5.23,0,10.47,0,15.7C210.05,162.36,210.05,166.5,210.05,170.9Z"/><path class="cls-2" d="M248.45,170.91c0-11.35-.19-22.71.06-34,.2-9.34,6.47-14.4,14.89-14.86,6.68-.37,13.41-.23,20.1.07s12.85,7,12.92,14.41q.3,34.8.41,69.59c0,9.42-5.76,15-15.12,14.77-7-.21-14-.43-20.92-1.07a13.7,13.7,0,0,1-12.24-13.37c-.17-11.83-.05-23.66-.05-35.49ZM278.93,172h-.06c0-8.93.05-17.86,0-26.79,0-4.77-1.56-6.06-6.73-6-4.85,0-6.08,1.19-6.08,6,0,5.42.08,10.84.12,16.26.09,11.91.06,23.81.31,35.71.12,6.35,1.49,7.34,7.79,6.75,3.17-.29,4.64-1.8,4.66-5.09C279,189.84,278.93,180.91,278.93,172Z"/><path class="cls-2" d="M304.72,188.4l17.34,1.46c0,3.74,0,7.59,0,11.45,0,3.25,1.25,4.54,4.48,4.84,1.06.1,2.13.09,3.2.15,2.72.17,4-1.4,4.1-3.83.15-3.87.55-7.87-.22-11.6a13.1,13.1,0,0,0-4.47-6.71c-4.38-3.63-9.33-6.58-13.83-10.09a68.84,68.84,0,0,1-7.94-7.53c-3.47-3.73-3.14-8.53-3.21-13.16-.08-5.14-.15-10.28-.06-15.42.1-5.69,1.86-10.74,6.95-13.85a12.38,12.38,0,0,1,6.23-1.9c7.46,0,14.91.46,22.36.82,5.46.26,11.09,6.16,11.49,12.33.33,5.33.09,10.69.23,16,.05,2.21-.77,2.83-2.95,2.61-4.06-.41-8.14-.63-12.21-.71-1.91,0-2.57-.69-2.49-2.56a65.65,65.65,0,0,0-.05-7.29c-.17-2.59-1.69-4-4.31-4.21-.88,0-1.75,0-2.63,0-4,.05-4.79.82-4.84,4.74a38.88,38.88,0,0,1,0,4.95c-.87,6.22,2.59,9.87,7.24,13.06,5.09,3.49,10.11,7.09,15,10.9,4.69,3.67,7.45,8.38,7.28,14.68-.22,8,0,15.94-.07,23.91a12.41,12.41,0,0,1-13.62,12.19c-6.09-.51-12.17-1.08-18.26-1.58-8.79-.71-14.72-7.08-14.81-15.92-.05-5.14-.14-10.29-.18-15.43A17.6,17.6,0,0,1,304.72,188.4Z"/><path class="cls-2" d="M135.81,181.27c-4.86.2-9.49.54-14.12.51-2.55,0-3.37.74-3.29,3.33.19,5.9.16,11.81,0,17.7-.08,2.33.56,3.16,2.9,3,5.22-.42,10.46-.63,15.68-1.05,2.09-.17,2.89.25,2.75,2.65-.27,4.73-.08,9.48-.08,14.64-3,.35-6.15.77-9.3,1.07-8.89.87-17.78,1.64-26.65,2.54-2.42.24-3.5.06-3.44-3.07.31-18.32.29-36.65.39-55q.1-17.87.22-35.72c0-3,0-6,0-9.3h38.63c0,5.5.06,10.89-.11,16.27,0,.5-1.43,1.36-2.22,1.38-5.24.14-10.49.09-15.73.11-.86,0-1.71.07-2.72.11v16.33a33.88,33.88,0,0,1-.06,4.94c-.33,2.2.47,2.7,2.53,2.59,4.15-.22,8.31-.3,12.46-.2.74,0,2.07,1.12,2.09,1.76C135.88,170.88,135.81,175.91,135.81,181.27Z"/><path class="cls-2" d="M185,203.32c0,4.92.08,9.76-.1,14.59,0,.67-1.34,1.8-2.12,1.85-7.84.49-15.7.77-23.55,1.17-3.39.18-6.78.38-10.15.77-1.76.2-2.15-.32-2.14-2q.15-45,.18-90v-7.14h37.49c0,5.44,0,10.83-.11,16.22,0,.36-1.47,1-2.27,1-5.34.11-10.68.09-16,.12-.37,0-.74.1-1.34.18v23.84H182v15.47c0,1.94-1.42,1.76-2.68,1.77H164.76v22.24Z"/><path class="cls-2" d="M53.84,122.41H93.07c0,5.64.06,11-.09,16.44,0,.53-1.33,1.44-2.06,1.46-5.43.16-10.87.23-16.3.13-2.28-.05-2.73.81-2.69,2.92.1,6.76,0,13.52,0,20.28A6.57,6.57,0,0,0,72.1,165c5,0,9.84.09,14.66,0,2-.05,2.68.56,2.6,2.65-.16,4.82,0,9.65,0,14.85-4.86.28-9.47.66-14.08.76-2.58.06-3.41.83-3.34,3.6.22,9.88.09,19.77.09,29.66,0,4,0,7.91,0,12.19l-18.53,2.52C53.88,195,54.17,158.91,53.84,122.41Z"/><g id="Guepardoso"><path class="cls-3" d="M145.88,239.69l-11.7-11.29s-5.71,0-8.08,3.9-11.77,13.15,9.14,34.82l6.09-9.13-3-9.35.41-4.27Z"/><polygon class="cls-4" points="115.64 238.87 117.78 219.5 130.25 208.84 150.11 209.5 165.28 220.16 173.99 226.07 212.48 217.87 228.93 218.03 227.25 227.06 221.5 230.5 188.18 233.01 170.29 240.68 157.82 240.68 149.78 231.16 143.87 221.81 135.5 221.48 121.94 237.72 116.3 242.48 115.64 238.87"/><path class="cls-5" d="M116.57,241.76s15.32-41,39.39-11.69c11.08,15.38,23,2.94,38.45-1.1A80.38,80.38,0,0,1,225,226.78l2.22,80,22.59,7.71s50.83,28.91,22.65,65.65S225,411,225,411l.09-86.66L207.3,329,202.11,335l-21.68,9.4L196,401.52l-22-2.08-25-17.95.87,4.42-19.29-11.56L120.07,349l-7.94,6.7L109.57,332l11.79-16.58-13.54-4.86L127,294.37l25.59-48.92s-4.8-10.57-13.11-15.38-13.34,2.23-13.34,2.23-9.83,13,9.14,34.82l-1.37,2.65-13.14-7.43Z"/><path class="cls-6" d="M207.3,402.1s32.46,9.23,50.2-16.19l-1.32,8.91L242,406.44,226,411H215.23Z"/><path class="cls-4" d="M139.88,374.35,124.5,341.81,119,344.39s-4-11,3.78-31.15c0,0,17.89-34.66,17.12-41.14L118.3,301.7l-6.17,10.42,3.51,7.59-7.82,27.52,4.31,10.63L120.4,351l10.14,25.6,11.31,5.5Z"/><path class="cls-2" d="M140.87,379.09l-3.4-16.31s24,27.25,49.24,31.51l-.46-5.11,7.14,10.33-6.19,1.84-29.1-10.17-16.36-7.39Z"/><path class="cls-7" d="M204.23,335s-35.25-3.3-25.73,34.24S226,411,226,411l-.95-60.39Z"/><path class="cls-8" d="M207.3,402.1A60.85,60.85,0,0,0,226,403.51c.13,5.05-.12,5.6-.12,5.6l-11.16-1.48Z"/><path class="cls-9" d="M231,219.56v11.19l51.07,11,19.2-22.2,31.51-3.5s-18-12.69-28.93-8.75-25.77,15.32-26.65,19.47S225.93,209.93,231,219.56Z"/><path class="cls-10" d="M228.93,228.53c-5.15,4.47-4.79,44.56-1.68,76.93,0,0,24.32,8.85,27.39,13.29,0,0,64,24-3.11,87.69,0,0,79.45-16.78,90.85-77l-4.9-24L300.6,241.76l12.26-15.2s12,.19,16.7,9.29-7.4,34-7.4,34,30.36-23.23,9.3-50.78c-32.82-19.15-51.54,17.13-51.13,19.23C269.82,233,234.09,224.07,228.93,228.53Z"/><path class="cls-1" d="M251.53,406.44s39.88-11.9,49.07-32.86c0,0,1.54,6.6,0,9.23s34.31-32.22,22.32-50.79c0,0,9.75,5.5,14.56,9.79,0,5.83-1.29,6.67-1.29,6.67L328,341s11.14,19.81-16.35,42.17C284.25,405.78,251.53,406.44,251.53,406.44Z"/><path class="cls-1" d="M317.13,226.78s8.79,1.94,12.43,9.07-2.25,25.21-7.4,34-9.63-10.19-9.63-10.19l7.22-13.9-15.21-9.63,2.41-8.31Z"/><ellipse class="cls-11" cx="266.8" cy="302.19" rx="15.26" ry="17.53"/><ellipse class="cls-11" cx="184.75" cy="302.39" rx="19.47" ry="18.87"/><polygon class="cls-12" points="205.96 331.27 224.97 327.01 240.97 328.73 246.73 332.02 246.23 334.92 233.1 337.4 221.28 339.26 210.56 337.07 204.23 336.63 203.23 333.57 205.96 331.27"/><path d="M129.84,276.92c-11-6.88-17.1-16.66-19.37-29-1.86-10.07-.89-19.8,4.16-28.85,5.93-10.62,15.05-15.82,27.27-15.63,9.31.14,17.09,4,24.08,9.77,3.14,2.59,6.07,5.42,9,8.22a1.75,1.75,0,0,0,2.28.36,99.52,99.52,0,0,1,31.57-8.15,129.47,129.47,0,0,1,28.37.78A137.56,137.56,0,0,1,273.8,225c2.25-3.26,4.26-6.71,6.8-9.72a35.75,35.75,0,0,1,23.29-12.59c9.05-1.24,17.49.28,25.19,5.27,9.29,6,14.53,14.67,16.08,25.53,1.81,12.8-1.42,24.37-9.23,34.61-2.41,3.17-5.25,6-8.3,9.48,2.87,7,6,15.12,12.28,21.48,3,3.09,6.32,5.94,9.55,8.84,2.45,2.19,2.74,3.3.47,5.7a73.17,73.17,0,0,1-6.32,5.46c1.4,4.79,3.36,9.58,4.12,14.56,1.89,12.32.14,24.09-6.94,34.69-1.31,2-1.56,1.92-3,0-.61-.81-1.2-1.63-1.94-2.63-.4.9-.72,1.73-1.1,2.53a61.5,61.5,0,0,1-14.1,18.66c-13.23,12.26-29.28,19.21-46.33,23.89a257.42,257.42,0,0,1-30,6.11A82,82,0,0,1,204,413.11c-5.35-1.91-11.16-2.47-16.72-3.83a147.24,147.24,0,0,1-51.44-23.17,49.48,49.48,0,0,1-18.18-23.29c-.05-.11-.19-.19-.49-.46-.69,2-1.36,3.87-2.22,6.33-1.32-1.38-2.46-2.38-3.37-3.55-3.86-4.93-5.57-10.74-6.33-16.81a47.78,47.78,0,0,1,5-27.48,8.25,8.25,0,0,1,.47-.81,75.15,75.15,0,0,1-6.11-6.13c-2.42-3-1.95-4,1.07-6.67A137.13,137.13,0,0,0,118,295.51C122.88,290,126.38,283.51,129.84,276.92Zm184.39-48.06c-3.78,1.4-4.43,3.21-5.86,5.17,2.89.44,5.28-.41,8.56,1.89a12,12,0,0,1,4.66,7.71,20.39,20.39,0,0,1-.06,7.82c-.49,2.28-2.57,5.29-4,7.87-.79,1.44-1,2.7.08,4.08s2.1,3,3.15,4.43l1.37,2c2.71-2.84,5.58-5.37,7.89-8.34,10.08-12.91,8.69-29.86.8-40.16-7-9.15-16.71-12.27-27.83-9.92-10.82,2.28-18,8.93-21,19.74-.64,2.3-1.11,4.65-1.7,7.13A110,110,0,0,0,233.41,223c-4.59,23.6-5.42,47.22-7.07,70.22-2.44-23.44-4.27-47.45-1.73-72.17-7.22.6-14.19.83-21.06,1.82a103.74,103.74,0,0,0-26.28,7.67c-2.28,1-4.22.87-6-.59-2.84-2.3-5.47-4.87-8.34-7.13-3.54-2.79-7-5.88-10.92-8-13.59-7.23-28.61-.86-32.72,13.79-2.5,8.91-1.37,17.68,2.45,26.06a38.41,38.41,0,0,0,12.15,15.1,50.22,50.22,0,0,1,3.54-6.3c2.24-2.93,2.72-5.57-.15-8.3a3.51,3.51,0,0,1-.66-1c-2.17-4.43-1.2-8.67,2.72-11.71,1.05-.81,2.2-1.48,3.5-2.35a49.52,49.52,0,0,0-3-4.81,13.51,13.51,0,0,0-7.78-5.19c-2.37-.55-4.35.41-6,2.21,3.05-5.46,6.66-7.59,11.55-6.71a14.86,14.86,0,0,1,9.26,6.18c3.23,4.39,6,9.09,9,13.7a1.73,1.73,0,0,1-.3,1.51c-6.69,8.51-11.3,18.14-15.44,28.06-4.82,11.59-11.25,22.16-20.53,30.81-1.66,1.54-3.34,3.07-5.28,4.87l8.44,2.52c-7.63,11.73-13.19,24.06-9.42,38.38L125,336.67l.47.24c-5.32,19.43,7.59,39.4,20.82,45.45l-4.64-11.23c14.84,14.48,31.63,24.14,51.75,28.38l-8.19-11.86a5.91,5.91,0,0,1,.78.45,99.94,99.94,0,0,0,27.15,16.63c10.42,4.32,20.57,4,30.19-2.13a132.6,132.6,0,0,0,13.13-9.44A68.44,68.44,0,0,0,274.54,371c4.39-8.79,5.56-17.92,2.1-27.23-2.7-7.24-8.15-12.55-13.78-17.56a19.89,19.89,0,0,0-5.15-3,17.33,17.33,0,0,1-7.16-5.76,24.61,24.61,0,0,1-4.61-15.8c-2.12.1-4.21.63-6.09.21-5.87-1.31-8.44-11.37-4.12-16.29.28,1.5.46,2.89.8,4.24.85,3.36,2.66,4.13,5.19,1.83a71.64,71.64,0,0,0,7.43-8c5.1-6.28,10.1-12.7,17.23-16.81a27.74,27.74,0,0,1,9.33-3.66c8-1.21,15.31,7,16.63,14.76-9.6-10.18-19-6.6-27.18,2.91,9.26-1.85,17.47,7.25,19.42,16.63A22.59,22.59,0,0,1,281.49,315a18.69,18.69,0,0,1-15.36,8.89c2,1.66,3.83,3.08,5.56,4.59,7.18,6.27,11.44,14.11,12,23.66.9,16.26-5.81,29.59-16.42,41.32-.63.71-1.35,1.34-2,2s-12.9,10.29-13.67,11c31.19-3.45,49.78-15.81,59.74-23.47,10.67-8.21,23.64-24.78,16.74-42a100.24,100.24,0,0,1,8.18,7.52,6.43,6.43,0,0,0,1.05-3.08c1.53-11.86-4.34-20.83-11.05-29.22l11.8-3.26c-7.09-5-10.94-11.69-14.32-18.69-3.09-6.4-6-12.91-9.1-19.29-5.76-11.72-10.92-23.89-22.34-31.66,2.7-5.47,5.25-11,9.64-15.27,3.78-3.73,8.12-6.52,13.71-5.86,7.81.92,12.14,6.81,14.43,13.25,0,.09-.29.3-.45.45q-2.46-2.5-4.93-5C321.34,228.71,318,227.47,314.23,228.86Zm-54.56,88c.16.28.19.44.29.51a4.74,4.74,0,0,0,.7.38c4.39,2,8.5.85,12.27-1.49,7.51-4.64,9.42-17.29,3.73-24.92A9.19,9.19,0,0,0,263,289.78c5.74.74,8.31,5.71,8.78,10.12a17.33,17.33,0,0,1-2.32,11.29C267.21,314.78,263.75,316.3,259.67,316.83Zm6.47-18.76c0-2.11-1.26-3.7-2.89-3.7s-3.67,2.37-3.59,4.43a3,3,0,0,0,3,2.9A3.27,3.27,0,0,0,266.14,298.07Z"/><path d="M189.46,368.91s9.37,17.53,36.55,17c26.65-.76,33.94-18,35.1-22.05l-2.4-1.06s-7.19,17.31-32.7,17.47c-28.2-1.77-33.6-12.19-33.6-12.19Z"/><path d="M177,357.29v11.83c-4.87-8.4-2.67-16.77-.11-25.49-4.38,1.41-6.9,4.84-9.82,7.82.3-10.41,11.38-16.29,22.28-11.88,0,.11,0,.31,0,.32-6.94,1.93-8,7.72-5.76,13.53,2.8,7.23,8.56,11.11,15.82,12.92,6.69,1.67,13.29,1.4,19.52-1.83,3.75-1.94,5.31-4.62,5.59-8.88-4.87-2.5-9.85-4.77-14.5-7.57a27.85,27.85,0,0,1-7.47-6.4c-4.18-5.32-2.31-12,4-14.41a43.2,43.2,0,0,1,11.77-2.58,116.77,116.77,0,0,1,17,0,38.36,38.36,0,0,1,10.58,2.43c5.87,2.19,7.62,7.43,4.83,13.07a21,21,0,0,1-10.15,9.54c-3.76,1.82-7.58,3.54-11.41,5.22-.87.39-1.19.66-1,1.74a11.45,11.45,0,0,0,9.78,9.46c10.89,1.72,21.3-5.15,25.21-15.52.41-1.08.21-1.69-.87-2-1.61-.42-3.24-.79-4.83-1.18,1.24-2.24,4.34-3,7.67-2,4.13,1.29,7.94,5.36,7.37,10l-4.15-3.5a82.18,82.18,0,0,1-3.8,7.45c-5.89,9.17-14.34,13.76-25.26,13.15a48.06,48.06,0,0,1-10-2.17,8.74,8.74,0,0,0-5.69,0c-6.4,2.36-13,3.68-19.86,3-10.74-1.14-19.34-6.07-25.26-15.29-.18-.27-.37-.54-.57-.8A4.89,4.89,0,0,0,177,357.29Zm28.28-23.39c4.49-1,9.58.06,13.95,1.09,5.28,1.25,10.47-.12,15.69-1.08,3.47-.64,7-1,10.9-1.6-1.26-.72-2.42-1.88-3.68-2-6-.61-11.14-1.62-17.14-1.57-4.9,0-10.66,1.27-15.52,2.07C208.08,331,205.15,333.62,205.25,333.9Z"/><path class="cls-11" d="M194.91,371.07s2.35,2.76,12.18,6.31a55.68,55.68,0,0,0,19.21,3.21s5.13.5,14.48-2.7,13.58-8.81,13.58-8.81a24.88,24.88,0,0,1-9.89,3.35A30.93,30.93,0,0,1,231.35,371c-4.1-1.4-4.76-1.21-5.11-1.2a7.9,7.9,0,0,0-2.36.51,49.88,49.88,0,0,1-15.23,3.25C202.41,374,194.91,371.07,194.91,371.07Z"/><path d="M178.78,280.66c-6.9-5.08-16.37-7.53-26.23,3.52.81-5.46,3-10,7.14-13.47,5-4.18,10.75-4.59,16.3-1.83a106.76,106.76,0,0,1,14.28,9.06c4.67,3.34,8.86,7.37,13.6,10.6,5.72,3.89,5.72,2.63,8.1-2,1.14-2.23,2-4.6,3.13-6.91-.18,5.64.84,11.34-.94,16.93-1.4,4.41-4.64,6.39-9.08,6.94a19.71,19.71,0,0,1-3.85,12.38c-4.48,6.28-10.91,8.41-18.27,7.82-7.79-.62-14.14-4.09-17.93-11.15-5.11-9.5-4.57-20,3.62-28.31A11.73,11.73,0,0,1,178.78,280.66Zm15.67,37.26-.19-.68-1.33.21a14.53,14.53,0,0,1-9.09-1.21c-7.15-3.82-8.69-11.13-7.51-18.31a14.14,14.14,0,0,1,5.53-9.55,8.65,8.65,0,0,0-11.65,2.15c-4,5.21-4.46,11-2.34,17.06,3.29,9.47,12.6,12.92,21.37,12A26.62,26.62,0,0,0,194.45,317.92Zm-1.16-16.11A2.32,2.32,0,0,0,196,299.5c.16-2.28-2-4.71-4.08-4.71a3,3,0,0,0-2.74,3.11A4.07,4.07,0,0,0,193.29,301.81Z"/><path d="M211.1,245.2a13.45,13.45,0,0,1,0,1.42c-.35,2.82-2.38,4.43-5.07,3.72-6-1.6-9.78-8.61-8.42-13.39,1-3.69,4.07-5.07,7.27-2.91A13.29,13.29,0,0,1,211.1,245.2Z"/><path d="M158.1,361.81c0,3.18-1.64,4.78-4.82,4.48a6.38,6.38,0,0,1-5.64-4.08,6.22,6.22,0,0,1,.64-6.6c2-2.56,4.77-2.74,7.06-.39A9,9,0,0,1,158.1,361.81Z"/><path d="M140.73,332.7c-3.08,1.74-5.52,1-7-2.2a7.1,7.1,0,0,1,.84-7.7c1.7-2.18,3.88-3.42,6.73-3,3.59.53,5.28,3.11,4.26,6.61A10,10,0,0,1,140.73,332.7Z"/><path d="M209.29,312.17c6.15-5.12,13-6.9,20.49-6.73,7.85.19,13.91,4,18.79,10.28-.61-.35-1-.58-1.44-.83-5.84-3.67-12.34-4.58-19-4.23C222,311,215.87,311.63,209.29,312.17Z"/><path d="M186.28,256.58a18.88,18.88,0,0,1-9.37-2.7c-1.8-1.16-3.34-2.6-2.81-4.93s2.61-3,4.6-3.37c5.66-1,10.33,4.07,10.76,9.1a1.88,1.88,0,0,1-1,1.43A8.66,8.66,0,0,1,186.28,256.58Z"/><path d="M140.86,345.08c0,2.82-2.92,6.67-5.45,7.37-2.87.79-5-.79-4.86-3.81.14-3.82,3.44-8.15,8.11-6.45A2.83,2.83,0,0,1,140.86,345.08Z"/><path d="M168.5,332c0,2.17-2.25,5.13-4.2,5.67-2.21.61-3.83-.6-3.75-2.93.11-2.94,2.66-6.27,6.25-5A2.18,2.18,0,0,1,168.5,332Z"/><path d="M144.69,292.51c-.68,3.65-1.74,7.59-5.22,10.36-1.23,1-2.63,1.66-4.09.77s-1.33-2.31-1-3.8c1-4.14,2.64-7.83,6.5-10C143.22,288.46,144.69,289.39,144.69,292.51Z"/><path d="M212,273.39a37.53,37.53,0,0,1-3-3c-2.1-2.63-4.13-5.31-6.13-8-.83-1.13-1.17-2.63.14-3.38a3.66,3.66,0,0,1,3.24.32,15.38,15.38,0,0,1,6.24,11.52A11.41,11.41,0,0,1,212,273.39Z"/><path d="M238.9,277c-.91-5.83,6.1-13.3,15.74-16.35C248.36,265.21,242.54,270,238.9,277Z"/></g></g></g></svg>