<svg xmlns="http://www.w3.org/2000/svg" viewBox="0 0 460 460"><defs><style>.cls-1{fill:#5f220c;}.cls-2{fill:#de5c11;}.cls-3{fill:#d95b13;}.cls-4{fill:#f6a01e;}.cls-5{fill:#f08210;}.cls-6{fill:#d55314;}.cls-7{fill:#fbbb3c;}.cls-8{fill:#f0830e;}.cls-9{fill:#b45717;}.cls-10{fill:#903a14;}.cls-11{fill:#ffeace;}.cls-12{fill:#914018;}</style></defs><g id="Capa_2" data-name="Capa 2"><g id="Capa_1-2" data-name="Capa 1"><circle class="cls-1" cx="230" cy="230" r="230"/><polygon points="41.01 265.92 191.81 270.4 184.64 379.95 62.03 390.44 41.01 265.92"/><path d="M365.35,388.35V244.44l80.86.14V398.16S377.57,389.14,365.35,388.35Z"/><path d="M240.46,382.8c-2.19-.05-4.39-.06-6.59-.07-3.1,0-6.32,0-9.59-.15a16.15,16.15,0,0,1-9.08-3.43c-4.26,3.55-9.21,3.55-11.17,3.55l-1.51,0h-.17l-4.53,0q-4.2,0-8.39.09H189a15.41,15.41,0,0,1-11.25-4.45,15.69,15.69,0,0,1-4.45-11.52c.05-21.11.05-42.58,0-63.34V244h17.21l4.19,0c1.76,0,3.53,0,5.29.06h.34c8.5.21,17.29.42,26,.84,16.71.8,28.54,13.48,28.76,30.85.15,12,.07,24.07,0,35.77v1.93a29.41,29.41,0,0,1-7.77,20.17c1.83,6,3.58,12,5.28,17.84q1.62,5.56,3.26,11.11c2.1,7.09-.43,12-2.12,14.23A15.38,15.38,0,0,1,241,382.81Z"/><path d="M290.08,384.1H289c-8.74-.26-16.65-.53-24.85-1.28a29.26,29.26,0,0,1-26.22-28.49c-.14-9.68-.11-19.47-.08-28.93V323l0-9.58q0-5.88,0-11.74c0-9-.09-18.37.12-27.64.37-17.08,12.33-29.19,29.75-30.14,3.35-.18,6.79-.27,10.53-.27,4.15,0,8.55.11,13.86.34,14.84.66,27.49,14.31,27.63,29.82.24,27.32.4,54.22.47,79.94,0,8.85-2.88,16.46-8.41,22S298.74,384.1,290.08,384.1Z"/><path d="M354.82,387.37c-.79,0-1.6,0-2.39-.1-3.11-.26-6.21-.53-9.32-.81-3.86-.34-7.73-.68-11.6-1-17.09-1.39-29.15-14.34-29.31-31.5,0-2.54-.06-5.09-.1-7.63q-.06-5.07-.11-10.12a22.28,22.28,0,0,1,.42-4.21c0-.14,0-.28.07-.42l1.78-12.53,6.75.57c-.69-.72-1.36-1.43-2-2.12-7.15-7.68-7.22-16.66-7.26-22.6l0-1.42c-.09-6.12-.17-12.11-.06-18.16.28-15.28,8-23.16,14.38-27.08a27.74,27.74,0,0,1,14.09-4.15h.13c7.75.05,15.47.43,22.93.8l3.3.16c13.16.63,25,12.86,25.9,26.69.27,4.16.26,8.19.25,12.08,0,2.38,0,4.62,0,6.83a16.17,16.17,0,0,1-4.43,12.13,15,15,0,0,1-7,4.07,32.76,32.76,0,0,1,11.38,26c-.14,4.94-.1,9.85-.07,15.06,0,4,.05,8.08,0,12.19A27.48,27.48,0,0,1,354.82,387.37Z"/><path d="M83.63,389.66a15.5,15.5,0,0,1-11.41-4.57c-3.11-3.16-4.64-7.42-4.55-12.66.26-15.35.32-31,.38-46.14q0-8.39.07-16.79c0-7.3.25-41,.25-41,0-2.31,0-4.61,0-7v-17h71.12V262c0,4.9,0,10-.13,15-.26,8.49-8.27,14.39-15.59,14.58-2.73.07-5.44.1-8.13.11v.46c1.35,0,2.7,0,4,0,7.09.17,15.19,6.35,15.48,15,.17,4.65.15,9.13.13,13.87,0,1.41,0,2.84,0,4.29v12.86l-12.85.52-4.79.23-2.19.1v.3c2.23-.14,4.46-.28,6.69-.46.69,0,1.31-.08,1.89-.08a15.38,15.38,0,0,1,11.55,4.75c3,3.23,4.44,7.43,4.16,12.5-.2,3.35-.16,6.92-.11,10.71,0,1.74,0,3.5,0,5.32V384l-11.85,1.38-3.21.39c-2.49.31-5.08.62-7.73.88q-6.49.63-13,1.22c-5.85.55-11.7,1.09-17.55,1.68C85.64,389.58,84.69,389.66,83.63,389.66Z"/><path d="M136.44,385.13a15,15,0,0,1-10.75-4.33,15.58,15.58,0,0,1-4.38-11.49q.15-43.17.18-86.35l0-16.94V244.45h69.81v17c0,5,0,10.23-.13,15.42-.23,8.66-8.18,14-15.73,14.14q-3.4.07-6.8.09v.82h19.6V323a15.11,15.11,0,0,1-9.1,14.15h12.61v13.39c0,1.35,0,2.69,0,4,0,4.31,0,8.76-.14,13.25-.32,8.41-8,14.53-15,15-5.88.37-11.8.64-17.52.91-3.22.14-6.45.29-9.67.46-3.51.17-7.25.39-10.81.8A19.54,19.54,0,0,1,136.44,385.13Z"/><path d="M14,382.38c.44-36.77.84-80.32.45-124.53l-.12-13.51,71.94.17v17.43c0,5.14,0,10-.12,15-.24,8.52-8.13,14.47-15.35,14.68-3.12.1-6,.16-8.77.19v1.35c1.16,0,2.23,0,3.24-.06h.62a15.81,15.81,0,0,1,11.79,4.7A16.06,16.06,0,0,1,82,310c-.13,3.63-.11,7.37-.08,11.34,0,1.71,0,3.46,0,5.24v12.66L69.3,340c-1.64.09-3.24.19-4.83.3l-2.4.15c0,5.36,0,10.69,0,15.91q0,4.65,0,9.3s-.09,19.57,0,24.79c-12,1.08-48.24,7.46-48.24,7.46Z"/><path class="cls-2" d="M413,328.1l-14-.93v50.95l-20.31-1.95V257.84h19.89c0,4.42,0,8.62,0,12.82,0,10.48.11,21,0,31.45,0,2.5.76,3.27,3.26,3.23,3.42,0,6.85.36,10.75.6,0-2.85,0-5.48,0-8.12-.1-12.25-.14-24.5-.4-36.75-.06-2.6.69-3.24,3.19-3.15,5.55.19,11.12.06,17.38.06V382.81c-6.21-.85-12.58-1.68-18.93-2.67-.56-.09-1.35-1.3-1.34-2,.08-8.56.36-17.12.45-25.68C413.09,344.48,413,336.48,413,328.1Z"/><path class="cls-2" d="M207.24,332.32c0,10.9,0,21.57,0,32.24,0,4.85.12,4.79-4.73,4.72-4.45-.06-8.91,0-13.36.06-1.86,0-2.46-.58-2.46-2.54q.1-39.6,0-79.21v-30.2c4.15,0,8.56-.09,13,0,8.68.21,17.36.42,26,.83,10.06.48,15.88,7.84,16,17.64.16,12.48.06,25,0,37.44A15.87,15.87,0,0,1,235,326.74c-2.36,1.69-2.71,3.31-1.84,6.1,3.48,11.11,6.63,22.33,9.94,33.5.64,2.16.16,3.13-2.27,3.07-5.33-.13-10.66,0-16-.22a3.45,3.45,0,0,1-2.49-2c-2.9-10.1-5.74-20.22-8.36-30.4C212.6,331.56,212.82,331.5,207.24,332.32Zm-.13-18.93a63.41,63.41,0,0,0,7.88-.06c4.55-.6,6.72-2.77,6.78-6.74.12-7.57.15-15.15,0-22.72,0-3.08-1.45-5.4-4.9-5.69-2.32-.19-4.65-.24-7-.34-2.05-.08-2.94.67-2.87,3,.17,6,0,12,0,18Z"/><path class="cls-2" d="M251.17,313.4c0-13-.22-26.06.07-39.08.24-10.72,7.43-16.53,17.09-17.06,7.67-.42,15.39-.26,23.07.08s14.75,8,14.82,16.54q.36,39.93.47,79.86c0,10.82-6.6,17.26-17.34,16.95-8-.23-16-.49-24-1.22a15.71,15.71,0,0,1-14-15.35c-.2-13.57-.06-27.15-.06-40.72Zm35,1.22h-.07c0-10.25.05-20.49,0-30.74,0-5.48-1.79-6.95-7.72-6.9-5.57,0-7,1.36-7,6.84,0,6.22.1,12.44.14,18.66.11,13.66.07,27.33.35,41,.15,7.29,1.71,8.43,8.95,7.76,3.63-.34,5.32-2.08,5.34-5.85C286.19,335.12,286.16,324.87,286.16,314.62Z"/><path class="cls-2" d="M315.75,333.47l19.91,1.67c0,4.29,0,8.72,0,13.14,0,3.73,1.43,5.22,5.13,5.56,1.22.12,2.45.1,3.67.17,3.13.2,4.62-1.61,4.72-4.39.17-4.45.63-9-.25-13.32-.58-2.83-2.83-5.78-5.14-7.69-5-4.18-10.71-7.55-15.87-11.58a80,80,0,0,1-9.11-8.65c-4-4.28-3.61-9.8-3.69-15.1-.09-5.9-.17-11.8-.06-17.7.11-6.53,2.13-12.33,8-15.9a14.31,14.31,0,0,1,7.15-2.18c8.56.05,17.11.53,25.66.94,6.27.3,12.73,7.07,13.18,14.16.39,6.11.12,12.26.27,18.39.06,2.54-.88,3.25-3.39,3-4.65-.47-9.33-.72-14-.81-2.2-.05-3-.79-2.86-2.95a72.87,72.87,0,0,0-.06-8.36c-.19-3-1.94-4.63-4.95-4.83-1-.06-2,0-3,0-4.6.05-5.51.94-5.56,5.44a46.75,46.75,0,0,1-.05,5.68c-1,7.13,3,11.32,8.3,15,5.84,4,11.61,8.13,17.18,12.5,5.38,4.22,8.56,9.62,8.36,16.85-.25,9.14,0,18.3-.08,27.44a14.24,14.24,0,0,1-15.64,14c-7-.59-14-1.24-21-1.81-10.09-.82-16.9-8.12-17-18.27,0-5.9-.16-11.81-.2-17.71A18.12,18.12,0,0,1,315.75,333.47Z"/><path class="cls-2" d="M121.9,325.29c-5.58.22-10.89.62-16.2.58-2.93,0-3.87.85-3.77,3.83.2,6.76.17,13.54,0,20.31-.09,2.67.64,3.62,3.33,3.4,6-.49,12-.73,18-1.21,2.4-.19,3.32.28,3.16,3-.31,5.43-.09,10.88-.09,16.8-3.46.4-7.07.88-10.68,1.23-10.2,1-20.4,1.89-30.59,2.91-2.78.28-4,.07-3.94-3.53.36-21,.33-42,.45-63.08q.11-20.49.25-41c0-3.43,0-6.86,0-10.67H126.1c0,6.32.07,12.5-.12,18.68,0,.58-1.65,1.56-2.55,1.58-6,.16-12,.1-18.06.13-1,0-2,.08-3.12.13v18.74a38.27,38.27,0,0,1-.07,5.67c-.38,2.52.55,3.1,2.91,3,4.76-.25,9.53-.34,14.3-.23.85,0,2.37,1.29,2.4,2C122,313.36,121.9,319.13,121.9,325.29Z"/><path class="cls-2" d="M178.39,350.59c0,5.65.09,11.21-.12,16.75,0,.76-1.54,2.06-2.43,2.11-9,.57-18,.89-27,1.35-3.88.2-7.78.44-11.64.88-2,.24-2.47-.37-2.46-2.32q.16-51.66.2-103.31c0-2.65,0-5.3,0-8.2h43c0,6.24.05,12.43-.12,18.62,0,.41-1.69,1.09-2.61,1.11-6.12.12-12.25.1-18.38.14a12.15,12.15,0,0,0-1.54.21v27.35h19.6V323c0,2.22-1.63,2-3.08,2H155.13v25.52Z"/><path class="cls-2" d="M27.83,257.73h45c0,6.47.07,12.67-.1,18.87,0,.6-1.52,1.65-2.36,1.67-6.24.19-12.48.27-18.71.15-2.62-.05-3.13.94-3.09,3.36.12,7.75,0,15.51-.05,23.27a8.17,8.17,0,0,0,.24,1.53c5.76,0,11.3.1,16.83,0,2.35-.07,3.07.63,3,3-.2,5.53-.06,11.08-.06,17.05-5.58.32-10.87.75-16.16.87-3,.07-3.91.95-3.84,4.13.26,11.34.1,22.69.1,34v14l-21.27,2.89C27.88,341,28.2,299.62,27.83,257.73Z"/><g id="Guepardoso"><path class="cls-3" d="M135,61.26,121.35,48.07s-6.67,0-9.43,4.56S98.18,68,122.59,93.28l7.1-10.66L126.15,71.7l.48-5Z"/><polygon class="cls-4" points="99.71 60.3 102.2 37.68 116.76 25.24 139.94 26 157.65 38.46 167.83 45.36 212.76 35.78 231.96 35.97 230 46.51 223.29 50.53 184.39 53.46 163.51 62.41 148.95 62.41 139.56 51.3 132.66 40.37 122.89 39.99 107.06 58.96 100.47 64.52 99.71 60.3"/><path class="cls-5" d="M100.79,63.67s17.89-47.88,46-13.65c12.93,17.95,26.82,3.44,44.88-1.28,20-5.22,35.75-2.55,35.75-2.55L230,139.62l26.37,9s59.34,33.75,26.45,76.64-55.48,36-55.48,36l.1-101.17-20.73,5.45-6.05,6.95-25.32,11,18.21,66.69-25.72-2.43-29.23-21,1,5.16-22.52-13.5-12.22-29.63-9.27,7.83-3-27.61,13.76-19.36L90.58,144l22.34-18.92L142.79,68s-5.6-12.33-15.3-17.95-15.57,2.61-15.57,2.61-11.48,15.19,10.67,40.65L121,96.37,105.65,87.7Z"/><path class="cls-6" d="M206.71,250.85s37.89,10.77,58.6-18.9l-1.53,10.4-16.61,13.57-18.62,5.36H216Z"/><path class="cls-4" d="M128,218.45l-18-38-6.45,3S99,170.6,108,147.11c0,0,20.88-40.46,20-48l-25.19,34.56-7.2,12.16,4.1,8.86L90.58,186.8l5,12.41,9.65-8.05,11.84,29.89,13.2,6.42Z"/><path class="cls-2" d="M129.16,224l-4-19s28,31.81,57.48,36.79l-.53-6,8.33,12.06L183.24,250l-34-11.88-19.11-8.62Z"/><path class="cls-7" d="M203.12,172.51s-41.14-3.86-30,40,55.46,48.8,55.46,48.8l-1.11-70.5Z"/><path class="cls-8" d="M206.71,250.85a71,71,0,0,0,21.84,1.65c.16,5.89-.14,6.53-.14,6.53l-13-1.72Z"/><path class="cls-9" d="M234.37,37.76V50.82L294,63.67,316.4,37.76l36.79-4.09s-21.05-14.82-33.77-10.22-30.1,17.88-31.12,22.74S228.46,26.52,234.37,37.76Z"/><path class="cls-10" d="M232,48.23c-6,5.21-5.59,52-2,89.81,0,0,28.39,10.33,32,15.5,0,0,74.74,28-3.62,102.38,0,0,92.74-19.59,106-89.88l-5.71-28L315.63,63.67l14.31-17.74s14,.21,19.5,10.84S340.8,96.4,340.8,96.4s35.43-27.11,10.85-59.28c-38.31-22.36-60.16,20-59.68,22.45C279.7,53.46,238,43,232,48.23Z"/><path class="cls-1" d="M258.35,255.92s46.56-13.89,57.28-38.37c0,0,1.79,7.71,0,10.78s40.05-37.61,26.06-59.29c0,0,11.37,6.42,17,11.43,0,6.81-1.51,7.78-1.51,7.78l-9.55-8.78s13,23.14-19.1,49.24C296.54,255.15,258.35,255.92,258.35,255.92Z"/><path class="cls-1" d="M334.92,46.19s10.27,2.25,14.52,10.58S346.81,86.2,340.8,96.4s-11.24-11.9-11.24-11.9L338,68.28,320.23,57l2.81-9.7Z"/><ellipse class="cls-11" cx="276.17" cy="134.21" rx="17.82" ry="20.46"/><ellipse class="cls-11" cx="180.39" cy="134.45" rx="22.73" ry="22.03"/><polygon class="cls-12" points="205.15 168.17 227.34 163.19 246.02 165.19 252.74 169.04 252.15 172.43 236.83 175.32 223.03 177.49 210.51 174.94 203.12 174.43 201.96 170.85 205.15 168.17"/><path d="M116.28,104.71c-12.83-8-20-19.44-22.61-33.8-2.17-11.76-1-23.11,4.86-33.68,6.93-12.4,17.57-18.47,31.83-18.25,10.87.17,20,4.7,28.11,11.41,3.66,3,7.09,6.32,10.54,9.6a2,2,0,0,0,2.66.41,116.12,116.12,0,0,1,36.84-9.51,150.5,150.5,0,0,1,33.13.91,160.55,160.55,0,0,1,42.7,12.31c2.62-3.8,5-7.83,7.94-11.35a41.73,41.73,0,0,1,27.19-14.69c10.56-1.44,20.42.33,29.41,6.15,10.84,7,17,17.13,18.76,29.81,2.13,15-1.65,28.45-10.76,40.4-2.83,3.7-6.13,7-9.7,11.06,3.36,8.16,7,17.66,14.34,25.08,3.54,3.61,7.37,6.94,11.14,10.32,2.87,2.57,3.21,3.86.56,6.65a88.72,88.72,0,0,1-7.38,6.38c1.63,5.59,3.92,11.19,4.81,17,2.21,14.38.16,28.13-8.1,40.5-1.54,2.3-1.83,2.24-3.46,0-.71-.94-1.4-1.9-2.27-3.07-.46,1.06-.84,2-1.28,3a71.72,71.72,0,0,1-16.46,21.79C323.64,247.44,304.9,255.56,285,261a302,302,0,0,1-35.06,7.13,95.79,95.79,0,0,1-47.09-4.44c-6.24-2.23-13-2.89-19.51-4.48-21.68-5.3-41.86-14-60.06-27A57.77,57.77,0,0,1,102.05,205c0-.13-.22-.21-.57-.54-.81,2.32-1.58,4.52-2.6,7.39-1.54-1.6-2.86-2.77-3.93-4.13-4.5-5.76-6.5-12.54-7.39-19.63-1.4-11.26.81-21.94,5.8-32.08a10,10,0,0,1,.56-.95,89.18,89.18,0,0,1-7.14-7.15c-2.82-3.5-2.27-4.69,1.25-7.79a162.5,162.5,0,0,0,14.43-13.69C108.16,120,112.25,112.4,116.28,104.71Zm215.26-56.1c-4.41,1.63-5.17,3.74-6.84,6,3.37.51,6.17-.48,10,2.2s4.83,6.52,5.43,9a23.79,23.79,0,0,1-.07,9.13c-.57,2.65-3,6.17-4.63,9.17-.92,1.69-1.16,3.16.09,4.78s2.46,3.44,3.68,5.17l1.6,2.29c3.17-3.31,6.51-6.27,9.21-9.73,11.77-15.07,10.14-34.87.93-46.89-8.18-10.68-19.5-14.31-32.48-11.58-12.63,2.66-21,10.43-24.51,23.05-.75,2.69-1.3,5.43-2,8.32-17-10.3-35.24-15.87-54.77-17.83-5.37,27.56-6.34,55.13-8.27,82-2.84-27.37-5-55.4-2-84.26-8.42.7-16.56,1-24.58,2.13a120.61,120.61,0,0,0-30.67,8.95c-2.67,1.15-4.93,1-7-.69-3.31-2.69-6.38-5.68-9.73-8.32-4.13-3.26-8.14-6.87-12.75-9.32-15.86-8.44-33.39-1-38.19,16.1C101,58.72,102.35,69,106.8,78.74A44.9,44.9,0,0,0,121,96.37c1.43-2.59,2.49-5.2,4.14-7.36,2.61-3.42,3.17-6.5-.19-9.69a4.17,4.17,0,0,1-.76-1.19C121.64,73,122.77,68,127.36,64.47c1.22-.95,2.56-1.74,4.08-2.75A59.94,59.94,0,0,0,128,56.1,15.84,15.84,0,0,0,118.9,50c-2.77-.63-5.07.49-7,2.59,3.56-6.38,7.77-8.87,13.48-7.84A17.31,17.31,0,0,1,136.21,52c3.77,5.12,7,10.6,10.47,16a2.05,2.05,0,0,1-.37,1.77c-7.8,9.94-13.18,21.18-18,32.76-5.63,13.53-13.14,25.87-24,36-1.94,1.81-3.9,3.6-6.17,5.69l9.86,2.94c-8.91,13.69-15.4,28.09-11,44.81l13.6-17.45.55.27c-6.21,22.69,8.86,46,24.3,53.07l-5.41-13.12c17.32,16.91,36.92,28.18,60.41,33.14L180.91,234a9.76,9.76,0,0,1,.91.52,116.72,116.72,0,0,0,31.7,19.42c12.16,5,24,4.65,35.24-2.49a152.47,152.47,0,0,0,15.33-11,79.8,79.8,0,0,0,21.12-25.89c5.12-10.25,6.49-20.92,2.44-31.79-3.14-8.45-9.51-14.64-16.08-20.5a23,23,0,0,0-6-3.51A20.17,20.17,0,0,1,257.2,152a28.74,28.74,0,0,1-5.38-18.44c-2.48.12-4.92.74-7.11.25-6.85-1.53-9.85-13.27-4.81-19,.32,1.75.54,3.37.94,5,1,3.92,3.09,4.82,6.06,2.14a85.74,85.74,0,0,0,8.67-9.39c5.95-7.34,11.78-14.83,20.12-19.63a32.34,32.34,0,0,1,10.88-4.27c9.36-1.41,17.88,8.21,19.41,17.24-11.2-11.89-22.23-7.71-31.73,3.39,10.82-2.16,20.4,8.47,22.68,19.42a26.33,26.33,0,0,1-3.61,20.49,21.82,21.82,0,0,1-17.94,10.38c2.36,1.94,4.48,3.6,6.5,5.36,8.38,7.32,13.35,16.47,14,27.63,1,19-6.79,34.54-19.18,48.23-.74.82-1.57,1.57-2.37,2.34s-15.06,12-15.95,12.86c36.4-4,58.11-18.46,69.74-27.4,12.45-9.58,27.59-28.93,19.54-49.05a118.32,118.32,0,0,1,9.55,8.78,7.4,7.4,0,0,0,1.22-3.59c1.79-13.84-5.06-24.32-12.9-34.12l13.78-3.8c-8.27-5.86-12.78-13.64-16.72-21.82-3.61-7.47-7-15.07-10.63-22.52-6.72-13.68-12.74-27.89-26.07-36.95,3.15-6.39,6.13-12.8,11.25-17.84,4.42-4.34,9.48-7.6,16-6.83,9.12,1.07,14.17,7.95,16.84,15.47,0,.1-.33.34-.52.52l-5.76-5.84C339.84,48.43,335.94,47,331.54,48.61Zm-63.69,102.7c.18.32.22.51.34.59a4.87,4.87,0,0,0,.81.44c5.13,2.34,9.92,1,14.33-1.73,8.77-5.42,11-20.19,4.35-29.09a10.73,10.73,0,0,0-15.93-1.8c6.7.87,9.7,6.68,10.24,11.82a20.11,20.11,0,0,1-2.7,13.18C276.65,148.92,272.6,150.69,267.85,151.31Zm7.55-21.91c0-2.45-1.47-4.31-3.37-4.31s-4.29,2.77-4.19,5.17a3.46,3.46,0,0,0,3.55,3.39C273.91,133.62,275.43,132,275.4,129.4Z"/><path d="M185.88,212.1s10.94,20.47,42.67,19.83c31.12-.89,39.62-21,41-25.74l-2.8-1.24s-8.4,20.2-38.18,20.4c-32.92-2.07-39.23-14.23-39.23-14.23Z"/><path d="M171.31,198.54v13.82c-5.69-9.82-3.12-19.59-.14-29.76-5.11,1.64-8,5.65-11.46,9.12.35-12.15,13.29-19,26-13.87,0,.13,0,.36-.06.38-8.1,2.25-9.36,9-6.73,15.8,3.27,8.43,10,13,18.48,15.07,7.81,2,15.51,1.64,22.78-2.13,4.38-2.26,6.2-5.4,6.52-10.37-5.68-2.92-11.49-5.56-16.92-8.83a32.65,32.65,0,0,1-8.72-7.48c-4.88-6.21-2.7-14,4.7-16.82a50.65,50.65,0,0,1,13.75-3,136.13,136.13,0,0,1,19.89,0,44.69,44.69,0,0,1,12.35,2.84c6.85,2.56,8.9,8.67,5.64,15.25-2.57,5.18-6.76,8.67-11.85,11.14-4.39,2.12-8.85,4.14-13.32,6.1-1,.45-1.4.76-1.23,2,.76,5.58,5.43,10.1,11.42,11.05,12.72,2,24.87-6,29.43-18.11.48-1.26.24-2-1-2.32-1.89-.49-3.79-.93-5.64-1.38,1.45-2.61,5.06-3.55,8.95-2.34,4.83,1.51,9.27,6.27,8.6,11.68l-4.84-4.08c-1.55,3.06-2.74,6-4.44,8.69-6.87,10.71-16.73,16.07-29.48,15.35-4-.22-7.87-1.46-11.72-2.52a10.14,10.14,0,0,0-6.64,0c-7.47,2.76-15.23,4.29-23.19,3.45-12.53-1.33-22.57-7.08-29.48-17.84-.21-.33-.43-.63-.66-.94A6.7,6.7,0,0,0,171.31,198.54Zm33-27.31c5.23-1.14,11.18.07,16.28,1.28,6.17,1.46,12.23-.14,18.32-1.26,4.05-.75,8.14-1.21,12.73-1.87-1.48-.84-2.83-2.2-4.3-2.35-7-.71-13-1.89-20-1.83-5.72,0-12.45,1.48-18.12,2.42C207.62,167.88,204.2,170.91,204.32,171.23Z"/><path class="cls-11" d="M192.25,214.63s2.74,3.22,14.22,7.36a64.91,64.91,0,0,0,22.42,3.75s6,.58,16.91-3.16,15.85-10.28,15.85-10.28a29.06,29.06,0,0,1-11.54,3.91,36.07,36.07,0,0,1-15.33-1.68c-4.78-1.63-5.55-1.4-5.95-1.4a9.43,9.43,0,0,0-2.77.59,58.24,58.24,0,0,1-17.78,3.81C201,218.05,192.25,214.63,192.25,214.63Z"/><path d="M173.42,109.08c-8.06-5.93-19.11-8.78-30.63,4.11,1-6.38,3.5-11.68,8.34-15.72,5.84-4.88,12.55-5.36,19-2.14a123.94,123.94,0,0,1,16.67,10.58c5.45,3.9,10.34,8.6,15.87,12.37,6.68,4.55,6.69,3.08,9.47-2.36,1.33-2.6,2.34-5.36,3.64-8.06-.2,6.58,1,13.23-1.09,19.76-1.63,5.14-5.42,7.47-10.6,8.1a23,23,0,0,1-4.5,14.45c-5.22,7.34-12.74,9.82-21.32,9.13-9.1-.73-16.51-4.78-20.94-13-6-11.09-5.33-23.31,4.23-33A13.67,13.67,0,0,1,173.42,109.08Zm18.29,43.5-.22-.8c-.52.09-1,.18-1.56.25-3.66.5-7.26.38-10.61-1.41-8.34-4.46-10.14-13-8.76-21.37A16.52,16.52,0,0,1,177,118.09a10.09,10.09,0,0,0-13.6,2.52c-4.65,6.07-5.2,12.83-2.74,19.91,3.85,11,14.72,15.08,25,14C187.7,154.27,189.68,153.24,191.71,152.58Zm-1.35-18.81c1.89.09,3-.82,3.18-2.69.19-2.67-2.33-5.5-4.76-5.51a3.46,3.46,0,0,0-3.2,3.64A4.74,4.74,0,0,0,190.36,133.77Z"/><path d="M211.15,67.68a13.11,13.11,0,0,1,0,1.66c-.4,3.3-2.77,5.18-5.91,4.34-7-1.86-11.42-10-9.83-15.63,1.23-4.3,4.75-5.91,8.48-3.4A15.51,15.51,0,0,1,211.15,67.68Z"/><path d="M149.28,203.82c0,3.71-1.92,5.58-5.64,5.22a7.44,7.44,0,0,1-6.58-4.76c-1.11-2.68-1.11-5.32.75-7.7,2.34-3,5.57-3.2,8.24-.46A10.57,10.57,0,0,1,149.28,203.82Z"/><path d="M129,169.83c-3.6,2-6.45,1.22-8.15-2.57a8.28,8.28,0,0,1,1-9c2-2.55,4.53-4,7.86-3.51,4.18.61,6.16,3.62,5,7.71A11.66,11.66,0,0,1,129,169.83Z"/><path d="M209,145.87c7.17-6,15.21-8.06,23.92-7.86,9.16.22,16.23,4.62,21.93,12-.71-.41-1.2-.68-1.68-1-6.82-4.28-14.41-5.34-22.22-4.94C223.84,144.47,216.71,145.24,209,145.87Z"/><path d="M182.18,81c-4.18-.26-7.74-1.08-10.94-3.15-2.11-1.36-3.9-3-3.29-5.75s3.05-3.53,5.37-3.95c6.61-1.17,12.06,4.76,12.56,10.64a2.21,2.21,0,0,1-1.15,1.66A9.8,9.8,0,0,1,182.18,81Z"/><path d="M129.15,184.28c0,3.3-3.41,7.79-6.36,8.61-3.35.92-5.81-.92-5.68-4.44.16-4.47,4-9.52,9.47-7.54C128.28,181.53,129.26,182.67,129.15,184.28Z"/><path d="M161.41,169c0,2.54-2.63,6-4.9,6.62-2.58.72-4.47-.7-4.37-3.42.13-3.44,3.09-7.32,7.29-5.8A2.53,2.53,0,0,1,161.41,169Z"/><path d="M133.62,122.92c-.8,4.26-2,8.86-6.09,12.09-1.44,1.14-3.08,1.94-4.78.9s-1.56-2.69-1.15-4.44c1.13-4.83,3.07-9.14,7.58-11.72C131.91,118.19,133.62,119.27,133.62,122.92Z"/><path d="M212.19,100.6a45,45,0,0,1-3.52-3.47c-2.45-3.07-4.82-6.21-7.16-9.37-1-1.31-1.36-3.06.17-3.94a4.24,4.24,0,0,1,3.78.38,18,18,0,0,1,7.29,13.45A13.85,13.85,0,0,1,212.19,100.6Z"/><path d="M243.6,104.84C242.53,98,250.72,89.32,262,85.75,254.64,91,247.85,96.63,243.6,104.84Z"/></g></g></g></svg>