<svg xmlns="http://www.w3.org/2000/svg" xmlns:xlink="http://www.w3.org/1999/xlink" viewBox="0 0 376.79 134.66"><defs><style>.cls-1{fill:url(#Degradado_sin_nombre_14);}.cls-2{fill:url(#Degradado_sin_nombre_14-2);}.cls-3{fill:url(#Degradado_sin_nombre_14-3);}.cls-4{fill:url(#Degradado_sin_nombre_14-4);}.cls-5{fill:url(#Degradado_sin_nombre_14-5);}.cls-6{fill:url(#Degradado_sin_nombre_14-6);}.cls-7{fill:url(#Degradado_sin_nombre_14-7);}</style><linearGradient id="Degradado_sin_nombre_14" x1="341.56" y1="174.3" x2="341.56" y2="44.05" gradientUnits="userSpaceOnUse"><stop offset="0" stop-color="#fbbb3c"/><stop offset="1" stop-color="#de5c11"/></linearGradient><linearGradient id="Degradado_sin_nombre_14-2" x1="175.34" y1="174.3" x2="175.34" y2="44.05" xlink:href="#Degradado_sin_nombre_14"/><linearGradient id="Degradado_sin_nombre_14-3" x1="231" y1="174.3" x2="231" y2="44.05" xlink:href="#Degradado_sin_nombre_14"/><linearGradient id="Degradado_sin_nombre_14-4" x1="286.12" y1="174.3" x2="286.12" y2="44.05" xlink:href="#Degradado_sin_nombre_14"/><linearGradient id="Degradado_sin_nombre_14-5" x1="78.37" y1="174.3" x2="78.37" y2="44.05" xlink:href="#Degradado_sin_nombre_14"/><linearGradient id="Degradado_sin_nombre_14-6" x1="124.4" y1="174.3" x2="124.4" y2="44.05" xlink:href="#Degradado_sin_nombre_14"/><linearGradient id="Degradado_sin_nombre_14-7" x1="31.66" y1="174.3" x2="31.66" y2="44.05" xlink:href="#Degradado_sin_nombre_14"/></defs><g id="Capa_2" data-name="Capa 2"><g id="Capa_1-2" data-name="Capa 1"><polygon points="23.72 19.44 155.12 23.34 148.87 118.8 42.03 127.94 23.72 19.44"/><path d="M306.33,126.11V.72l70.46.12V134.66S317,126.8,306.33,126.11Z"/><path d="M197.51,121.28c-1.91,0-3.83,0-5.74-.06-2.71,0-5.51,0-8.36-.13a14.11,14.11,0,0,1-7.91-3,14.69,14.69,0,0,1-9.73,3.09H164.3l-4,0c-2.44,0-4.87,0-7.31.07h-.35a13.45,13.45,0,0,1-9.81-3.88,13.74,13.74,0,0,1-3.88-10c.05-18.39.05-37.1.05-55.19V.33h15l3.65,0c1.53,0,3.07,0,4.61,0h.29c7.41.18,15.07.36,22.67.72,14.56.7,24.86,11.75,25.05,26.88.14,10.43.07,21,0,31.18v1.68a25.57,25.57,0,0,1-6.77,17.57c1.6,5.22,3.12,10.45,4.6,15.55q1.41,4.84,2.84,9.68c1.83,6.17-.37,10.42-1.85,12.4A13.42,13.42,0,0,1,198,121.28Z"/><path d="M240.75,122.41h-1c-7.62-.22-14.51-.46-21.65-1.11a25.5,25.5,0,0,1-22.85-24.83c-.12-8.44-.09-17-.07-25.2v-2.1l0-8.35c0-3.41,0-6.82,0-10.23,0-7.87-.08-16,.1-24.09C195.56,11.62,206,1.06,221.16.24c2.91-.16,5.91-.24,9.17-.24,3.62,0,7.45.09,12.08.3,12.93.57,24,12.46,24.07,26,.21,23.81.35,47.25.41,69.66,0,7.72-2.51,14.35-7.32,19.18S248.29,122.41,240.75,122.41Z"/><path d="M297.15,125.26c-.69,0-1.39,0-2.08-.09-2.71-.22-5.41-.46-8.12-.7-3.37-.3-6.74-.6-10.11-.87-14.89-1.21-25.39-12.49-25.54-27.44q0-3.33-.08-6.65c0-2.94-.08-5.88-.1-8.82a19.31,19.31,0,0,1,.37-3.67l.06-.37,1.55-10.91,5.88.5-1.74-1.85C251,57.69,251,49.87,250.91,44.7V43.46c-.09-5.33-.15-10.55-.06-15.82.25-13.32,7-20.18,12.53-23.6A24.22,24.22,0,0,1,275.65.43h.12c6.74,0,13.47.37,20,.69l2.88.14c11.46.55,21.8,11.2,22.57,23.26.23,3.63.22,7.13.21,10.53,0,2.06,0,4,0,6a14.06,14.06,0,0,1-3.86,10.56,13.12,13.12,0,0,1-6.09,3.55,28.55,28.55,0,0,1,9.91,22.66c-.12,4.3-.09,8.58-.06,13.11,0,3.47.05,7.05,0,10.63A23.94,23.94,0,0,1,297.15,125.26Z"/><path d="M60.86,127.26a13.54,13.54,0,0,1-10-4c-2.7-2.75-4-6.46-4-11,.23-13.37.28-27,.33-40.2l.06-14.63c0-6.36.22-35.73.22-35.73,0-2,0-4,0-6.12V.78h62V16c0,4.27,0,8.69-.11,13.1-.23,7.39-7.21,12.53-13.59,12.7-2.38.06-4.74.08-7.08.09v.4c1.17,0,2.35,0,3.52,0,6.17.15,13.23,5.53,13.49,13,.14,4,.13,8,.11,12.09,0,1.23,0,2.47,0,3.73V82.38l-11.2.45c-1.41,0-2.79.13-4.17.19l-1.91.1v.26q2.93-.18,5.83-.4c.6,0,1.15-.07,1.65-.07A13.4,13.4,0,0,1,106.13,87a14,14,0,0,1,3.62,10.89c-.16,2.92-.13,6-.09,9.33,0,1.52,0,3.06,0,4.64v10.39L99.37,123.5l-2.8.33c-2.17.27-4.42.54-6.73.77l-11.32,1.07c-5.1.47-10.2.94-15.29,1.46C62.61,127.19,61.78,127.26,60.86,127.26Z"/><path d="M106.87,123.31a13.06,13.06,0,0,1-9.36-3.77,13.56,13.56,0,0,1-3.82-10q.12-37.62.16-75.25l0-14.75V.73H154.7V15.51c0,4.38,0,8.91-.11,13.44-.21,7.54-7.13,12.18-13.71,12.31-2,.05-4,.07-5.92.08v.72h17.08V69.21a13.14,13.14,0,0,1-7.93,12.32h11V93.21c0,1.17,0,2.34,0,3.5,0,3.75,0,7.63-.12,11.54-.28,7.33-7,12.67-13.05,13-5.12.32-10.28.56-15.26.78-2.81.13-5.62.26-8.43.41-3.06.15-6.31.34-9.42.7A16.61,16.61,0,0,1,106.87,123.31Z"/><path d="M.16,120.91c.39-32,.74-70,.4-108.5L.46.63,63.14.78V16c0,4.48,0,8.71-.11,13.1C62.83,36.5,56,41.68,49.67,41.87,47,42,44.42,42,42,42c0,.39,0,.79,0,1.18l2.83-.05h.54a13.78,13.78,0,0,1,10.27,4.1,14,14,0,0,1,3.76,10.63c-.11,3.16-.08,6.43-.06,9.88,0,1.5,0,3,0,4.57v11l-11,.62-4.21.26-2.09.14c0,4.67,0,9.31,0,13.86q0,4,0,8.1s-.07,17,0,21.6c-10.45.95-42,6.5-42,6.5Z"/><path class="cls-1" d="M347.87,73.61l-12.17-.8V117.2L318,115.5V12.39h17.32V23.57c0,9.13.1,18.27,0,27.4,0,2.17.67,2.85,2.84,2.82,3,0,6,.31,9.37.52,0-2.48,0-4.78,0-7.08-.1-10.67-.13-21.35-.36-32,0-2.27.6-2.82,2.79-2.75,4.83.17,9.68.06,15.13.06V121.28c-5.4-.74-10.95-1.45-16.48-2.32-.49-.08-1.18-1.13-1.18-1.73.08-7.45.32-14.91.4-22.37C347.93,87.89,347.87,80.92,347.87,73.61Z"/><path class="cls-2" d="M168.57,77.29c0,9.5,0,18.8,0,28.09,0,4.23.11,4.18-4.12,4.12-3.88,0-7.76,0-11.65,0-1.61,0-2.14-.5-2.13-2.21q.09-34.52,0-69V12c3.62,0,7.46-.08,11.3,0,7.56.19,15.13.36,22.68.72,8.76.42,13.83,6.83,13.94,15.37.14,10.88.06,21.75,0,32.63a13.85,13.85,0,0,1-5.91,11.69c-2.06,1.47-2.36,2.89-1.61,5.31,3,9.69,5.78,19.47,8.67,29.2.56,1.88.13,2.72-2,2.67-4.63-.11-9.28,0-13.91-.19a3,3,0,0,1-2.18-1.71c-2.53-8.8-5-17.62-7.28-26.49C173.24,76.63,173.42,76.58,168.57,77.29Zm-.12-16.49a57.15,57.15,0,0,0,6.87,0c4-.53,5.85-2.42,5.9-5.88q.17-9.88.05-19.79c0-2.69-1.26-4.71-4.27-5-2-.17-4.05-.21-6.08-.29-1.79-.08-2.56.57-2.51,2.58.15,5.23,0,10.46,0,15.7Z"/><path class="cls-3" d="M206.84,60.81c0-11.36-.19-22.71.06-34.06.21-9.33,6.48-14.4,14.89-14.86,6.68-.36,13.41-.22,20.1.07s12.85,7,12.92,14.42q.3,34.79.41,69.58c0,9.42-5.75,15-15.11,14.77-7-.2-14-.43-20.93-1.07a13.69,13.69,0,0,1-12.24-13.37c-.17-11.83,0-23.66,0-35.48Zm30.49,1.06h-.07c0-8.93.05-17.86,0-26.79,0-4.77-1.57-6-6.74-6-4.85,0-6.07,1.19-6.08,6,0,5.42.09,10.85.13,16.27.09,11.9.06,23.8.3,35.7.13,6.35,1.49,7.34,7.8,6.76,3.16-.3,4.63-1.81,4.65-5.1C237.36,79.73,237.33,70.8,237.33,61.87Z"/><path class="cls-4" d="M263.11,78.3l17.35,1.45c0,3.74,0,7.6,0,11.45,0,3.25,1.25,4.55,4.48,4.85,1.06.1,2.13.08,3.2.15,2.73.17,4-1.41,4.11-3.83.14-3.88.54-7.88-.22-11.61a13.09,13.09,0,0,0-4.48-6.7c-4.38-3.64-9.33-6.58-13.82-10.09a70.69,70.69,0,0,1-8-7.53c-3.47-3.73-3.14-8.54-3.21-13.16-.08-5.14-.15-10.29-.05-15.43.1-5.69,1.86-10.74,6.94-13.85a12.52,12.52,0,0,1,6.24-1.9c7.45.05,14.9.46,22.35.82,5.46.26,11.1,6.16,11.49,12.34.34,5.32.1,10.68.23,16,.05,2.22-.77,2.83-2.95,2.61-4.05-.4-8.13-.62-12.21-.7-1.91,0-2.56-.69-2.48-2.57a65.49,65.49,0,0,0-.05-7.28c-.17-2.6-1.69-4-4.32-4.21-.87-.06-1.75,0-2.62,0-4,.06-4.8.83-4.84,4.74a40.8,40.8,0,0,1-.05,4.95c-.87,6.22,2.58,9.87,7.23,13.06,5.09,3.49,10.12,7.1,15,10.9,4.69,3.68,7.46,8.38,7.28,14.69-.21,8,0,15.94-.06,23.9A12.41,12.41,0,0,1,296,113.54c-6.08-.51-12.17-1.08-18.26-1.57-8.78-.72-14.72-7.08-14.8-15.92-.05-5.15-.15-10.3-.18-15.44A15.85,15.85,0,0,1,263.11,78.3Z"/><path class="cls-5" d="M94.2,71.16c-4.86.2-9.49.54-14.11.51-2.56,0-3.37.74-3.29,3.34.18,5.89.15,11.8,0,17.69-.07,2.33.56,3.16,2.91,3,5.22-.43,10.46-.64,15.68-1.06,2.09-.16,2.88.25,2.75,2.66C97.83,102,98,106.75,98,111.9c-3,.35-6.16.77-9.31,1.08-8.88.86-17.77,1.64-26.65,2.53-2.42.24-3.49.06-3.44-3.07.32-18.32.3-36.64.4-55q.09-17.85.21-35.72c0-3,0-6,0-9.3H97.86c0,5.5.06,10.89-.1,16.27,0,.51-1.44,1.36-2.23,1.39-5.24.13-10.49.08-15.73.1-.85,0-1.7.07-2.72.12,0,5.58,0,11,0,16.32a32.68,32.68,0,0,1-.06,5c-.33,2.19.48,2.7,2.54,2.59C83.7,54,87.86,53.89,92,54c.74,0,2.07,1.13,2.09,1.77C94.28,60.77,94.2,65.8,94.2,71.16Z"/><path class="cls-6" d="M143.42,93.21c0,4.93.09,9.77-.1,14.6,0,.66-1.34,1.79-2.11,1.84-7.85.49-15.7.78-23.56,1.18-3.38.17-6.78.38-10.15.76-1.76.2-2.14-.32-2.14-2q.15-45,.18-90c0-2.31,0-4.62,0-7.15H143c0,5.44.05,10.84-.1,16.23,0,.35-1.48.95-2.28,1-5.33.11-10.67.09-16,.13a12.13,12.13,0,0,0-1.35.18V53.73h17.08V69.21c0,1.93-1.41,1.76-2.68,1.76-4.74,0-9.48,0-14.53,0V93.21Z"/><path class="cls-7" d="M12.23,12.3H51.47c0,5.64.06,11-.1,16.44,0,.53-1.32,1.44-2,1.46-5.43.16-10.87.23-16.31.13-2.28,0-2.72.82-2.69,2.93.11,6.75,0,13.51,0,20.27a6.83,6.83,0,0,0,.21,1.34c5,0,9.85.08,14.67,0,2.05-.06,2.67.55,2.6,2.64-.17,4.82-.06,9.65-.06,14.86-4.85.27-9.46.65-14.08.75-2.58.06-3.4.83-3.34,3.61.23,9.88.09,19.77.09,29.65v12.19l-18.53,2.52C12.28,84.88,12.56,48.8,12.23,12.3Z"/></g></g></svg>