<svg xmlns="http://www.w3.org/2000/svg" viewBox="0 0 95.02 86.73"><defs><style>.cls-1{fill:#d95b13;}.cls-2{fill:#f6a01e;}.cls-3{fill:#f08210;}.cls-4{fill:#de5c11;}.cls-5{fill:#fbbb3c;}.cls-6{fill:#1d1d1b;}.cls-7{fill:#ffeace;}</style></defs><g id="Capa_2" data-name="Capa 2"><g id="Capa_1-2" data-name="Capa 1"><g id="Guepardo"><path class="cls-1" d="M78.58,14.67,83,10a3.63,3.63,0,0,1,3,1.62c.89,1.64,4.43,5.46-3.43,14.46l-2.29-3.79,1.15-3.89-.16-1.77Z"/><polygon class="cls-2" points="89.64 14.63 88.84 6.59 84.15 2.16 76.69 2.43 70.99 6.86 67.72 9.32 53.26 5.91 47.08 5.98 27.19 8.88 13.28 1.27 6.1 5.83 3.96 15.46 20.01 13.44 49.87 11.16 62.39 12.2 69.11 15.38 73.79 15.38 76.81 11.43 79.03 7.54 82.18 7.41 86.02 10.92 89.39 16.13 89.64 14.63"/><path class="cls-3" d="M90.1,16.07S83.83-1.5,74.79,10.67a9.06,9.06,0,0,1-4.5,3.11s-6.16-2.47-10-3.56a27.31,27.31,0,0,0-11.5-.91s-7.15-.23-9.81.26-13.21,3.36-13.21,3.36-7.44-6.35-13-6.3S4,14.69,4.52,17.27s6.76,11.15,6.76,11.15L8,38.94,3.49,43.5,3.37,64l3-.76L14.72,74.8l11.47,5.7,22.67,5.31,10.88-4L68,81l9.41-7.45-.33,1.83,7.25-4.8L88.27,60l3,2.78,1-9.82-4.42-6.88,5.08-2-7.19-6.73L76.07,17.06s1.8-4.39,4.92-6.39a3.49,3.49,0,0,1,5,.93S89.7,17,82.57,26.06l.94,1.79L88,24.07Z"/><path class="cls-2" d="M80.53,70.88l5.78-13.51,2.07,1.07S89.87,53.86,87,45.51c0,0-6.72-14.39-6.43-17.08l8.11,12.29L91,45.05,89.64,48.2l2.94,11.42L91,64l-3.11-2.87L84,71.8l-4.25,2.29Z"/><path class="cls-4" d="M80.16,72.85l1.28-6.77s-8.83,10-18.32,11.79L64,74.63l-4,5.88,2.79,1.58,10.93-4.22,6.14-3.07Z"/><path class="cls-4" d="M8.56,12.32c-2.35,4.46,3.69,14.34,3.69,14.34L15,22.19l.28-5,.35-5.75S10.08,9.45,8.56,12.32Z"/><path class="cls-4" d="M36.7,80.05S17.55,74.23,14.1,65.52l-.31,4.81s-7.94-11-3.44-18.75c0,0-5.91,6.16-7.72,7.94a12.23,12.23,0,0,0,.62,4.06l3.66-4.06s-1.83,5.16,5.17,12.1C22.38,81,36.7,80.05,36.7,80.05Z"/><path class="cls-5" d="M47.27,84.67c-2.2,0-15.31-3.38-17.76-16.44-2.74-15.34,9.65-13.82,9.65-13.82l9,4.6,8.64-4.6s13.55-1.85,10.31,13C62.25,81.5,49.46,84.67,47.27,84.67Z"/><path class="cls-6" d="M47.58,44.49c-1.18,0-4.47.4-6.87.62a12.69,12.69,0,0,1,7-2.83,11.77,11.77,0,0,1,6.75,2.79C52.06,44.85,48.76,44.51,47.58,44.49Z"/><path class="cls-6" d="M53.44,29a12.66,12.66,0,0,0,1.13-1.23c.79-1.09,1.56-2.21,2.31-3.33.31-.47.44-1.09-.06-1.4a1.23,1.23,0,0,0-1.21.13,6.58,6.58,0,0,0-2.35,4.78A5.66,5.66,0,0,0,53.44,29Z"/><path class="cls-6" d="M42.14,29.16A12.93,12.93,0,0,1,41,27.93c-.79-1.09-1.55-2.21-2.3-3.33-.31-.47-.44-1.09,0-1.4a1.25,1.25,0,0,1,1.22.13,6.61,6.61,0,0,1,2.35,4.78A6.68,6.68,0,0,1,42.14,29.16Z"/><path class="cls-6" d="M48.13,68.88a2.6,2.6,0,0,0-1.07.2,15,15,0,0,1-7.46,1.23A12.16,12.16,0,0,1,30.11,64a3,3,0,0,0-.21-.33,2.05,2.05,0,0,0-.32,0v4.91c-1.83-3.49-1-7,0-10.58-1.64.58-2.59,2-3.69,3.25.11-4.33,4.28-6.77,8.37-4.94,0,0,0,.13,0,.14-2.61.8-3,3.2-2.16,5.62A8.17,8.17,0,0,0,38,67.39a9.27,9.27,0,0,0,7.33-.76,4,4,0,0,0,2.1-3.69c-1.83-1-3.7-2-5.44-3.14a10.93,10.93,0,0,1-2.81-2.66,3.84,3.84,0,0,1,1.51-6,14.87,14.87,0,0,1,4.43-1.07C46.06,50,47,50,48,50h.3c1,0,1.94,0,2.91.13a14.81,14.81,0,0,1,4.42,1.07,3.85,3.85,0,0,1,1.52,6,10.93,10.93,0,0,1-2.81,2.66c-1.75,1.16-3.62,2.1-5.45,3.14A4,4,0,0,0,51,66.63a9.27,9.27,0,0,0,7.33.76A8.18,8.18,0,0,0,64.27,62c.85-2.42.44-4.82-2.17-5.62a.49.49,0,0,1,0-.14c4.09-1.83,8.25.61,8.36,4.94-1.09-1.24-2-2.67-3.68-3.25,1,3.62,1.78,7.09,0,10.58V63.63a1.84,1.84,0,0,0-.31,0l-.22.33a12.13,12.13,0,0,1-9.49,6.35,15,15,0,0,1-7.46-1.23,2.55,2.55,0,0,0-1.06-.2Z"/><path class="cls-1" d="M48.2,56c1.32-.15,2.45-1.94,3.55-2.16,1.3-.26,2.6-.42,4.07-.65-.48-.3-.91-.77-1.38-.83a48.18,48.18,0,0,0-6.39-.64,33.38,33.38,0,0,0-5.74.72,4,4,0,0,0-1.61,1.39,7.07,7.07,0,0,1,3.89,0C45.65,54.17,47,56.14,48.2,56Z"/><g id="ojos"><ellipse class="cls-7" cx="63.67" cy="41" rx="7.32" ry="7.84"/><ellipse class="cls-7" cx="31.9" cy="41.2" rx="7.32" ry="7.84"/><path class="cls-6" d="M69.72,33.46c3.08,3.47,3.28,7.81,1.36,11.76a7.87,7.87,0,0,1-6.73,4.62,6.88,6.88,0,0,1-6.87-3.24A8.86,8.86,0,0,1,56,41.46a3.75,3.75,0,0,1-3.41-2.88c-.67-2.33-.29-4.69-.35-7,.42,1,.74,1.94,1.17,2.86.89,1.94.9,2.46,3,.84,1.78-1.34,3.36-3,5.11-4.4A39.9,39.9,0,0,1,67,27.09a5,5,0,0,1,6.12.76,8.87,8.87,0,0,1,2.68,5.59c-3.7-4.58-7.26-3.57-9.85-1.46A4.18,4.18,0,0,1,69.72,33.46ZM62,48.13a7.12,7.12,0,0,0,8-5,7.79,7.79,0,0,0-.88-7.08,3.05,3.05,0,0,0-4.38-.89,6,6,0,0,1,2.08,4c.44,3-.14,6-2.82,7.61a5.09,5.09,0,0,1-3.42.5l-.5-.09-.07.28A9.12,9.12,0,0,0,62,48.13Zm0-9a1.18,1.18,0,0,0-1-1.29,1.88,1.88,0,0,0-1.53,2,.9.9,0,0,0,1,.95A1.6,1.6,0,0,0,62,39.14Z"/><path class="cls-6" d="M29.66,32.18c-2.59-2.11-6.15-3.12-9.86,1.46a8.93,8.93,0,0,1,2.69-5.59,4.93,4.93,0,0,1,6.12-.76A40.54,40.54,0,0,1,34,31.05c1.75,1.39,3.32,3.06,5.1,4.4,2.15,1.62,2.15,1.1,3.05-.84.43-.92.75-1.9,1.17-2.86-.06,2.34.32,4.7-.35,7a3.76,3.76,0,0,1-3.41,2.88,8.8,8.8,0,0,1-1.45,5.14A6.86,6.86,0,0,1,31.23,50a7.88,7.88,0,0,1-6.74-4.62c-1.92-4-1.72-8.29,1.36-11.76A4.2,4.2,0,0,1,29.66,32.18Zm5.89,15.47-.08-.28-.5.09a5.05,5.05,0,0,1-3.41-.5c-2.69-1.59-3.27-4.63-2.82-7.61a6,6,0,0,1,2.08-4,3.05,3.05,0,0,0-4.38.89,7.73,7.73,0,0,0-.88,7.08,7.11,7.11,0,0,0,8,5A9.52,9.52,0,0,0,35.55,47.65ZM35.11,41a.89.89,0,0,0,1-1,1.87,1.87,0,0,0-1.53-2,1.19,1.19,0,0,0-1,1.29A1.6,1.6,0,0,0,35.11,41Z"/></g><g id="manchas"><path class="cls-6" d="M53.78,17.26a5.8,5.8,0,0,0,0,.59c.13,1.17.89,1.84,1.9,1.54a5,5,0,0,0,3.16-5.56c-.39-1.53-1.52-2.1-2.72-1.21A5.66,5.66,0,0,0,53.78,17.26Z"/><path class="cls-6" d="M73.69,65.68c0,1.32.61,2,1.81,1.86a2.45,2.45,0,0,0,2.12-1.7,2.82,2.82,0,0,0-.24-2.74,1.54,1.54,0,0,0-2.66-.16A3.93,3.93,0,0,0,73.69,65.68Z"/><path class="cls-6" d="M80.21,53.59c1.16.72,2.08.43,2.62-.92a3.2,3.2,0,0,0-.31-3.19A2.51,2.51,0,0,0,80,48.23,2,2,0,0,0,78.39,51,4.15,4.15,0,0,0,80.21,53.59Z"/><path class="cls-6" d="M63.1,22a6.51,6.51,0,0,0,3.52-1.12,2,2,0,0,0,1.06-2A1.91,1.91,0,0,0,66,17.41c-2.13-.41-3.88,1.7-4,3.79a.77.77,0,0,0,.37.59A3,3,0,0,0,63.1,22Z"/><path class="cls-6" d="M80.16,58.73a3.77,3.77,0,0,0,2,3.06c1.08.33,1.87-.33,1.83-1.58-.05-1.59-1.3-3.38-3.05-2.68A1.17,1.17,0,0,0,80.16,58.73Z"/><path class="cls-6" d="M69.78,53.28a2.9,2.9,0,0,0,1.58,2.36c.83.26,1.44-.25,1.4-1.21,0-1.23-1-2.61-2.34-2.07A.9.9,0,0,0,69.78,53.28Z"/><path class="cls-6" d="M78.73,36.9a6.91,6.91,0,0,0,2,4.3c.47.41,1,.69,1.54.32s.5-1,.37-1.58a6,6,0,0,0-2.44-4.16C79.28,35.22,78.73,35.61,78.73,36.9Z"/><path class="cls-6" d="M41.8,17.46a5.8,5.8,0,0,1,0,.59c-.13,1.17-.89,1.84-1.91,1.54A5,5,0,0,1,36.73,14c.4-1.53,1.53-2.1,2.73-1.21A5.69,5.69,0,0,1,41.8,17.46Z"/><path class="cls-6" d="M21.89,65.88c0,1.32-.62,2-1.81,1.86A2.45,2.45,0,0,1,18,66a2.79,2.79,0,0,1,.24-2.74,1.53,1.53,0,0,1,2.65-.16A3.94,3.94,0,0,1,21.89,65.88Z"/><path class="cls-6" d="M15.36,53.79c-1.15.72-2.07.43-2.62-.92a3.18,3.18,0,0,1,.32-3.19,2.5,2.5,0,0,1,2.53-1.25,2,2,0,0,1,1.6,2.74A4.16,4.16,0,0,1,15.36,53.79Z"/><path class="cls-6" d="M32.48,22.18A6.48,6.48,0,0,1,29,21.06a2,2,0,0,1-1.06-2,1.89,1.89,0,0,1,1.73-1.41c2.12-.41,3.88,1.7,4,3.79a.82.82,0,0,1-.37.59A3.13,3.13,0,0,1,32.48,22.18Z"/><path class="cls-6" d="M15.41,58.93a3.76,3.76,0,0,1-2,3.06c-1.08.33-1.87-.33-1.83-1.58.05-1.59,1.29-3.38,3.05-2.68A1.16,1.16,0,0,1,15.41,58.93Z"/><path class="cls-6" d="M25.79,53.48a2.87,2.87,0,0,1-1.57,2.36c-.83.26-1.44-.25-1.41-1.22,0-1.22,1-2.6,2.35-2.06A.89.89,0,0,1,25.79,53.48Z"/><path class="cls-6" d="M16.85,37.1a6.87,6.87,0,0,1-2,4.3c-.46.41-1,.69-1.54.32s-.5-.95-.37-1.58A6.07,6.07,0,0,1,15.42,36C16.3,35.42,16.85,35.81,16.85,37.1Z"/></g><path class="cls-6" d="M46.18,7.69c-1.49-.5-5.84-.06-8.42.36a35.8,35.8,0,0,0-9.87,3.18A1.86,1.86,0,0,1,25.63,11c-1.07-1-2.06-2-3.13-3a29.07,29.07,0,0,0-4.1-3.32c-5.11-3-10.75-.35-12.3,5.73A17,17,0,0,0,7,21.26a15.83,15.83,0,0,0,4.57,6.27,21.35,21.35,0,0,1,1.33-2.62c.84-1.22,1-2.31-.06-3.45a1.46,1.46,0,0,1-.25-.42,3.93,3.93,0,0,1,1-4.86c.39-.34.82-.62,1.31-1-.37-.67-.69-1.38-1.11-2a5.11,5.11,0,0,0-2.93-2.16A2.12,2.12,0,0,0,8.67,12C9.81,9.7,11.17,8.82,13,9.18a5.61,5.61,0,0,1,3.48,2.57c1.21,1.82,2.27,3.77,3.36,5.69a.75.75,0,0,1-.11.62,50.58,50.58,0,0,0-5.8,11.66A36.47,36.47,0,0,1,6.23,42.51l-2,2,3.17,1c-2.86,4.86-4.95,10-3.53,15.93l4.37-6.2.18.09c-2,8.07,2.85,16.36,7.82,18.88l-1.74-4.67c5.57,6,11.92,7.8,19.48,9.57l-3.08-4.93c.17.11.24.14.3.19a36.9,36.9,0,0,0,10.19,6.9,11.38,11.38,0,0,0,4.84,1h2.62a11.38,11.38,0,0,0,4.84-1,37,37,0,0,0,10.2-6.9,2.36,2.36,0,0,1,.29-.19l-3.08,4.93c7.56-1.77,13.83-3.56,19.4-9.57l-1.74,4.67c5-2.52,9.82-10.81,7.82-18.88l.18-.09,4.37,6.2c1.42-5.94-.67-11.07-3.53-15.93l3.17-1-2-2a36.47,36.47,0,0,1-7.71-12.79,51,51,0,0,0-5.8-11.66.75.75,0,0,1-.11-.62c1.09-1.92,2.15-3.87,3.36-5.69A5.61,5.61,0,0,1,82,9.18c1.84-.36,3.2.52,4.34,2.79a2.13,2.13,0,0,0-2.25-.92,5.09,5.09,0,0,0-2.92,2.16,21.22,21.22,0,0,0-1.11,2c.49.36.92.64,1.31,1a3.91,3.91,0,0,1,1,4.86,1.24,1.24,0,0,1-.24.42c-1.08,1.14-.9,2.23-.06,3.45a21.35,21.35,0,0,1,1.33,2.62A15.83,15.83,0,0,0,88,21.26a17,17,0,0,0,.92-10.82c-1.55-6.08-7.19-8.73-12.3-5.73A29.07,29.07,0,0,0,72.52,8c-1.08.93-2.06,2-3.13,3a1.86,1.86,0,0,1-2.26.25,35.76,35.76,0,0,0-9.88-3.18c-2.57-.42-6.31-.93-7.46-.48S49,27.18,48,36.91C48,36.91,47.67,8.2,46.18,7.69Zm9.09-3.45A34.58,34.58,0,0,1,67.12,7.62.62.62,0,0,0,68,7.47c1.11-1.16,2.21-2.34,3.39-3.41,2.62-2.39,5.55-4,9-4.06,4.58-.08,8,2.08,10.24,6.49a19,19,0,0,1,1.56,12A17.33,17.33,0,0,1,85,30.5a38.58,38.58,0,0,0,4.44,7.72A54.78,54.78,0,0,0,94,43.08c1.13,1.11,1.31,1.53.4,2.78a30.31,30.31,0,0,1-2.3,2.54c0,.05.11.19.18.34a21.62,21.62,0,0,1,1.87,11.41,14.74,14.74,0,0,1-2.38,7c-.34.48-.77.9-1.27,1.47L89.71,66c-.11.11-.17.14-.18.19a20.47,20.47,0,0,1-6.83,9.67c-5.86,4.64-12.31,5.52-19.29,7.4a57.74,57.74,0,0,0-6.28,1.6,28,28,0,0,1-8.27,1.9H46.24A28.09,28.09,0,0,1,38,84.83a57.74,57.74,0,0,0-6.28-1.6c-7-1.88-13.51-2.76-19.37-7.4a20.47,20.47,0,0,1-6.83-9.67s-.07-.08-.18-.19L4.47,68.6c-.49-.57-.92-1-1.26-1.47a14.74,14.74,0,0,1-2.38-7A21.62,21.62,0,0,1,2.7,48.74a2.34,2.34,0,0,1,.18-.34,30.31,30.31,0,0,1-2.3-2.54c-.91-1.25-.73-1.67.4-2.78a54.67,54.67,0,0,0,4.64-4.86,38.62,38.62,0,0,0,4.45-7.72,17.33,17.33,0,0,1-7.27-12,19,19,0,0,1,1.56-12Q7.71-.12,14.6,0c3.5.06,6.43,1.67,9,4.06C24.83,5.13,25.93,6.31,27,7.47a.62.62,0,0,0,.86.15A34.52,34.52,0,0,1,39.75,4.24C42.27,4,52.75,4,55.27,4.24Z"/></g></g></g></svg>