<svg xmlns="http://www.w3.org/2000/svg" viewBox="0 0 366.37 317.93"><defs><style>.cls-1{fill:#d95b13;}.cls-2{fill:#f6a01e;}.cls-3{fill:#f08210;}.cls-4{fill:#d55314;}.cls-5{fill:#de5c11;}.cls-6{fill:#fbbb3c;}.cls-7{fill:#f0830e;}.cls-8{fill:#b45717;}.cls-9{fill:#903a14;}.cls-10{fill:#5f220c;}.cls-11{fill:#ffeace;}.cls-12{fill:#914018;}</style></defs><g id="Capa_2" data-name="Capa 2"><g id="Capa_1-2" data-name="Capa 1"><g id="Guepardoso"><path class="cls-1" d="M63.19,55.16,46,38.5S37.52,38.44,34,44.26,16.67,63.64,47.51,95.61l9-13.47L52,68.35l.61-6.3Z"/><polygon class="cls-2" points="18.61 53.95 21.75 25.38 40.15 9.66 69.43 10.63 91.8 26.36 104.65 35.07 161.41 22.97 185.67 23.21 183.19 36.52 174.71 41.6 125.58 45.31 99.2 56.61 80.8 56.61 68.94 42.57 60.23 28.78 47.89 28.29 27.9 52.25 19.57 59.27 18.61 53.95"/><path class="cls-3" d="M20,58.2S42.57-2.28,78.06,41c16.34,22.68,33.88,4.35,56.7-1.61,25.23-6.6,45.15-3.23,45.15-3.23l3.28,118,33.3,11.37s75,42.64,33.41,96.81-70.07,45.5-70.07,45.5L180,180l-26.19,6.89-7.64,8.78-32,13.86,23,84.23-32.5-3.06L67.74,264.26l1.29,6.5-28.45-17L25.14,216.29l-11.72,9.89L9.65,191.3,27,166.85l-20-7.17,28.22-23.9L73,63.64S66,48.06,53.69,41,34,44.26,34,44.26,19.54,63.45,47.51,95.61l-2,3.9-19.37-11Z"/><path class="cls-4" d="M153.76,294.64s47.87,13.61,74-23.88l-1.94,13.15-21,17.13-23.53,6.78H165.46Z"/><path class="cls-2" d="M54.35,253.72l-22.68-48-8.15,3.81s-5.81-16.28,5.58-45.94c0,0,26.38-51.11,25.25-60.66L22.52,146.6,13.42,162l5.19,11.19L7.07,213.73l6.35,15.68,12.21-10.17,15,37.76,16.67,8.1Z"/><path class="cls-5" d="M55.8,260.71l-5-24s35.34,40.17,72.61,46.46l-.67-7.54,10.53,15.24-9.14,2.71-42.9-15L57.09,267.64Z"/><path class="cls-6" d="M149.23,195.69s-52-4.88-37.93,50.48,70.05,61.65,70.05,61.65L180,218.76Z"/><path class="cls-7" d="M153.76,294.64a90.06,90.06,0,0,0,27.59,2.09c.2,7.44-.17,8.24-.17,8.24l-16.46-2.17Z"/><path class="cls-8" d="M188.7,25.47V42L264,58.2l28.31-32.73,46.47-5.16S312.2,1.59,296.13,7.4s-38,22.59-39.3,28.72S181.24,11.27,188.7,25.47Z"/><path class="cls-9" d="M185.67,38.7c-7.6,6.59-7.07,65.7-2.48,113.44,0,0,35.86,13.05,40.38,19.59,0,0,94.41,35.41-4.58,129.31,0,0,117.15-24.74,134-113.53l-7.22-35.42L291.35,58.2l18.07-22.4s17.65.26,24.64,13.68-10.92,50.07-10.92,50.07S367.9,65.3,336.85,24.66c-48.4-28.23-76,25.28-75.39,28.37C246,45.31,193.27,32.11,185.67,38.7Z"/><path class="cls-10" d="M219,301s58.81-17.54,72.36-48.46c0,0,2.26,9.74,0,13.61s50.59-47.5,32.92-74.89c0,0,14.36,8.12,21.47,14.44,0,8.6-1.91,9.83-1.91,9.83l-12.06-11.09s16.42,29.22-24.12,62.2C267.23,300.07,219,301,219,301Z"/><path class="cls-10" d="M315.72,36.12s13,2.85,18.34,13.36-3.33,37.18-10.92,50.07-14.2-15-14.2-15L319.59,64l-22.43-14.2,3.55-12.26Z"/><ellipse class="cls-11" cx="241.5" cy="147.31" rx="22.51" ry="25.84"/><ellipse class="cls-11" cx="120.52" cy="147.61" rx="28.72" ry="27.83"/><polygon class="cls-12" points="151.79 190.2 179.82 183.91 203.42 186.45 211.91 191.3 211.17 195.58 191.81 199.24 174.38 201.98 158.57 198.75 149.24 198.11 147.76 193.59 151.79 190.2"/><path d="M39.54,110.05C23.33,99.91,14.33,85.49,11,67.35,8.24,52.49,9.66,38.15,17.12,24.8c8.75-15.66,22.19-23.33,40.2-23C71.06,2,82.53,7.69,92.83,16.17c4.63,3.81,9,8,13.31,12.12a2.58,2.58,0,0,0,3.36.52,146.62,146.62,0,0,1,46.55-12A190.07,190.07,0,0,1,197.88,18,202.36,202.36,0,0,1,251.82,33.5c3.32-4.8,6.28-9.9,10-14.33C270.81,8.55,282.38,2.49,296.2.6,309.54-1.22,322,1,333.35,8.38,347,17.25,354.78,30,357.05,46c2.68,18.88-2.09,35.93-13.6,51-3.56,4.67-7.74,8.87-12.24,14,4.23,10.3,8.88,22.3,18.1,31.68,4.48,4.55,9.32,8.76,14.08,13,3.62,3.25,4.05,4.88.71,8.41-2.92,3.08-6.43,5.59-9.32,8.06,2.05,7.06,5,14.13,6.07,21.47,2.78,18.16.2,35.52-10.23,51.15-1.95,2.91-2.31,2.83-4.38.06-.89-1.19-1.77-2.4-2.86-3.88-.58,1.33-1.06,2.55-1.62,3.73A90.42,90.42,0,0,1,321,272.26c-19.5,18.07-43.18,28.33-68.32,35.22a380.19,380.19,0,0,1-44.29,9,120.94,120.94,0,0,1-59.48-5.61c-7.88-2.81-16.45-3.64-24.64-5.65-27.39-6.7-52.88-17.7-75.87-34.16-12.27-8.8-21.5-20.07-26.81-34.35-.06-.17-.28-.28-.71-.68-1,2.92-2,5.7-3.28,9.33-2-2-3.62-3.5-5-5.23-5.69-7.27-8.22-15.83-9.33-24.79-1.78-14.22,1-27.71,7.32-40.52.26-.53.6-1,.7-1.2-3.08-3-6.39-5.76-9-9-3.56-4.42-2.86-5.92,1.59-9.84,6.29-5.53,12.68-11,18.22-17.29C29.29,129.36,34.44,119.76,39.54,110.05Zm271.9-70.87c-5.56,2.06-6.53,4.73-8.63,7.63,4.25.65,7.78-.61,12.62,2.78s6.11,8.23,6.87,11.38a30,30,0,0,1-.09,11.53c-.72,3.35-3.78,7.79-5.85,11.59-1.17,2.13-1.46,4,.11,6s3.11,4.35,4.65,6.53l2,2.9c4-4.19,8.22-7.92,11.64-12.29,14.86-19,12.81-44,1.18-59.23-10.34-13.49-24.64-18.08-41-14.63C279,16.76,268.39,26.57,264,42.51c-.94,3.4-1.64,6.86-2.5,10.52C240,40,216.94,33,192.28,30.51c-6.78,34.8-8,69.64-10.44,103.55-3.6-34.56-6.29-70-2.55-106.42-10.64.87-20.93,1.22-31,2.68a152.36,152.36,0,0,0-38.75,11.31c-3.37,1.46-6.23,1.28-8.89-.87-4.18-3.4-8.06-7.18-12.29-10.51C83.09,26.13,78,21.57,72.21,18.48,52.17,7.82,30,17.21,24,38.81c-3.69,13.15-2,26.07,3.61,38.43A56.77,56.77,0,0,0,45.48,99.51c1.81-3.28,3.15-6.57,5.23-9.29,3.3-4.33,4-8.22-.23-12.24a5.25,5.25,0,0,1-1-1.51c-3.21-6.53-1.78-12.78,4-17.26C55.07,58,56.77,57,58.68,55.74a76.36,76.36,0,0,0-4.36-7.09A20,20,0,0,0,42.84,41c-3.5-.8-6.4.62-8.81,3.27,4.49-8.06,9.82-11.2,17-9.9,5.79,1,10.31,4.58,13.65,9.12C69.47,50,73.63,56.87,77.93,63.67a2.58,2.58,0,0,1-.45,2.23c-9.86,12.55-16.66,26.74-22.76,41.38C47.61,124.37,38.13,140,24.44,152.71c-2.45,2.28-4.92,4.53-7.79,7.18l12.45,3.72c-11.25,17.29-19.45,35.48-13.89,56.6l17.18-22.05.7.35c-7.85,28.66,11.19,58.1,30.69,67L56.94,249c21.88,21.35,46.65,35.59,76.32,41.86l-12.08-17.49a9.61,9.61,0,0,1,1.15.65,147.6,147.6,0,0,0,40,24.53c15.37,6.37,30.34,5.87,44.52-3.15a193.71,193.71,0,0,0,19.37-13.92c11-9.09,20.23-19.81,26.67-32.69s8.21-26.43,3.09-40.16c-4-10.68-12-18.5-20.32-25.9a29.6,29.6,0,0,0-7.59-4.44,25.37,25.37,0,0,1-10.56-8.49,36.41,36.41,0,0,1-6.8-23.29c-3.12.15-6.21.93-9,.31-8.64-1.93-12.44-16.77-6.07-24,.41,2.22.68,4.27,1.18,6.26,1.26,4.95,3.91,6.08,7.66,2.7a107,107,0,0,0,10.95-11.86c7.52-9.27,14.89-18.74,25.41-24.8,4.24-2.44,9-4.66,13.76-5.39,11.82-1.78,22.58,10.37,24.51,21.77-14.15-15-28.08-9.73-40.08,4.29,13.67-2.73,25.77,10.69,28.64,24.52,1.91,9.18.65,17.94-4.55,25.89a27.53,27.53,0,0,1-22.66,13.11c3,2.46,5.65,4.55,8.2,6.78,10.6,9.24,16.87,20.8,17.65,34.89,1.31,24-8.58,43.63-24.22,60.93-.94,1-2,2-3,2.95S220.12,300,219,301c46-5.08,73.41-23.31,88.1-34.61,15.73-12.1,34.85-36.54,24.68-62,4.28,3.17,12.06,11.09,12.06,11.09a9.45,9.45,0,0,0,1.55-4.54c2.26-17.48-6.4-30.72-16.3-43.09l17.4-4.8c-10.44-7.41-16.13-17.24-21.11-27.56-4.56-9.45-8.81-19-13.43-28.45C303.45,89.84,295.85,71.9,279,60.45c4-8.07,7.75-16.17,14.21-22.53,5.59-5.49,12-9.6,20.23-8.63,11.52,1.35,17.9,10,21.28,19.54,0,.12-.43.43-.66.65q-3.65-3.67-7.27-7.37C321.94,39,317,37.13,311.44,39.18ZM231,168.91c.22.4.28.64.42.74a6.85,6.85,0,0,0,1,.56c6.47,2.95,12.53,1.25,18.1-2.19,11.08-6.84,13.89-25.5,5.49-36.74A13.54,13.54,0,0,0,235.92,129c8.46,1.1,12.26,8.43,12.94,14.92.61,5.84-.2,11.51-3.42,16.65C242.11,165.88,237,168.13,231,168.91Zm9.54-27.68c0-3.1-1.87-5.45-4.27-5.45-2.58,0-5.41,3.5-5.29,6.54a4.38,4.38,0,0,0,4.49,4.28C238.65,146.56,240.56,144.53,240.54,141.23Z"/><path d="M127.46,245.69s13.82,25.86,53.89,25.06c39.31-1.13,50.05-26.51,51.76-32.52l-3.53-1.56S219,262.18,181.35,262.43c-41.58-2.61-49.54-18-49.54-18Z"/><path d="M109.05,228.56V246c-7.19-12.4-3.94-24.74-.18-37.59-6.45,2.07-10.16,7.13-14.47,11.53.44-15.36,16.78-24,32.85-17.53,0,.17,0,.46-.07.48-10.24,2.84-11.82,11.38-8.5,20,4.13,10.65,12.62,16.36,23.34,19,9.86,2.46,19.59,2.06,28.77-2.69,5.54-2.87,7.83-6.83,8.24-13.1-7.17-3.69-14.52-7-21.38-11.16a41.29,41.29,0,0,1-11-9.45c-6.16-7.84-3.41-17.75,5.94-21.24A63.83,63.83,0,0,1,170,180.46a174.06,174.06,0,0,1,25.12,0,57,57,0,0,1,15.61,3.59c8.64,3.23,11.24,11,7.11,19.27-3.24,6.54-8.54,11-15,14.06-5.55,2.69-11.18,5.23-16.82,7.71-1.3.57-1.77,1-1.56,2.56,1,7,6.86,12.75,14.42,13.95,16.06,2.54,31.41-7.59,37.18-22.88.61-1.59.31-2.5-1.28-2.92-2.38-.63-4.78-1.17-7.13-1.74,1.84-3.31,6.4-4.49,11.31-3,6.1,1.9,11.71,7.92,10.87,14.76l-6.12-5.17c-1.95,3.87-3.45,7.64-5.61,11C229.41,245.2,217,252,200.85,251.07c-5-.28-9.93-1.85-14.79-3.2a12.84,12.84,0,0,0-8.39.06c-9.44,3.48-19.24,5.42-29.29,4.36-15.83-1.68-28.51-8.95-37.24-22.54-.27-.41-.55-.8-.84-1.18C110.26,228.52,110.12,228.56,109.05,228.56Zm41.7-34.49c6.61-1.44,14.12.09,20.57,1.62,7.78,1.84,15.43-.18,23.14-1.6,5.1-.94,10.28-1.52,16.07-2.36-1.87-1.06-3.57-2.78-5.43-3-8.83-.9-16.43-2.38-25.27-2.31-7.23.06-15.73,1.87-22.9,3.05C154.92,189.84,150.59,193.66,150.75,194.07Z"/><path class="cls-11" d="M135.5,248.89s3.47,4.07,18,9.3a82,82,0,0,0,28.32,4.73s7.57.74,21.36-4,20-13,20-13a36.48,36.48,0,0,1-14.59,4.94,45.33,45.33,0,0,1-19.35-2.12c-6-2-7-1.77-7.53-1.77a12.31,12.31,0,0,0-3.49.75,73.35,73.35,0,0,1-22.46,4.81C146.55,253.2,135.5,248.89,135.5,248.89Z"/><path d="M111.72,115.56c-10.18-7.48-24.15-11.09-38.69,5.19,1.19-8,4.42-14.75,10.53-19.86,7.37-6.16,15.85-6.76,24-2.7,7.41,3.68,14.31,8.53,21.07,13.37s13.06,10.86,20,15.62c8.44,5.75,8.45,3.89,12-3,1.68-3.28,3-6.77,4.6-10.18-.25,8.32,1.25,16.72-1.37,25-2.07,6.5-6.85,9.43-13.4,10.23a29.12,29.12,0,0,1-5.67,18.26c-6.6,9.27-16.1,12.41-26.94,11.54-11.49-.93-20.85-6-26.44-16.45-7.53-14-6.75-29.44,5.33-41.74A17.3,17.3,0,0,1,111.72,115.56Zm23.1,54.95-.28-1c-.66.11-1.31.23-2,.32-4.63.63-9.17.48-13.4-1.78-10.54-5.64-12.81-16.42-11.07-27,.91-5.53,3.32-10.59,8.15-14.1a12.75,12.75,0,0,0-17.17,3.19c-5.88,7.67-6.58,16.2-3.46,25.15,4.86,14,18.59,19.05,31.51,17.65C129.75,172.65,132.26,171.35,134.82,170.51Zm-1.71-23.76c2.39.11,3.85-1,4-3.4.25-3.37-2.94-6.94-6-6.95a4.36,4.36,0,0,0-4,4.59A6,6,0,0,0,133.11,146.75Z"/><path d="M159.37,63.27a16.34,16.34,0,0,1,0,2.1c-.5,4.16-3.5,6.54-7.47,5.48C143,68.5,137.47,58.17,139.48,51.1c1.55-5.43,6-7.46,10.71-4.29A19.6,19.6,0,0,1,159.37,63.27Z"/><path d="M81.22,235.24c0,4.68-2.43,7-7.12,6.59a9.4,9.4,0,0,1-8.31-6c-1.41-3.39-1.4-6.72.95-9.73,3-3.78,7-4,10.4-.58A13.32,13.32,0,0,1,81.22,235.24Z"/><path d="M55.6,192.31c-4.53,2.56-8.14,1.53-10.29-3.25a10.48,10.48,0,0,1,1.24-11.35c2.5-3.23,5.72-5.05,9.93-4.44,5.28.78,7.78,4.58,6.28,9.75A14.76,14.76,0,0,1,55.6,192.31Z"/><path d="M156.7,162c9.06-7.56,19.22-10.19,30.22-9.93,11.58.27,20.5,5.83,27.71,15.16-.9-.52-1.53-.86-2.12-1.23-8.62-5.41-18.2-6.75-28.07-6.24C175.41,160.26,166.4,161.23,156.7,162Z"/><path d="M122.78,80.06c-5.28-.34-9.78-1.37-13.82-4-2.66-1.72-4.93-3.84-4.16-7.27s3.86-4.46,6.79-5c8.34-1.49,15.24,6,15.86,13.43A2.81,2.81,0,0,1,126,79.37,12.64,12.64,0,0,1,122.78,80.06Z"/><path d="M55.79,210.56c0,4.16-4.31,9.83-8,10.86-4.23,1.18-7.34-1.15-7.17-5.6.2-5.65,5.07-12,12-9.53C54.7,207.07,55.94,208.52,55.79,210.56Z"/><path d="M96.55,191.22c0,3.21-3.32,7.58-6.19,8.37-3.26.91-5.65-.89-5.52-4.32.15-4.34,3.9-9.25,9.21-7.33C95.71,188.54,96.66,189.65,96.55,191.22Z"/><path d="M61.44,133c-1,5.39-2.56,11.19-7.69,15.27-1.82,1.45-3.89,2.46-6,1.14s-2-3.4-1.45-5.6c1.42-6.11,3.88-11.54,9.58-14.81C59.28,127.07,61.44,128.44,61.44,133Z"/><path d="M160.69,104.85a56.8,56.8,0,0,1-4.45-4.38c-3.09-3.88-6.09-7.84-9-11.83-1.22-1.66-1.72-3.88.22-5a5.37,5.37,0,0,1,4.77.47,22.71,22.71,0,0,1,9.21,17C161.47,102,161.06,103,160.69,104.85Z"/><path d="M200.36,110.21c-1.34-8.6,9-19.61,23.21-24.11C214.31,92.78,205.73,99.84,200.36,110.21Z"/></g></g></g></svg>