<svg xmlns="http://www.w3.org/2000/svg" viewBox="0 0 89.18 81.41"><defs><style>.cls-1{fill:#d95b13;}.cls-2{fill:#f6a01e;}.cls-3{fill:#f08210;}.cls-4{fill:#de5c11;}.cls-5{fill:#fbbb3c;}.cls-6{fill:#ffeace;}</style></defs><g id="Capa_2" data-name="Capa 2"><g id="Capa_1-2" data-name="Capa 1"><g id="Guepardo"><path class="cls-1" d="M73.75,13.77l4.12-4.4a3.41,3.41,0,0,1,2.85,1.52c.83,1.54,4.15,5.12-3.22,13.57L75.35,20.9l1.07-3.65-.14-1.66Z"/><polygon class="cls-2" points="84.13 13.73 83.38 6.18 78.98 2.03 71.98 2.29 66.63 6.44 63.56 8.74 49.99 5.55 44.19 5.61 25.52 8.33 12.46 1.19 5.72 5.47 3.71 14.51 18.78 12.61 46.81 10.47 58.55 11.45 64.86 14.44 69.26 14.44 72.09 10.73 74.18 7.08 77.13 6.95 80.74 10.25 83.9 15.14 84.13 13.73"/><path class="cls-3" d="M84.57,15.08S78.68-1.41,70.19,10A8.48,8.48,0,0,1,66,12.93s-5.78-2.31-9.33-3.34a25.73,25.73,0,0,0-10.8-.85A70.55,70.55,0,0,0,36.63,9c-2.5.46-12.4,3.16-12.4,3.16s-7-6-12.24-5.92-8.22,7.57-7.75,10,6.35,10.47,6.35,10.47L7.47,36.55l-4.2,4.28L3.17,60.1,6,59.38,13.82,70.2l10.76,5.36,21.28,5,10.21-3.71L63.84,76l8.82-7-.31,1.72,6.8-4.51,3.7-9.89L85.65,59l.9-9.22-4.16-6.46,4.78-1.9-6.75-6.31L71.4,16s1.69-4.12,4.62-6a3.28,3.28,0,0,1,4.7.87S84.19,16,77.5,24.46l.88,1.68,4.24-3.55Z"/><path class="cls-2" d="M75.59,66.53,81,53.85l1.95,1s1.39-4.3-1.34-12.14c0,0-6.31-13.5-6-16l7.6,11.54,2.18,4.06-1.24,3L86.89,56,85.37,60.1l-2.92-2.68-3.57,10-4,2.15Z"/><path class="cls-4" d="M75.24,68.38,76.43,62s-8.28,9.4-17.19,11.07l.78-3-3.73,5.51,2.61,1.49,10.26-4,5.77-2.88Z"/><path class="cls-4" d="M8,11.57C5.83,15.75,11.5,25,11.5,25L14,20.83l.27-4.73.32-5.39S9.46,8.87,8,11.57Z"/><path class="cls-4" d="M34.45,75.13s-18-5.46-21.22-13.63L13,66S5.49,55.65,9.72,48.41c0,0-5.55,5.79-7.25,7.46a11.4,11.4,0,0,0,.58,3.8l3.44-3.8S4.77,60.7,11.34,67.22C21,76.05,34.45,75.13,34.45,75.13Z"/><path class="cls-5" d="M44.36,79.47C42.31,79.47,30,76.3,27.7,64c-2.58-14.4,9.05-13,9.05-13l8.45,4.32,8.11-4.32S66,49.33,63,63.32C58.43,76.49,46.42,79.47,44.36,79.47Z"/><path d="M44.66,41.76c-1.11,0-4.2.37-6.45.58a11.87,11.87,0,0,1,6.57-2.66,11.05,11.05,0,0,1,6.33,2.62C48.86,42.09,45.76,41.78,44.66,41.76Z"/><path d="M50.16,27.19A15.7,15.7,0,0,0,51.22,26C52,25,52.68,24,53.38,22.9c.3-.44.42-1-.05-1.31a1.17,1.17,0,0,0-1.14.12A6.2,6.2,0,0,0,50,26.2,5,5,0,0,0,50.16,27.19Z"/><path d="M39.55,27.37a14.34,14.34,0,0,1-1.07-1.15c-.74-1-1.45-2.08-2.16-3.13-.29-.44-.41-1,0-1.32a1.2,1.2,0,0,1,1.15.13,6.2,6.2,0,0,1,2.2,4.49A5.69,5.69,0,0,1,39.55,27.37Z"/><path d="M45.17,64.65a2.46,2.46,0,0,0-1,.19,14.11,14.11,0,0,1-7,1.15,11.39,11.39,0,0,1-8.91-6l-.2-.31h-.29v4.61c-1.72-3.27-.95-6.53-.05-9.93-1.54.55-2.43,1.88-3.46,3.05.11-4.06,4-6.35,7.86-4.63,0,0,0,.12,0,.12-2.45.75-2.83,3-2,5.28a7.69,7.69,0,0,0,5.58,5,8.72,8.72,0,0,0,6.88-.71,3.8,3.8,0,0,0,2-3.47c-1.72-1-3.47-1.85-5.11-2.94a10.24,10.24,0,0,1-2.63-2.5A3.61,3.61,0,0,1,38.17,48a14.29,14.29,0,0,1,4.16-1c.9-.08,1.81-.12,2.72-.12h.29c.91,0,1.82,0,2.72.12a14.29,14.29,0,0,1,4.16,1,3.62,3.62,0,0,1,1.42,5.62A10.44,10.44,0,0,1,51,56.13c-1.64,1.09-3.39,2-5.11,2.94a3.8,3.8,0,0,0,2,3.47,8.72,8.72,0,0,0,6.88.71,7.69,7.69,0,0,0,5.58-5c.8-2.27.42-4.53-2-5.28,0,0,0-.08,0-.12,3.84-1.72,7.75.57,7.86,4.63-1-1.17-1.92-2.5-3.46-3.05.9,3.4,1.67,6.66,0,9.93V59.72h-.3l-.2.31a11.39,11.39,0,0,1-8.91,6,14.11,14.11,0,0,1-7-1.15,2.46,2.46,0,0,0-1-.19Z"/><path class="cls-1" d="M45.24,52.59c1.24-.13,2.3-1.81,3.33-2,1.22-.24,2.44-.4,3.82-.61-.45-.28-.85-.73-1.29-.77a42.61,42.61,0,0,0-6-.61,32.75,32.75,0,0,0-5.39.67,3.89,3.89,0,0,0-1.51,1.31,6.69,6.69,0,0,1,3.65,0C42.85,50.84,44.13,52.69,45.24,52.59Z"/><g id="ojos"><ellipse class="cls-6" cx="59.76" cy="38.48" rx="6.87" ry="7.36"/><ellipse class="cls-6" cx="29.94" cy="38.67" rx="6.87" ry="7.36"/><path d="M65.44,31.4a9.63,9.63,0,0,1,1.28,11,7.38,7.38,0,0,1-6.33,4.34A6.46,6.46,0,0,1,54,43.73a8.25,8.25,0,0,1-1.35-4.82,3.54,3.54,0,0,1-3.21-2.7c-.62-2.18-.26-4.4-.33-6.6.4.9.7,1.82,1.11,2.69.83,1.81.84,2.31,2.85.79,1.68-1.26,3.15-2.83,4.8-4.13a36.48,36.48,0,0,1,5-3.53,4.63,4.63,0,0,1,5.75.71,8.38,8.38,0,0,1,2.52,5.25C67.64,27.08,64.3,28,61.87,30A3.91,3.91,0,0,1,65.44,31.4ZM58.18,45.18a6.7,6.7,0,0,0,7.54-4.67,7.3,7.3,0,0,0-.83-6.64A2.87,2.87,0,0,0,60.78,33a5.63,5.63,0,0,1,1.95,3.73c.42,2.79-.12,5.65-2.64,7.13a4.66,4.66,0,0,1-3.21.47l-.47-.08-.07.27A9.59,9.59,0,0,0,58.18,45.18Zm0-8.44a1.11,1.11,0,0,0-1-1.22,1.77,1.77,0,0,0-1.44,1.84.84.84,0,0,0,1,.9A1.5,1.5,0,0,0,58.19,36.74Z"/><path d="M27.84,30.2c-2.44-2-5.78-2.93-9.25,1.38a8.31,8.31,0,0,1,2.51-5.25,4.65,4.65,0,0,1,5.75-.72,38.18,38.18,0,0,1,5,3.54c1.64,1.3,3.12,2.87,4.79,4.12,2,1.52,2,1,2.86-.78.4-.87.71-1.79,1.1-2.69-.06,2.19.3,4.41-.33,6.59a3.52,3.52,0,0,1-3.2,2.71,8.26,8.26,0,0,1-1.36,4.82,6.46,6.46,0,0,1-6.44,3A7.39,7.39,0,0,1,23,42.63a9.64,9.64,0,0,1,1.27-11A4,4,0,0,1,27.84,30.2Zm5.52,14.53-.07-.27-.47.08a4.65,4.65,0,0,1-3.2-.47c-2.52-1.49-3.06-4.34-2.65-7.13a5.72,5.72,0,0,1,2-3.73,2.87,2.87,0,0,0-4.1.84A7.26,7.26,0,0,0,24,40.7a6.7,6.7,0,0,0,7.53,4.67A9.14,9.14,0,0,0,33.36,44.73ZM33,38.45a.85.85,0,0,0,1-.9,1.76,1.76,0,0,0-1.43-1.84,1.12,1.12,0,0,0-1,1.21A1.51,1.51,0,0,0,33,38.45Z"/></g><g id="manchas"><path d="M50.47,16.2a5,5,0,0,0,0,.55c.12,1.1.83,1.73,1.78,1.45a4.7,4.7,0,0,0,3-5.22c-.37-1.43-1.44-2-2.56-1.13A5.32,5.32,0,0,0,50.47,16.2Z"/><path d="M69.16,61.64c0,1.24.58,1.86,1.7,1.75a2.3,2.3,0,0,0,2-1.59,2.62,2.62,0,0,0-.23-2.57,1.44,1.44,0,0,0-2.49-.16A3.7,3.7,0,0,0,69.16,61.64Z"/><path d="M75.29,50.3c1.08.67,1.94.4,2.46-.86a3,3,0,0,0-.3-3,2.34,2.34,0,0,0-2.37-1.17,1.86,1.86,0,0,0-1.51,2.57A3.9,3.9,0,0,0,75.29,50.3Z"/><path d="M59.22,20.63a6.1,6.1,0,0,0,3.31-1.05,1.83,1.83,0,0,0,1-1.92,1.77,1.77,0,0,0-1.62-1.32c-2-.39-3.64,1.59-3.8,3.55a.77.77,0,0,0,.35.56A2.4,2.4,0,0,0,59.22,20.63Z"/><path d="M75.24,55.12A3.51,3.51,0,0,0,77.16,58c1,.31,1.75-.3,1.72-1.48C78.83,55,77.66,53.33,76,54A1.1,1.1,0,0,0,75.24,55.12Z"/><path d="M65.5,50A2.7,2.7,0,0,0,67,52.22c.78.24,1.36-.23,1.33-1.14,0-1.15-.94-2.44-2.21-1.94A.85.85,0,0,0,65.5,50Z"/><path d="M73.89,34.64a6.47,6.47,0,0,0,1.84,4c.43.38.93.65,1.44.3s.47-.9.35-1.48a5.67,5.67,0,0,0-2.29-3.91C74.41,33.06,73.89,33.42,73.89,34.64Z"/><path d="M39.23,16.39a5,5,0,0,1,0,.55c-.12,1.1-.84,1.73-1.79,1.45a4.7,4.7,0,0,1-3-5.22c.37-1.44,1.43-2,2.56-1.13A5.31,5.31,0,0,1,39.23,16.39Z"/><path d="M20.55,61.83c0,1.24-.58,1.86-1.71,1.74a2.25,2.25,0,0,1-2-1.58,2.64,2.64,0,0,1,.22-2.58,1.44,1.44,0,0,1,2.49-.15A3.76,3.76,0,0,1,20.55,61.83Z"/><path d="M14.42,50.49c-1.08.67-1.95.4-2.46-.86a3,3,0,0,1,.3-3,2.32,2.32,0,0,1,2.37-1.17A1.85,1.85,0,0,1,16.13,48,3.85,3.85,0,0,1,14.42,50.49Z"/><path d="M30.48,20.82a6.18,6.18,0,0,1-3.3-1.05,1.85,1.85,0,0,1-1-1.92,1.79,1.79,0,0,1,1.63-1.32c2-.39,3.64,1.59,3.79,3.55a.76.76,0,0,1-.35.56A2.7,2.7,0,0,1,30.48,20.82Z"/><path d="M14.47,55.31a3.52,3.52,0,0,1-1.93,2.87c-1,.31-1.75-.3-1.71-1.48.05-1.49,1.21-3.18,2.86-2.52A1.11,1.11,0,0,1,14.47,55.31Z"/><path d="M24.21,50.2a2.69,2.69,0,0,1-1.48,2.21c-.78.24-1.35-.23-1.32-1.14,0-1.15.93-2.45,2.2-1.94A.84.84,0,0,1,24.21,50.2Z"/><path d="M15.82,34.82a6.53,6.53,0,0,1-1.84,4c-.44.38-.93.65-1.45.3s-.47-.9-.34-1.48a5.63,5.63,0,0,1,2.29-3.91C15.3,33.25,15.82,33.61,15.82,34.82Z"/></g><path d="M43.35,7.22c-1.4-.48-5.48,0-7.91.33a33.87,33.87,0,0,0-9.26,3,1.75,1.75,0,0,1-2.13-.23c-1-.9-1.92-1.9-2.93-2.78a27.45,27.45,0,0,0-3.85-3.11C12.47,1.61,7.18,4.09,5.73,9.8A15.94,15.94,0,0,0,6.59,20a14.76,14.76,0,0,0,4.29,5.89,19.48,19.48,0,0,1,1.25-2.46c.78-1.14.95-2.17-.06-3.23a1.44,1.44,0,0,1-.23-.4,3.67,3.67,0,0,1,1-4.56c.37-.32.77-.58,1.23-.92-.35-.63-.64-1.3-1-1.88a4.82,4.82,0,0,0-2.75-2,2,2,0,0,0-2.1.86c1.07-2.12,2.35-3,4.07-2.61A5.25,5.25,0,0,1,15.47,11c1.14,1.71,2.13,3.54,3.16,5.33a.71.71,0,0,1-.1.59,47.58,47.58,0,0,0-5.45,10.94,34,34,0,0,1-7.24,12c-.58.6-1.17,1.19-1.86,1.89l3,1c-2.69,4.57-4.65,9.37-3.32,14.95l4.11-5.82.16.09C6,59.57,10.59,67.35,15.25,69.71l-1.64-4.38c5.24,5.65,11.2,7.33,18.29,9L29,69.69a2,2,0,0,1,.28.18,35,35,0,0,0,9.57,6.48,11,11,0,0,0,4.54,1h2.46a11,11,0,0,0,4.54-1A35,35,0,0,0,60,69.87a2,2,0,0,1,.28-.18l-2.89,4.62c7.09-1.65,13-3.33,18.21-9l-1.64,4.38C78.6,67.35,83.15,59.57,81.27,52l.17-.09,4.11,5.82c1.33-5.58-.64-10.38-3.33-14.95l3-1c-.69-.7-1.28-1.29-1.86-1.89a34.18,34.18,0,0,1-7.24-12A48,48,0,0,0,70.66,17a.72.72,0,0,1-.11-.59c1-1.79,2-3.62,3.16-5.33A5.25,5.25,0,0,1,77,8.62c1.73-.34,3,.49,4.07,2.61a2,2,0,0,0-2.1-.86,4.82,4.82,0,0,0-2.75,2c-.4.58-.69,1.25-1,1.88.46.34.86.6,1.23.92a3.67,3.67,0,0,1,1,4.56,1.44,1.44,0,0,1-.23.4c-1,1.06-.84,2.09,0,3.23a22.56,22.56,0,0,1,1.25,2.46A14.84,14.84,0,0,0,82.59,20,15.8,15.8,0,0,0,83.45,9.8C82,4.09,76.71,1.61,71.92,4.42a27.45,27.45,0,0,0-3.85,3.11c-1,.88-1.94,1.88-2.94,2.78a1.75,1.75,0,0,1-2.13.23,33.87,33.87,0,0,0-9.26-3c-2.42-.38-5.93-.87-7-.45s-.8,18.41-1.65,27.54C45.09,34.64,44.75,7.7,43.35,7.22ZM51.87,4A32.53,32.53,0,0,1,63,7.15.57.57,0,0,0,63.8,7c1-1.1,2.08-2.2,3.19-3.21A12.83,12.83,0,0,1,75.48,0c4.3-.07,7.52,2,9.61,6.09a17.89,17.89,0,0,1,1.47,11.25,16.31,16.31,0,0,1-6.83,11.28,36.39,36.39,0,0,0,4.17,7.25,52.37,52.37,0,0,0,4.36,4.57c1.06,1,1.23,1.43.38,2.6a28.3,28.3,0,0,1-2.16,2.38,2.68,2.68,0,0,1,.17.32A20.25,20.25,0,0,1,88.4,56.45,13.78,13.78,0,0,1,86.17,63,16.25,16.25,0,0,1,85,64.38l-.78-2.46c-.11.1-.16.13-.17.18a19.24,19.24,0,0,1-6.41,9.08c-5.5,4.35-11.56,5.17-18.1,6.94a56,56,0,0,0-5.9,1.49,26.26,26.26,0,0,1-7.76,1.8H43.4a26.26,26.26,0,0,1-7.76-1.8,56,56,0,0,0-5.9-1.49c-6.54-1.77-12.68-2.59-18.17-6.94A19.1,19.1,0,0,1,5.16,62.1c0-.05-.07-.08-.17-.18L4.2,64.38A16.25,16.25,0,0,1,3,63,13.78,13.78,0,0,1,.78,56.45,20.45,20.45,0,0,1,2.53,45.74a2.68,2.68,0,0,1,.17-.32A28.3,28.3,0,0,1,.54,43c-.85-1.17-.68-1.57.38-2.6a50.92,50.92,0,0,0,4.36-4.57,35.91,35.91,0,0,0,4.17-7.25A16.27,16.27,0,0,1,2.63,17.34,17.82,17.82,0,0,1,4.09,6.09C6.18,2,9.4-.07,13.71,0c3.28.06,6,1.57,8.49,3.81,1.1,1,2.14,2.11,3.18,3.21a.57.57,0,0,0,.8.13A32.53,32.53,0,0,1,37.31,4C39.68,3.76,49.51,3.76,51.87,4Z"/></g></g></g></svg>