<svg xmlns="http://www.w3.org/2000/svg" viewBox="0 0 460 460"><defs><style>.cls-1{fill:#5f220c;}.cls-2{fill:#d95b13;}.cls-3{fill:#f6a01e;}.cls-4{fill:#f08210;}.cls-5{fill:#d55314;}.cls-6{fill:#de5c11;}.cls-7{fill:#fbbb3c;}.cls-8{fill:#f0830e;}.cls-9{fill:#b45717;}.cls-10{fill:#903a14;}.cls-11{fill:#ffeace;}.cls-12{fill:#914018;}</style></defs><g id="Capa_2" data-name="Capa 2"><g id="Capa_1-2" data-name="Capa 1"><circle class="cls-1" cx="230" cy="230" r="230"/><g id="Guepardoso"><path class="cls-2" d="M109.71,131.36,92.46,114.71s-8.42-.07-11.91,5.75S63.19,139.84,94,171.81l9-13.46-4.48-13.8.6-6.29Z"/><polygon class="cls-3" points="65.12 130.15 68.27 101.58 86.66 85.86 115.94 86.83 138.32 102.56 151.17 111.27 207.92 99.17 232.18 99.42 229.7 112.73 221.22 117.81 172.09 121.51 145.71 132.81 127.32 132.81 115.46 118.78 106.75 104.98 94.41 104.5 74.41 128.46 66.09 135.48 65.12 130.15"/><path class="cls-4" d="M66.49,134.41s22.59-60.49,58.09-17.25c16.34,22.68,33.88,4.35,56.69-1.61,25.24-6.59,45.15-3.23,45.15-3.23l3.28,118L263,241.72s74.95,42.63,33.41,96.8S226.34,384,226.34,384l.13-127.79-26.19,6.88-7.65,8.78-32,13.86,23,84.24-32.49-3.07-36.92-26.46,1.29,6.51L87.09,329.92,71.66,292.5l-11.72,9.88L56.17,267.5l17.38-24.44-20-7.17L81.81,212l37.73-72.15s-7.07-15.58-19.33-22.68-19.66,3.3-19.66,3.3S66.05,139.66,94,171.81l-2,3.91-19.38-11Z"/><path class="cls-5" d="M200.28,370.85s47.87,13.61,74-23.88l-1.94,13.14-21,17.14L227.87,384H212Z"/><path class="cls-3" d="M100.86,329.92l-22.68-48L70,285.75s-5.82-16.27,5.58-45.94c0,0,26.37-51.11,25.24-60.66L69,222.8l-9.1,15.37,5.18,11.19L53.59,289.94l6.35,15.67,12.2-10.16,15,37.75,16.67,8.11Z"/><path class="cls-6" d="M102.32,336.91l-5-24s35.33,40.17,72.6,46.47l-.66-7.55L179.77,367l-9.13,2.71-42.9-15L103.6,343.85Z"/><path class="cls-7" d="M195.75,271.89s-52-4.87-37.94,50.48S227.87,384,227.87,384L226.47,295Z"/><path class="cls-8" d="M200.28,370.85a89.83,89.83,0,0,0,27.59,2.08c.2,7.44-.18,8.25-.18,8.25L211.24,379Z"/><path class="cls-9" d="M235.22,101.67v16.51l75.3,16.23,28.32-32.74,46.46-5.16S358.72,77.8,342.65,83.6s-38,22.59-39.31,28.72S227.76,87.48,235.22,101.67Z"/><path class="cls-10" d="M232.18,114.9c-7.6,6.59-7.07,65.71-2.48,113.45,0,0,35.86,13,40.39,19.58,0,0,94.4,35.42-4.58,129.32,0,0,117.15-24.74,134-113.53l-7.22-35.42-54.38-93.89L355.94,112s17.65.27,24.63,13.69-10.91,50.06-10.91,50.06,44.76-34.24,13.71-74.88c-48.4-28.24-76,25.27-75.39,28.37C292.48,121.51,239.78,108.32,232.18,114.9Z"/><path class="cls-1" d="M265.51,377.25s58.81-17.55,72.36-48.47c0,0,2.26,9.74,0,13.62s50.59-47.51,32.91-74.9c0,0,14.37,8.12,21.47,14.44,0,8.61-1.9,9.84-1.9,9.84l-12.06-11.1s16.41,29.23-24.12,62.2C313.75,376.28,265.51,377.25,265.51,377.25Z"/><path class="cls-1" d="M362.23,112.32s13,2.85,18.34,13.37-3.32,37.17-10.91,50.06-14.2-15-14.2-15l10.64-20.49L343.68,126l3.55-12.26Z"/><ellipse class="cls-11" cx="288.02" cy="223.52" rx="22.51" ry="25.84"/><ellipse class="cls-11" cx="167.03" cy="223.81" rx="28.72" ry="27.83"/><polygon class="cls-12" points="198.31 266.4 226.34 260.11 249.94 262.65 258.42 267.5 257.68 271.78 238.32 275.44 220.9 278.18 205.09 274.95 195.75 274.31 194.28 269.79 198.31 266.4"/><path d="M86.06,186.25c-16.22-10.13-25.21-24.55-28.56-42.7-2.75-14.86-1.32-29.19,6.13-42.54C72.38,85.35,85.83,77.68,103.84,78c13.74.21,25.21,5.93,35.51,14.41,4.62,3.81,9,8,13.31,12.12A2.57,2.57,0,0,0,156,105a146.55,146.55,0,0,1,46.54-12,190.16,190.16,0,0,1,41.84,1.14,203.21,203.21,0,0,1,53.94,15.55c3.31-4.79,6.28-9.89,10-14.33,9-10.62,20.53-16.68,34.34-18.56,13.35-1.83,25.8.41,37.15,7.77,13.69,8.87,21.43,21.64,23.71,37.65,2.68,18.88-2.09,35.94-13.61,51-3.56,4.67-7.74,8.88-12.24,14,4.24,10.3,8.89,22.29,18.1,31.67,4.48,4.56,9.32,8.77,14.09,13,3.61,3.24,4,4.87.7,8.4-2.91,3.08-6.42,5.6-9.32,8.06,2,7.06,4.95,14.13,6.08,21.47,2.78,18.16.19,35.53-10.24,51.16-1.94,2.91-2.31,2.82-4.37.06-.89-1.2-1.77-2.4-2.86-3.89-.58,1.34-1.07,2.55-1.63,3.73a90.58,90.58,0,0,1-20.79,27.53c-19.5,18.07-43.17,28.32-68.31,35.22a380.77,380.77,0,0,1-44.3,9,121,121,0,0,1-59.47-5.61c-7.88-2.82-16.46-3.65-24.65-5.65-27.39-6.7-52.88-17.7-75.86-34.17-12.28-8.79-21.51-20.06-26.81-34.35-.07-.16-.28-.27-.71-.68l-3.29,9.34c-1.95-2-3.62-3.51-5-5.23-5.68-7.28-8.21-15.84-9.33-24.79-1.77-14.22,1-27.72,7.33-40.53.26-.53.59-1,.69-1.2-3.08-3-6.38-5.76-9-9-3.56-4.43-2.87-5.93,1.59-9.85,6.28-5.53,12.67-11.05,18.21-17.28C75.8,205.56,81,196,86.06,186.25ZM358,115.39c-5.57,2.06-6.53,4.72-8.64,7.62,4.26.65,7.79-.6,12.63,2.79s6.11,8.23,6.87,11.37a30.25,30.25,0,0,1-.09,11.53c-.73,3.35-3.79,7.8-5.86,11.59-1.16,2.14-1.46,4,.12,6s3.1,4.35,4.65,6.54l2,2.89c4-4.18,8.22-7.92,11.63-12.29,14.86-19,12.81-44,1.18-59.22-10.34-13.5-24.64-18.09-41-14.64-15.95,3.36-26.52,13.18-30.95,29.12-1,3.39-1.64,6.86-2.5,10.52-21.48-13-44.52-20.06-69.19-22.53-6.77,34.81-8,69.64-10.44,103.56-3.59-34.57-6.28-70-2.55-106.43-10.64.88-20.92,1.22-31.05,2.69A152.48,152.48,0,0,0,156,117.84c-3.36,1.45-6.22,1.28-8.88-.88-4.19-3.39-8.06-7.17-12.29-10.51-5.23-4.12-10.29-8.68-16.1-11.77C98.68,84,76.54,93.42,70.47,115c-3.68,13.14-2,26.06,3.61,38.42A56.83,56.83,0,0,0,92,175.72c1.81-3.28,3.15-6.57,5.23-9.3,3.29-4.32,4-8.22-.23-12.24a5.14,5.14,0,0,1-1-1.51c-3.21-6.53-1.78-12.78,4-17.26,1.55-1.19,3.24-2.19,5.16-3.47a79.09,79.09,0,0,0-4.36-7.09,19.92,19.92,0,0,0-11.48-7.65c-3.5-.81-6.41.61-8.81,3.26,4.49-8.06,9.82-11.2,17-9.9,5.8,1,10.32,4.58,13.66,9.12,4.76,6.47,8.91,13.4,13.22,20.19a2.55,2.55,0,0,1-.46,2.23c-9.86,12.55-16.65,26.75-22.75,41.39-7.12,17.08-16.6,32.67-30.28,45.42-2.45,2.28-4.92,4.54-7.79,7.18l12.45,3.72c-11.26,17.29-19.46,35.48-13.89,56.6l17.18-22,.69.34c-7.84,28.66,11.19,58.11,30.7,67-2.19-5.31-4.36-10.54-6.84-16.57,21.88,21.36,46.64,35.6,76.31,41.86l-12.08-17.49a9.17,9.17,0,0,1,1.15.66,147.37,147.37,0,0,0,40,24.52c15.37,6.37,30.33,5.87,44.51-3.14a193.84,193.84,0,0,0,19.38-13.92c11-9.09,20.22-19.81,26.67-32.7s8.2-26.43,3.09-40.16c-4-10.67-12-18.5-20.32-25.89a29.1,29.1,0,0,0-7.6-4.44,25.43,25.43,0,0,1-10.55-8.5,36.33,36.33,0,0,1-6.8-23.29c-3.13.15-6.21.93-9,.31-8.65-1.93-12.44-16.76-6.08-24,.42,2.22.68,4.27,1.19,6.26,1.25,4.95,3.91,6.09,7.65,2.7a106.14,106.14,0,0,0,11-11.86c7.52-9.26,14.88-18.73,25.41-24.79,4.24-2.44,9-4.67,13.75-5.39,11.82-1.79,22.58,10.36,24.52,21.77-14.15-15-28.09-9.74-40.08,4.28,13.66-2.72,25.77,10.7,28.64,24.53,1.91,9.17.64,17.93-4.55,25.88A27.58,27.58,0,0,1,287,255.46c3,2.45,5.65,4.55,8.2,6.77,10.59,9.24,16.87,20.8,17.64,34.89,1.32,24-8.57,43.63-24.21,60.93-.94,1-2,2-3,2.95s-19,15.17-20.15,16.25c46-5.09,73.41-23.32,88.09-34.61,15.73-12.1,34.85-36.55,24.69-62,4.28,3.17,12.06,11.1,12.06,11.1a9.46,9.46,0,0,0,1.54-4.55c2.26-17.48-6.4-30.72-16.3-43.09l17.41-4.8c-10.45-7.4-16.14-17.24-21.12-27.56-4.55-9.44-8.8-19-13.42-28.45-8.49-17.28-16.09-35.23-32.94-46.68,4-8.07,7.75-16.17,14.21-22.52,5.58-5.5,12-9.61,20.23-8.64,11.52,1.35,17.9,10.05,21.27,19.54,0,.13-.42.44-.66.66q-3.63-3.69-7.27-7.37C368.45,115.16,363.52,113.33,358,115.39ZM277.51,245.11c.23.41.28.64.43.74a6,6,0,0,0,1,.57c6.48,3,12.53,1.25,18.1-2.19,11.08-6.85,13.89-25.51,5.5-36.75a13.55,13.55,0,0,0-20.12-2.27c8.46,1.1,12.25,8.43,12.93,14.93.62,5.83-.19,11.51-3.41,16.64C288.63,242.09,283.52,244.33,277.51,245.11Zm9.54-27.67c0-3.11-1.86-5.45-4.27-5.45-2.57,0-5.41,3.5-5.29,6.53a4.38,4.38,0,0,0,4.5,4.28C285.17,222.76,287.08,220.74,287.05,217.44Z"/><path d="M174,321.9s13.82,25.86,53.9,25.05c39.3-1.13,50-26.51,51.76-32.51l-3.53-1.57s-10.61,25.52-48.23,25.76c-41.58-2.61-49.55-18-49.55-18Z"/><path d="M155.56,304.76v17.46c-7.18-12.4-3.94-24.74-.17-37.59-6.45,2.07-10.16,7.14-14.47,11.53.43-15.36,16.78-24,32.85-17.52,0,.16,0,.45-.08.47-10.23,2.85-11.82,11.39-8.5,20,4.13,10.66,12.63,16.37,23.34,19,9.87,2.47,19.59,2.06,28.78-2.69,5.54-2.86,7.83-6.82,8.24-13.1-7.18-3.69-14.52-7-21.38-11.16a41.1,41.1,0,0,1-11-9.44c-6.17-7.85-3.41-17.75,5.94-21.25a63.75,63.75,0,0,1,17.36-3.8,172.64,172.64,0,0,1,25.12,0,56.83,56.83,0,0,1,15.61,3.58c8.65,3.23,11.24,11,7.12,19.27-3.25,6.55-8.54,11-15,14.07-5.55,2.68-11.17,5.22-16.82,7.7-1.29.57-1.77,1-1.55,2.56.95,7,6.85,12.75,14.42,13.95,16.06,2.54,31.41-7.59,37.18-22.88.6-1.59.3-2.5-1.29-2.92-2.38-.62-4.78-1.17-7.12-1.74,1.83-3.3,6.39-4.48,11.3-3,6.11,1.91,11.72,7.92,10.87,14.76l-6.11-5.16c-2,3.87-3.46,7.63-5.61,11-8.68,13.52-21.14,20.29-37.24,19.39-5-.28-9.94-1.84-14.8-3.19a12.84,12.84,0,0,0-8.39.06c-9.43,3.48-19.24,5.42-29.29,4.35-15.83-1.68-28.51-8.94-37.24-22.54-.26-.4-.55-.79-.84-1.18A6.61,6.61,0,0,0,155.56,304.76Zm41.7-34.48c6.61-1.45,14.13.09,20.57,1.61,7.79,1.84,15.44-.18,23.14-1.6,5.11-.94,10.28-1.52,16.07-2.35-1.86-1.07-3.57-2.78-5.43-3-8.82-.9-16.43-2.39-25.27-2.32-7.22.06-15.73,1.87-22.89,3.06C201.44,266,197.11,269.87,197.26,270.28Z"/><path class="cls-11" d="M182,325.09s3.47,4.08,18,9.31a82.3,82.3,0,0,0,28.33,4.73s7.56.73,21.36-4,20-13,20-13a36.66,36.66,0,0,1-14.58,4.94A45.67,45.67,0,0,1,235.74,325c-6-2.06-7-1.78-7.52-1.77a11.83,11.83,0,0,0-3.49.75,73.83,73.83,0,0,1-22.46,4.8C193.07,329.41,182,325.09,182,325.09Z"/><path d="M158.23,191.77c-10.18-7.49-24.14-11.1-38.69,5.19,1.2-8.05,4.43-14.76,10.53-19.86,7.38-6.17,15.86-6.77,24-2.7,7.41,3.68,14.3,8.53,21.06,13.36s13.06,10.87,20.05,15.62c8.44,5.75,8.44,3.89,11.95-3,1.68-3.29,3-6.78,4.61-10.19-.26,8.32,1.24,16.72-1.38,25-2.06,6.5-6.84,9.43-13.39,10.23a29.05,29.05,0,0,1-5.68,18.25c-6.6,9.27-16.09,12.41-26.94,11.54-11.49-.92-20.85-6-26.44-16.44-7.53-14-6.74-29.44,5.34-41.75A17.31,17.31,0,0,1,158.23,191.77Zm23.11,54.95-.29-1c-.65.1-1.31.22-2,.31-4.63.63-9.18.48-13.4-1.78-10.55-5.63-12.82-16.42-11.08-27,.91-5.52,3.33-10.59,8.16-14.09a12.75,12.75,0,0,0-17.18,3.18c-5.87,7.67-6.57,16.21-3.46,25.15,4.86,14,18.59,19.05,31.51,17.66C176.26,248.85,178.78,247.55,181.34,246.72ZM179.63,223c2.39.11,3.85-1,4-3.4.24-3.38-3-6.95-6-7a4.38,4.38,0,0,0-4,4.6A6,6,0,0,0,179.63,223Z"/><path d="M205.89,139.48a18.2,18.2,0,0,1,0,2.09c-.51,4.17-3.5,6.54-7.47,5.49-8.9-2.36-14.43-12.69-12.42-19.75,1.55-5.43,6-7.47,10.72-4.29A19.6,19.6,0,0,1,205.89,139.48Z"/><path d="M127.73,311.44c0,4.69-2.42,7-7.11,6.6a9.45,9.45,0,0,1-8.32-6c-1.4-3.39-1.4-6.72,1-9.73,3-3.78,7-4.05,10.41-.58A13.25,13.25,0,0,1,127.73,311.44Z"/><path d="M102.12,268.51c-4.54,2.56-8.15,1.53-10.3-3.25a10.5,10.5,0,0,1,1.24-11.35c2.5-3.22,5.73-5,9.93-4.43,5.29.78,7.79,4.57,6.29,9.74A14.8,14.8,0,0,1,102.12,268.51Z"/><path d="M203.22,238.24c9.06-7.56,19.22-10.19,30.22-9.93,11.57.28,20.5,5.83,27.7,15.17-.9-.53-1.52-.86-2.12-1.24-8.62-5.4-18.2-6.74-28.07-6.24C221.92,236.47,212.92,237.44,203.22,238.24Z"/><path d="M169.29,156.26c-5.27-.33-9.77-1.37-13.82-4-2.65-1.72-4.92-3.84-4.15-7.26s3.86-4.46,6.79-5c8.34-1.48,15.23,6,15.86,13.44a2.82,2.82,0,0,1-1.45,2.1A12.37,12.37,0,0,1,169.29,156.26Z"/><path d="M102.31,286.76c0,4.16-4.31,9.83-8,10.87C90,298.8,86.94,296.47,87.1,292c.21-5.64,5.08-12,12-9.52C101.22,283.28,102.45,284.72,102.31,286.76Z"/><path d="M143.06,267.43c0,3.2-3.32,7.57-6.19,8.37-3.26.9-5.64-.89-5.52-4.32.16-4.35,3.91-9.26,9.21-7.34C142.22,264.75,143.17,265.86,143.06,267.43Z"/><path d="M108,209.25c-1,5.38-2.55,11.19-7.68,15.27-1.82,1.44-3.9,2.45-6,1.14s-2-3.4-1.46-5.61c1.43-6.1,3.88-11.54,9.58-14.8C105.79,203.28,108,204.64,108,209.25Z"/><path d="M207.21,181.05a53.46,53.46,0,0,1-4.45-4.38c-3.1-3.88-6.1-7.84-9-11.83-1.23-1.66-1.73-3.87.21-5a5.36,5.36,0,0,1,4.78.47,22.73,22.73,0,0,1,9.2,17C208,178.23,207.58,179.18,207.21,181.05Z"/><path d="M246.88,186.41c-1.35-8.6,9-19.61,23.21-24.11C260.83,169,252.24,176.05,246.88,186.41Z"/></g></g></g></svg>