<svg xmlns="http://www.w3.org/2000/svg" viewBox="0 0 122.97 122.97"><defs><style>.cls-1{fill:#d95b13;}.cls-2{fill:#f6a01e;}.cls-3{fill:#f08210;}.cls-4{fill:#de5c11;}.cls-5{fill:#fbbb3c;}.cls-6{fill:#ffeace;}.cls-7{fill:none;}</style></defs><g id="Capa_2" data-name="Capa 2"><g id="Capa_1-2" data-name="Capa 1"><g id="Guepardo"><path class="cls-1" d="M90.64,37.39,94.76,33a3.41,3.41,0,0,1,2.85,1.52c.84,1.54,4.15,5.12-3.22,13.57l-2.15-3.56,1.08-3.65-.15-1.66Z"/><polygon class="cls-2" points="101.02 37.35 100.27 29.8 95.87 25.65 88.87 25.91 83.52 30.06 80.45 32.37 66.88 29.17 61.08 29.23 42.41 31.95 29.36 24.81 22.61 29.09 20.61 38.13 35.67 36.23 63.7 34.09 75.45 35.07 81.75 38.06 86.15 38.06 88.99 34.35 91.07 30.7 94.02 30.57 97.63 33.87 100.79 38.76 101.02 37.35"/><path class="cls-3" d="M101.46,38.7s-5.89-16.49-14.37-5.06a8.49,8.49,0,0,1-4.23,2.91s-5.77-2.31-9.33-3.34a25.73,25.73,0,0,0-10.8-.85,70.55,70.55,0,0,0-9.21.24c-2.5.46-12.4,3.16-12.4,3.16s-7-6-12.24-5.92-8.22,7.57-7.75,10S27.48,50.3,27.48,50.3l-3.12,9.87-4.19,4.28-.11,19.27,2.8-.72,7.85,10.83,10.76,5.35,21.28,5L73,100.45l7.77-.81,8.82-7-.3,1.72,6.8-4.51L99.74,80l2.8,2.62.9-9.22-4.15-6.46,4.77-1.9L97.31,58.7l-9-19.07s1.69-4.12,4.62-6a3.28,3.28,0,0,1,4.7.87s3.47,5.07-3.22,13.57l.88,1.68,4.24-3.54Z"/><path class="cls-2" d="M92.48,90.15,97.9,77.47l1.95,1s1.39-4.3-1.34-12.14c0,0-6.3-13.5-6-16l7.61,11.54,2.17,4.06-1.24,3,2.76,10.72-1.52,4.14L99.34,81,95.77,91l-4,2.15Z"/><path class="cls-4" d="M92.13,92l1.2-6.36S85.05,95,76.13,96.71l.78-3-3.73,5.51,2.61,1.49,10.26-4,5.77-2.88Z"/><path class="cls-4" d="M24.93,35.19c-2.21,4.18,3.46,13.45,3.46,13.45l2.55-4.19.26-4.73.32-5.39S26.35,32.49,24.93,35.19Z"/><path class="cls-4" d="M51.34,98.75s-18-5.46-21.22-13.63l-.28,4.51S22.38,79.27,26.61,72c0,0-5.55,5.79-7.25,7.46a11.4,11.4,0,0,0,.58,3.8l3.44-3.8s-1.72,4.83,4.85,11.35C37.89,99.67,51.34,98.75,51.34,98.75Z"/><path class="cls-5" d="M61.26,103.09c-2.06,0-14.37-3.17-16.67-15.43-2.57-14.4,9.06-13,9.06-13L62.09,79l8.11-4.32S82.92,73,79.88,86.94C75.32,100.11,63.32,103.09,61.26,103.09Z"/><path d="M61.55,65.38c-1.11,0-4.2.37-6.45.58a11.9,11.9,0,0,1,6.57-2.66A11.05,11.05,0,0,1,68,65.92C65.75,65.71,62.65,65.4,61.55,65.38Z"/><path d="M67.05,50.81a13.74,13.74,0,0,0,1.06-1.16c.74-1,1.46-2.07,2.17-3.13.29-.44.41-1-.06-1.31a1.17,1.17,0,0,0-1.14.12,6.2,6.2,0,0,0-2.2,4.49A5,5,0,0,0,67.05,50.81Z"/><path d="M56.44,51a12.4,12.4,0,0,1-1.06-1.15c-.74-1-1.46-2.08-2.17-3.13-.29-.44-.41-1,.06-1.32a1.18,1.18,0,0,1,1.14.13A6.2,6.2,0,0,1,56.61,50,4.84,4.84,0,0,1,56.44,51Z"/><path d="M62.06,88.27a2.46,2.46,0,0,0-1,.19,14.11,14.11,0,0,1-7,1.15,11.37,11.37,0,0,1-8.9-6l-.2-.31a1.92,1.92,0,0,0-.3,0V88c-1.72-3.27-.94-6.53,0-9.93-1.55.55-2.43,1.89-3.46,3,.1-4.06,4-6.35,7.85-4.63,0,0,0,.12,0,.12-2.44.75-2.82,3-2,5.28a7.69,7.69,0,0,0,5.58,5,8.72,8.72,0,0,0,6.88-.71,3.78,3.78,0,0,0,2-3.46c-1.71-1-3.47-1.86-5.11-3a10.24,10.24,0,0,1-2.63-2.5,3.61,3.61,0,0,1,1.42-5.62,14.23,14.23,0,0,1,4.15-1c.9-.08,1.81-.11,2.73-.12h.28c.91,0,1.82,0,2.73.12a14.3,14.3,0,0,1,4.15,1,3.62,3.62,0,0,1,1.42,5.62,10.28,10.28,0,0,1-2.64,2.5c-1.64,1.09-3.39,2-5.11,3a3.8,3.8,0,0,0,2,3.46,8.72,8.72,0,0,0,6.88.71,7.67,7.67,0,0,0,5.58-5c.8-2.27.42-4.53-2-5.28,0,0,0-.08,0-.12C79,74.72,82.92,77,83,81.07c-1-1.16-1.92-2.5-3.46-3,.9,3.4,1.67,6.66,0,9.93V83.34a1.83,1.83,0,0,0-.3,0l-.2.31a11.39,11.39,0,0,1-8.91,6,14.13,14.13,0,0,1-7-1.15,2.43,2.43,0,0,0-1-.19Z"/><path class="cls-1" d="M62.13,76.21c1.24-.13,2.3-1.81,3.34-2,1.21-.24,2.44-.4,3.81-.61-.44-.28-.85-.72-1.29-.77a44.17,44.17,0,0,0-6-.61,32.74,32.74,0,0,0-5.4.67,3.71,3.71,0,0,0-1.5,1.32,6.61,6.61,0,0,1,3.65,0C59.74,74.46,61,76.31,62.13,76.21Z"/><g id="ojos"><ellipse class="cls-6" cx="76.66" cy="62.1" rx="6.87" ry="7.36"/><ellipse class="cls-6" cx="46.83" cy="62.29" rx="6.87" ry="7.36"/><path d="M82.33,55a9.63,9.63,0,0,1,1.28,11,7.38,7.38,0,0,1-6.32,4.34,6.45,6.45,0,0,1-6.44-3.05,8.18,8.18,0,0,1-1.36-4.82,3.51,3.51,0,0,1-3.2-2.7c-.63-2.18-.27-4.4-.33-6.6.39.9.7,1.82,1.1,2.69.84,1.82.84,2.31,2.86.79,1.67-1.26,3.14-2.83,4.79-4.13a36.57,36.57,0,0,1,5-3.53,4.62,4.62,0,0,1,5.74.71A8.32,8.32,0,0,1,88,55c-3.48-4.3-6.82-3.35-9.25-1.37A3.91,3.91,0,0,1,82.33,55ZM75.07,68.8a6.7,6.7,0,0,0,7.54-4.67,7.27,7.27,0,0,0-.83-6.64,2.86,2.86,0,0,0-4.1-.85,5.67,5.67,0,0,1,1.94,3.73C80,63.16,79.5,66,77,67.5a4.66,4.66,0,0,1-3.21.47l-.47-.08-.07.27A9.59,9.59,0,0,0,75.07,68.8Zm0-8.44a1.13,1.13,0,0,0-1-1.22A1.78,1.78,0,0,0,72.68,61a.84.84,0,0,0,1,.9A1.52,1.52,0,0,0,75.09,60.36Z"/><path d="M44.73,53.82c-2.43-2-5.77-2.93-9.25,1.38A8.32,8.32,0,0,1,38,50a4.63,4.63,0,0,1,5.74-.72,37.53,37.53,0,0,1,5,3.54c1.65,1.3,3.12,2.87,4.79,4.12,2,1.52,2,1,2.86-.78.4-.87.71-1.79,1.1-2.69-.06,2.19.3,4.42-.33,6.59A3.51,3.51,0,0,1,54,62.72a8.18,8.18,0,0,1-1.36,4.82,6.45,6.45,0,0,1-6.44,3,7.4,7.4,0,0,1-6.32-4.34,9.62,9.62,0,0,1,1.28-11A3.93,3.93,0,0,1,44.73,53.82Zm5.52,14.53-.06-.27-.47.08a4.66,4.66,0,0,1-3.21-.47c-2.52-1.49-3.06-4.34-2.65-7.13a5.72,5.72,0,0,1,2-3.73,2.87,2.87,0,0,0-4.1.84,7.29,7.29,0,0,0-.83,6.65A6.7,6.7,0,0,0,48.41,69,9.14,9.14,0,0,0,50.25,68.35Zm-.4-6.28a.85.85,0,0,0,1-.9,1.78,1.78,0,0,0-1.44-1.84,1.13,1.13,0,0,0-1,1.21A1.52,1.52,0,0,0,49.85,62.07Z"/></g><g id="manchas"><path d="M67.36,39.82a5,5,0,0,0,0,.55c.12,1.1.83,1.73,1.78,1.45a4.7,4.7,0,0,0,3-5.22c-.37-1.43-1.43-2-2.56-1.13A5.32,5.32,0,0,0,67.36,39.82Z"/><path d="M86.05,85.26c0,1.24.58,1.86,1.7,1.75a2.29,2.29,0,0,0,2-1.59,2.59,2.59,0,0,0-.23-2.57A1.44,1.44,0,0,0,87,82.69,3.71,3.71,0,0,0,86.05,85.26Z"/><path d="M92.18,73.92c1.08.67,1.94.4,2.46-.86a3,3,0,0,0-.3-3A2.34,2.34,0,0,0,92,68.89a1.85,1.85,0,0,0-1.5,2.57A3.85,3.85,0,0,0,92.18,73.92Z"/><path d="M76.12,44.25a6.1,6.1,0,0,0,3.3-1,1.83,1.83,0,0,0,1-1.92A1.75,1.75,0,0,0,78.79,40c-2-.4-3.64,1.58-3.79,3.54a.73.73,0,0,0,.34.56A2.45,2.45,0,0,0,76.12,44.25Z"/><path d="M92.13,78.74a3.51,3.51,0,0,0,1.92,2.87c1,.31,1.76-.3,1.72-1.48,0-1.49-1.22-3.17-2.86-2.52A1.1,1.1,0,0,0,92.13,78.74Z"/><path d="M82.39,73.63a2.69,2.69,0,0,0,1.48,2.21c.78.24,1.35-.23,1.32-1.14,0-1.15-.94-2.44-2.21-1.94A.85.85,0,0,0,82.39,73.63Z"/><path d="M90.78,58.26a6.47,6.47,0,0,0,1.84,4c.43.38.93.65,1.44.3s.47-.9.35-1.48a5.67,5.67,0,0,0-2.29-3.91C91.3,56.68,90.78,57,90.78,58.26Z"/><path d="M56.12,40a5,5,0,0,1,0,.55c-.12,1.1-.83,1.73-1.78,1.45a4.7,4.7,0,0,1-3-5.22c.37-1.44,1.43-2,2.56-1.13A5.29,5.29,0,0,1,56.12,40Z"/><path d="M37.44,85.45c0,1.24-.58,1.86-1.7,1.74a2.26,2.26,0,0,1-2-1.58A2.59,2.59,0,0,1,34,83a1.44,1.44,0,0,1,2.48-.16A3.76,3.76,0,0,1,37.44,85.45Z"/><path d="M31.31,74.11c-1.08.67-1.94.4-2.46-.86a3,3,0,0,1,.3-3,2.34,2.34,0,0,1,2.37-1.17A1.86,1.86,0,0,1,33,71.65,3.85,3.85,0,0,1,31.31,74.11Z"/><path d="M47.37,44.44a6.18,6.18,0,0,1-3.3-1,1.82,1.82,0,0,1-1-1.92,1.77,1.77,0,0,1,1.62-1.32c2-.39,3.64,1.59,3.79,3.55a.75.75,0,0,1-.34.56A2.75,2.75,0,0,1,47.37,44.44Z"/><path d="M31.36,78.93a3.53,3.53,0,0,1-1.92,2.87c-1,.31-1.76-.3-1.72-1.48.05-1.49,1.22-3.18,2.86-2.52A1.1,1.1,0,0,1,31.36,78.93Z"/><path d="M41.1,73.82A2.69,2.69,0,0,1,39.62,76c-.78.24-1.35-.23-1.32-1.14,0-1.15.94-2.45,2.2-1.94A.84.84,0,0,1,41.1,73.82Z"/><path d="M32.71,58.44a6.47,6.47,0,0,1-1.84,4c-.43.38-.93.65-1.44.3s-.47-.9-.35-1.48a5.67,5.67,0,0,1,2.29-3.91C32.19,56.87,32.71,57.23,32.71,58.44Z"/></g><path d="M60.24,30.84c-1.4-.48-5.48-.05-7.9.33a34.28,34.28,0,0,0-9.27,3A1.74,1.74,0,0,1,41,33.93C40,33,39,32,38,31.15A27.45,27.45,0,0,0,34.16,28c-4.79-2.81-10.09-.33-11.54,5.38a15.94,15.94,0,0,0,.86,10.15,14.86,14.86,0,0,0,4.29,5.89A19.48,19.48,0,0,1,29,47c.79-1.14,1-2.17-.06-3.23a1.44,1.44,0,0,1-.23-.4,3.68,3.68,0,0,1,1-4.56c.37-.32.78-.58,1.23-.92a18.72,18.72,0,0,0-1-1.87,4.8,4.8,0,0,0-2.74-2,2,2,0,0,0-2.11.87c1.07-2.13,2.35-3,4.07-2.62a5.2,5.2,0,0,1,3.26,2.41c1.14,1.71,2.14,3.54,3.17,5.33a.76.76,0,0,1-.11.59A47.15,47.15,0,0,0,30,51.51a34.18,34.18,0,0,1-7.24,12l-1.87,1.89,3,1C21.16,71,19.2,75.77,20.53,81.35l4.11-5.82.16.09C22.93,83.19,27.48,91,32.14,93.33L30.51,89c5.23,5.65,11.19,7.33,18.28,9l-2.88-4.62a2.37,2.37,0,0,1,.27.18A35,35,0,0,0,55.75,100a11,11,0,0,0,4.54,1h2.46a11,11,0,0,0,4.54-1,35,35,0,0,0,9.57-6.48,2,2,0,0,1,.28-.18l-2.89,4.62c7.1-1.65,13-3.33,18.21-9l-1.64,4.38C95.49,91,100,83.19,98.16,75.62l.17-.09,4.11,5.82c1.33-5.58-.63-10.38-3.32-14.95l3-1-1.86-1.89a34.18,34.18,0,0,1-7.24-12,47.55,47.55,0,0,0-5.44-10.94.76.76,0,0,1-.11-.59c1-1.79,2-3.62,3.16-5.33a5.25,5.25,0,0,1,3.27-2.41c1.72-.34,3,.49,4.07,2.62A2,2,0,0,0,95.83,34a4.74,4.74,0,0,0-2.74,2,21,21,0,0,0-1,1.87c.46.34.87.6,1.24.92a3.68,3.68,0,0,1,1,4.56,1.44,1.44,0,0,1-.23.4c-1,1.06-.84,2.09,0,3.23a19.48,19.48,0,0,1,1.25,2.46,14.84,14.84,0,0,0,4.28-5.89,15.87,15.87,0,0,0,.87-10.15C98.9,27.71,93.6,25.23,88.81,28A27.45,27.45,0,0,0,85,31.15C84,32,83,33,82,33.93a1.75,1.75,0,0,1-2.13.23,34.22,34.22,0,0,0-9.26-3c-2.42-.38-5.93-.87-7-.45S62.84,49.13,62,58.26C62,58.26,61.64,31.32,60.24,30.84Zm8.52-3.24a32.41,32.41,0,0,1,11.13,3.17.58.58,0,0,0,.81-.13c1-1.1,2.07-2.2,3.18-3.21a12.83,12.83,0,0,1,8.49-3.81c4.3-.07,7.52,2,9.61,6.09A17.89,17.89,0,0,1,103.45,41a16.25,16.25,0,0,1-6.83,11.28,35.67,35.67,0,0,0,4.18,7.25,50.82,50.82,0,0,0,4.35,4.57c1.07,1,1.23,1.43.38,2.6a30.06,30.06,0,0,1-2.16,2.39,1.83,1.83,0,0,1,.17.31,20.25,20.25,0,0,1,1.75,10.71,13.67,13.67,0,0,1-2.23,6.55A16.25,16.25,0,0,1,101.87,88l-.78-2.46c-.1.11-.16.13-.17.18a19.24,19.24,0,0,1-6.41,9.08C89,99.15,83,100,76.41,101.74a56,56,0,0,0-5.9,1.49,26.12,26.12,0,0,1-7.76,1.8H60.29a26.26,26.26,0,0,1-7.76-1.8,55.17,55.17,0,0,0-5.89-1.49C40.09,100,34,99.15,28.46,94.8a19.17,19.17,0,0,1-6.41-9.08s-.07-.07-.17-.18L21.09,88c-.46-.53-.86-.92-1.19-1.38a13.89,13.89,0,0,1-2.23-6.55,20.45,20.45,0,0,1,1.75-10.71c.07-.14.15-.27.17-.31a28.11,28.11,0,0,1-2.15-2.39c-.86-1.17-.69-1.57.37-2.6a49.55,49.55,0,0,0,4.36-4.57,36.15,36.15,0,0,0,4.18-7.25A16.25,16.25,0,0,1,19.52,41,17.82,17.82,0,0,1,21,29.71q3.15-6.2,9.62-6.09a12.85,12.85,0,0,1,8.49,3.81c1.1,1,2.14,2.11,3.18,3.21a.57.57,0,0,0,.8.13A32.53,32.53,0,0,1,54.2,27.6C56.57,27.38,66.4,27.38,68.76,27.6Z"/></g><circle class="cls-7" cx="61.48" cy="61.48" r="61.48"/></g></g></svg>