<svg xmlns="http://www.w3.org/2000/svg" viewBox="0 0 109 88.12"><defs><style>.cls-1{fill:#b45717;}.cls-2{fill:#903a14;}.cls-3{fill:#5f220c;}.cls-4{fill:#ffeace;}.cls-5{fill:#f08210;}.cls-6{fill:#d55314;}.cls-7{fill:#914018;}</style></defs><g id="Capa_2" data-name="Capa 2"><g id="Capa_1-2" data-name="Capa 1"><g id="oso"><polygon class="cls-1" points="14.39 3.75 29.67 15.62 51.18 12.3 59.89 12.63 79 16.78 97.75 5.41 93.75 1.92 85.09 2.92 80.02 6.53 76.56 11.01 56.29 6.65 33.23 10.76 26.7 2.92 18.56 1.54 14.39 3.75"/><path class="cls-2" d="M30.3,14.54c-5.07-11.38-18.14-11-18.14-11S5.9,5.6,5.23,15.54C4.7,23.51,11,26.12,12,31.64c.89,4.84-5.6,7.38-6.76,12.79C3.87,50.78,6.3,61.1,6.48,62.86c0,0,10.48,24.25,47.1,23.09s50.66-19.43,51.55-33.88c0,0,.47-4.21-3.56-12.12S97.31,27.5,97.31,27.5,110.57,18,101.37,6.78C87-1,78.86,13.77,79,14.63c-2.24-1-13.58-4.57-24.66-4.57C42.79,10.05,31.58,14.12,30.3,14.54Z"/><path class="cls-1" d="M24.61,81.05S12,63.86,10.39,57.63s2.13-12.87,2.13-12.87,1.87-18,7.64-22.79L4.5,44.08v12.2L6.23,63Z"/><path class="cls-3" d="M63.44,84.39S83.3,77.87,86.78,71.92c0,0,.26,2.49-.45,3.36S102.06,63.69,97.66,53.9a13.6,13.6,0,0,1,5.83,5.62c-.67,2.4-9.32,13.32-15.92,17.77C77.19,83.72,63.44,84.39,63.44,84.39Z"/><path class="cls-3" d="M90.17,13s3.38-6.17,9.26.74c0,0,2.18,6.83-3.84,13.05L93,24.34l2-6.23Z"/><path class="cls-3" d="M19.06,12.4s-3.37-6.17-9.25.74c0,0-2.19,6.83,3.83,13.05l2.55-2.41-2-6.23Z"/><ellipse class="cls-4" cx="73.13" cy="40.72" rx="6.67" ry="7.15"/><polygon class="cls-5" points="33.9 54.1 42.16 46.88 47.49 44.14 52.69 43.02 58.42 43.14 62.42 44.39 66.56 46.26 69.09 48.75 74.69 53.36 77.76 58.22 78.42 65.56 76.29 71.04 66.16 82 55.23 85.74 44.43 82.25 37.49 77.02 33.09 71.04 30.83 64.32 31.76 58.46 33.9 54.1"/><path class="cls-6" d="M47.13,81.5s14.18,3.77,21.93-6.61l-.57,3.64-6.21,4.74-7,1.88H50.6Z"/><polygon class="cls-4" points="42.2 67.6 47.63 68.18 55.45 66.68 62.91 68.1 68.6 66.35 67.98 69.01 64.16 71.67 58.47 73.33 53.05 73.66 47.36 72.5 44.43 70.75 42.2 67.6"/><path d="M55.31,74.89c11.64-.32,14.82-7.34,15.33-9l-1-.44s-3.12,7-14.18,7.13h-.16c-11.06-.11-14.18-7.13-14.18-7.13l-1,.44c.51,1.66,3.69,8.68,15.33,9Z"/><path d="M55.31,49.77c1.35,0,2.71,0,4.06.13a17.81,17.81,0,0,1,4.62,1c2.57.9,3.33,3,2.11,5.33a9,9,0,0,1-4.43,3.9c-1.65.74-3.31,1.44-5,2.13-.39.16-.53.27-.46.71a4.85,4.85,0,0,0,4.27,3.86,10.36,10.36,0,0,0,11-6.33c.18-.44.09-.7-.38-.81-.7-.17-1.42-.33-2.11-.48.54-.92,1.9-1.24,3.35-.82,1.81.53,3.47,2.19,3.22,4.08L73.78,61a34.55,34.55,0,0,1-1.66,3,11.87,11.87,0,0,1-11,5.37,23,23,0,0,1-4.38-.88,4.63,4.63,0,0,0-1.25-.19h-.24a4.63,4.63,0,0,0-1.25.19,22.92,22.92,0,0,1-4.39.88,11.86,11.86,0,0,1-11-5.37,32.12,32.12,0,0,1-1.66-3l-1.81,1.43c-.25-1.89,1.41-3.55,3.22-4.08,1.45-.42,2.8-.1,3.35.82-.7.15-1.41.31-2.11.48-.47.11-.56.37-.38.81a10.36,10.36,0,0,0,11,6.33A4.85,4.85,0,0,0,54.43,63c.07-.44-.07-.55-.46-.71-1.67-.69-3.34-1.39-5-2.13a9,9,0,0,1-4.43-3.9c-1.23-2.3-.46-4.43,2.1-5.33a18,18,0,0,1,4.63-1c1.35-.09,2.7-.13,4.06-.13Z"/><path class="cls-7" d="M55.53,55.27c1.3-.11,2.65-.39,3.94-.61,1.51-.26,3.7-1.43,3.15-1.48-2.46-.23-4.54-.61-7-.63h-.51a50.6,50.6,0,0,0-6.79.85c-.59.09,1.52,1,3.43,1.41C52.78,55,55.53,55.27,55.53,55.27Z"/><path d="M45,45.84c-.18.11-.36.2-.63.35a12.69,12.69,0,0,1,10.39-4.52c4.89.06,8.32,1.93,10.46,4.52-.27-.15-.46-.24-.63-.35-2.56-1.49-8.18-1.7-9.87-1.71S47.5,44.35,45,45.84Z"/><path d="M60.94,30.45c-.4-2.37,2.66-5.42,6.87-6.67C65.07,25.63,62.53,27.59,60.94,30.45Z"/><path d="M49.65,30.45c.4-2.37-2.66-5.42-6.88-6.67C45.52,25.63,48.06,27.59,49.65,30.45Z"/><path d="M54.55,85.7c-2.42,0-12.26-1.7-19.45-3.57s-15.5-6.66-17.54-8.39C13.5,70.3,7.24,63.63,10.25,56.59a43.23,43.23,0,0,0-3.57,3.07,2.48,2.48,0,0,1-.46-1.25c-.67-4.84,1.89-8.51,4.83-11.93L5.89,45.15c3.1-2,4.78-4.77,6.26-7.63,1.35-2.61,2.61-5.27,4-7.87,2.52-4.78,4.77-9.75,9.76-12.92a21.54,21.54,0,0,0-4.21-6.23C20,9,18.12,7.84,15.68,8.11c-3.41.37-5.3,2.78-6.3,5.4,0,0,.12.12.19.19l2.16-2a5.14,5.14,0,0,1,4.54-.82A4.45,4.45,0,0,1,18.83,13c-1.26.17-2.31-.17-3.74.77a4.83,4.83,0,0,0-2,3.14,7.8,7.8,0,0,0,0,3.19,15.09,15.09,0,0,0,1.74,3.21,1.3,1.3,0,0,1,0,1.67c-.48.59-.92,1.21-1.38,1.81l-.59.8a48.31,48.31,0,0,1-3.45-3.4A12.89,12.89,0,0,1,9,7.76c3.06-3.74,7.3-5,12.16-4S29,7.35,30.34,11.77c.28.94.48,1.9.74,2.91,6.36-3.61,15.5-6.76,23.6-6.73s16.88,3.12,23.24,6.73c.26-1,.46-2,.74-2.91C80,7.35,83.11,4.64,87.83,3.71S96.93,4,100,7.76a12.9,12.9,0,0,1-.35,16.39,48.31,48.31,0,0,1-3.45,3.4l-.6-.8c-.45-.6-.89-1.22-1.37-1.81a1.3,1.3,0,0,1,0-1.67,15.09,15.09,0,0,0,1.74-3.21,7.8,7.8,0,0,0,0-3.19,4.83,4.83,0,0,0-2-3.14c-1.43-.94-2.48-.6-3.74-.77a4.45,4.45,0,0,1,2.56-2.12,5.14,5.14,0,0,1,4.54.82l2.16,2c.07-.07.21-.15.19-.19-1-2.62-2.89-5-6.3-5.4-2.45-.27-4.34.87-6,2.39a21.54,21.54,0,0,0-4.21,6.23c5,3.17,7.24,8.14,9.75,12.92,1.37,2.6,2.63,5.26,4,7.87,1.48,2.86,3.16,5.58,6.26,7.63L98,46.48c2.93,3.42,5.5,7.09,4.83,11.93a2.48,2.48,0,0,1-.46,1.25,43.23,43.23,0,0,0-3.57-3.07c3,7-3.5,14-7.31,17.15a59,59,0,0,1-14.88,7.64A106.29,106.29,0,0,1,62.38,84.7a33.51,33.51,0,0,1-7.83,1l-.07,2.36a36.49,36.49,0,0,0,7.71-.47A118.53,118.53,0,0,0,75.31,85.1c7.45-1.91,14.46-4.75,20.24-9.75a25.24,25.24,0,0,0,6.16-7.62c.16-.32.31-.66.48-1,.32.41.58.75.85,1.08.61.76.72.79,1.29,0a18.3,18.3,0,0,0,3-14.16,44.6,44.6,0,0,0-1.8-5.94,33.42,33.42,0,0,0,2.77-2.23c1-1,.86-1.43-.21-2.33-1.41-1.18-2.85-2.34-4.17-3.6-2.74-2.6-4.11-5.92-5.37-8.77,1.33-1.41,2.57-2.57,3.63-3.87a17.43,17.43,0,0,0,4-14.12,14.22,14.22,0,0,0-7-10.42,16.54,16.54,0,0,0-11-2.15A16,16,0,0,0,78,5.3c-1.11,1.23-2,2.64-3,4a61.82,61.82,0,0,0-16-4.3,32.09,32.09,0,0,0-9.18,0,62,62,0,0,0-16,4.3c-1-1.33-1.86-2.74-3-4A16,16,0,0,0,20.79.17a16.54,16.54,0,0,0-11,2.15,14.19,14.19,0,0,0-7,10.42,17.43,17.43,0,0,0,4,14.12c1.06,1.3,2.29,2.46,3.63,3.87C9.16,33.58,7.79,36.9,5.05,39.5,3.73,40.76,2.29,41.92.88,43.1c-1.07.9-1.2,1.35-.21,2.33a35.07,35.07,0,0,0,2.76,2.23A46.08,46.08,0,0,0,1.64,53.6a18.3,18.3,0,0,0,3,14.16c.57.81.68.78,1.29,0,.27-.33.53-.67.85-1.08.17.37.31.71.48,1a25.09,25.09,0,0,0,6.16,7.62c5.78,5,12.79,7.84,20.24,9.75a118.09,118.09,0,0,0,13.12,2.49c2.69.38,7.67.47,7.67.47Z"/><path d="M43.9,83.61c-.34-.3-5.7-4.25-6-4.5s-.6-.53-.88-.81c-4.64-4.79-7.57-10.23-7.18-16.87a13.14,13.14,0,0,1,5.23-9.65c.76-.62,1.55-1.2,2.43-1.88a8.25,8.25,0,0,1-6.71-3.63,8.68,8.68,0,0,1-1.35-7.16c.85-3.83,4.44-7.54,8.48-6.79-3.55-3.88-7.68-5.34-11.87-1.19.57-3.15,3.76-6.52,7.26-6a12.85,12.85,0,0,1,4.08,1.49c3.12,1.68,5.3,4.3,7.53,6.86a29.59,29.59,0,0,0,3.24,3.29c1.11.93,1.9.62,2.27-.75.15-.55.23-1.12.35-1.73,1.88,2,.76,6.11-1.8,6.65a11.48,11.48,0,0,1-2.66-.09,9.63,9.63,0,0,1-2,6.45,7.57,7.57,0,0,1-3.13,2.35A8.9,8.9,0,0,0,39,50.86c-2.46,2-4.84,4.21-6,7.16a12.72,12.72,0,0,0,.91,11.12,28.51,28.51,0,0,0,7.91,9A57.31,57.31,0,0,0,47.48,82a15.54,15.54,0,0,0,7.37,1.83A14.73,14.73,0,0,0,62,82a58.63,58.63,0,0,0,5.74-3.85,28.6,28.6,0,0,0,7.9-9A12.72,12.72,0,0,0,76.54,58c-1.18-3-3.56-5.12-6-7.16a8.74,8.74,0,0,0-2.25-1.23,7.48,7.48,0,0,1-3.12-2.35,9.59,9.59,0,0,1-2-6.45,11.46,11.46,0,0,1-2.66.09c-2.56-.54-3.68-4.64-1.8-6.65.12.61.2,1.18.35,1.73.37,1.37,1.16,1.68,2.27.75a30.59,30.59,0,0,0,3.25-3.29c2.22-2.56,4.41-5.18,7.52-6.86a12.85,12.85,0,0,1,4.08-1.49c3.5-.5,6.69,2.87,7.26,6-4.19-4.15-8.32-2.69-11.87,1.19,4-.75,7.63,3,8.48,6.79a8.68,8.68,0,0,1-1.35,7.16A8.25,8.25,0,0,1,72,49.9c.88.68,1.67,1.26,2.43,1.88a13.14,13.14,0,0,1,5.23,9.65c.39,6.64-2.54,12.08-7.18,16.87-.27.28-.59.54-.88.81s-5.64,4.2-6,4.5c0,0-3.4,2.38-10.8,2.38C46.76,86,44.4,84,43.9,83.61Z"/><path class="cls-4" d="M69.11,47c.06.11.08.18.12.2a1.82,1.82,0,0,0,.31.16,5.73,5.73,0,0,0,5.36-.61c3.28-1.89,4.11-7.06,1.63-10.17a4.2,4.2,0,0,0-6-.62,4.4,4.4,0,0,1,3.83,4.13,6.67,6.67,0,0,1-1,4.6A5.62,5.62,0,0,1,69.11,47Z"/><path class="cls-4" d="M71.93,39.38a1.38,1.38,0,0,0-1.26-1.51,1.86,1.86,0,0,0-1.57,1.81,1.26,1.26,0,0,0,1.33,1.18A1.38,1.38,0,0,0,71.93,39.38Z"/><path class="cls-4" d="M36,44.73a6.63,6.63,0,0,1-1-4.6A4.41,4.41,0,0,1,38.86,36a4.21,4.21,0,0,0-6,.62c-2.48,3.11-1.65,8.28,1.63,10.17a5.73,5.73,0,0,0,5.36.61,1.82,1.82,0,0,0,.31-.16s.06-.09.12-.2A5.6,5.6,0,0,1,36,44.73Z"/><path class="cls-4" d="M39,40.86a1.26,1.26,0,0,0,1.33-1.18,1.86,1.86,0,0,0-1.57-1.81,1.51,1.51,0,0,0,.24,3Z"/></g></g></g></svg>