<svg xmlns="http://www.w3.org/2000/svg" viewBox="0 0 122.97 122.97"><defs><style>.cls-1{fill:#b45717;}.cls-2{fill:#903a14;}.cls-3{fill:#5f220c;}.cls-4{fill:#ffeace;}.cls-5{fill:#f08210;}.cls-6{fill:#d55314;}.cls-7{fill:#914018;}.cls-8{fill:none;}</style></defs><g id="Capa_2" data-name="Capa 2"><g id="Capa_1-2" data-name="Capa 1"><g id="oso"><polygon class="cls-1" points="23.84 23.65 38.18 34.79 58.37 31.67 66.54 31.99 84.48 35.88 102.08 25.2 98.33 21.93 90.19 22.87 85.44 26.26 82.19 30.47 63.17 26.37 41.52 30.23 35.39 22.87 27.75 21.58 23.84 23.65"/><path class="cls-2" d="M38.77,33.78c-4.76-10.68-17-10.33-17-10.33s-5.88,1.93-6.51,11.26c-.5,7.48,5.39,9.94,6.34,15.12.84,4.54-5.25,6.93-6.34,12-1.28,6,1,15.65,1.17,17.3,0,0,9.84,22.76,44.21,21.67S108.17,82.56,109,69c0,0,.45-4-3.33-11.37s-4-11.68-4-11.68,12.44-8.9,3.81-19.45c-13.46-7.34-21.13,6.56-21,7.36a70.67,70.67,0,0,0-23.15-4.29C50.49,29.56,40,33.39,38.77,33.78Z"/><path class="cls-1" d="M33.43,96.2s-11.85-16.13-13.35-22,2-12.07,2-12.07,1.76-16.88,7.18-21.4L14.55,61.5V73l1.63,6.31Z"/><path class="cls-3" d="M69.87,99.33s18.64-6.11,21.91-11.7c0,0,.25,2.34-.42,3.16S106.13,79.91,102,70.72A12.73,12.73,0,0,1,107.46,76c-.63,2.25-8.74,12.49-14.94,16.67C82.78,98.71,69.87,99.33,69.87,99.33Z"/><path class="cls-3" d="M95,32.29s3.17-5.79,8.69.7a12.82,12.82,0,0,1-3.6,12.25L97.66,43l1.83-5.84Z"/><path class="cls-3" d="M28.22,31.77s-3.17-5.79-8.69.69a12.84,12.84,0,0,0,3.6,12.26l2.4-2.27-1.84-5.84Z"/><ellipse class="cls-4" cx="78.96" cy="58.35" rx="6.26" ry="6.71"/><polygon class="cls-5" points="42.15 70.91 49.9 64.13 54.91 61.56 59.79 60.51 65.17 60.63 68.92 61.8 72.8 63.55 75.18 65.89 80.43 70.21 83.31 74.77 83.94 81.67 81.94 86.81 72.42 97.1 62.16 100.61 52.03 97.33 45.52 92.42 41.39 86.81 39.27 80.5 40.14 75 42.15 70.91"/><path class="cls-6" d="M54.57,96.63s13.31,3.53,20.58-6.21l-.54,3.42-5.83,4.45-6.54,1.76H57.82Z"/><polygon class="cls-4" points="49.94 83.58 55.03 84.12 62.37 82.72 69.38 84.04 74.72 82.41 74.14 84.9 70.55 87.4 65.21 88.95 60.12 89.27 54.78 88.17 52.03 86.54 49.94 83.58"/><path d="M62.24,90.42c10.93-.29,13.92-6.89,14.39-8.45l-1-.4s-2.93,6.58-13.31,6.69h-.15c-10.38-.11-13.31-6.69-13.31-6.69l-1,.4c.48,1.56,3.47,8.16,14.4,8.45Z"/><path d="M62.24,66.85c1.27,0,2.55,0,3.81.12a16.48,16.48,0,0,1,4.34.93c2.41.84,3.13,2.84,2,5a8.38,8.38,0,0,1-4.16,3.66c-1.54.69-3.1,1.35-4.67,2-.36.15-.5.25-.44.66a4.58,4.58,0,0,0,4,3.63A9.72,9.72,0,0,0,77.45,76.9c.17-.41.08-.65-.36-.75-.66-.17-1.33-.31-2-.46.51-.86,1.78-1.16,3.15-.77,1.69.5,3.25,2.06,3,3.84l-1.7-1.34c-.55,1-1,2-1.56,2.85a11.17,11.17,0,0,1-10.36,5,21.71,21.71,0,0,1-4.11-.83,5,5,0,0,0-1.17-.18h-.23a5,5,0,0,0-1.18.18,21.55,21.55,0,0,1-4.11.83,11.15,11.15,0,0,1-10.35-5A30.59,30.59,0,0,1,45,77.42l-1.7,1.34c-.24-1.78,1.32-3.34,3-3.84,1.36-.39,2.63-.09,3.14.77-.65.15-1.32.29-2,.46-.44.1-.52.34-.36.75a9.74,9.74,0,0,0,10.34,5.95,4.56,4.56,0,0,0,4-3.63c.06-.41-.07-.51-.43-.66-1.57-.65-3.14-1.31-4.68-2a8.38,8.38,0,0,1-4.16-3.66c-1.15-2.16-.43-4.16,2-5A16.48,16.48,0,0,1,58.47,67c1.26-.09,2.54-.13,3.81-.12Z"/><path class="cls-7" d="M62.45,72c1.22-.09,2.48-.36,3.7-.57,1.42-.24,3.47-1.33,3-1.38-2.31-.22-4.26-.58-6.54-.6,0,0-.35,0-.49,0a45.67,45.67,0,0,0-6.36.79c-.56.09,1.42.93,3.21,1.33C59.87,71.77,62.45,72,62.45,72Z"/><path d="M52.52,63.16l-.59.32a11.94,11.94,0,0,1,9.76-4.24c4.58.06,7.8,1.82,9.8,4.24l-.59-.32c-2.39-1.4-7.67-1.6-9.26-1.61S54.91,61.76,52.52,63.16Z"/><path d="M67.53,48.72c-.38-2.24,2.5-5.1,6.45-6.27C71.41,44.19,69,46,67.53,48.72Z"/><path d="M56.93,48.72c.37-2.24-2.5-5.1-6.45-6.27C53.05,44.19,55.44,46,56.93,48.72Z"/><path d="M61.53,100.57c-2.27.05-11.5-1.6-18.26-3.35S28.73,91,26.82,89.34C23,86.11,17.13,79.85,20,73.25a39.77,39.77,0,0,0-3.35,2.88A2.33,2.33,0,0,1,16.17,75c-.63-4.54,1.78-8,4.53-11.19l-4.84-1.25a17.46,17.46,0,0,0,5.87-7.16c1.27-2.45,2.45-5,3.74-7.39,2.36-4.49,4.47-9.15,9.15-12.13A20.25,20.25,0,0,0,30.67,30a7,7,0,0,0-5.62-2.24c-3.2.35-5,2.61-5.92,5.08,0,0,.12.11.19.17l2-1.92a4.84,4.84,0,0,1,4.26-.76,4.23,4.23,0,0,1,2.41,2c-1.19.17-2.17-.16-3.52.72a4.64,4.64,0,0,0-1.91,3,7.35,7.35,0,0,0,0,3,14.15,14.15,0,0,0,1.63,3,1.22,1.22,0,0,1,0,1.56c-.46.55-.87,1.13-1.3,1.7l-.56.75c-1.11-1.09-2.29-2.06-3.23-3.19a12.09,12.09,0,0,1-.33-15.39c2.87-3.5,6.85-4.69,11.41-3.8s7.37,3.42,8.61,7.56c.26.89.45,1.79.69,2.74,6-3.38,14.55-6.35,22.15-6.32s15.85,2.94,21.82,6.32c.24-.95.43-1.85.69-2.74,1.23-4.14,4.17-6.68,8.61-7.56s8.53.3,11.41,3.8a12.11,12.11,0,0,1-.33,15.39c-.95,1.13-2.12,2.1-3.23,3.19l-.57-.75c-.43-.57-.84-1.15-1.29-1.7a1.21,1.21,0,0,1,0-1.56,15.1,15.1,0,0,0,1.63-3,7.35,7.35,0,0,0,0-3,4.56,4.56,0,0,0-1.91-3c-1.34-.88-2.33-.55-3.51-.72a4.2,4.2,0,0,1,2.4-2,4.85,4.85,0,0,1,4.27.76l2,1.92c.07-.06.2-.14.18-.17-.93-2.47-2.71-4.73-5.91-5.08A7,7,0,0,0,92.29,30a20.66,20.66,0,0,0-4,5.85c4.69,3,6.8,7.64,9.16,12.13,1.29,2.44,2.47,4.94,3.73,7.39a17.56,17.56,0,0,0,5.88,7.16l-4.84,1.25C105,67,107.43,70.41,106.8,75a2.45,2.45,0,0,1-.43,1.18A38.78,38.78,0,0,0,103,73.25c2.83,6.6-3.28,13.13-6.86,16.09a55,55,0,0,1-14,7.17,99.24,99.24,0,0,1-13.3,3.12,31.6,31.6,0,0,1-7.35.94l-.06,2.22a35.31,35.31,0,0,0,7.23-.44A111.51,111.51,0,0,0,81,100c7-1.79,13.57-4.45,19-9.14a23.91,23.91,0,0,0,5.78-7.15c.16-.31.29-.63.45-1,.31.38.55.7.8,1,.57.71.67.74,1.21,0a17.22,17.22,0,0,0,2.85-13.29,42,42,0,0,0-1.69-5.57,29.83,29.83,0,0,0,2.59-2.1c.93-.92.81-1.34-.19-2.18-1.33-1.11-2.67-2.2-3.92-3.39-2.56-2.43-3.85-5.55-5-8.23,1.25-1.32,2.41-2.41,3.4-3.63A16.32,16.32,0,0,0,110,32.09a13.3,13.3,0,0,0-6.59-9.78,15.51,15.51,0,0,0-10.33-2,15,15,0,0,0-9.55,4.82c-1,1.15-1.86,2.48-2.78,3.72a58.64,58.64,0,0,0-15-4,30.29,30.29,0,0,0-8.61,0,58.53,58.53,0,0,0-15,4c-.92-1.24-1.75-2.57-2.79-3.72a15,15,0,0,0-9.55-4.82,15.53,15.53,0,0,0-10.33,2,13.32,13.32,0,0,0-6.59,9.78A16.36,16.36,0,0,0,16.7,45.34c1,1.22,2.16,2.31,3.41,3.63-1.18,2.68-2.47,5.8-5,8.23-1.24,1.19-2.59,2.28-3.91,3.39-1,.84-1.13,1.26-.2,2.18a31.42,31.42,0,0,0,2.59,2.1,42,42,0,0,0-1.68,5.57,17.18,17.18,0,0,0,2.84,13.29c.54.76.64.73,1.22,0l.79-1c.16.34.3.66.45,1A24.06,24.06,0,0,0,23,90.86c5.43,4.69,12,7.35,19,9.14a111.07,111.07,0,0,0,12.32,2.35c2.52.35,7.2.44,7.2.44Z"/><path d="M51.53,98.6c-.31-.27-5.35-4-5.6-4.21s-.57-.5-.84-.77c-4.34-4.5-7.1-9.6-6.73-15.83a12.36,12.36,0,0,1,4.91-9.06c.71-.58,1.45-1.12,2.28-1.76a7.79,7.79,0,0,1-6.3-3.41A8.15,8.15,0,0,1,38,56.84c.8-3.6,4.17-7.08,8-6.37-3.33-3.64-7.21-5-11.14-1.12.54-3,3.53-6.12,6.82-5.65a11.81,11.81,0,0,1,3.82,1.4c2.93,1.57,5,4,7.07,6.44a28.51,28.51,0,0,0,3,3.08c1,.88,1.78.58,2.13-.7.14-.52.22-1.05.33-1.63,1.77,1.89.72,5.74-1.69,6.24a10.12,10.12,0,0,1-2.5-.08,9,9,0,0,1-1.89,6A7,7,0,0,1,49,66.71a8.59,8.59,0,0,0-2.11,1.15c-2.31,1.93-4.55,4-5.65,6.73A11.92,11.92,0,0,0,42.1,85a26.77,26.77,0,0,0,7.41,8.5,54.43,54.43,0,0,0,5.39,3.61,14.46,14.46,0,0,0,6.91,1.72,13.72,13.72,0,0,0,6.7-1.72,54.43,54.43,0,0,0,5.39-3.61A26.77,26.77,0,0,0,81.31,85a11.92,11.92,0,0,0,.86-10.43c-1.1-2.77-3.34-4.8-5.65-6.73a8.59,8.59,0,0,0-2.11-1.15,7,7,0,0,1-2.93-2.21,9,9,0,0,1-1.9-6,10,10,0,0,1-2.49.08c-2.41-.5-3.46-4.35-1.69-6.24.11.58.19,1.11.33,1.63.35,1.28,1.09,1.58,2.13.7a28.51,28.51,0,0,0,3-3.08C73,49.13,75,46.67,78,45.1a11.81,11.81,0,0,1,3.82-1.4c3.29-.47,6.28,2.69,6.82,5.65-3.93-3.9-7.81-2.52-11.14,1.12,3.79-.71,7.16,2.77,8,6.37a8.15,8.15,0,0,1-1.27,6.72A7.79,7.79,0,0,1,77.86,67c.83.64,1.57,1.18,2.28,1.76a12.36,12.36,0,0,1,4.91,9.06c.36,6.23-2.39,11.33-6.73,15.83-.27.27-.56.51-.84.77s-5.29,3.94-5.6,4.21c0,0-3.19,2.24-10.13,2.24C54.22,100.84,52,98.92,51.53,98.6Z"/><path class="cls-4" d="M75.19,64.28c.07.11.08.17.12.19a1.59,1.59,0,0,0,.29.15,5.41,5.41,0,0,0,5-.57c3.08-1.78,3.86-6.62,1.53-9.54a3.94,3.94,0,0,0-5.6-.59,4.14,4.14,0,0,1,3.6,3.87,6.25,6.25,0,0,1-1,4.33A5.25,5.25,0,0,1,75.19,64.28Z"/><path class="cls-4" d="M77.85,57.09a1.3,1.3,0,0,0-1.19-1.41,1.74,1.74,0,0,0-1.47,1.69,1.17,1.17,0,0,0,1.25,1.11A1.29,1.29,0,0,0,77.85,57.09Z"/><path class="cls-4" d="M44.15,62.12a6.3,6.3,0,0,1-.95-4.33,4.14,4.14,0,0,1,3.6-3.87,3.93,3.93,0,0,0-5.59.59c-2.34,2.92-1.56,7.76,1.52,9.54a5.43,5.43,0,0,0,5,.57,1.91,1.91,0,0,0,.28-.15s.06-.08.12-.19A5.25,5.25,0,0,1,44.15,62.12Z"/><path class="cls-4" d="M46.93,58.48a1.17,1.17,0,0,0,1.24-1.11,1.74,1.74,0,0,0-1.47-1.69,1.41,1.41,0,0,0,.23,2.8Z"/></g><circle class="cls-8" cx="61.48" cy="61.48" r="61.48"/></g></g></svg>